<?xml version="1.0" encoding="utf-8" standalone="no"?>
<!DOCTYPE svg PUBLIC "-//W3C//DTD SVG 1.1//EN"
  "http://www.w3.org/Graphics/SVG/1.1/DTD/svg11.dtd">
<svg xmlns:xlink="http://www.w3.org/1999/xlink" width="720pt" height="432pt" viewBox="0 0 720 432" xmlns="http://www.w3.org/2000/svg" version="1.1">
 <metadata>
  <rdf:RDF xmlns:dc="http://purl.org/dc/elements/1.1/" xmlns:cc="http://creativecommons.org/ns#" xmlns:rdf="http://www.w3.org/1999/02/22-rdf-syntax-ns#">
   <cc:Work>
    <dc:type rdf:resource="http://purl.org/dc/dcmitype/StillImage"/>
    <dc:date>2024-05-05T00:40:53.119978</dc:date>
    <dc:format>image/svg+xml</dc:format>
    <dc:creator>
     <cc:Agent>
      <dc:title>Matplotlib v3.8.4, https://matplotlib.org/</dc:title>
     </cc:Agent>
    </dc:creator>
   </cc:Work>
  </rdf:RDF>
 </metadata>
 <defs>
  <style type="text/css">*{stroke-linejoin: round; stroke-linecap: butt}</style>
 </defs>
 <g id="figure_1">
  <g id="patch_1">
   <path d="M 0 432 
L 720 432 
L 720 0 
L 0 0 
z
" style="fill: #ffffff"/>
  </g>
  <g id="axes_1">
   <g id="patch_2">
    <path d="M 90 149.675294 
L 648 149.675294 
L 648 51.84 
L 90 51.84 
z
" style="fill: #ffffff"/>
   </g>
   <g id="matplotlib.axis_1">
    <g id="xtick_1">
     <g id="line2d_1">
      <defs>
       <path id="m9a55616266" d="M 0 0 
L 0 3.5 
" style="stroke: #000000; stroke-width: 0.8"/>
      </defs>
      <g>
       <use xlink:href="#m9a55616266" x="171.599803" y="149.675294" style="stroke: #000000; stroke-width: 0.8"/>
      </g>
     </g>
     <g id="text_1">
      <!-- 2100 -->
      <g transform="translate(158.874803 164.273732) scale(0.1 -0.1)">
       <defs>
        <path id="DejaVuSans-32" d="M 1228 531 
L 3431 531 
L 3431 0 
L 469 0 
L 469 531 
Q 828 903 1448 1529 
Q 2069 2156 2228 2338 
Q 2531 2678 2651 2914 
Q 2772 3150 2772 3378 
Q 2772 3750 2511 3984 
Q 2250 4219 1831 4219 
Q 1534 4219 1204 4116 
Q 875 4013 500 3803 
L 500 4441 
Q 881 4594 1212 4672 
Q 1544 4750 1819 4750 
Q 2544 4750 2975 4387 
Q 3406 4025 3406 3419 
Q 3406 3131 3298 2873 
Q 3191 2616 2906 2266 
Q 2828 2175 2409 1742 
Q 1991 1309 1228 531 
z
" transform="scale(0.015625)"/>
        <path id="DejaVuSans-31" d="M 794 531 
L 1825 531 
L 1825 4091 
L 703 3866 
L 703 4441 
L 1819 4666 
L 2450 4666 
L 2450 531 
L 3481 531 
L 3481 0 
L 794 0 
L 794 531 
z
" transform="scale(0.015625)"/>
        <path id="DejaVuSans-30" d="M 2034 4250 
Q 1547 4250 1301 3770 
Q 1056 3291 1056 2328 
Q 1056 1369 1301 889 
Q 1547 409 2034 409 
Q 2525 409 2770 889 
Q 3016 1369 3016 2328 
Q 3016 3291 2770 3770 
Q 2525 4250 2034 4250 
z
M 2034 4750 
Q 2819 4750 3233 4129 
Q 3647 3509 3647 2328 
Q 3647 1150 3233 529 
Q 2819 -91 2034 -91 
Q 1250 -91 836 529 
Q 422 1150 422 2328 
Q 422 3509 836 4129 
Q 1250 4750 2034 4750 
z
" transform="scale(0.015625)"/>
       </defs>
       <use xlink:href="#DejaVuSans-32"/>
       <use xlink:href="#DejaVuSans-31" x="63.623047"/>
       <use xlink:href="#DejaVuSans-30" x="127.246094"/>
       <use xlink:href="#DejaVuSans-30" x="190.869141"/>
      </g>
     </g>
    </g>
    <g id="xtick_2">
     <g id="line2d_2">
      <g>
       <use xlink:href="#m9a55616266" x="255.334666" y="149.675294" style="stroke: #000000; stroke-width: 0.8"/>
      </g>
     </g>
     <g id="text_2">
      <!-- 2200 -->
      <g transform="translate(242.609666 164.273732) scale(0.1 -0.1)">
       <use xlink:href="#DejaVuSans-32"/>
       <use xlink:href="#DejaVuSans-32" x="63.623047"/>
       <use xlink:href="#DejaVuSans-30" x="127.246094"/>
       <use xlink:href="#DejaVuSans-30" x="190.869141"/>
      </g>
     </g>
    </g>
    <g id="xtick_3">
     <g id="line2d_3">
      <g>
       <use xlink:href="#m9a55616266" x="339.069528" y="149.675294" style="stroke: #000000; stroke-width: 0.8"/>
      </g>
     </g>
     <g id="text_3">
      <!-- 2300 -->
      <g transform="translate(326.344528 164.273732) scale(0.1 -0.1)">
       <defs>
        <path id="DejaVuSans-33" d="M 2597 2516 
Q 3050 2419 3304 2112 
Q 3559 1806 3559 1356 
Q 3559 666 3084 287 
Q 2609 -91 1734 -91 
Q 1441 -91 1130 -33 
Q 819 25 488 141 
L 488 750 
Q 750 597 1062 519 
Q 1375 441 1716 441 
Q 2309 441 2620 675 
Q 2931 909 2931 1356 
Q 2931 1769 2642 2001 
Q 2353 2234 1838 2234 
L 1294 2234 
L 1294 2753 
L 1863 2753 
Q 2328 2753 2575 2939 
Q 2822 3125 2822 3475 
Q 2822 3834 2567 4026 
Q 2313 4219 1838 4219 
Q 1578 4219 1281 4162 
Q 984 4106 628 3988 
L 628 4550 
Q 988 4650 1302 4700 
Q 1616 4750 1894 4750 
Q 2613 4750 3031 4423 
Q 3450 4097 3450 3541 
Q 3450 3153 3228 2886 
Q 3006 2619 2597 2516 
z
" transform="scale(0.015625)"/>
       </defs>
       <use xlink:href="#DejaVuSans-32"/>
       <use xlink:href="#DejaVuSans-33" x="63.623047"/>
       <use xlink:href="#DejaVuSans-30" x="127.246094"/>
       <use xlink:href="#DejaVuSans-30" x="190.869141"/>
      </g>
     </g>
    </g>
    <g id="xtick_4">
     <g id="line2d_4">
      <g>
       <use xlink:href="#m9a55616266" x="422.804391" y="149.675294" style="stroke: #000000; stroke-width: 0.8"/>
      </g>
     </g>
     <g id="text_4">
      <!-- 2400 -->
      <g transform="translate(410.079391 164.273732) scale(0.1 -0.1)">
       <defs>
        <path id="DejaVuSans-34" d="M 2419 4116 
L 825 1625 
L 2419 1625 
L 2419 4116 
z
M 2253 4666 
L 3047 4666 
L 3047 1625 
L 3713 1625 
L 3713 1100 
L 3047 1100 
L 3047 0 
L 2419 0 
L 2419 1100 
L 313 1100 
L 313 1709 
L 2253 4666 
z
" transform="scale(0.015625)"/>
       </defs>
       <use xlink:href="#DejaVuSans-32"/>
       <use xlink:href="#DejaVuSans-34" x="63.623047"/>
       <use xlink:href="#DejaVuSans-30" x="127.246094"/>
       <use xlink:href="#DejaVuSans-30" x="190.869141"/>
      </g>
     </g>
    </g>
    <g id="xtick_5">
     <g id="line2d_5">
      <g>
       <use xlink:href="#m9a55616266" x="506.539253" y="149.675294" style="stroke: #000000; stroke-width: 0.8"/>
      </g>
     </g>
     <g id="text_5">
      <!-- 2500 -->
      <g transform="translate(493.814253 164.273732) scale(0.1 -0.1)">
       <defs>
        <path id="DejaVuSans-35" d="M 691 4666 
L 3169 4666 
L 3169 4134 
L 1269 4134 
L 1269 2991 
Q 1406 3038 1543 3061 
Q 1681 3084 1819 3084 
Q 2600 3084 3056 2656 
Q 3513 2228 3513 1497 
Q 3513 744 3044 326 
Q 2575 -91 1722 -91 
Q 1428 -91 1123 -41 
Q 819 9 494 109 
L 494 744 
Q 775 591 1075 516 
Q 1375 441 1709 441 
Q 2250 441 2565 725 
Q 2881 1009 2881 1497 
Q 2881 1984 2565 2268 
Q 2250 2553 1709 2553 
Q 1456 2553 1204 2497 
Q 953 2441 691 2322 
L 691 4666 
z
" transform="scale(0.015625)"/>
       </defs>
       <use xlink:href="#DejaVuSans-32"/>
       <use xlink:href="#DejaVuSans-35" x="63.623047"/>
       <use xlink:href="#DejaVuSans-30" x="127.246094"/>
       <use xlink:href="#DejaVuSans-30" x="190.869141"/>
      </g>
     </g>
    </g>
    <g id="xtick_6">
     <g id="line2d_6">
      <g>
       <use xlink:href="#m9a55616266" x="590.274116" y="149.675294" style="stroke: #000000; stroke-width: 0.8"/>
      </g>
     </g>
     <g id="text_6">
      <!-- 2600 -->
      <g transform="translate(577.549116 164.273732) scale(0.1 -0.1)">
       <defs>
        <path id="DejaVuSans-36" d="M 2113 2584 
Q 1688 2584 1439 2293 
Q 1191 2003 1191 1497 
Q 1191 994 1439 701 
Q 1688 409 2113 409 
Q 2538 409 2786 701 
Q 3034 994 3034 1497 
Q 3034 2003 2786 2293 
Q 2538 2584 2113 2584 
z
M 3366 4563 
L 3366 3988 
Q 3128 4100 2886 4159 
Q 2644 4219 2406 4219 
Q 1781 4219 1451 3797 
Q 1122 3375 1075 2522 
Q 1259 2794 1537 2939 
Q 1816 3084 2150 3084 
Q 2853 3084 3261 2657 
Q 3669 2231 3669 1497 
Q 3669 778 3244 343 
Q 2819 -91 2113 -91 
Q 1303 -91 875 529 
Q 447 1150 447 2328 
Q 447 3434 972 4092 
Q 1497 4750 2381 4750 
Q 2619 4750 2861 4703 
Q 3103 4656 3366 4563 
z
" transform="scale(0.015625)"/>
       </defs>
       <use xlink:href="#DejaVuSans-32"/>
       <use xlink:href="#DejaVuSans-36" x="63.623047"/>
       <use xlink:href="#DejaVuSans-30" x="127.246094"/>
       <use xlink:href="#DejaVuSans-30" x="190.869141"/>
      </g>
     </g>
    </g>
   </g>
   <g id="matplotlib.axis_2">
    <g id="ytick_1">
     <g id="line2d_7">
      <defs>
       <path id="mdbe1e7c498" d="M 0 0 
L -3.5 0 
" style="stroke: #000000; stroke-width: 0.8"/>
      </defs>
      <g>
       <use xlink:href="#mdbe1e7c498" x="90" y="135.698824" style="stroke: #000000; stroke-width: 0.8"/>
      </g>
     </g>
     <g id="text_7">
      <!-- 0 -->
      <g transform="translate(76.6375 139.498042) scale(0.1 -0.1)">
       <use xlink:href="#DejaVuSans-30"/>
      </g>
     </g>
    </g>
    <g id="ytick_2">
     <g id="line2d_8">
      <g>
       <use xlink:href="#mdbe1e7c498" x="90" y="107.745882" style="stroke: #000000; stroke-width: 0.8"/>
      </g>
     </g>
     <g id="text_8">
      <!-- 10 -->
      <g transform="translate(70.275 111.545101) scale(0.1 -0.1)">
       <use xlink:href="#DejaVuSans-31"/>
       <use xlink:href="#DejaVuSans-30" x="63.623047"/>
      </g>
     </g>
    </g>
    <g id="ytick_3">
     <g id="line2d_9">
      <g>
       <use xlink:href="#mdbe1e7c498" x="90" y="79.792941" style="stroke: #000000; stroke-width: 0.8"/>
      </g>
     </g>
     <g id="text_9">
      <!-- 20 -->
      <g transform="translate(70.275 83.59216) scale(0.1 -0.1)">
       <use xlink:href="#DejaVuSans-32"/>
       <use xlink:href="#DejaVuSans-30" x="63.623047"/>
      </g>
     </g>
    </g>
    <g id="ytick_4">
     <g id="line2d_10">
      <g>
       <use xlink:href="#mdbe1e7c498" x="90" y="51.84" style="stroke: #000000; stroke-width: 0.8"/>
      </g>
     </g>
     <g id="text_10">
      <!-- 30 -->
      <g transform="translate(70.275 55.639219) scale(0.1 -0.1)">
       <use xlink:href="#DejaVuSans-33"/>
       <use xlink:href="#DejaVuSans-30" x="63.623047"/>
      </g>
     </g>
    </g>
    <g id="text_11">
     <!-- Delta X -->
     <g transform="translate(63.363438 126.453116) rotate(-90) scale(0.14 -0.14)">
      <defs>
       <path id="DejaVuSans-44" d="M 1259 4147 
L 1259 519 
L 2022 519 
Q 2988 519 3436 956 
Q 3884 1394 3884 2338 
Q 3884 3275 3436 3711 
Q 2988 4147 2022 4147 
L 1259 4147 
z
M 628 4666 
L 1925 4666 
Q 3281 4666 3915 4102 
Q 4550 3538 4550 2338 
Q 4550 1131 3912 565 
Q 3275 0 1925 0 
L 628 0 
L 628 4666 
z
" transform="scale(0.015625)"/>
       <path id="DejaVuSans-65" d="M 3597 1894 
L 3597 1613 
L 953 1613 
Q 991 1019 1311 708 
Q 1631 397 2203 397 
Q 2534 397 2845 478 
Q 3156 559 3463 722 
L 3463 178 
Q 3153 47 2828 -22 
Q 2503 -91 2169 -91 
Q 1331 -91 842 396 
Q 353 884 353 1716 
Q 353 2575 817 3079 
Q 1281 3584 2069 3584 
Q 2775 3584 3186 3129 
Q 3597 2675 3597 1894 
z
M 3022 2063 
Q 3016 2534 2758 2815 
Q 2500 3097 2075 3097 
Q 1594 3097 1305 2825 
Q 1016 2553 972 2059 
L 3022 2063 
z
" transform="scale(0.015625)"/>
       <path id="DejaVuSans-6c" d="M 603 4863 
L 1178 4863 
L 1178 0 
L 603 0 
L 603 4863 
z
" transform="scale(0.015625)"/>
       <path id="DejaVuSans-74" d="M 1172 4494 
L 1172 3500 
L 2356 3500 
L 2356 3053 
L 1172 3053 
L 1172 1153 
Q 1172 725 1289 603 
Q 1406 481 1766 481 
L 2356 481 
L 2356 0 
L 1766 0 
Q 1100 0 847 248 
Q 594 497 594 1153 
L 594 3053 
L 172 3053 
L 172 3500 
L 594 3500 
L 594 4494 
L 1172 4494 
z
" transform="scale(0.015625)"/>
       <path id="DejaVuSans-61" d="M 2194 1759 
Q 1497 1759 1228 1600 
Q 959 1441 959 1056 
Q 959 750 1161 570 
Q 1363 391 1709 391 
Q 2188 391 2477 730 
Q 2766 1069 2766 1631 
L 2766 1759 
L 2194 1759 
z
M 3341 1997 
L 3341 0 
L 2766 0 
L 2766 531 
Q 2569 213 2275 61 
Q 1981 -91 1556 -91 
Q 1019 -91 701 211 
Q 384 513 384 1019 
Q 384 1609 779 1909 
Q 1175 2209 1959 2209 
L 2766 2209 
L 2766 2266 
Q 2766 2663 2505 2880 
Q 2244 3097 1772 3097 
Q 1472 3097 1187 3025 
Q 903 2953 641 2809 
L 641 3341 
Q 956 3463 1253 3523 
Q 1550 3584 1831 3584 
Q 2591 3584 2966 3190 
Q 3341 2797 3341 1997 
z
" transform="scale(0.015625)"/>
       <path id="DejaVuSans-20" transform="scale(0.015625)"/>
       <path id="DejaVuSans-58" d="M 403 4666 
L 1081 4666 
L 2241 2931 
L 3406 4666 
L 4084 4666 
L 2584 2425 
L 4184 0 
L 3506 0 
L 2194 1984 
L 872 0 
L 191 0 
L 1856 2491 
L 403 4666 
z
" transform="scale(0.015625)"/>
      </defs>
      <use xlink:href="#DejaVuSans-44"/>
      <use xlink:href="#DejaVuSans-65" x="77.001953"/>
      <use xlink:href="#DejaVuSans-6c" x="138.525391"/>
      <use xlink:href="#DejaVuSans-74" x="166.308594"/>
      <use xlink:href="#DejaVuSans-61" x="205.517578"/>
      <use xlink:href="#DejaVuSans-20" x="266.796875"/>
      <use xlink:href="#DejaVuSans-58" x="298.583984"/>
     </g>
    </g>
   </g>
   <g id="line2d_11">
    <path d="M 90 135.540032 
L 90.8429 134.649162 
L 92.528701 134.230606 
L 93.371601 132.654089 
L 94.214502 134.920643 
L 95.057402 133.265189 
L 95.900302 133.689032 
L 96.743202 134.807582 
L 97.586103 132.548066 
L 98.429003 131.813114 
L 99.271903 133.548707 
L 100.114804 134.841764 
L 100.957704 135.515773 
L 102.643505 134.008103 
L 103.486405 129.840516 
L 104.329305 133.977053 
L 105.172205 135.422543 
L 106.015106 132.878988 
L 106.858006 132.650149 
L 107.700906 134.122123 
L 109.386707 129.401775 
L 110.229607 133.295957 
L 111.072508 133.453524 
L 111.915408 135.125967 
L 112.758308 133.645484 
L 113.601208 135.078145 
L 114.444109 135.647827 
L 115.287009 133.738561 
L 116.129909 133.915223 
L 116.97281 133.013017 
L 117.81571 135.416609 
L 118.65861 134.853989 
L 119.501511 134.731544 
L 120.344411 130.986 
L 121.187311 127.814427 
L 122.030211 125.184401 
L 122.873112 123.205719 
L 123.716012 131.467327 
L 124.558912 135.560063 
L 125.401813 135.429567 
L 126.244713 133.665397 
L 127.087613 130.106582 
L 127.930514 130.259102 
L 128.773414 135.010215 
L 129.616314 134.727277 
L 130.459215 134.139989 
L 131.302115 134.825728 
L 132.145015 129.148151 
L 132.987915 132.350815 
L 133.830816 131.775305 
L 134.673716 135.136527 
L 135.516616 133.003061 
L 136.359517 134.727573 
L 137.202417 129.536096 
L 138.045317 133.637913 
L 138.888218 132.426963 
L 139.731118 132.441239 
L 140.574018 135.152492 
L 141.416918 135.252172 
L 142.259819 134.265764 
L 143.102719 134.388966 
L 143.945619 129.765265 
L 144.78852 129.728072 
L 145.63142 135.443432 
L 146.47432 133.017184 
L 147.317221 135.258428 
L 148.160121 131.202623 
L 149.003021 125.182822 
L 149.845921 126.816201 
L 150.688822 131.205328 
L 151.531722 131.851954 
L 152.374622 131.278597 
L 153.217523 134.679572 
L 154.060423 133.996639 
L 154.903323 134.324266 
L 155.746224 133.027733 
L 156.589124 135.198188 
L 157.432024 133.135254 
L 158.274924 133.646402 
L 159.117825 131.931712 
L 159.960725 133.475309 
L 160.803625 134.675467 
L 161.646526 135.383883 
L 162.489426 135.589105 
L 163.332326 133.531451 
L 164.175227 133.141124 
L 165.018127 134.626121 
L 165.861027 134.672027 
L 166.703927 133.083657 
L 167.546828 134.185666 
L 168.389728 134.564951 
L 169.232628 132.077038 
L 170.075529 129.135562 
L 170.918429 133.285538 
L 171.761329 131.38308 
L 172.60423 132.852932 
L 173.44713 132.689277 
L 174.29003 134.399601 
L 175.132931 132.232921 
L 175.975831 133.032361 
L 176.818731 131.00686 
L 177.661631 133.435593 
L 178.504532 134.909495 
L 179.347432 133.289996 
L 180.190332 133.813278 
L 181.033233 133.61524 
L 181.876133 132.319909 
L 182.719033 134.719345 
L 183.561934 131.460962 
L 184.404834 134.822119 
L 185.247734 131.237337 
L 186.090634 133.363756 
L 186.933535 133.326731 
L 187.776435 129.471282 
L 189.462236 133.861556 
L 190.305136 129.033455 
L 191.148036 127.96882 
L 191.990937 131.118719 
L 192.833837 132.058284 
L 193.676737 131.398713 
L 194.519637 128.976829 
L 195.362538 130.338028 
L 196.205438 126.716173 
L 197.048338 128.780211 
L 197.891239 123.978141 
L 198.734139 131.643684 
L 199.577039 133.77361 
L 200.41994 131.226652 
L 201.26284 126.516509 
L 202.10574 131.777087 
L 202.94864 129.087809 
L 203.791541 131.664519 
L 204.634441 135.598915 
L 205.477341 133.197392 
L 206.320242 131.61786 
L 207.163142 129.792254 
L 208.006042 133.887094 
L 208.848943 133.657361 
L 209.691843 132.662311 
L 210.534743 134.855482 
L 211.377644 132.869942 
L 212.220544 132.669646 
L 213.063444 134.885482 
L 213.906344 135.180475 
L 214.749245 129.969424 
L 215.592145 133.539499 
L 216.435045 133.316223 
L 217.277946 135.082415 
L 218.120846 130.41866 
L 218.963746 132.166757 
L 219.806647 134.875327 
L 220.649547 135.454187 
L 221.492447 133.647258 
L 222.335347 134.114825 
L 223.178248 132.058788 
L 224.864048 132.977641 
L 225.706949 130.752719 
L 226.549849 130.915194 
L 227.392749 134.454446 
L 228.23565 132.811281 
L 229.07855 133.846472 
L 229.92145 131.806447 
L 230.76435 135.132367 
L 231.607251 134.689195 
L 232.450151 134.957213 
L 233.293051 128.749685 
L 234.135952 131.72868 
L 234.978852 135.449394 
L 235.821752 130.139138 
L 236.664653 129.754309 
L 237.507553 132.260101 
L 238.350453 135.438138 
L 239.193353 135.088204 
L 240.036254 133.575575 
L 240.879154 134.828485 
L 241.722054 134.249891 
L 242.564955 135.235999 
L 243.407855 131.652428 
L 244.250755 135.081556 
L 245.093656 133.805929 
L 245.936556 133.965089 
L 246.779456 135.46381 
L 247.622356 134.930331 
L 248.465257 129.527855 
L 249.308157 131.568804 
L 250.151057 128.444019 
L 250.993958 132.832063 
L 251.836858 130.791255 
L 252.679758 133.393084 
L 253.522659 132.65478 
L 254.365559 131.681437 
L 255.208459 135.636713 
L 256.05136 132.13372 
L 256.89426 132.392362 
L 257.73716 132.501339 
L 258.58006 127.658051 
L 259.422961 132.510609 
L 260.265861 134.688421 
L 261.951662 127.65936 
L 262.794562 133.690855 
L 263.637462 134.400615 
L 264.480363 131.915947 
L 265.323263 134.545244 
L 266.166163 133.402559 
L 267.009063 131.278695 
L 267.851964 125.59326 
L 268.694864 132.053633 
L 269.537764 125.036357 
L 270.380665 132.927895 
L 271.223565 135.304976 
L 272.066465 135.557675 
L 273.752266 129.236937 
L 274.595166 130.666855 
L 275.438066 132.98475 
L 276.280967 127.976502 
L 277.123867 134.439773 
L 277.966767 135.010535 
L 278.809668 123.37746 
L 279.652568 119.121548 
L 280.495468 125.544344 
L 281.338369 128.670643 
L 282.181269 134.124686 
L 283.024169 132.239428 
L 283.867069 134.370771 
L 284.70997 135.362177 
L 285.55287 134.139968 
L 286.39577 125.845598 
L 287.238671 134.006619 
L 288.081571 131.0802 
L 288.924471 131.305953 
L 289.767372 131.973869 
L 290.610272 133.184683 
L 291.453172 132.467543 
L 293.138973 129.358184 
L 293.981873 132.195616 
L 294.824773 131.256296 
L 295.667674 130.731829 
L 296.510574 134.83694 
L 297.353474 129.285555 
L 298.196375 134.620944 
L 299.039275 126.46293 
L 299.882175 135.61635 
L 300.725076 131.429948 
L 301.567976 131.772935 
L 302.410876 132.503952 
L 303.253776 124.086287 
L 304.096677 126.498233 
L 304.939577 124.736683 
L 305.782477 132.457545 
L 306.625378 131.492255 
L 307.468278 129.427677 
L 308.311178 131.639287 
L 309.154079 135.406609 
L 309.996979 130.897897 
L 310.839879 130.32023 
L 311.682779 133.597867 
L 312.52568 133.24509 
L 313.36858 134.991563 
L 314.21148 132.280248 
L 315.054381 133.116365 
L 315.897281 131.973748 
L 316.740181 131.24482 
L 317.583082 133.742289 
L 318.425982 135.423975 
L 320.111782 133.966787 
L 320.954683 134.454389 
L 321.797583 130.45491 
L 322.640483 133.440303 
L 323.483384 134.649672 
L 324.326284 134.61503 
L 325.169184 134.037546 
L 326.012085 132.664587 
L 326.854985 127.809465 
L 327.697885 130.335991 
L 328.540785 132.410296 
L 329.383686 135.567905 
L 330.226586 135.545454 
L 331.069486 135.303393 
L 331.912387 135.249202 
L 332.755287 134.488877 
L 333.598187 135.68092 
L 334.441088 135.096026 
L 335.283988 135.645412 
L 336.126888 135.235311 
L 336.969789 135.463159 
L 337.812689 135.071729 
L 338.655589 134.538093 
L 339.498489 130.980243 
L 340.34139 131.582274 
L 341.18429 134.139249 
L 342.02719 134.47991 
L 342.870091 135.114138 
L 343.712991 133.377654 
L 344.555891 135.088654 
L 345.398792 132.666341 
L 346.241692 134.130423 
L 347.084592 133.058444 
L 347.927492 134.296502 
L 348.770393 133.583996 
L 349.613293 135.043203 
L 350.456193 133.892011 
L 351.299094 129.396082 
L 352.141994 133.291395 
L 352.984894 133.079073 
L 354.670695 133.540667 
L 355.513595 135.518762 
L 356.356495 134.433263 
L 357.199396 134.663539 
L 358.042296 134.581139 
L 358.885196 135.611395 
L 359.728097 134.464814 
L 360.570997 131.607927 
L 361.413897 129.471849 
L 362.256798 133.51955 
L 363.099698 129.76512 
L 363.942598 131.176469 
L 364.785498 130.137017 
L 365.628399 134.590267 
L 366.471299 132.764159 
L 367.314199 132.625999 
L 368.1571 134.824524 
L 369 134.80357 
L 369.8429 133.636672 
L 370.685801 132.901383 
L 371.528701 133.473376 
L 372.371601 133.421302 
L 373.214502 131.024252 
L 374.057402 134.78855 
L 374.900302 134.891151 
L 375.743202 133.153218 
L 376.586103 135.626222 
L 377.429003 133.864743 
L 378.271903 132.809954 
L 379.114804 126.535985 
L 379.957704 129.838833 
L 380.800604 126.16846 
L 382.486405 133.638349 
L 383.329305 135.501643 
L 384.172205 134.162102 
L 385.015106 132.19723 
L 385.858006 133.82597 
L 386.700906 134.130748 
L 387.543807 133.369715 
L 388.386707 131.931541 
L 389.229607 135.100717 
L 390.072508 134.229397 
L 390.915408 135.271795 
L 391.758308 133.743428 
L 392.601208 131.825767 
L 393.444109 132.714673 
L 394.287009 135.313062 
L 395.129909 133.607648 
L 395.97281 135.610362 
L 396.81571 133.06019 
L 397.65861 132.707656 
L 399.344411 133.301358 
L 400.187311 134.200007 
L 401.030211 133.234383 
L 402.716012 134.1245 
L 403.558912 133.883716 
L 404.401813 133.219029 
L 405.244713 134.147148 
L 406.087613 129.987394 
L 406.930514 135.499157 
L 407.773414 132.160984 
L 408.616314 129.500504 
L 409.459215 133.841514 
L 410.302115 133.263148 
L 411.145015 133.965352 
L 411.987915 133.514737 
L 412.830816 129.029113 
L 413.673716 133.190515 
L 414.516616 131.70942 
L 415.359517 135.611742 
L 416.202417 130.04649 
L 417.045317 130.927454 
L 417.888218 134.043896 
L 418.731118 132.841013 
L 419.574018 135.147162 
L 420.416918 133.690344 
L 421.259819 132.937762 
L 422.102719 133.209213 
L 422.945619 134.555162 
L 423.78852 135.682456 
L 424.63142 135.404883 
L 425.47432 133.10781 
L 426.317221 134.179936 
L 427.160121 132.46212 
L 428.003021 133.677978 
L 428.845921 130.574503 
L 429.688822 130.260552 
L 430.531722 135.307267 
L 431.374622 132.455628 
L 432.217523 129.061472 
L 433.903323 132.622239 
L 434.746224 131.304256 
L 435.589124 132.490981 
L 436.432024 134.922961 
L 437.274924 133.876553 
L 438.117825 135.433275 
L 438.960725 135.29947 
L 439.803625 135.015889 
L 440.646526 135.142593 
L 442.332326 124.231129 
L 443.175227 123.228958 
L 444.018127 130.062488 
L 444.861027 129.424308 
L 445.703927 127.895964 
L 446.546828 133.222233 
L 447.389728 134.380923 
L 449.075529 132.688663 
L 449.918429 131.860565 
L 450.761329 134.817852 
L 451.60423 131.875076 
L 452.44713 131.958716 
L 453.29003 132.529879 
L 454.132931 126.248091 
L 454.975831 131.646855 
L 455.818731 134.482592 
L 456.661631 134.186194 
L 457.504532 134.13582 
L 458.347432 133.752259 
L 459.190332 133.553509 
L 460.033233 132.827178 
L 460.876133 129.276011 
L 461.719033 134.901752 
L 462.561934 133.977441 
L 463.404834 130.888816 
L 464.247734 135.14635 
L 465.090634 130.008287 
L 465.933535 135.319307 
L 466.776435 133.520502 
L 467.619335 132.38418 
L 468.462236 134.164733 
L 469.305136 134.965867 
L 470.148036 128.856714 
L 470.990937 125.554027 
L 471.833837 134.365664 
L 472.676737 135.24714 
L 473.519637 135.48862 
L 474.362538 133.950335 
L 475.205438 134.453331 
L 476.048338 135.577292 
L 476.891239 134.545156 
L 478.577039 128.636215 
L 479.41994 132.297177 
L 480.26284 126.128189 
L 481.10574 125.289491 
L 481.94864 133.878418 
L 482.791541 133.834624 
L 483.634441 133.558484 
L 484.477341 133.641487 
L 485.320242 128.836157 
L 486.163142 129.106707 
L 487.006042 135.546475 
L 487.848943 135.17027 
L 488.691843 130.150581 
L 489.534743 135.275448 
L 490.377644 135.504445 
L 491.220544 134.355264 
L 492.063444 133.788025 
L 492.906344 131.848159 
L 493.749245 132.493688 
L 494.592145 131.850364 
L 495.435045 132.413428 
L 496.277946 131.099138 
L 497.120846 135.023704 
L 497.963746 135.367583 
L 498.806647 133.780794 
L 499.649547 132.69462 
L 500.492447 131.80835 
L 501.335347 134.074208 
L 502.178248 135.237138 
L 503.021148 134.453674 
L 503.864048 131.872246 
L 504.706949 135.459786 
L 505.549849 134.676215 
L 506.392749 129.640645 
L 507.23565 132.242651 
L 508.07855 133.435315 
L 508.92145 133.235518 
L 509.76435 131.664306 
L 510.607251 135.288846 
L 511.450151 134.107289 
L 512.293051 134.832043 
L 513.135952 131.2756 
L 513.978852 132.165248 
L 514.821752 128.125651 
L 515.664653 124.745775 
L 516.507553 131.981011 
L 517.350453 130.815637 
L 518.193353 130.06214 
L 519.036254 132.286389 
L 519.879154 131.780578 
L 520.722054 124.742033 
L 521.564955 127.718684 
L 522.407855 129.156582 
L 523.250755 134.235638 
L 524.093656 134.351957 
L 524.936556 133.246268 
L 525.779456 131.317724 
L 526.622356 133.911275 
L 527.465257 134.350754 
L 528.308157 129.788688 
L 529.151057 133.522683 
L 529.993958 135.130334 
L 530.836858 135.609284 
L 531.679758 134.21982 
L 532.522659 135.119567 
L 533.365559 135.628971 
L 534.208459 134.230887 
L 535.05136 124.577878 
L 535.89426 123.175224 
L 536.73716 121.206351 
L 537.58006 121.368796 
L 538.422961 119.878155 
L 539.265861 131.594283 
L 540.108761 126.796255 
L 540.951662 130.878787 
L 541.794562 124.618519 
L 542.637462 125.390449 
L 543.480363 127.079285 
L 544.323263 130.47618 
L 545.166163 131.511847 
L 546.009063 131.904509 
L 546.851964 134.201596 
L 547.694864 134.734523 
L 548.537764 128.124936 
L 549.380665 135.173686 
L 550.223565 135.444738 
L 551.066465 134.917617 
L 551.909366 135.214572 
L 552.752266 133.748711 
L 553.595166 133.205748 
L 554.438066 134.933923 
L 555.280967 129.58102 
L 556.123867 131.775635 
L 556.966767 134.743111 
L 557.809668 132.718641 
L 558.652568 135.612143 
L 559.495468 134.967282 
L 560.338369 132.928951 
L 561.181269 133.419255 
L 562.024169 129.227088 
L 562.867069 132.46926 
L 563.70997 130.301136 
L 564.55287 133.74033 
L 565.39577 134.950866 
L 566.238671 132.1603 
L 567.081571 131.191417 
L 567.924471 129.845005 
L 568.767372 126.272046 
L 569.610272 133.123596 
L 570.453172 126.02182 
L 571.296073 128.274523 
L 572.138973 126.583776 
L 572.981873 127.788625 
L 573.824773 124.907602 
L 574.667674 135.328233 
L 575.510574 129.727022 
L 576.353474 127.706446 
L 577.196375 134.118677 
L 578.039275 132.692559 
L 578.882175 133.683754 
L 579.725076 134.013805 
L 580.567976 134.805699 
L 581.410876 134.065682 
L 582.253776 132.324996 
L 583.096677 132.441053 
L 583.939577 130.61857 
L 584.782477 131.045819 
L 585.625378 133.976948 
L 586.468278 132.627123 
L 587.311178 134.638968 
L 588.154079 132.019139 
L 588.996979 127.497471 
L 589.839879 132.657256 
L 590.682779 133.014609 
L 591.52568 134.557503 
L 592.36858 128.401789 
L 593.21148 125.891252 
L 594.897281 134.35548 
L 595.740181 132.510488 
L 596.583082 130.103207 
L 597.425982 123.941285 
L 598.268882 125.508214 
L 599.111782 124.193797 
L 599.954683 127.795723 
L 600.797583 121.446468 
L 601.640483 128.327703 
L 602.483384 128.955795 
L 603.326284 131.614514 
L 604.169184 132.240804 
L 605.012085 129.306905 
L 605.854985 135.221838 
L 606.697885 133.368082 
L 607.540785 133.73083 
L 609.226586 135.626744 
L 610.069486 135.174727 
L 610.912387 131.490664 
L 611.755287 134.493807 
L 612.598187 131.966101 
L 614.283988 135.582211 
L 615.126888 134.438214 
L 615.969789 132.677235 
L 616.812689 129.263739 
L 617.655589 127.912612 
L 618.498489 130.690294 
L 619.34139 130.471937 
L 620.18429 131.604877 
L 621.02719 133.879733 
L 621.870091 129.805733 
L 622.712991 131.402374 
L 623.555891 131.594786 
L 624.398792 134.871305 
L 625.241692 131.038109 
L 626.084592 135.138597 
L 626.927492 131.64947 
L 627.770393 134.074853 
L 628.613293 134.768397 
L 629.456193 125.688276 
L 630.299094 123.323223 
L 631.141994 133.900198 
L 631.984894 128.823049 
L 632.827795 127.491829 
L 633.670695 134.083555 
L 634.513595 132.267555 
L 635.356495 131.748833 
L 636.199396 133.774259 
L 637.042296 129.090341 
L 637.885196 126.10687 
L 638.728097 132.536686 
L 639.570997 134.298324 
L 640.413897 128.819018 
L 641.256798 134.563988 
L 642.099698 133.148784 
L 642.942598 131.192183 
L 643.785498 132.603013 
L 644.628399 129.786556 
L 645.471299 130.096354 
L 646.314199 125.906455 
L 647.1571 126.411899 
L 647.1571 126.411899 
" clip-path="url(#p7b76ab300b)" style="fill: none; stroke: #bc8f8f; stroke-width: 1.5; stroke-linecap: square"/>
   </g>
   <g id="patch_3">
    <path d="M 90 149.675294 
L 90 51.84 
" style="fill: none; stroke: #000000; stroke-width: 0.8; stroke-linejoin: miter; stroke-linecap: square"/>
   </g>
   <g id="patch_4">
    <path d="M 648 149.675294 
L 648 51.84 
" style="fill: none; stroke: #000000; stroke-width: 0.8; stroke-linejoin: miter; stroke-linecap: square"/>
   </g>
   <g id="patch_5">
    <path d="M 90 149.675294 
L 648 149.675294 
" style="fill: none; stroke: #000000; stroke-width: 0.8; stroke-linejoin: miter; stroke-linecap: square"/>
   </g>
   <g id="patch_6">
    <path d="M 90 51.84 
L 648 51.84 
" style="fill: none; stroke: #000000; stroke-width: 0.8; stroke-linejoin: miter; stroke-linecap: square"/>
   </g>
   <g id="legend_1">
    <g id="patch_7">
     <path d="M 526.56375 79.05375 
L 639.6 79.05375 
Q 642 79.05375 642 76.65375 
L 642 60.24 
Q 642 57.84 639.6 57.84 
L 526.56375 57.84 
Q 524.16375 57.84 524.16375 60.24 
L 524.16375 76.65375 
Q 524.16375 79.05375 526.56375 79.05375 
z
" style="fill: #ffffff; opacity: 0.5; stroke: #cccccc; stroke-linejoin: miter"/>
    </g>
    <g id="line2d_12">
     <path d="M 528.96375 67.558125 
L 540.96375 67.558125 
L 552.96375 67.558125 
" style="fill: none; stroke: #bc8f8f; stroke-width: 1.5; stroke-linecap: square"/>
    </g>
    <g id="text_12">
     <!-- abs(Delta X) -->
     <g transform="translate(562.56375 71.758125) scale(0.12 -0.12)">
      <defs>
       <path id="DejaVuSans-62" d="M 3116 1747 
Q 3116 2381 2855 2742 
Q 2594 3103 2138 3103 
Q 1681 3103 1420 2742 
Q 1159 2381 1159 1747 
Q 1159 1113 1420 752 
Q 1681 391 2138 391 
Q 2594 391 2855 752 
Q 3116 1113 3116 1747 
z
M 1159 2969 
Q 1341 3281 1617 3432 
Q 1894 3584 2278 3584 
Q 2916 3584 3314 3078 
Q 3713 2572 3713 1747 
Q 3713 922 3314 415 
Q 2916 -91 2278 -91 
Q 1894 -91 1617 61 
Q 1341 213 1159 525 
L 1159 0 
L 581 0 
L 581 4863 
L 1159 4863 
L 1159 2969 
z
" transform="scale(0.015625)"/>
       <path id="DejaVuSans-73" d="M 2834 3397 
L 2834 2853 
Q 2591 2978 2328 3040 
Q 2066 3103 1784 3103 
Q 1356 3103 1142 2972 
Q 928 2841 928 2578 
Q 928 2378 1081 2264 
Q 1234 2150 1697 2047 
L 1894 2003 
Q 2506 1872 2764 1633 
Q 3022 1394 3022 966 
Q 3022 478 2636 193 
Q 2250 -91 1575 -91 
Q 1294 -91 989 -36 
Q 684 19 347 128 
L 347 722 
Q 666 556 975 473 
Q 1284 391 1588 391 
Q 1994 391 2212 530 
Q 2431 669 2431 922 
Q 2431 1156 2273 1281 
Q 2116 1406 1581 1522 
L 1381 1569 
Q 847 1681 609 1914 
Q 372 2147 372 2553 
Q 372 3047 722 3315 
Q 1072 3584 1716 3584 
Q 2034 3584 2315 3537 
Q 2597 3491 2834 3397 
z
" transform="scale(0.015625)"/>
       <path id="DejaVuSans-28" d="M 1984 4856 
Q 1566 4138 1362 3434 
Q 1159 2731 1159 2009 
Q 1159 1288 1364 580 
Q 1569 -128 1984 -844 
L 1484 -844 
Q 1016 -109 783 600 
Q 550 1309 550 2009 
Q 550 2706 781 3412 
Q 1013 4119 1484 4856 
L 1984 4856 
z
" transform="scale(0.015625)"/>
       <path id="DejaVuSans-29" d="M 513 4856 
L 1013 4856 
Q 1481 4119 1714 3412 
Q 1947 2706 1947 2009 
Q 1947 1309 1714 600 
Q 1481 -109 1013 -844 
L 513 -844 
Q 928 -128 1133 580 
Q 1338 1288 1338 2009 
Q 1338 2731 1133 3434 
Q 928 4138 513 4856 
z
" transform="scale(0.015625)"/>
      </defs>
      <use xlink:href="#DejaVuSans-61"/>
      <use xlink:href="#DejaVuSans-62" x="61.279297"/>
      <use xlink:href="#DejaVuSans-73" x="124.755859"/>
      <use xlink:href="#DejaVuSans-28" x="176.855469"/>
      <use xlink:href="#DejaVuSans-44" x="215.869141"/>
      <use xlink:href="#DejaVuSans-65" x="292.871094"/>
      <use xlink:href="#DejaVuSans-6c" x="354.394531"/>
      <use xlink:href="#DejaVuSans-74" x="382.177734"/>
      <use xlink:href="#DejaVuSans-61" x="421.386719"/>
      <use xlink:href="#DejaVuSans-20" x="482.666016"/>
      <use xlink:href="#DejaVuSans-58" x="514.453125"/>
      <use xlink:href="#DejaVuSans-29" x="582.958984"/>
     </g>
    </g>
   </g>
  </g>
  <g id="axes_2">
   <g id="patch_8">
    <path d="M 90 267.077647 
L 648 267.077647 
L 648 169.242353 
L 90 169.242353 
z
" style="fill: #ffffff"/>
   </g>
   <g id="matplotlib.axis_3">
    <g id="xtick_7">
     <g id="line2d_13">
      <g>
       <use xlink:href="#m9a55616266" x="171.599803" y="267.077647" style="stroke: #000000; stroke-width: 0.8"/>
      </g>
     </g>
     <g id="text_13">
      <!-- 2100 -->
      <g transform="translate(158.874803 281.676085) scale(0.1 -0.1)">
       <use xlink:href="#DejaVuSans-32"/>
       <use xlink:href="#DejaVuSans-31" x="63.623047"/>
       <use xlink:href="#DejaVuSans-30" x="127.246094"/>
       <use xlink:href="#DejaVuSans-30" x="190.869141"/>
      </g>
     </g>
    </g>
    <g id="xtick_8">
     <g id="line2d_14">
      <g>
       <use xlink:href="#m9a55616266" x="255.334666" y="267.077647" style="stroke: #000000; stroke-width: 0.8"/>
      </g>
     </g>
     <g id="text_14">
      <!-- 2200 -->
      <g transform="translate(242.609666 281.676085) scale(0.1 -0.1)">
       <use xlink:href="#DejaVuSans-32"/>
       <use xlink:href="#DejaVuSans-32" x="63.623047"/>
       <use xlink:href="#DejaVuSans-30" x="127.246094"/>
       <use xlink:href="#DejaVuSans-30" x="190.869141"/>
      </g>
     </g>
    </g>
    <g id="xtick_9">
     <g id="line2d_15">
      <g>
       <use xlink:href="#m9a55616266" x="339.069528" y="267.077647" style="stroke: #000000; stroke-width: 0.8"/>
      </g>
     </g>
     <g id="text_15">
      <!-- 2300 -->
      <g transform="translate(326.344528 281.676085) scale(0.1 -0.1)">
       <use xlink:href="#DejaVuSans-32"/>
       <use xlink:href="#DejaVuSans-33" x="63.623047"/>
       <use xlink:href="#DejaVuSans-30" x="127.246094"/>
       <use xlink:href="#DejaVuSans-30" x="190.869141"/>
      </g>
     </g>
    </g>
    <g id="xtick_10">
     <g id="line2d_16">
      <g>
       <use xlink:href="#m9a55616266" x="422.804391" y="267.077647" style="stroke: #000000; stroke-width: 0.8"/>
      </g>
     </g>
     <g id="text_16">
      <!-- 2400 -->
      <g transform="translate(410.079391 281.676085) scale(0.1 -0.1)">
       <use xlink:href="#DejaVuSans-32"/>
       <use xlink:href="#DejaVuSans-34" x="63.623047"/>
       <use xlink:href="#DejaVuSans-30" x="127.246094"/>
       <use xlink:href="#DejaVuSans-30" x="190.869141"/>
      </g>
     </g>
    </g>
    <g id="xtick_11">
     <g id="line2d_17">
      <g>
       <use xlink:href="#m9a55616266" x="506.539253" y="267.077647" style="stroke: #000000; stroke-width: 0.8"/>
      </g>
     </g>
     <g id="text_17">
      <!-- 2500 -->
      <g transform="translate(493.814253 281.676085) scale(0.1 -0.1)">
       <use xlink:href="#DejaVuSans-32"/>
       <use xlink:href="#DejaVuSans-35" x="63.623047"/>
       <use xlink:href="#DejaVuSans-30" x="127.246094"/>
       <use xlink:href="#DejaVuSans-30" x="190.869141"/>
      </g>
     </g>
    </g>
    <g id="xtick_12">
     <g id="line2d_18">
      <g>
       <use xlink:href="#m9a55616266" x="590.274116" y="267.077647" style="stroke: #000000; stroke-width: 0.8"/>
      </g>
     </g>
     <g id="text_18">
      <!-- 2600 -->
      <g transform="translate(577.549116 281.676085) scale(0.1 -0.1)">
       <use xlink:href="#DejaVuSans-32"/>
       <use xlink:href="#DejaVuSans-36" x="63.623047"/>
       <use xlink:href="#DejaVuSans-30" x="127.246094"/>
       <use xlink:href="#DejaVuSans-30" x="190.869141"/>
      </g>
     </g>
    </g>
   </g>
   <g id="matplotlib.axis_4">
    <g id="ytick_5">
     <g id="line2d_19">
      <g>
       <use xlink:href="#mdbe1e7c498" x="90" y="253.101176" style="stroke: #000000; stroke-width: 0.8"/>
      </g>
     </g>
     <g id="text_19">
      <!-- 0 -->
      <g transform="translate(76.6375 256.900395) scale(0.1 -0.1)">
       <use xlink:href="#DejaVuSans-30"/>
      </g>
     </g>
    </g>
    <g id="ytick_6">
     <g id="line2d_20">
      <g>
       <use xlink:href="#mdbe1e7c498" x="90" y="225.148235" style="stroke: #000000; stroke-width: 0.8"/>
      </g>
     </g>
     <g id="text_20">
      <!-- 10 -->
      <g transform="translate(70.275 228.947454) scale(0.1 -0.1)">
       <use xlink:href="#DejaVuSans-31"/>
       <use xlink:href="#DejaVuSans-30" x="63.623047"/>
      </g>
     </g>
    </g>
    <g id="ytick_7">
     <g id="line2d_21">
      <g>
       <use xlink:href="#mdbe1e7c498" x="90" y="197.195294" style="stroke: #000000; stroke-width: 0.8"/>
      </g>
     </g>
     <g id="text_21">
      <!-- 20 -->
      <g transform="translate(70.275 200.994513) scale(0.1 -0.1)">
       <use xlink:href="#DejaVuSans-32"/>
       <use xlink:href="#DejaVuSans-30" x="63.623047"/>
      </g>
     </g>
    </g>
    <g id="ytick_8">
     <g id="line2d_22">
      <g>
       <use xlink:href="#mdbe1e7c498" x="90" y="169.242353" style="stroke: #000000; stroke-width: 0.8"/>
      </g>
     </g>
     <g id="text_22">
      <!-- 30 -->
      <g transform="translate(70.275 173.041572) scale(0.1 -0.1)">
       <use xlink:href="#DejaVuSans-33"/>
       <use xlink:href="#DejaVuSans-30" x="63.623047"/>
      </g>
     </g>
    </g>
    <g id="text_23">
     <!-- Delta Y -->
     <g transform="translate(63.363438 243.335938) rotate(-90) scale(0.14 -0.14)">
      <defs>
       <path id="DejaVuSans-59" d="M -13 4666 
L 666 4666 
L 1959 2747 
L 3244 4666 
L 3922 4666 
L 2272 2222 
L 2272 0 
L 1638 0 
L 1638 2222 
L -13 4666 
z
" transform="scale(0.015625)"/>
      </defs>
      <use xlink:href="#DejaVuSans-44"/>
      <use xlink:href="#DejaVuSans-65" x="77.001953"/>
      <use xlink:href="#DejaVuSans-6c" x="138.525391"/>
      <use xlink:href="#DejaVuSans-74" x="166.308594"/>
      <use xlink:href="#DejaVuSans-61" x="205.517578"/>
      <use xlink:href="#DejaVuSans-20" x="266.796875"/>
      <use xlink:href="#DejaVuSans-59" x="298.583984"/>
     </g>
    </g>
   </g>
   <g id="line2d_23">
    <path d="M 90 251.968264 
L 90.8429 252.052899 
L 91.685801 248.637478 
L 92.528701 253.088974 
L 93.371601 250.748813 
L 94.214502 252.30765 
L 95.057402 250.588176 
L 95.900302 250.836806 
L 96.743202 252.822757 
L 97.586103 252.830672 
L 98.429003 251.174794 
L 99.271903 252.739637 
L 100.957704 249.484191 
L 101.800604 251.011608 
L 102.643505 251.849973 
L 103.486405 252.505506 
L 104.329305 251.754647 
L 105.172205 248.951952 
L 106.015106 248.474909 
L 106.858006 250.572489 
L 107.700906 252.004687 
L 108.543807 250.286766 
L 109.386707 251.20068 
L 110.229607 250.570699 
L 111.072508 253.041177 
L 111.915408 252.812696 
L 112.758308 253.082272 
L 113.601208 252.892053 
L 114.444109 252.933819 
L 115.287009 253.092574 
L 116.129909 251.783269 
L 116.97281 249.920138 
L 117.81571 250.049955 
L 118.65861 248.457157 
L 119.501511 252.696566 
L 120.344411 253.050043 
L 121.187311 250.970727 
L 122.030211 251.788935 
L 122.873112 252.973798 
L 123.716012 249.982359 
L 124.558912 252.405402 
L 125.401813 251.883591 
L 126.244713 251.120347 
L 127.087613 252.799843 
L 127.930514 251.084257 
L 128.773414 252.232736 
L 129.616314 250.108326 
L 130.459215 251.366539 
L 131.302115 251.76559 
L 132.145015 250.788064 
L 132.987915 251.495706 
L 133.830816 249.435044 
L 134.673716 251.366351 
L 135.516616 250.839861 
L 136.359517 251.527772 
L 137.202417 253.032906 
L 138.888218 252.556368 
L 139.731118 250.565698 
L 140.574018 250.146919 
L 141.416918 252.097805 
L 142.259819 249.807358 
L 143.102719 249.574211 
L 143.945619 251.482456 
L 144.78852 252.018648 
L 145.63142 245.791352 
L 146.47432 251.010277 
L 147.317221 251.866374 
L 148.160121 252.146847 
L 149.003021 252.88599 
L 149.845921 251.192871 
L 150.688822 252.31303 
L 151.531722 252.285049 
L 152.374622 251.932927 
L 153.217523 251.187789 
L 154.060423 247.075927 
L 154.903323 252.767251 
L 155.746224 248.891838 
L 156.589124 252.790283 
L 157.432024 252.085133 
L 158.274924 249.781561 
L 159.117825 252.48122 
L 159.960725 252.979392 
L 160.803625 250.27239 
L 161.646526 253.000495 
L 162.489426 250.229317 
L 163.332326 251.242464 
L 164.175227 253.021921 
L 165.018127 252.533253 
L 165.861027 251.808767 
L 166.703927 252.941083 
L 167.546828 249.754901 
L 168.389728 250.118419 
L 169.232628 251.32848 
L 170.075529 249.983953 
L 170.918429 252.356562 
L 171.761329 250.053031 
L 172.60423 252.777331 
L 173.44713 250.094112 
L 174.29003 252.751045 
L 175.132931 246.50916 
L 175.975831 252.937367 
L 176.818731 249.721182 
L 177.661631 251.087817 
L 178.504532 251.112265 
L 179.347432 250.160076 
L 180.190332 252.469009 
L 181.033233 252.792737 
L 181.876133 252.958207 
L 182.719033 252.478718 
L 183.561934 248.539736 
L 184.404834 249.516056 
L 185.247734 250.082824 
L 186.090634 249.169885 
L 186.933535 252.126767 
L 187.776435 249.490692 
L 189.462236 252.058785 
L 190.305136 249.532817 
L 191.148036 251.749262 
L 191.990937 247.382484 
L 192.833837 251.226701 
L 193.676737 252.355911 
L 194.519637 249.988778 
L 195.362538 250.924788 
L 196.205438 250.638589 
L 197.048338 250.765892 
L 197.891239 250.158453 
L 198.734139 252.055235 
L 199.577039 248.17819 
L 200.41994 253.076397 
L 201.26284 252.332118 
L 202.10574 248.595728 
L 202.94864 252.212666 
L 203.791541 251.997931 
L 204.634441 249.509036 
L 205.477341 251.430523 
L 206.320242 246.600146 
L 207.163142 250.505386 
L 208.006042 252.18912 
L 208.848943 251.090613 
L 209.691843 252.883576 
L 210.534743 250.938253 
L 211.377644 251.178245 
L 212.220544 252.458009 
L 213.063444 250.094325 
L 214.749245 252.820681 
L 215.592145 248.827105 
L 216.435045 251.851729 
L 217.277946 252.979619 
L 218.120846 251.371861 
L 218.963746 251.455539 
L 219.806647 250.07319 
L 220.649547 251.75173 
L 221.492447 252.792733 
L 222.335347 251.192689 
L 223.178248 252.613284 
L 224.021148 249.931847 
L 224.864048 251.627589 
L 225.706949 251.582635 
L 226.549849 252.054563 
L 227.392749 248.04959 
L 228.23565 250.881467 
L 229.07855 252.792855 
L 229.92145 251.576741 
L 230.76435 252.80743 
L 231.607251 251.602177 
L 232.450151 252.026344 
L 233.293051 252.267792 
L 234.135952 249.374375 
L 234.978852 250.357485 
L 235.821752 252.145656 
L 236.664653 252.033266 
L 237.507553 247.142754 
L 238.350453 252.706294 
L 239.193353 252.878129 
L 240.036254 252.504928 
L 240.879154 251.876707 
L 241.722054 250.045796 
L 242.564955 252.137843 
L 243.407855 250.567765 
L 245.093656 248.978285 
L 245.936556 252.048484 
L 246.779456 252.287785 
L 247.622356 249.334451 
L 248.465257 250.687427 
L 249.308157 250.229873 
L 250.151057 248.20878 
L 250.993958 252.476745 
L 251.836858 251.491057 
L 252.679758 252.476136 
L 253.522659 250.539515 
L 254.365559 251.824465 
L 255.208459 252.732441 
L 256.05136 249.395323 
L 256.89426 252.736266 
L 257.73716 253.044812 
L 258.58006 249.178251 
L 259.422961 249.352607 
L 260.265861 249.77749 
L 261.108761 251.474605 
L 261.951662 251.401778 
L 262.794562 251.606698 
L 263.637462 247.106687 
L 264.480363 253.013322 
L 265.323263 252.83112 
L 266.166163 250.701493 
L 267.009063 250.280662 
L 267.851964 250.256312 
L 268.694864 247.78108 
L 269.537764 249.530278 
L 270.380665 246.111824 
L 271.223565 250.17337 
L 272.066465 253.017739 
L 272.909366 252.011512 
L 273.752266 252.412974 
L 274.595166 252.681084 
L 275.438066 249.567962 
L 276.280967 252.247109 
L 277.123867 251.539228 
L 277.966767 251.771787 
L 278.809668 247.740421 
L 279.652568 250.817442 
L 280.495468 250.909805 
L 281.338369 252.212353 
L 282.181269 247.72701 
L 283.024169 252.570153 
L 283.867069 249.287095 
L 284.70997 251.396943 
L 285.55287 248.427248 
L 286.39577 246.644512 
L 287.238671 247.151354 
L 288.081571 252.266424 
L 288.924471 253.007113 
L 289.767372 249.688587 
L 290.610272 249.32137 
L 291.453172 250.784412 
L 292.296073 250.755572 
L 293.138973 249.981651 
L 293.981873 246.659845 
L 295.667674 252.486054 
L 296.510574 251.755954 
L 297.353474 252.173815 
L 298.196375 252.049747 
L 299.039275 250.649359 
L 299.882175 252.636132 
L 300.725076 251.903975 
L 301.567976 251.744349 
L 302.410876 252.208672 
L 303.253776 252.031287 
L 304.096677 250.568746 
L 304.939577 251.757768 
L 305.782477 252.662 
L 306.625378 253.024161 
L 307.468278 251.363049 
L 308.311178 252.199137 
L 309.154079 252.52442 
L 309.996979 251.727571 
L 310.839879 252.204913 
L 311.682779 249.716091 
L 312.52568 253.051576 
L 313.36858 251.752837 
L 314.21148 251.859785 
L 315.054381 250.26111 
L 315.897281 248.106259 
L 316.740181 251.53065 
L 317.583082 252.741216 
L 318.425982 250.282691 
L 319.268882 252.614748 
L 320.111782 251.209514 
L 320.954683 253.075483 
L 321.797583 252.482601 
L 322.640483 247.283473 
L 323.483384 251.253315 
L 324.326284 252.344053 
L 325.169184 250.335887 
L 326.012085 249.922323 
L 326.854985 250.229196 
L 327.697885 248.422055 
L 328.540785 252.781873 
L 329.383686 251.466584 
L 330.226586 252.566559 
L 331.069486 253.041655 
L 331.912387 251.275347 
L 332.755287 248.914344 
L 333.598187 249.169872 
L 334.441088 249.013777 
L 335.283988 244.266764 
L 336.126888 248.53466 
L 336.969789 251.560682 
L 337.812689 250.797504 
L 338.655589 250.412218 
L 339.498489 251.886232 
L 340.34139 252.406083 
L 341.18429 251.944067 
L 342.02719 250.217399 
L 342.870091 252.813495 
L 343.712991 249.76561 
L 344.555891 252.0071 
L 345.398792 250.746235 
L 346.241692 248.447089 
L 347.084592 252.676598 
L 347.927492 250.727435 
L 348.770393 251.193278 
L 349.613293 251.810197 
L 350.456193 251.118818 
L 351.299094 252.247426 
L 352.141994 252.080253 
L 352.984894 250.201389 
L 353.827795 252.783192 
L 354.670695 251.786118 
L 355.513595 252.103094 
L 356.356495 251.250906 
L 357.199396 253.089211 
L 358.042296 252.092685 
L 358.885196 251.951173 
L 359.728097 250.979293 
L 360.570997 249.039869 
L 361.413897 250.347655 
L 362.256798 250.799826 
L 363.099698 252.914206 
L 363.942598 250.836689 
L 364.785498 251.670389 
L 365.628399 253.039459 
L 366.471299 250.5695 
L 367.314199 250.790299 
L 368.1571 252.195832 
L 369 252.667386 
L 369.8429 248.657032 
L 370.685801 251.515143 
L 371.528701 250.635071 
L 372.371601 249.214239 
L 373.214502 247.339196 
L 374.057402 252.771687 
L 374.900302 250.726283 
L 375.743202 252.304697 
L 376.586103 247.876391 
L 378.271903 251.301578 
L 379.114804 252.480299 
L 379.957704 250.660982 
L 380.800604 251.311555 
L 381.643505 250.805982 
L 382.486405 249.403753 
L 383.329305 249.058534 
L 384.172205 250.509351 
L 385.858006 253.01631 
L 386.700906 250.409668 
L 387.543807 251.377017 
L 388.386707 251.730715 
L 389.229607 251.599435 
L 390.072508 251.33644 
L 390.915408 250.654227 
L 391.758308 252.885936 
L 392.601208 250.469385 
L 393.444109 249.079827 
L 394.287009 252.909238 
L 395.129909 248.761709 
L 396.81571 252.108088 
L 397.65861 252.773115 
L 398.501511 252.663211 
L 399.344411 249.881573 
L 400.187311 251.532676 
L 401.873112 251.809227 
L 402.716012 252.564346 
L 403.558912 250.45919 
L 404.401813 252.418632 
L 405.244713 250.412091 
L 406.087613 251.479036 
L 406.930514 249.104832 
L 407.773414 251.407718 
L 408.616314 250.773857 
L 409.459215 253.054728 
L 410.302115 252.244219 
L 411.145015 252.3332 
L 411.987915 252.714339 
L 412.830816 247.883996 
L 413.673716 247.348704 
L 414.516616 248.728101 
L 415.359517 251.027974 
L 416.202417 251.165991 
L 417.045317 250.093454 
L 417.888218 250.926169 
L 418.731118 250.783929 
L 419.574018 251.924354 
L 420.416918 252.854818 
L 421.259819 250.812749 
L 422.102719 249.380408 
L 422.945619 250.847495 
L 423.78852 250.389262 
L 424.63142 251.013282 
L 425.47432 250.766209 
L 426.317221 248.134316 
L 427.160121 252.793935 
L 428.003021 250.271192 
L 428.845921 251.38452 
L 429.688822 251.313254 
L 430.531722 250.896243 
L 431.374622 251.828737 
L 432.217523 251.068607 
L 433.060423 251.134045 
L 433.903323 246.772469 
L 434.746224 248.245418 
L 435.589124 252.740669 
L 436.432024 252.563425 
L 437.274924 253.014161 
L 438.117825 250.957639 
L 438.960725 251.790624 
L 439.803625 252.891255 
L 440.646526 250.324938 
L 441.489426 251.858655 
L 442.332326 252.284387 
L 443.175227 252.102999 
L 444.018127 249.107944 
L 444.861027 252.161467 
L 445.703927 250.504663 
L 446.546828 252.477772 
L 447.389728 251.93923 
L 448.232628 252.698041 
L 449.075529 249.785751 
L 449.918429 249.173394 
L 450.761329 249.178832 
L 451.60423 253.022917 
L 452.44713 252.430858 
L 453.29003 249.215963 
L 454.132931 248.71909 
L 454.975831 250.173728 
L 455.818731 249.985452 
L 456.661631 250.818797 
L 457.504532 252.904271 
L 458.347432 251.023265 
L 460.033233 252.234393 
L 460.876133 249.362365 
L 461.719033 251.88316 
L 462.561934 252.278383 
L 463.404834 246.390469 
L 464.247734 250.549907 
L 465.090634 252.002072 
L 465.933535 251.527422 
L 466.776435 252.530314 
L 467.619335 251.234589 
L 468.462236 252.94325 
L 469.305136 251.255868 
L 470.148036 251.485512 
L 470.990937 251.894279 
L 471.833837 249.62572 
L 472.676737 253.098955 
L 473.519637 247.945992 
L 474.362538 250.69782 
L 475.205438 252.247109 
L 476.048338 249.833009 
L 476.891239 248.754895 
L 478.577039 251.596556 
L 479.41994 251.788322 
L 480.26284 248.694977 
L 481.10574 251.237151 
L 483.634441 253.032209 
L 484.477341 248.948518 
L 486.163142 252.906599 
L 487.006042 249.396712 
L 487.848943 252.907947 
L 488.691843 250.403302 
L 489.534743 249.552972 
L 490.377644 251.738929 
L 491.220544 251.811048 
L 492.063444 252.863106 
L 492.906344 248.785392 
L 493.749245 252.085128 
L 494.592145 248.816704 
L 495.435045 251.505645 
L 496.277946 251.291367 
L 497.120846 251.458295 
L 497.963746 248.45269 
L 498.806647 252.242599 
L 499.649547 249.721304 
L 500.492447 251.869456 
L 501.335347 251.703701 
L 502.178248 253.00137 
L 503.021148 251.835015 
L 503.864048 248.596047 
L 504.706949 248.865216 
L 505.549849 251.061252 
L 506.392749 249.881395 
L 507.23565 249.975809 
L 508.07855 252.193757 
L 508.92145 253.092396 
L 509.76435 250.596763 
L 510.607251 249.346736 
L 511.450151 249.317534 
L 512.293051 252.596184 
L 513.135952 252.571936 
L 513.978852 251.280024 
L 514.821752 252.108279 
L 515.664653 252.150936 
L 516.507553 248.181938 
L 517.350453 247.156126 
L 518.193353 250.840173 
L 519.036254 247.648018 
L 519.879154 248.606177 
L 520.722054 244.589813 
L 521.564955 252.877234 
L 522.407855 252.378006 
L 523.250755 251.186957 
L 524.093656 248.666976 
L 524.936556 253.057818 
L 525.779456 249.290457 
L 526.622356 252.561161 
L 527.465257 252.68961 
L 528.308157 250.774071 
L 529.151057 251.405303 
L 529.993958 253.080094 
L 530.836858 250.109511 
L 531.679758 250.667675 
L 532.522659 250.907069 
L 533.365559 249.927274 
L 534.208459 252.095238 
L 535.05136 248.143998 
L 535.89426 248.535818 
L 536.73716 251.702387 
L 537.58006 251.297278 
L 538.422961 252.644697 
L 539.265861 252.353578 
L 540.108761 252.447216 
L 540.951662 249.634359 
L 541.794562 247.811549 
L 542.637462 250.782731 
L 543.480363 249.452618 
L 544.323263 251.638688 
L 545.166163 249.150104 
L 546.009063 249.968937 
L 546.851964 251.936641 
L 547.694864 249.870418 
L 548.537764 251.201049 
L 550.223565 252.863327 
L 551.066465 252.121058 
L 551.909366 252.17101 
L 552.752266 248.481432 
L 553.595166 251.863021 
L 554.438066 253.073422 
L 555.280967 252.138493 
L 556.123867 252.341076 
L 556.966767 252.907157 
L 557.809668 250.606198 
L 558.652568 250.288354 
L 559.495468 251.323277 
L 560.338369 251.95857 
L 561.181269 252.956077 
L 562.024169 249.422854 
L 562.867069 252.3728 
L 563.70997 252.714311 
L 564.55287 252.216932 
L 565.39577 252.795766 
L 566.238671 252.430997 
L 567.081571 249.899395 
L 567.924471 253.043248 
L 568.767372 250.041267 
L 569.610272 251.84881 
L 571.296073 249.161206 
L 572.138973 251.663763 
L 572.981873 251.775839 
L 573.824773 252.19228 
L 575.510574 250.21279 
L 576.353474 250.909521 
L 577.196375 247.479452 
L 578.039275 248.396415 
L 578.882175 248.840704 
L 579.725076 245.054716 
L 580.567976 249.788917 
L 581.410876 250.256046 
L 582.253776 248.815962 
L 583.096677 252.694019 
L 583.939577 250.733936 
L 584.782477 250.020738 
L 585.625378 252.907739 
L 586.468278 249.131431 
L 587.311178 251.150368 
L 588.154079 250.658229 
L 588.996979 252.602771 
L 589.839879 250.673896 
L 590.682779 252.064069 
L 591.52568 251.386474 
L 592.36858 252.669469 
L 593.21148 252.341845 
L 594.054381 251.074507 
L 594.897281 251.918844 
L 595.740181 252.956963 
L 596.583082 252.975461 
L 597.425982 251.114195 
L 598.268882 252.71359 
L 599.111782 250.113625 
L 599.954683 251.759435 
L 600.797583 251.584914 
L 601.640483 252.489014 
L 602.483384 250.896159 
L 603.326284 248.518289 
L 604.169184 252.119914 
L 605.012085 252.235747 
L 605.854985 250.095987 
L 606.697885 249.609653 
L 607.540785 252.031827 
L 608.383686 249.500114 
L 609.226586 252.513715 
L 610.069486 251.84996 
L 610.912387 253.012514 
L 611.755287 251.380301 
L 612.598187 252.678824 
L 613.441088 252.765363 
L 614.283988 252.489865 
L 615.126888 250.59563 
L 615.969789 250.818316 
L 616.812689 251.189386 
L 617.655589 251.106569 
L 618.498489 248.28369 
L 619.34139 253.021615 
L 620.18429 249.936882 
L 621.02719 245.994691 
L 621.870091 249.400613 
L 622.712991 250.030759 
L 623.555891 251.352707 
L 624.398792 249.050724 
L 625.241692 249.459713 
L 626.084592 252.909311 
L 626.927492 248.330722 
L 627.770393 252.697448 
L 628.613293 252.130887 
L 629.456193 250.756518 
L 630.299094 250.14966 
L 631.141994 252.179087 
L 631.984894 249.991202 
L 632.827795 250.912003 
L 633.670695 251.518021 
L 634.513595 250.232112 
L 635.356495 252.461587 
L 636.199396 252.075224 
L 637.042296 253.062392 
L 638.728097 252.885479 
L 639.570997 252.948951 
L 640.413897 252.019799 
L 641.256798 252.564401 
L 642.099698 250.622955 
L 642.942598 252.145841 
L 643.785498 251.421899 
L 644.628399 250.903783 
L 645.471299 248.480672 
L 646.314199 252.983283 
L 647.1571 252.811967 
L 647.1571 252.811967 
" clip-path="url(#p313a9e13e9)" style="fill: none; stroke: #c0c0c0; stroke-width: 1.5; stroke-linecap: square"/>
   </g>
   <g id="patch_9">
    <path d="M 90 267.077647 
L 90 169.242353 
" style="fill: none; stroke: #000000; stroke-width: 0.8; stroke-linejoin: miter; stroke-linecap: square"/>
   </g>
   <g id="patch_10">
    <path d="M 648 267.077647 
L 648 169.242353 
" style="fill: none; stroke: #000000; stroke-width: 0.8; stroke-linejoin: miter; stroke-linecap: square"/>
   </g>
   <g id="patch_11">
    <path d="M 90 267.077647 
L 648 267.077647 
" style="fill: none; stroke: #000000; stroke-width: 0.8; stroke-linejoin: miter; stroke-linecap: square"/>
   </g>
   <g id="patch_12">
    <path d="M 90 169.242353 
L 648 169.242353 
" style="fill: none; stroke: #000000; stroke-width: 0.8; stroke-linejoin: miter; stroke-linecap: square"/>
   </g>
   <g id="legend_2">
    <g id="patch_13">
     <path d="M 527.454375 196.456103 
L 639.6 196.456103 
Q 642 196.456103 642 194.056103 
L 642 177.642353 
Q 642 175.242353 639.6 175.242353 
L 527.454375 175.242353 
Q 525.054375 175.242353 525.054375 177.642353 
L 525.054375 194.056103 
Q 525.054375 196.456103 527.454375 196.456103 
z
" style="fill: #ffffff; opacity: 0.5; stroke: #cccccc; stroke-linejoin: miter"/>
    </g>
    <g id="line2d_24">
     <path d="M 529.854375 184.960478 
L 541.854375 184.960478 
L 553.854375 184.960478 
" style="fill: none; stroke: #c0c0c0; stroke-width: 1.5; stroke-linecap: square"/>
    </g>
    <g id="text_24">
     <!-- abs(Delta Y) -->
     <g transform="translate(563.454375 189.160478) scale(0.12 -0.12)">
      <use xlink:href="#DejaVuSans-61"/>
      <use xlink:href="#DejaVuSans-62" x="61.279297"/>
      <use xlink:href="#DejaVuSans-73" x="124.755859"/>
      <use xlink:href="#DejaVuSans-28" x="176.855469"/>
      <use xlink:href="#DejaVuSans-44" x="215.869141"/>
      <use xlink:href="#DejaVuSans-65" x="292.871094"/>
      <use xlink:href="#DejaVuSans-6c" x="354.394531"/>
      <use xlink:href="#DejaVuSans-74" x="382.177734"/>
      <use xlink:href="#DejaVuSans-61" x="421.386719"/>
      <use xlink:href="#DejaVuSans-20" x="482.666016"/>
      <use xlink:href="#DejaVuSans-59" x="514.453125"/>
      <use xlink:href="#DejaVuSans-29" x="575.537109"/>
     </g>
    </g>
   </g>
  </g>
  <g id="axes_3">
   <g id="patch_14">
    <path d="M 90 384.48 
L 648 384.48 
L 648 286.644706 
L 90 286.644706 
z
" style="fill: #ffffff"/>
   </g>
   <g id="matplotlib.axis_5">
    <g id="xtick_13">
     <g id="line2d_25">
      <g>
       <use xlink:href="#m9a55616266" x="171.599803" y="384.48" style="stroke: #000000; stroke-width: 0.8"/>
      </g>
     </g>
     <g id="text_25">
      <!-- 2100 -->
      <g transform="translate(158.874803 399.078438) scale(0.1 -0.1)">
       <use xlink:href="#DejaVuSans-32"/>
       <use xlink:href="#DejaVuSans-31" x="63.623047"/>
       <use xlink:href="#DejaVuSans-30" x="127.246094"/>
       <use xlink:href="#DejaVuSans-30" x="190.869141"/>
      </g>
     </g>
    </g>
    <g id="xtick_14">
     <g id="line2d_26">
      <g>
       <use xlink:href="#m9a55616266" x="255.334666" y="384.48" style="stroke: #000000; stroke-width: 0.8"/>
      </g>
     </g>
     <g id="text_26">
      <!-- 2200 -->
      <g transform="translate(242.609666 399.078438) scale(0.1 -0.1)">
       <use xlink:href="#DejaVuSans-32"/>
       <use xlink:href="#DejaVuSans-32" x="63.623047"/>
       <use xlink:href="#DejaVuSans-30" x="127.246094"/>
       <use xlink:href="#DejaVuSans-30" x="190.869141"/>
      </g>
     </g>
    </g>
    <g id="xtick_15">
     <g id="line2d_27">
      <g>
       <use xlink:href="#m9a55616266" x="339.069528" y="384.48" style="stroke: #000000; stroke-width: 0.8"/>
      </g>
     </g>
     <g id="text_27">
      <!-- 2300 -->
      <g transform="translate(326.344528 399.078438) scale(0.1 -0.1)">
       <use xlink:href="#DejaVuSans-32"/>
       <use xlink:href="#DejaVuSans-33" x="63.623047"/>
       <use xlink:href="#DejaVuSans-30" x="127.246094"/>
       <use xlink:href="#DejaVuSans-30" x="190.869141"/>
      </g>
     </g>
    </g>
    <g id="xtick_16">
     <g id="line2d_28">
      <g>
       <use xlink:href="#m9a55616266" x="422.804391" y="384.48" style="stroke: #000000; stroke-width: 0.8"/>
      </g>
     </g>
     <g id="text_28">
      <!-- 2400 -->
      <g transform="translate(410.079391 399.078438) scale(0.1 -0.1)">
       <use xlink:href="#DejaVuSans-32"/>
       <use xlink:href="#DejaVuSans-34" x="63.623047"/>
       <use xlink:href="#DejaVuSans-30" x="127.246094"/>
       <use xlink:href="#DejaVuSans-30" x="190.869141"/>
      </g>
     </g>
    </g>
    <g id="xtick_17">
     <g id="line2d_29">
      <g>
       <use xlink:href="#m9a55616266" x="506.539253" y="384.48" style="stroke: #000000; stroke-width: 0.8"/>
      </g>
     </g>
     <g id="text_29">
      <!-- 2500 -->
      <g transform="translate(493.814253 399.078438) scale(0.1 -0.1)">
       <use xlink:href="#DejaVuSans-32"/>
       <use xlink:href="#DejaVuSans-35" x="63.623047"/>
       <use xlink:href="#DejaVuSans-30" x="127.246094"/>
       <use xlink:href="#DejaVuSans-30" x="190.869141"/>
      </g>
     </g>
    </g>
    <g id="xtick_18">
     <g id="line2d_30">
      <g>
       <use xlink:href="#m9a55616266" x="590.274116" y="384.48" style="stroke: #000000; stroke-width: 0.8"/>
      </g>
     </g>
     <g id="text_30">
      <!-- 2600 -->
      <g transform="translate(577.549116 399.078438) scale(0.1 -0.1)">
       <use xlink:href="#DejaVuSans-32"/>
       <use xlink:href="#DejaVuSans-36" x="63.623047"/>
       <use xlink:href="#DejaVuSans-30" x="127.246094"/>
       <use xlink:href="#DejaVuSans-30" x="190.869141"/>
      </g>
     </g>
    </g>
    <g id="text_31">
     <!-- Time step -->
     <g transform="translate(334.506406 421.795937) scale(0.14 -0.14)">
      <defs>
       <path id="DejaVuSans-54" d="M -19 4666 
L 3928 4666 
L 3928 4134 
L 2272 4134 
L 2272 0 
L 1638 0 
L 1638 4134 
L -19 4134 
L -19 4666 
z
" transform="scale(0.015625)"/>
       <path id="DejaVuSans-69" d="M 603 3500 
L 1178 3500 
L 1178 0 
L 603 0 
L 603 3500 
z
M 603 4863 
L 1178 4863 
L 1178 4134 
L 603 4134 
L 603 4863 
z
" transform="scale(0.015625)"/>
       <path id="DejaVuSans-6d" d="M 3328 2828 
Q 3544 3216 3844 3400 
Q 4144 3584 4550 3584 
Q 5097 3584 5394 3201 
Q 5691 2819 5691 2113 
L 5691 0 
L 5113 0 
L 5113 2094 
Q 5113 2597 4934 2840 
Q 4756 3084 4391 3084 
Q 3944 3084 3684 2787 
Q 3425 2491 3425 1978 
L 3425 0 
L 2847 0 
L 2847 2094 
Q 2847 2600 2669 2842 
Q 2491 3084 2119 3084 
Q 1678 3084 1418 2786 
Q 1159 2488 1159 1978 
L 1159 0 
L 581 0 
L 581 3500 
L 1159 3500 
L 1159 2956 
Q 1356 3278 1631 3431 
Q 1906 3584 2284 3584 
Q 2666 3584 2933 3390 
Q 3200 3197 3328 2828 
z
" transform="scale(0.015625)"/>
       <path id="DejaVuSans-70" d="M 1159 525 
L 1159 -1331 
L 581 -1331 
L 581 3500 
L 1159 3500 
L 1159 2969 
Q 1341 3281 1617 3432 
Q 1894 3584 2278 3584 
Q 2916 3584 3314 3078 
Q 3713 2572 3713 1747 
Q 3713 922 3314 415 
Q 2916 -91 2278 -91 
Q 1894 -91 1617 61 
Q 1341 213 1159 525 
z
M 3116 1747 
Q 3116 2381 2855 2742 
Q 2594 3103 2138 3103 
Q 1681 3103 1420 2742 
Q 1159 2381 1159 1747 
Q 1159 1113 1420 752 
Q 1681 391 2138 391 
Q 2594 391 2855 752 
Q 3116 1113 3116 1747 
z
" transform="scale(0.015625)"/>
      </defs>
      <use xlink:href="#DejaVuSans-54"/>
      <use xlink:href="#DejaVuSans-69" x="57.958984"/>
      <use xlink:href="#DejaVuSans-6d" x="85.742188"/>
      <use xlink:href="#DejaVuSans-65" x="183.154297"/>
      <use xlink:href="#DejaVuSans-20" x="244.677734"/>
      <use xlink:href="#DejaVuSans-73" x="276.464844"/>
      <use xlink:href="#DejaVuSans-74" x="328.564453"/>
      <use xlink:href="#DejaVuSans-65" x="367.773438"/>
      <use xlink:href="#DejaVuSans-70" x="429.296875"/>
     </g>
    </g>
   </g>
   <g id="matplotlib.axis_6">
    <g id="ytick_9">
     <g id="line2d_31">
      <g>
       <use xlink:href="#mdbe1e7c498" x="90" y="364.912941" style="stroke: #000000; stroke-width: 0.8"/>
      </g>
     </g>
     <g id="text_32">
      <!-- 0 -->
      <g transform="translate(76.6375 368.71216) scale(0.1 -0.1)">
       <use xlink:href="#DejaVuSans-30"/>
      </g>
     </g>
    </g>
    <g id="ytick_10">
     <g id="line2d_32">
      <g>
       <use xlink:href="#mdbe1e7c498" x="90" y="325.778824" style="stroke: #000000; stroke-width: 0.8"/>
      </g>
     </g>
     <g id="text_33">
      <!-- 10 -->
      <g transform="translate(70.275 329.578042) scale(0.1 -0.1)">
       <use xlink:href="#DejaVuSans-31"/>
       <use xlink:href="#DejaVuSans-30" x="63.623047"/>
      </g>
     </g>
    </g>
    <g id="ytick_11">
     <g id="line2d_33">
      <g>
       <use xlink:href="#mdbe1e7c498" x="90" y="286.644706" style="stroke: #000000; stroke-width: 0.8"/>
      </g>
     </g>
     <g id="text_34">
      <!-- 20 -->
      <g transform="translate(70.275 290.443925) scale(0.1 -0.1)">
       <use xlink:href="#DejaVuSans-32"/>
       <use xlink:href="#DejaVuSans-30" x="63.623047"/>
      </g>
     </g>
    </g>
    <g id="text_35">
     <!-- Delta Theta -->
     <g transform="translate(63.363438 376.515634) rotate(-90) scale(0.14 -0.14)">
      <defs>
       <path id="DejaVuSans-68" d="M 3513 2113 
L 3513 0 
L 2938 0 
L 2938 2094 
Q 2938 2591 2744 2837 
Q 2550 3084 2163 3084 
Q 1697 3084 1428 2787 
Q 1159 2491 1159 1978 
L 1159 0 
L 581 0 
L 581 4863 
L 1159 4863 
L 1159 2956 
Q 1366 3272 1645 3428 
Q 1925 3584 2291 3584 
Q 2894 3584 3203 3211 
Q 3513 2838 3513 2113 
z
" transform="scale(0.015625)"/>
      </defs>
      <use xlink:href="#DejaVuSans-44"/>
      <use xlink:href="#DejaVuSans-65" x="77.001953"/>
      <use xlink:href="#DejaVuSans-6c" x="138.525391"/>
      <use xlink:href="#DejaVuSans-74" x="166.308594"/>
      <use xlink:href="#DejaVuSans-61" x="205.517578"/>
      <use xlink:href="#DejaVuSans-20" x="266.796875"/>
      <use xlink:href="#DejaVuSans-54" x="298.583984"/>
      <use xlink:href="#DejaVuSans-68" x="359.667969"/>
      <use xlink:href="#DejaVuSans-65" x="423.046875"/>
      <use xlink:href="#DejaVuSans-74" x="484.570312"/>
      <use xlink:href="#DejaVuSans-61" x="523.779297"/>
     </g>
    </g>
   </g>
   <g id="line2d_34">
    <path d="M 90 353.031959 
L 90.8429 295.322915 
L 91.657916 -1 
M 91.759939 -1 
L 92.528701 104.125335 
L 93.371601 337.131653 
L 94.214502 176.836126 
L 95.057402 53.046065 
L 95.900302 222.369936 
L 96.743202 212.161597 
L 97.586103 189.673432 
L 98.429003 334.41411 
L 99.138793 -1 
M 99.458622 -1 
L 100.114804 220.054839 
L 100.78973 -1 
M 101.095691 -1 
L 101.800604 280.051497 
L 102.477513 -1 
M 102.785448 -1 
L 103.486405 339.342799 
L 104.329305 265.98739 
L 105.172205 7.241626 
L 106.015106 221.592092 
L 106.858006 231.188837 
L 107.700906 64.091062 
L 108.389443 -1 
M 108.581112 -1 
L 109.386707 314.130286 
L 110.229607 250.18894 
L 111.072508 351.996387 
L 111.915408 73.240006 
L 112.758308 112.35923 
L 113.601208 97.536046 
L 114.444109 362.859238 
L 115.287009 357.16593 
L 116.129909 316.176531 
L 116.97281 224.727578 
L 117.81571 184.906368 
L 118.65861 216.831029 
L 119.501511 175.978318 
L 120.344411 49.708237 
L 121.187311 104.928001 
L 121.727148 -1 
M 122.20974 -1 
L 122.873112 218.738105 
L 123.716012 350.490554 
L 124.33156 -1 
M 124.805748 -1 
L 125.401813 312.498481 
L 126.244713 54.161575 
L 127.087613 213.024759 
L 127.930514 159.032542 
L 128.537438 -1 
M 128.975903 -1 
L 129.616314 195.788586 
L 130.459215 287.77475 
L 131.302115 265.728661 
L 132.145015 358.293913 
L 132.987915 254.470843 
L 133.830816 310.084743 
L 134.673716 246.311055 
L 135.516616 312.721481 
L 136.359517 185.995742 
L 137.202417 270.899816 
L 138.045317 298.19795 
L 138.888218 314.391148 
L 139.731118 347.798459 
L 141.416918 211.657265 
L 142.259819 358.640123 
L 143.102719 196.028861 
L 143.945619 106.709452 
L 144.78852 103.643619 
L 145.194637 -1 
M 146.029813 -1 
L 146.47432 124.572357 
L 147.317221 237.365548 
L 147.999185 -1 
M 148.348093 -1 
L 149.003021 194.989106 
L 149.845921 300.757129 
L 150.807882 -1 
M 151.904323 -1 
L 152.374622 283.422393 
L 153.217523 146.56323 
L 154.060423 260.512078 
L 154.903323 80.155113 
L 155.746224 253.782841 
L 156.589124 169.010154 
L 157.432024 264.226116 
L 158.274924 21.77981 
L 159.117825 339.209597 
L 160.803625 244.52354 
L 161.646526 343.193993 
L 162.489426 326.438447 
L 163.332326 250.494768 
L 164.175227 277.506297 
L 165.018127 17.843441 
L 166.703927 345.578675 
L 167.546828 261.010835 
L 168.084288 -1 
M 169.348754 -1 
L 170.075529 354.228786 
L 170.918429 121.790802 
L 171.761329 268.440265 
L 172.60423 223.596451 
L 173.44713 257.608008 
L 174.29003 160.878121 
L 175.132931 241.752584 
L 175.975831 60.97294 
L 177.661631 355.65241 
L 178.504532 322.918863 
L 179.347432 315.408339 
L 180.190332 65.34551 
L 181.033233 151.190581 
L 181.876133 363.479147 
L 182.714779 -1 
M 183.829494 -1 
L 184.404834 85.179538 
L 185.247734 167.121851 
L 186.090634 206.600695 
L 186.667706 -1 
M 187.281738 -1 
L 187.776435 134.864955 
L 188.619335 308.255024 
L 189.462236 156.202791 
L 190.305136 186.309472 
L 191.148036 339.848223 
L 191.990937 364.501137 
L 192.833837 246.599275 
L 193.676737 251.375527 
L 194.519637 291.56253 
L 195.362538 124.861803 
L 196.205438 287.942985 
L 197.048338 13.160479 
L 197.891239 342.747295 
L 198.734139 215.318351 
L 199.577039 265.346429 
L 201.26284 31.109146 
L 202.10574 223.764823 
L 202.94864 321.306403 
L 203.791541 281.643566 
L 204.634441 306.581054 
L 205.477341 340.455739 
L 206.320242 154.136355 
L 207.163142 147.192251 
L 208.006042 286.375165 
L 208.848943 260.999818 
L 209.691843 258.706382 
L 210.534743 359.377863 
L 211.377644 334.417128 
L 212.220544 252.894285 
L 213.063444 276.611285 
L 214.749245 29.881032 
L 215.592145 121.815321 
L 216.435045 288.297436 
L 217.277946 175.616665 
L 218.120846 274.785515 
L 218.963746 120.643386 
L 219.806647 326.59543 
L 220.649547 300.750333 
L 221.492447 102.215405 
L 222.335347 134.201231 
L 223.178248 356.843485 
L 224.864048 28.750599 
L 225.706949 336.156276 
L 226.549849 211.090208 
L 227.392749 221.894069 
L 228.23565 209.379521 
L 229.07855 282.318637 
L 229.92145 315.032981 
L 230.76435 308.881206 
L 231.607251 215.981013 
L 232.350563 -1 
M 232.787942 -1 
L 233.293051 42.470503 
L 234.135952 335.775581 
L 234.978852 97.45887 
L 235.821752 256.182802 
L 236.664653 117.508896 
L 237.507553 316.592419 
L 238.350453 357.915428 
L 239.193353 198.458347 
L 240.036254 253.04649 
L 240.879154 146.041433 
L 241.722054 351.526193 
L 242.564955 45.957523 
L 243.407855 228.928627 
L 244.250755 66.870027 
L 245.093656 236.619988 
L 245.936556 267.976457 
L 246.779456 101.487708 
L 247.622356 40.532835 
L 248.465257 138.107811 
L 249.308157 99.108603 
L 250.151057 329.635395 
L 251.827559 -1 
M 251.84233 -1 
L 252.679758 267.862159 
L 253.522659 142.591387 
L 254.365559 248.644048 
L 255.208459 260.044599 
L 256.05136 256.365445 
L 256.89426 291.814938 
L 257.73716 264.577436 
L 258.58006 360.770264 
L 259.422961 353.880702 
L 260.265861 208.198916 
L 261.108761 136.823507 
L 261.951662 303.894243 
L 262.761507 -1 
M 262.837721 -1 
L 263.637462 229.600076 
L 264.480363 211.106249 
L 265.323263 2.884552 
L 266.166163 96.585937 
L 267.851964 335.477077 
L 268.650349 -1 
M 268.740115 -1 
L 269.537764 329.694285 
L 270.380665 315.411982 
L 271.223565 352.606833 
L 272.066465 77.278 
L 272.712825 -1 
M 272.966083 -1 
L 273.752266 328.931381 
L 274.595166 291.863636 
L 275.438066 156.816981 
L 276.280967 333.929494 
L 277.123867 333.578199 
L 277.741104 -1 
M 278.923001 -1 
L 279.652568 260.071875 
L 280.495468 230.704239 
L 281.114203 -1 
M 281.734524 -1 
L 282.181269 93.666036 
L 283.024169 330.498857 
L 283.867069 335.997303 
L 284.49636 -1 
M 285.548789 -1 
L 285.55287 -0.44351 
L 286.39577 249.163721 
L 287.238671 223.892619 
L 288.081571 353.39116 
L 288.924471 350.980536 
L 289.641452 -1 
M 290.35301 -1 
L 290.610272 26.155054 
L 291.453172 286.055089 
L 292.296073 254.875521 
L 293.138973 117.287164 
L 293.981873 306.712027 
L 294.824773 264.406994 
L 295.667674 362.570147 
L 296.510574 114.119093 
L 297.353474 205.50078 
L 297.9103 -1 
M 298.45871 -1 
L 299.039275 233.787833 
L 299.882175 241.661006 
L 300.725076 332.124351 
L 301.567976 159.726701 
L 302.410876 11.90303 
L 303.253776 278.038796 
L 304.077031 -1 
M 304.115218 -1 
L 304.939577 295.050554 
L 305.782477 243.258566 
L 306.55534 -1 
M 306.678212 -1 
L 307.468278 329.999427 
L 308.311178 260.719544 
L 309.154079 71.62776 
L 309.996979 235.749428 
L 310.839879 305.580898 
L 311.682779 315.271862 
L 312.52568 142.651983 
L 313.36858 83.218902 
L 314.21148 212.164065 
L 315.054381 282.01931 
L 315.897281 19.538439 
L 316.740181 338.940148 
L 317.583082 75.029355 
L 318.425982 286.747565 
L 319.268882 220.376178 
L 320.111782 259.509544 
L 320.954683 127.825956 
L 321.797583 266.13021 
L 322.640483 109.023008 
L 323.483384 329.124185 
L 324.326284 264.899336 
L 325.169184 263.102242 
L 325.846458 -1 
M 326.212611 -1 
L 326.854985 205.897469 
L 327.697885 323.239689 
L 328.540785 303.607376 
L 329.383686 314.345391 
L 330.226586 362.378377 
L 331.069486 291.339105 
L 331.912387 60.605084 
L 332.755287 211.075066 
L 333.598187 264.554099 
L 334.441088 346.491667 
L 335.283988 353.467935 
L 336.126888 324.655287 
L 336.969789 162.047086 
L 337.812689 277.580567 
L 338.655589 174.181384 
L 339.498489 318.690495 
L 340.34139 355.74369 
L 341.18429 287.342726 
L 342.02719 158.37491 
L 342.703641 -1 
M 342.979028 -1 
L 343.712991 263.217721 
L 344.555891 52.549449 
L 345.398792 359.030072 
L 346.241692 334.388951 
L 347.084592 121.265081 
L 347.927492 355.134544 
L 348.770393 168.588924 
L 349.613293 322.013492 
L 350.456193 136.7221 
L 351.299094 121.161351 
L 352.141994 185.976905 
L 352.984894 217.067083 
L 353.827795 206.587363 
L 354.670695 289.050949 
L 355.513595 286.284121 
L 356.356495 338.290192 
L 357.199396 260.87116 
L 358.042296 283.590636 
L 358.885196 192.206424 
L 359.728097 249.614629 
L 360.570997 9.953847 
L 361.413897 242.020021 
L 362.245328 -1 
M 362.281472 -1 
L 363.099698 110.16692 
L 363.942598 126.889994 
L 364.785498 201.362663 
L 365.628399 168.119814 
L 366.471299 243.375732 
L 367.314199 242.230711 
L 368.1571 287.8369 
L 369 278.13178 
L 369.8429 260.47277 
L 370.685801 215.626775 
L 371.528701 358.539325 
L 372.371601 67.751647 
L 373.214502 232.531651 
L 374.057402 363.473456 
L 374.900302 255.515224 
L 375.743202 176.946292 
L 376.586103 112.316579 
L 377.429003 122.008159 
L 378.100703 -1 
M 378.36261 -1 
L 379.114804 258.986717 
L 379.957704 8.698332 
L 380.800604 220.872611 
L 381.643505 175.302566 
L 382.486405 346.133796 
L 383.329305 271.673393 
L 384.172205 116.797714 
L 385.015106 361.552908 
L 385.858006 207.064958 
L 386.700906 352.122157 
L 387.543807 219.120408 
L 388.386707 335.503234 
L 389.229607 281.991395 
L 390.072508 331.881587 
L 390.915408 297.503898 
L 391.758308 115.647575 
L 392.601208 270.868662 
L 393.444109 183.998426 
L 394.287009 121.899049 
L 395.129909 236.607715 
L 395.97281 247.151637 
L 396.81571 188.477005 
L 397.65861 57.466808 
L 398.501511 222.987718 
L 399.344411 302.399193 
L 400.187311 315.72215 
L 401.030211 288.742087 
L 401.873112 283.141578 
L 402.519959 -1 
M 403.837594 -1 
L 404.401813 246.878785 
L 405.244713 175.492629 
L 406.087613 306.02344 
L 406.930514 162.309522 
L 407.773414 100.319887 
L 408.616314 138.209063 
L 409.459215 284.853068 
L 410.302115 302.707019 
L 411.145015 210.924669 
L 411.954317 -1 
M 412.01113 -1 
L 412.830816 309.651269 
L 413.673716 78.225087 
L 414.516616 321.575609 
L 415.080821 -1 
M 416.196625 -1 
L 416.202417 0.102515 
L 417.045317 340.734262 
L 417.888218 287.086361 
L 418.731118 305.402046 
L 419.574018 336.611415 
L 420.416918 311.045324 
L 421.259819 291.033241 
L 422.102719 332.992437 
L 422.945619 358.160238 
L 423.78852 348.10516 
L 424.63142 166.577664 
L 425.47432 72.360806 
L 426.317221 261.360417 
L 427.160121 329.528664 
L 428.003021 135.678236 
L 428.845921 -0.141132 
L 429.688822 158.366423 
L 430.531722 249.039786 
L 431.374622 27.24872 
L 432.217523 22.935446 
L 433.060423 166.345998 
L 434.746224 216.042529 
L 435.589124 351.587357 
L 436.432024 71.300081 
L 437.274924 273.502914 
L 438.117825 141.22114 
L 438.960725 198.812014 
L 439.803625 157.328142 
L 440.646526 60.595814 
L 440.870986 -1 
M 442.119884 -1 
L 443.175227 309.328127 
L 444.018127 138.705541 
L 444.861027 132.533424 
L 445.703927 362.497736 
L 446.546828 247.254078 
L 447.389728 223.87362 
L 448.232628 312.700507 
L 449.075529 108.478544 
L 449.918429 302.506701 
L 450.761329 179.538981 
L 451.60423 263.834602 
L 452.373624 -1 
M 452.589352 -1 
L 453.29003 123.652985 
L 454.132931 321.816847 
L 454.975831 286.246671 
L 455.818731 309.109986 
L 456.661631 315.4528 
L 457.504532 227.270425 
L 458.347432 241.973951 
L 459.190332 323.347399 
L 459.964676 -1 
M 460.130834 -1 
L 460.876133 218.281004 
L 461.719033 354.450902 
L 462.561934 32.98574 
L 463.404834 212.403385 
L 464.247734 145.947221 
L 465.090634 256.418138 
L 465.933535 167.453399 
L 466.776435 144.307613 
L 467.619335 302.157751 
L 468.462236 347.222099 
L 469.196848 -1 
M 470.357812 -1 
L 470.990937 228.233891 
L 471.833837 338.090105 
L 472.676737 301.266333 
L 473.519637 360.831897 
L 474.362538 231.097666 
L 475.205438 253.566182 
L 476.048338 310.656685 
L 477.734139 59.111341 
L 478.577039 175.588412 
L 479.41994 53.528244 
L 480.26284 59.659817 
L 481.10574 193.152901 
L 481.94864 285.68523 
L 482.791541 261.856034 
L 483.634441 31.473405 
L 484.477341 186.423763 
L 485.320242 198.91431 
L 486.163142 243.129437 
L 487.006042 207.876821 
L 487.848943 108.05546 
L 488.542366 -1 
M 488.745414 -1 
L 489.534743 345.377442 
L 490.368305 -1 
M 490.389397 -1 
L 491.220544 273.40041 
L 492.063444 13.899655 
L 492.906344 185.076266 
L 493.749245 156.454833 
L 494.592145 134.012041 
L 495.435045 259.63062 
L 496.277946 296.621892 
L 497.120846 246.864695 
L 497.963746 276.486842 
L 498.695915 -1 
M 498.912681 -1 
L 499.649547 290.637262 
L 500.492447 37.420944 
L 501.335347 116.87868 
L 502.178248 364.033214 
L 503.021148 305.354966 
L 503.864048 64.642838 
L 504.706949 235.293986 
L 505.482758 -1 
M 505.619272 -1 
L 506.392749 226.669201 
L 507.23565 85.046432 
L 508.07855 262.276557 
L 508.92145 33.544564 
L 509.76435 291.105419 
L 510.607251 247.429972 
L 511.450151 337.733426 
L 512.293051 226.172183 
L 513.135952 219.258791 
L 513.978852 130.374758 
L 514.821752 58.284274 
L 515.664653 247.274705 
L 516.507553 70.308917 
L 517.262289 -1 
M 517.43573 -1 
L 518.193353 73.005405 
L 519.11376 -1 
M 520.193804 -1 
L 520.722054 201.588114 
L 521.564955 353.827769 
L 522.407855 340.690326 
L 523.250755 323.413175 
L 524.093656 237.865423 
L 524.936556 87.896205 
L 525.779456 309.81137 
L 526.622356 250.861701 
L 527.465257 250.397549 
L 528.308157 239.201114 
L 529.151057 182.348788 
L 529.993958 259.079194 
L 530.836858 295.488211 
L 531.679758 308.443171 
L 532.522659 353.689635 
L 533.365559 330.197037 
L 534.208459 147.211838 
L 535.05136 230.397211 
L 535.89426 262.025178 
L 536.73716 345.496369 
L 537.58006 92.492035 
L 538.422961 227.038704 
L 539.265861 236.335682 
L 540.108761 301.562535 
L 540.951662 322.857061 
L 541.794562 214.447239 
L 542.637462 121.145586 
L 543.480363 123.881035 
L 544.323263 219.313265 
L 545.166163 231.285582 
L 546.009063 275.827475 
L 546.851964 303.465231 
L 547.602429 -1 
M 547.820655 -1 
L 548.537764 212.78485 
L 549.380665 166.226219 
L 550.223565 201.628669 
L 551.066465 108.988037 
L 551.909366 155.797377 
L 552.752266 314.129082 
L 553.595166 315.997877 
L 554.438066 250.261815 
L 555.280967 301.331896 
L 556.123867 119.453528 
L 556.966767 143.54841 
L 557.809668 136.487214 
L 558.652568 227.009463 
L 559.495468 165.51901 
L 560.338369 209.291931 
L 561.181269 128.248549 
L 562.024169 309.393853 
L 562.867069 355.319786 
L 563.70997 330.984242 
L 564.55287 283.89419 
L 565.39577 187.657017 
L 566.238671 277.02659 
L 567.924471 31.106978 
L 568.767372 220.660819 
L 569.462795 -1 
M 569.750343 -1 
L 570.453172 234.865134 
L 571.296073 227.275767 
L 572.138973 245.510263 
L 572.981873 85.739565 
L 573.824773 250.109806 
L 574.667674 194.558571 
L 575.510574 62.025881 
L 576.353474 158.909827 
L 577.196375 361.605033 
L 578.039275 231.501888 
L 578.882175 165.371972 
L 579.725076 268.6025 
L 580.567976 257.590952 
L 581.410876 240.543076 
L 582.253776 196.717692 
L 583.096677 127.47293 
L 583.939577 344.147091 
L 584.782477 320.795804 
L 585.625378 281.648169 
L 586.468278 63.67025 
L 587.311178 182.150347 
L 587.72004 -1 
M 588.463804 -1 
L 588.996979 333.697791 
L 589.839879 27.114757 
L 590.682779 356.456466 
L 591.52568 102.940277 
L 592.36858 172.094101 
L 593.21148 364.505689 
L 594.054381 142.836494 
L 594.897281 288.637841 
L 595.740181 232.252945 
L 596.583082 135.810755 
L 597.425982 253.195702 
L 598.268882 71.553459 
L 599.111782 332.131342 
L 599.954683 28.456314 
L 600.797583 277.079896 
L 601.640483 270.860887 
L 602.36337 -1 
M 602.594037 -1 
L 603.326284 297.676245 
L 604.169184 188.017882 
L 605.012085 23.72091 
L 605.854985 239.972626 
L 606.697885 223.054237 
L 607.540785 106.593329 
L 608.383686 201.19336 
L 609.226586 256.853379 
L 610.069486 266.304779 
L 610.912387 271.187121 
L 611.755287 107.082422 
L 612.598187 114.118904 
L 613.441088 364.225961 
L 614.283988 320.194966 
L 615.091662 -1 
M 615.235071 -1 
L 615.969789 94.13979 
L 616.812689 36.320812 
L 617.655589 309.18901 
L 618.498489 191.52431 
L 619.34139 208.227475 
L 619.891183 -1 
M 620.640906 -1 
L 621.870091 321.428159 
L 622.712991 261.948547 
L 623.555891 235.876685 
L 624.398792 248.927183 
L 625.241692 299.107421 
L 626.084592 312.439101 
L 626.927492 353.600183 
L 627.770393 351.512123 
L 628.613293 10.185721 
L 629.456193 16.001085 
L 630.299094 213.733252 
L 631.141994 52.237294 
L 631.984894 114.215123 
L 632.827795 265.660938 
L 633.670695 278.524538 
L 634.513595 138.589081 
L 635.356495 277.07619 
L 636.199396 35.743873 
L 637.042296 210.445595 
L 637.885196 347.517392 
L 638.728097 239.850662 
L 639.570997 63.457161 
L 640.413897 293.452246 
L 642.099698 77.043287 
L 642.942598 323.011961 
L 643.785498 288.808843 
L 644.628399 321.995378 
L 645.471299 154.263348 
L 646.314199 135.361538 
L 647.1571 126.070264 
L 647.1571 126.070264 
" clip-path="url(#p6e7a7703b6)" style="fill: none; stroke: #c0c0c0; stroke-width: 1.5; stroke-linecap: square"/>
   </g>
   <g id="patch_15">
    <path d="M 90 384.48 
L 90 286.644706 
" style="fill: none; stroke: #000000; stroke-width: 0.8; stroke-linejoin: miter; stroke-linecap: square"/>
   </g>
   <g id="patch_16">
    <path d="M 648 384.48 
L 648 286.644706 
" style="fill: none; stroke: #000000; stroke-width: 0.8; stroke-linejoin: miter; stroke-linecap: square"/>
   </g>
   <g id="patch_17">
    <path d="M 90 384.48 
L 648 384.48 
" style="fill: none; stroke: #000000; stroke-width: 0.8; stroke-linejoin: miter; stroke-linecap: square"/>
   </g>
   <g id="patch_18">
    <path d="M 90 286.644706 
L 648 286.644706 
" style="fill: none; stroke: #000000; stroke-width: 0.8; stroke-linejoin: miter; stroke-linecap: square"/>
   </g>
   <g id="legend_3">
    <g id="patch_19">
     <path d="M 500.4075 313.858456 
L 639.6 313.858456 
Q 642 313.858456 642 311.458456 
L 642 295.044706 
Q 642 292.644706 639.6 292.644706 
L 500.4075 292.644706 
Q 498.0075 292.644706 498.0075 295.044706 
L 498.0075 311.458456 
Q 498.0075 313.858456 500.4075 313.858456 
z
" style="fill: #ffffff; opacity: 0.5; stroke: #cccccc; stroke-linejoin: miter"/>
    </g>
    <g id="line2d_35">
     <path d="M 502.8075 302.362831 
L 514.8075 302.362831 
L 526.8075 302.362831 
" style="fill: none; stroke: #c0c0c0; stroke-width: 1.5; stroke-linecap: square"/>
    </g>
    <g id="text_36">
     <!-- abs(Delta Theta) -->
     <g transform="translate(536.4075 306.562831) scale(0.12 -0.12)">
      <use xlink:href="#DejaVuSans-61"/>
      <use xlink:href="#DejaVuSans-62" x="61.279297"/>
      <use xlink:href="#DejaVuSans-73" x="124.755859"/>
      <use xlink:href="#DejaVuSans-28" x="176.855469"/>
      <use xlink:href="#DejaVuSans-44" x="215.869141"/>
      <use xlink:href="#DejaVuSans-65" x="292.871094"/>
      <use xlink:href="#DejaVuSans-6c" x="354.394531"/>
      <use xlink:href="#DejaVuSans-74" x="382.177734"/>
      <use xlink:href="#DejaVuSans-61" x="421.386719"/>
      <use xlink:href="#DejaVuSans-20" x="482.666016"/>
      <use xlink:href="#DejaVuSans-54" x="514.453125"/>
      <use xlink:href="#DejaVuSans-68" x="575.537109"/>
      <use xlink:href="#DejaVuSans-65" x="638.916016"/>
      <use xlink:href="#DejaVuSans-74" x="700.439453"/>
      <use xlink:href="#DejaVuSans-61" x="739.648438"/>
      <use xlink:href="#DejaVuSans-29" x="800.927734"/>
     </g>
    </g>
   </g>
  </g>
 </g>
 <defs>
  <clipPath id="p7b76ab300b">
   <rect x="90" y="51.84" width="558" height="97.835294"/>
  </clipPath>
  <clipPath id="p313a9e13e9">
   <rect x="90" y="169.242353" width="558" height="97.835294"/>
  </clipPath>
  <clipPath id="p6e7a7703b6">
   <rect x="90" y="286.644706" width="558" height="97.835294"/>
  </clipPath>
 </defs>
</svg>
