<?xml version="1.0" encoding="utf-8" standalone="no"?>
<!DOCTYPE svg PUBLIC "-//W3C//DTD SVG 1.1//EN"
  "http://www.w3.org/Graphics/SVG/1.1/DTD/svg11.dtd">
<svg xmlns:xlink="http://www.w3.org/1999/xlink" width="720pt" height="432pt" viewBox="0 0 720 432" xmlns="http://www.w3.org/2000/svg" version="1.1">
 <metadata>
  <rdf:RDF xmlns:dc="http://purl.org/dc/elements/1.1/" xmlns:cc="http://creativecommons.org/ns#" xmlns:rdf="http://www.w3.org/1999/02/22-rdf-syntax-ns#">
   <cc:Work>
    <dc:type rdf:resource="http://purl.org/dc/dcmitype/StillImage"/>
    <dc:date>2024-05-05T00:48:02.287663</dc:date>
    <dc:format>image/svg+xml</dc:format>
    <dc:creator>
     <cc:Agent>
      <dc:title>Matplotlib v3.8.4, https://matplotlib.org/</dc:title>
     </cc:Agent>
    </dc:creator>
   </cc:Work>
  </rdf:RDF>
 </metadata>
 <defs>
  <style type="text/css">*{stroke-linejoin: round; stroke-linecap: butt}</style>
 </defs>
 <g id="figure_1">
  <g id="patch_1">
   <path d="M 0 432 
L 720 432 
L 720 0 
L 0 0 
z
" style="fill: #ffffff"/>
  </g>
  <g id="axes_1">
   <g id="patch_2">
    <path d="M 90 149.675294 
L 648 149.675294 
L 648 51.84 
L 90 51.84 
z
" style="fill: #ffffff"/>
   </g>
   <g id="matplotlib.axis_1">
    <g id="xtick_1">
     <g id="line2d_1">
      <defs>
       <path id="m4e3cf68e67" d="M 0 0 
L 0 3.5 
" style="stroke: #000000; stroke-width: 0.8"/>
      </defs>
      <g>
       <use xlink:href="#m4e3cf68e67" x="116.706229" y="149.675294" style="stroke: #000000; stroke-width: 0.8"/>
      </g>
     </g>
     <g id="text_1">
      <!-- 4700 -->
      <g transform="translate(103.981229 164.273732) scale(0.1 -0.1)">
       <defs>
        <path id="DejaVuSans-34" d="M 2419 4116 
L 825 1625 
L 2419 1625 
L 2419 4116 
z
M 2253 4666 
L 3047 4666 
L 3047 1625 
L 3713 1625 
L 3713 1100 
L 3047 1100 
L 3047 0 
L 2419 0 
L 2419 1100 
L 313 1100 
L 313 1709 
L 2253 4666 
z
" transform="scale(0.015625)"/>
        <path id="DejaVuSans-37" d="M 525 4666 
L 3525 4666 
L 3525 4397 
L 1831 0 
L 1172 0 
L 2766 4134 
L 525 4134 
L 525 4666 
z
" transform="scale(0.015625)"/>
        <path id="DejaVuSans-30" d="M 2034 4250 
Q 1547 4250 1301 3770 
Q 1056 3291 1056 2328 
Q 1056 1369 1301 889 
Q 1547 409 2034 409 
Q 2525 409 2770 889 
Q 3016 1369 3016 2328 
Q 3016 3291 2770 3770 
Q 2525 4250 2034 4250 
z
M 2034 4750 
Q 2819 4750 3233 4129 
Q 3647 3509 3647 2328 
Q 3647 1150 3233 529 
Q 2819 -91 2034 -91 
Q 1250 -91 836 529 
Q 422 1150 422 2328 
Q 422 3509 836 4129 
Q 1250 4750 2034 4750 
z
" transform="scale(0.015625)"/>
       </defs>
       <use xlink:href="#DejaVuSans-34"/>
       <use xlink:href="#DejaVuSans-37" x="63.623047"/>
       <use xlink:href="#DejaVuSans-30" x="127.246094"/>
       <use xlink:href="#DejaVuSans-30" x="190.869141"/>
      </g>
     </g>
    </g>
    <g id="xtick_2">
     <g id="line2d_2">
      <g>
       <use xlink:href="#m4e3cf68e67" x="200.441091" y="149.675294" style="stroke: #000000; stroke-width: 0.8"/>
      </g>
     </g>
     <g id="text_2">
      <!-- 4800 -->
      <g transform="translate(187.716091 164.273732) scale(0.1 -0.1)">
       <defs>
        <path id="DejaVuSans-38" d="M 2034 2216 
Q 1584 2216 1326 1975 
Q 1069 1734 1069 1313 
Q 1069 891 1326 650 
Q 1584 409 2034 409 
Q 2484 409 2743 651 
Q 3003 894 3003 1313 
Q 3003 1734 2745 1975 
Q 2488 2216 2034 2216 
z
M 1403 2484 
Q 997 2584 770 2862 
Q 544 3141 544 3541 
Q 544 4100 942 4425 
Q 1341 4750 2034 4750 
Q 2731 4750 3128 4425 
Q 3525 4100 3525 3541 
Q 3525 3141 3298 2862 
Q 3072 2584 2669 2484 
Q 3125 2378 3379 2068 
Q 3634 1759 3634 1313 
Q 3634 634 3220 271 
Q 2806 -91 2034 -91 
Q 1263 -91 848 271 
Q 434 634 434 1313 
Q 434 1759 690 2068 
Q 947 2378 1403 2484 
z
M 1172 3481 
Q 1172 3119 1398 2916 
Q 1625 2713 2034 2713 
Q 2441 2713 2670 2916 
Q 2900 3119 2900 3481 
Q 2900 3844 2670 4047 
Q 2441 4250 2034 4250 
Q 1625 4250 1398 4047 
Q 1172 3844 1172 3481 
z
" transform="scale(0.015625)"/>
       </defs>
       <use xlink:href="#DejaVuSans-34"/>
       <use xlink:href="#DejaVuSans-38" x="63.623047"/>
       <use xlink:href="#DejaVuSans-30" x="127.246094"/>
       <use xlink:href="#DejaVuSans-30" x="190.869141"/>
      </g>
     </g>
    </g>
    <g id="xtick_3">
     <g id="line2d_3">
      <g>
       <use xlink:href="#m4e3cf68e67" x="284.175954" y="149.675294" style="stroke: #000000; stroke-width: 0.8"/>
      </g>
     </g>
     <g id="text_3">
      <!-- 4900 -->
      <g transform="translate(271.450954 164.273732) scale(0.1 -0.1)">
       <defs>
        <path id="DejaVuSans-39" d="M 703 97 
L 703 672 
Q 941 559 1184 500 
Q 1428 441 1663 441 
Q 2288 441 2617 861 
Q 2947 1281 2994 2138 
Q 2813 1869 2534 1725 
Q 2256 1581 1919 1581 
Q 1219 1581 811 2004 
Q 403 2428 403 3163 
Q 403 3881 828 4315 
Q 1253 4750 1959 4750 
Q 2769 4750 3195 4129 
Q 3622 3509 3622 2328 
Q 3622 1225 3098 567 
Q 2575 -91 1691 -91 
Q 1453 -91 1209 -44 
Q 966 3 703 97 
z
M 1959 2075 
Q 2384 2075 2632 2365 
Q 2881 2656 2881 3163 
Q 2881 3666 2632 3958 
Q 2384 4250 1959 4250 
Q 1534 4250 1286 3958 
Q 1038 3666 1038 3163 
Q 1038 2656 1286 2365 
Q 1534 2075 1959 2075 
z
" transform="scale(0.015625)"/>
       </defs>
       <use xlink:href="#DejaVuSans-34"/>
       <use xlink:href="#DejaVuSans-39" x="63.623047"/>
       <use xlink:href="#DejaVuSans-30" x="127.246094"/>
       <use xlink:href="#DejaVuSans-30" x="190.869141"/>
      </g>
     </g>
    </g>
    <g id="xtick_4">
     <g id="line2d_4">
      <g>
       <use xlink:href="#m4e3cf68e67" x="367.910816" y="149.675294" style="stroke: #000000; stroke-width: 0.8"/>
      </g>
     </g>
     <g id="text_4">
      <!-- 5000 -->
      <g transform="translate(355.185816 164.273732) scale(0.1 -0.1)">
       <defs>
        <path id="DejaVuSans-35" d="M 691 4666 
L 3169 4666 
L 3169 4134 
L 1269 4134 
L 1269 2991 
Q 1406 3038 1543 3061 
Q 1681 3084 1819 3084 
Q 2600 3084 3056 2656 
Q 3513 2228 3513 1497 
Q 3513 744 3044 326 
Q 2575 -91 1722 -91 
Q 1428 -91 1123 -41 
Q 819 9 494 109 
L 494 744 
Q 775 591 1075 516 
Q 1375 441 1709 441 
Q 2250 441 2565 725 
Q 2881 1009 2881 1497 
Q 2881 1984 2565 2268 
Q 2250 2553 1709 2553 
Q 1456 2553 1204 2497 
Q 953 2441 691 2322 
L 691 4666 
z
" transform="scale(0.015625)"/>
       </defs>
       <use xlink:href="#DejaVuSans-35"/>
       <use xlink:href="#DejaVuSans-30" x="63.623047"/>
       <use xlink:href="#DejaVuSans-30" x="127.246094"/>
       <use xlink:href="#DejaVuSans-30" x="190.869141"/>
      </g>
     </g>
    </g>
    <g id="xtick_5">
     <g id="line2d_5">
      <g>
       <use xlink:href="#m4e3cf68e67" x="451.645679" y="149.675294" style="stroke: #000000; stroke-width: 0.8"/>
      </g>
     </g>
     <g id="text_5">
      <!-- 5100 -->
      <g transform="translate(438.920679 164.273732) scale(0.1 -0.1)">
       <defs>
        <path id="DejaVuSans-31" d="M 794 531 
L 1825 531 
L 1825 4091 
L 703 3866 
L 703 4441 
L 1819 4666 
L 2450 4666 
L 2450 531 
L 3481 531 
L 3481 0 
L 794 0 
L 794 531 
z
" transform="scale(0.015625)"/>
       </defs>
       <use xlink:href="#DejaVuSans-35"/>
       <use xlink:href="#DejaVuSans-31" x="63.623047"/>
       <use xlink:href="#DejaVuSans-30" x="127.246094"/>
       <use xlink:href="#DejaVuSans-30" x="190.869141"/>
      </g>
     </g>
    </g>
    <g id="xtick_6">
     <g id="line2d_6">
      <g>
       <use xlink:href="#m4e3cf68e67" x="535.380541" y="149.675294" style="stroke: #000000; stroke-width: 0.8"/>
      </g>
     </g>
     <g id="text_6">
      <!-- 5200 -->
      <g transform="translate(522.655541 164.273732) scale(0.1 -0.1)">
       <defs>
        <path id="DejaVuSans-32" d="M 1228 531 
L 3431 531 
L 3431 0 
L 469 0 
L 469 531 
Q 828 903 1448 1529 
Q 2069 2156 2228 2338 
Q 2531 2678 2651 2914 
Q 2772 3150 2772 3378 
Q 2772 3750 2511 3984 
Q 2250 4219 1831 4219 
Q 1534 4219 1204 4116 
Q 875 4013 500 3803 
L 500 4441 
Q 881 4594 1212 4672 
Q 1544 4750 1819 4750 
Q 2544 4750 2975 4387 
Q 3406 4025 3406 3419 
Q 3406 3131 3298 2873 
Q 3191 2616 2906 2266 
Q 2828 2175 2409 1742 
Q 1991 1309 1228 531 
z
" transform="scale(0.015625)"/>
       </defs>
       <use xlink:href="#DejaVuSans-35"/>
       <use xlink:href="#DejaVuSans-32" x="63.623047"/>
       <use xlink:href="#DejaVuSans-30" x="127.246094"/>
       <use xlink:href="#DejaVuSans-30" x="190.869141"/>
      </g>
     </g>
    </g>
    <g id="xtick_7">
     <g id="line2d_7">
      <g>
       <use xlink:href="#m4e3cf68e67" x="619.115404" y="149.675294" style="stroke: #000000; stroke-width: 0.8"/>
      </g>
     </g>
     <g id="text_7">
      <!-- 5300 -->
      <g transform="translate(606.390404 164.273732) scale(0.1 -0.1)">
       <defs>
        <path id="DejaVuSans-33" d="M 2597 2516 
Q 3050 2419 3304 2112 
Q 3559 1806 3559 1356 
Q 3559 666 3084 287 
Q 2609 -91 1734 -91 
Q 1441 -91 1130 -33 
Q 819 25 488 141 
L 488 750 
Q 750 597 1062 519 
Q 1375 441 1716 441 
Q 2309 441 2620 675 
Q 2931 909 2931 1356 
Q 2931 1769 2642 2001 
Q 2353 2234 1838 2234 
L 1294 2234 
L 1294 2753 
L 1863 2753 
Q 2328 2753 2575 2939 
Q 2822 3125 2822 3475 
Q 2822 3834 2567 4026 
Q 2313 4219 1838 4219 
Q 1578 4219 1281 4162 
Q 984 4106 628 3988 
L 628 4550 
Q 988 4650 1302 4700 
Q 1616 4750 1894 4750 
Q 2613 4750 3031 4423 
Q 3450 4097 3450 3541 
Q 3450 3153 3228 2886 
Q 3006 2619 2597 2516 
z
" transform="scale(0.015625)"/>
       </defs>
       <use xlink:href="#DejaVuSans-35"/>
       <use xlink:href="#DejaVuSans-33" x="63.623047"/>
       <use xlink:href="#DejaVuSans-30" x="127.246094"/>
       <use xlink:href="#DejaVuSans-30" x="190.869141"/>
      </g>
     </g>
    </g>
   </g>
   <g id="matplotlib.axis_2">
    <g id="ytick_1">
     <g id="line2d_8">
      <defs>
       <path id="meb4339717c" d="M 0 0 
L -3.5 0 
" style="stroke: #000000; stroke-width: 0.8"/>
      </defs>
      <g>
       <use xlink:href="#meb4339717c" x="90" y="135.698824" style="stroke: #000000; stroke-width: 0.8"/>
      </g>
     </g>
     <g id="text_8">
      <!-- 0 -->
      <g transform="translate(76.6375 139.498042) scale(0.1 -0.1)">
       <use xlink:href="#DejaVuSans-30"/>
      </g>
     </g>
    </g>
    <g id="ytick_2">
     <g id="line2d_9">
      <g>
       <use xlink:href="#meb4339717c" x="90" y="107.745882" style="stroke: #000000; stroke-width: 0.8"/>
      </g>
     </g>
     <g id="text_9">
      <!-- 10 -->
      <g transform="translate(70.275 111.545101) scale(0.1 -0.1)">
       <use xlink:href="#DejaVuSans-31"/>
       <use xlink:href="#DejaVuSans-30" x="63.623047"/>
      </g>
     </g>
    </g>
    <g id="ytick_3">
     <g id="line2d_10">
      <g>
       <use xlink:href="#meb4339717c" x="90" y="79.792941" style="stroke: #000000; stroke-width: 0.8"/>
      </g>
     </g>
     <g id="text_10">
      <!-- 20 -->
      <g transform="translate(70.275 83.59216) scale(0.1 -0.1)">
       <use xlink:href="#DejaVuSans-32"/>
       <use xlink:href="#DejaVuSans-30" x="63.623047"/>
      </g>
     </g>
    </g>
    <g id="ytick_4">
     <g id="line2d_11">
      <g>
       <use xlink:href="#meb4339717c" x="90" y="51.84" style="stroke: #000000; stroke-width: 0.8"/>
      </g>
     </g>
     <g id="text_11">
      <!-- 30 -->
      <g transform="translate(70.275 55.639219) scale(0.1 -0.1)">
       <use xlink:href="#DejaVuSans-33"/>
       <use xlink:href="#DejaVuSans-30" x="63.623047"/>
      </g>
     </g>
    </g>
    <g id="text_12">
     <!-- Delta X -->
     <g transform="translate(63.363438 126.453116) rotate(-90) scale(0.14 -0.14)">
      <defs>
       <path id="DejaVuSans-44" d="M 1259 4147 
L 1259 519 
L 2022 519 
Q 2988 519 3436 956 
Q 3884 1394 3884 2338 
Q 3884 3275 3436 3711 
Q 2988 4147 2022 4147 
L 1259 4147 
z
M 628 4666 
L 1925 4666 
Q 3281 4666 3915 4102 
Q 4550 3538 4550 2338 
Q 4550 1131 3912 565 
Q 3275 0 1925 0 
L 628 0 
L 628 4666 
z
" transform="scale(0.015625)"/>
       <path id="DejaVuSans-65" d="M 3597 1894 
L 3597 1613 
L 953 1613 
Q 991 1019 1311 708 
Q 1631 397 2203 397 
Q 2534 397 2845 478 
Q 3156 559 3463 722 
L 3463 178 
Q 3153 47 2828 -22 
Q 2503 -91 2169 -91 
Q 1331 -91 842 396 
Q 353 884 353 1716 
Q 353 2575 817 3079 
Q 1281 3584 2069 3584 
Q 2775 3584 3186 3129 
Q 3597 2675 3597 1894 
z
M 3022 2063 
Q 3016 2534 2758 2815 
Q 2500 3097 2075 3097 
Q 1594 3097 1305 2825 
Q 1016 2553 972 2059 
L 3022 2063 
z
" transform="scale(0.015625)"/>
       <path id="DejaVuSans-6c" d="M 603 4863 
L 1178 4863 
L 1178 0 
L 603 0 
L 603 4863 
z
" transform="scale(0.015625)"/>
       <path id="DejaVuSans-74" d="M 1172 4494 
L 1172 3500 
L 2356 3500 
L 2356 3053 
L 1172 3053 
L 1172 1153 
Q 1172 725 1289 603 
Q 1406 481 1766 481 
L 2356 481 
L 2356 0 
L 1766 0 
Q 1100 0 847 248 
Q 594 497 594 1153 
L 594 3053 
L 172 3053 
L 172 3500 
L 594 3500 
L 594 4494 
L 1172 4494 
z
" transform="scale(0.015625)"/>
       <path id="DejaVuSans-61" d="M 2194 1759 
Q 1497 1759 1228 1600 
Q 959 1441 959 1056 
Q 959 750 1161 570 
Q 1363 391 1709 391 
Q 2188 391 2477 730 
Q 2766 1069 2766 1631 
L 2766 1759 
L 2194 1759 
z
M 3341 1997 
L 3341 0 
L 2766 0 
L 2766 531 
Q 2569 213 2275 61 
Q 1981 -91 1556 -91 
Q 1019 -91 701 211 
Q 384 513 384 1019 
Q 384 1609 779 1909 
Q 1175 2209 1959 2209 
L 2766 2209 
L 2766 2266 
Q 2766 2663 2505 2880 
Q 2244 3097 1772 3097 
Q 1472 3097 1187 3025 
Q 903 2953 641 2809 
L 641 3341 
Q 956 3463 1253 3523 
Q 1550 3584 1831 3584 
Q 2591 3584 2966 3190 
Q 3341 2797 3341 1997 
z
" transform="scale(0.015625)"/>
       <path id="DejaVuSans-20" transform="scale(0.015625)"/>
       <path id="DejaVuSans-58" d="M 403 4666 
L 1081 4666 
L 2241 2931 
L 3406 4666 
L 4084 4666 
L 2584 2425 
L 4184 0 
L 3506 0 
L 2194 1984 
L 872 0 
L 191 0 
L 1856 2491 
L 403 4666 
z
" transform="scale(0.015625)"/>
      </defs>
      <use xlink:href="#DejaVuSans-44"/>
      <use xlink:href="#DejaVuSans-65" x="77.001953"/>
      <use xlink:href="#DejaVuSans-6c" x="138.525391"/>
      <use xlink:href="#DejaVuSans-74" x="166.308594"/>
      <use xlink:href="#DejaVuSans-61" x="205.517578"/>
      <use xlink:href="#DejaVuSans-20" x="266.796875"/>
      <use xlink:href="#DejaVuSans-58" x="298.583984"/>
     </g>
    </g>
   </g>
   <g id="line2d_12">
    <path d="M 90 135.698824 
L 106.858006 135.65086 
L 108.543807 135.566943 
L 118.65861 135.683157 
L 119.501511 134.967727 
L 120.344411 135.413806 
L 121.187311 134.868411 
L 122.030211 134.647755 
L 122.873112 134.55221 
L 123.716012 135.325579 
L 124.558912 135.665542 
L 127.087613 135.682516 
L 127.930514 135.553825 
L 131.302115 135.444801 
L 132.145015 135.649254 
L 132.987915 135.581622 
L 133.830816 135.689702 
L 134.673716 135.658303 
L 135.516616 135.17792 
L 136.359517 134.928276 
L 137.202417 134.816084 
L 138.045317 135.305726 
L 138.888218 135.568873 
L 143.102719 135.690791 
L 143.945619 135.607372 
L 144.78852 135.653594 
L 145.63142 135.577053 
L 146.47432 135.647798 
L 149.003021 135.529044 
L 150.688822 135.664829 
L 151.531722 135.627536 
L 152.374622 134.846135 
L 153.217523 135.376221 
L 154.060423 135.603332 
L 155.746224 135.685487 
L 161.646526 135.578871 
L 162.489426 134.557062 
L 163.332326 134.199278 
L 164.175227 132.855276 
L 165.018127 134.330599 
L 166.703927 134.367502 
L 167.546828 134.557871 
L 168.389728 133.404452 
L 169.232628 134.6844 
L 170.075529 135.10769 
L 170.918429 135.050584 
L 171.761329 133.855293 
L 172.60423 134.80567 
L 173.44713 135.2441 
L 175.975831 135.665008 
L 181.876133 135.635048 
L 182.719033 135.499887 
L 183.561934 135.681289 
L 184.404834 135.531278 
L 188.619335 135.495385 
L 189.462236 135.629687 
L 191.148036 135.488002 
L 193.676737 135.624199 
L 194.519637 135.41285 
L 195.362538 135.645967 
L 196.205438 135.545956 
L 197.048338 135.663093 
L 197.891239 135.611367 
L 198.734139 135.671426 
L 200.41994 135.564952 
L 201.26284 135.613986 
L 202.10574 135.41491 
L 202.94864 135.6494 
L 204.634441 135.411688 
L 205.477341 135.525524 
L 207.163142 135.3015 
L 208.006042 135.476756 
L 209.691843 135.373179 
L 210.534743 135.615663 
L 211.377644 135.526771 
L 212.220544 135.654879 
L 213.906344 135.557278 
L 214.749245 135.656843 
L 215.592145 135.643296 
L 216.435045 135.497416 
L 218.120846 135.679652 
L 218.963746 135.451402 
L 222.335347 135.508613 
L 223.178248 135.567496 
L 224.021148 135.413276 
L 225.706949 135.495222 
L 226.549849 135.617842 
L 250.993958 135.540993 
L 252.679758 135.492933 
L 253.522659 135.474545 
L 254.365559 135.22892 
L 255.208459 135.297625 
L 256.89426 135.686584 
L 257.73716 135.297495 
L 259.422961 135.491506 
L 260.265861 135.187711 
L 261.951662 135.476601 
L 262.794562 135.359512 
L 264.480363 135.697566 
L 267.009063 135.339019 
L 267.851964 135.468093 
L 268.694864 135.012976 
L 270.380665 134.688664 
L 271.223565 135.078567 
L 272.066465 134.804595 
L 272.909366 134.684441 
L 273.752266 135.071559 
L 275.438066 135.311756 
L 276.280967 134.903222 
L 277.123867 134.725666 
L 277.966767 135.088232 
L 278.809668 134.807244 
L 279.652568 135.124905 
L 280.495468 135.262695 
L 281.338369 134.882568 
L 282.181269 135.157183 
L 283.867069 135.327854 
L 284.70997 134.910291 
L 285.55287 135.168651 
L 287.238671 135.330745 
L 288.081571 134.912522 
L 288.924471 135.170595 
L 289.767372 134.842698 
L 290.610272 134.700178 
L 291.453172 135.077965 
L 292.296073 134.80205 
L 293.981873 134.629875 
L 294.824773 135.04687 
L 295.667674 135.227792 
L 296.510574 134.86794 
L 297.353474 134.711544 
L 298.196375 135.083307 
L 299.882175 135.314478 
L 300.725076 134.904868 
L 301.567976 135.166682 
L 302.410876 134.840408 
L 303.253776 135.169177 
L 304.096677 135.318637 
L 304.939577 135.676608 
L 306.625378 135.391824 
L 308.311178 135.599587 
L 311.682779 135.578337 
L 312.52568 135.66823 
L 315.897281 135.542562 
L 319.268882 135.664785 
L 320.954683 135.582141 
L 323.483384 135.484875 
L 324.326284 135.66439 
L 326.012085 135.690853 
L 328.540785 135.54528 
L 329.383686 135.669448 
L 331.069486 135.694924 
L 331.912387 134.621053 
L 332.755287 135.19426 
L 333.598187 135.440882 
L 336.126888 135.655102 
L 336.969789 135.680504 
L 337.812689 134.656734 
L 338.655589 135.225505 
L 339.498489 135.491564 
L 340.34139 134.584502 
L 341.18429 135.226468 
L 342.02719 135.505012 
L 344.555891 135.612991 
L 347.927492 135.626242 
L 348.770393 135.542573 
L 350.456193 135.68476 
L 370.685801 135.696003 
L 371.528701 134.492049 
L 372.371601 133.970109 
L 373.214502 133.743805 
L 374.057402 134.859436 
L 374.900302 135.366537 
L 375.743202 135.583643 
L 376.586103 135.656161 
L 378.271903 135.556768 
L 381.643505 135.637668 
L 382.486405 135.560971 
L 383.329305 135.664066 
L 394.287009 135.581639 
L 395.129909 135.692288 
L 395.97281 135.565752 
L 406.087613 135.662063 
L 406.930514 135.538114 
L 408.616314 135.506783 
L 409.459215 135.271493 
L 411.145015 135.55896 
L 411.987915 135.414396 
L 415.359517 135.497049 
L 416.202417 135.633314 
L 419.574018 135.28329 
L 420.416918 135.526665 
L 421.259819 135.577249 
L 422.945619 135.48278 
L 423.78852 135.546705 
L 425.47432 135.412304 
L 426.317221 135.635687 
L 430.531722 135.560512 
L 432.217523 135.651489 
L 435.589124 135.45812 
L 436.432024 135.60167 
L 438.117825 135.681579 
L 438.960725 135.688446 
L 439.803625 135.519783 
L 440.646526 135.519107 
L 441.489426 135.663864 
L 444.861027 135.51338 
L 445.703927 135.280731 
L 446.546828 135.439496 
L 447.389728 134.582799 
L 448.232628 134.268859 
L 449.075529 135.158795 
L 449.918429 135.543727 
L 450.761329 135.521118 
L 451.60423 135.642078 
L 452.44713 135.606582 
L 453.29003 135.401822 
L 457.504532 135.687884 
L 458.347432 135.337101 
L 460.033233 135.446212 
L 463.404834 135.318368 
L 465.090634 135.54784 
L 465.933535 135.651288 
L 467.619335 135.602246 
L 468.462236 135.681196 
L 470.148036 135.547599 
L 470.990937 135.602785 
L 471.833837 135.519261 
L 474.362538 135.601413 
L 475.205438 135.427343 
L 476.048338 135.655389 
L 479.41994 135.280415 
L 481.10574 135.190543 
L 482.791541 135.361244 
L 483.634441 135.696304 
L 485.320242 135.669928 
L 486.163142 135.572341 
L 487.848943 135.696941 
L 489.534743 135.433499 
L 491.220544 135.561887 
L 492.063444 135.65544 
L 492.906344 135.568793 
L 494.592145 135.672108 
L 495.435045 135.501354 
L 496.277946 135.626104 
L 497.120846 135.52268 
L 497.963746 135.662984 
L 503.864048 135.698268 
L 505.549849 135.691658 
L 506.392749 134.631508 
L 507.23565 134.174831 
L 508.07855 134.991083 
L 508.92145 134.334647 
L 509.76435 135.062412 
L 510.607251 134.365613 
L 511.450151 135.075811 
L 513.135952 135.505998 
L 514.821752 135.586927 
L 515.664653 134.581807 
L 516.507553 134.14567 
L 517.350453 134.969662 
L 518.193353 135.327672 
L 519.036254 135.48333 
L 519.879154 134.536437 
L 520.722054 134.125477 
L 521.564955 134.960363 
L 522.407855 134.309937 
L 523.250755 135.040844 
L 524.093656 134.345461 
L 524.936556 135.056846 
L 525.779456 135.365932 
L 526.622356 135.498596 
L 527.465257 134.543448 
L 528.308157 134.128902 
L 529.151057 133.949092 
L 529.993958 134.884346 
L 530.836858 135.290638 
L 532.522659 135.542583 
L 534.208459 135.589966 
L 535.05136 127.096792 
L 535.89426 124.196549 
L 536.73716 122.617815 
L 537.58006 122.741284 
L 538.422961 122.53299 
L 539.265861 129.867306 
L 540.108761 126.301443 
L 540.951662 131.51508 
L 541.794562 126.711585 
L 542.637462 124.558077 
L 543.480363 130.840495 
L 544.323263 133.623395 
L 545.166163 134.772545 
L 546.009063 135.26273 
L 546.851964 135.488342 
L 548.537764 135.621464 
L 553.595166 135.51504 
L 554.438066 135.603636 
L 555.280967 135.557943 
L 556.123867 135.650377 
L 557.809668 135.55328 
L 559.495468 135.665953 
L 561.181269 135.533945 
L 562.024169 135.320846 
L 562.867069 135.374222 
L 563.70997 135.59621 
L 564.55287 135.503618 
L 568.767372 135.524193 
L 574.667674 135.678205 
L 575.510574 133.39247 
L 576.353474 132.282715 
L 578.039275 132.419326 
L 578.882175 132.608295 
L 579.725076 132.95162 
L 581.410876 133.947559 
L 582.253776 135.645746 
L 583.939577 135.655544 
L 588.996979 135.623825 
L 590.682779 135.502026 
L 591.52568 135.689811 
L 592.36858 135.46066 
L 593.21148 135.616281 
L 596.583082 135.679055 
L 597.425982 134.958372 
L 598.268882 134.646336 
L 599.111782 135.241817 
L 599.954683 134.769917 
L 600.797583 134.56503 
L 601.640483 135.206524 
L 602.483384 134.754326 
L 603.326284 135.2886 
L 605.012085 135.676613 
L 605.854985 135.688829 
L 606.697885 135.588215 
L 607.540785 135.687154 
L 608.383686 135.632625 
L 609.226586 135.692054 
L 610.069486 135.551503 
L 610.912387 135.67937 
L 611.755287 135.480253 
L 615.969789 135.58089 
L 616.812689 135.347552 
L 617.655589 135.243131 
L 621.02719 135.57728 
L 621.870091 135.496005 
L 622.712991 135.588374 
L 625.241692 135.025525 
L 626.084592 135.568418 
L 629.456193 135.433064 
L 630.299094 135.47113 
L 631.141994 135.300581 
L 631.984894 135.548317 
L 632.827795 135.500372 
L 634.513595 135.177201 
L 636.199396 135.111924 
L 639.570997 135.064594 
L 641.256798 135.146244 
L 642.099698 135.350883 
L 643.785498 135.335533 
L 644.628399 135.199786 
L 647.1571 135.109865 
L 647.1571 135.109865 
" clip-path="url(#p6e38f3f694)" style="fill: none; stroke: #bc8f8f; stroke-width: 1.5; stroke-linecap: square"/>
   </g>
   <g id="patch_3">
    <path d="M 90 149.675294 
L 90 51.84 
" style="fill: none; stroke: #000000; stroke-width: 0.8; stroke-linejoin: miter; stroke-linecap: square"/>
   </g>
   <g id="patch_4">
    <path d="M 648 149.675294 
L 648 51.84 
" style="fill: none; stroke: #000000; stroke-width: 0.8; stroke-linejoin: miter; stroke-linecap: square"/>
   </g>
   <g id="patch_5">
    <path d="M 90 149.675294 
L 648 149.675294 
" style="fill: none; stroke: #000000; stroke-width: 0.8; stroke-linejoin: miter; stroke-linecap: square"/>
   </g>
   <g id="patch_6">
    <path d="M 90 51.84 
L 648 51.84 
" style="fill: none; stroke: #000000; stroke-width: 0.8; stroke-linejoin: miter; stroke-linecap: square"/>
   </g>
   <g id="legend_1">
    <g id="patch_7">
     <path d="M 526.56375 79.05375 
L 639.6 79.05375 
Q 642 79.05375 642 76.65375 
L 642 60.24 
Q 642 57.84 639.6 57.84 
L 526.56375 57.84 
Q 524.16375 57.84 524.16375 60.24 
L 524.16375 76.65375 
Q 524.16375 79.05375 526.56375 79.05375 
z
" style="fill: #ffffff; opacity: 0.5; stroke: #cccccc; stroke-linejoin: miter"/>
    </g>
    <g id="line2d_13">
     <path d="M 528.96375 67.558125 
L 540.96375 67.558125 
L 552.96375 67.558125 
" style="fill: none; stroke: #bc8f8f; stroke-width: 1.5; stroke-linecap: square"/>
    </g>
    <g id="text_13">
     <!-- abs(Delta X) -->
     <g transform="translate(562.56375 71.758125) scale(0.12 -0.12)">
      <defs>
       <path id="DejaVuSans-62" d="M 3116 1747 
Q 3116 2381 2855 2742 
Q 2594 3103 2138 3103 
Q 1681 3103 1420 2742 
Q 1159 2381 1159 1747 
Q 1159 1113 1420 752 
Q 1681 391 2138 391 
Q 2594 391 2855 752 
Q 3116 1113 3116 1747 
z
M 1159 2969 
Q 1341 3281 1617 3432 
Q 1894 3584 2278 3584 
Q 2916 3584 3314 3078 
Q 3713 2572 3713 1747 
Q 3713 922 3314 415 
Q 2916 -91 2278 -91 
Q 1894 -91 1617 61 
Q 1341 213 1159 525 
L 1159 0 
L 581 0 
L 581 4863 
L 1159 4863 
L 1159 2969 
z
" transform="scale(0.015625)"/>
       <path id="DejaVuSans-73" d="M 2834 3397 
L 2834 2853 
Q 2591 2978 2328 3040 
Q 2066 3103 1784 3103 
Q 1356 3103 1142 2972 
Q 928 2841 928 2578 
Q 928 2378 1081 2264 
Q 1234 2150 1697 2047 
L 1894 2003 
Q 2506 1872 2764 1633 
Q 3022 1394 3022 966 
Q 3022 478 2636 193 
Q 2250 -91 1575 -91 
Q 1294 -91 989 -36 
Q 684 19 347 128 
L 347 722 
Q 666 556 975 473 
Q 1284 391 1588 391 
Q 1994 391 2212 530 
Q 2431 669 2431 922 
Q 2431 1156 2273 1281 
Q 2116 1406 1581 1522 
L 1381 1569 
Q 847 1681 609 1914 
Q 372 2147 372 2553 
Q 372 3047 722 3315 
Q 1072 3584 1716 3584 
Q 2034 3584 2315 3537 
Q 2597 3491 2834 3397 
z
" transform="scale(0.015625)"/>
       <path id="DejaVuSans-28" d="M 1984 4856 
Q 1566 4138 1362 3434 
Q 1159 2731 1159 2009 
Q 1159 1288 1364 580 
Q 1569 -128 1984 -844 
L 1484 -844 
Q 1016 -109 783 600 
Q 550 1309 550 2009 
Q 550 2706 781 3412 
Q 1013 4119 1484 4856 
L 1984 4856 
z
" transform="scale(0.015625)"/>
       <path id="DejaVuSans-29" d="M 513 4856 
L 1013 4856 
Q 1481 4119 1714 3412 
Q 1947 2706 1947 2009 
Q 1947 1309 1714 600 
Q 1481 -109 1013 -844 
L 513 -844 
Q 928 -128 1133 580 
Q 1338 1288 1338 2009 
Q 1338 2731 1133 3434 
Q 928 4138 513 4856 
z
" transform="scale(0.015625)"/>
      </defs>
      <use xlink:href="#DejaVuSans-61"/>
      <use xlink:href="#DejaVuSans-62" x="61.279297"/>
      <use xlink:href="#DejaVuSans-73" x="124.755859"/>
      <use xlink:href="#DejaVuSans-28" x="176.855469"/>
      <use xlink:href="#DejaVuSans-44" x="215.869141"/>
      <use xlink:href="#DejaVuSans-65" x="292.871094"/>
      <use xlink:href="#DejaVuSans-6c" x="354.394531"/>
      <use xlink:href="#DejaVuSans-74" x="382.177734"/>
      <use xlink:href="#DejaVuSans-61" x="421.386719"/>
      <use xlink:href="#DejaVuSans-20" x="482.666016"/>
      <use xlink:href="#DejaVuSans-58" x="514.453125"/>
      <use xlink:href="#DejaVuSans-29" x="582.958984"/>
     </g>
    </g>
   </g>
  </g>
  <g id="axes_2">
   <g id="patch_8">
    <path d="M 90 267.077647 
L 648 267.077647 
L 648 169.242353 
L 90 169.242353 
z
" style="fill: #ffffff"/>
   </g>
   <g id="matplotlib.axis_3">
    <g id="xtick_8">
     <g id="line2d_14">
      <g>
       <use xlink:href="#m4e3cf68e67" x="116.706229" y="267.077647" style="stroke: #000000; stroke-width: 0.8"/>
      </g>
     </g>
     <g id="text_14">
      <!-- 4700 -->
      <g transform="translate(103.981229 281.676085) scale(0.1 -0.1)">
       <use xlink:href="#DejaVuSans-34"/>
       <use xlink:href="#DejaVuSans-37" x="63.623047"/>
       <use xlink:href="#DejaVuSans-30" x="127.246094"/>
       <use xlink:href="#DejaVuSans-30" x="190.869141"/>
      </g>
     </g>
    </g>
    <g id="xtick_9">
     <g id="line2d_15">
      <g>
       <use xlink:href="#m4e3cf68e67" x="200.441091" y="267.077647" style="stroke: #000000; stroke-width: 0.8"/>
      </g>
     </g>
     <g id="text_15">
      <!-- 4800 -->
      <g transform="translate(187.716091 281.676085) scale(0.1 -0.1)">
       <use xlink:href="#DejaVuSans-34"/>
       <use xlink:href="#DejaVuSans-38" x="63.623047"/>
       <use xlink:href="#DejaVuSans-30" x="127.246094"/>
       <use xlink:href="#DejaVuSans-30" x="190.869141"/>
      </g>
     </g>
    </g>
    <g id="xtick_10">
     <g id="line2d_16">
      <g>
       <use xlink:href="#m4e3cf68e67" x="284.175954" y="267.077647" style="stroke: #000000; stroke-width: 0.8"/>
      </g>
     </g>
     <g id="text_16">
      <!-- 4900 -->
      <g transform="translate(271.450954 281.676085) scale(0.1 -0.1)">
       <use xlink:href="#DejaVuSans-34"/>
       <use xlink:href="#DejaVuSans-39" x="63.623047"/>
       <use xlink:href="#DejaVuSans-30" x="127.246094"/>
       <use xlink:href="#DejaVuSans-30" x="190.869141"/>
      </g>
     </g>
    </g>
    <g id="xtick_11">
     <g id="line2d_17">
      <g>
       <use xlink:href="#m4e3cf68e67" x="367.910816" y="267.077647" style="stroke: #000000; stroke-width: 0.8"/>
      </g>
     </g>
     <g id="text_17">
      <!-- 5000 -->
      <g transform="translate(355.185816 281.676085) scale(0.1 -0.1)">
       <use xlink:href="#DejaVuSans-35"/>
       <use xlink:href="#DejaVuSans-30" x="63.623047"/>
       <use xlink:href="#DejaVuSans-30" x="127.246094"/>
       <use xlink:href="#DejaVuSans-30" x="190.869141"/>
      </g>
     </g>
    </g>
    <g id="xtick_12">
     <g id="line2d_18">
      <g>
       <use xlink:href="#m4e3cf68e67" x="451.645679" y="267.077647" style="stroke: #000000; stroke-width: 0.8"/>
      </g>
     </g>
     <g id="text_18">
      <!-- 5100 -->
      <g transform="translate(438.920679 281.676085) scale(0.1 -0.1)">
       <use xlink:href="#DejaVuSans-35"/>
       <use xlink:href="#DejaVuSans-31" x="63.623047"/>
       <use xlink:href="#DejaVuSans-30" x="127.246094"/>
       <use xlink:href="#DejaVuSans-30" x="190.869141"/>
      </g>
     </g>
    </g>
    <g id="xtick_13">
     <g id="line2d_19">
      <g>
       <use xlink:href="#m4e3cf68e67" x="535.380541" y="267.077647" style="stroke: #000000; stroke-width: 0.8"/>
      </g>
     </g>
     <g id="text_19">
      <!-- 5200 -->
      <g transform="translate(522.655541 281.676085) scale(0.1 -0.1)">
       <use xlink:href="#DejaVuSans-35"/>
       <use xlink:href="#DejaVuSans-32" x="63.623047"/>
       <use xlink:href="#DejaVuSans-30" x="127.246094"/>
       <use xlink:href="#DejaVuSans-30" x="190.869141"/>
      </g>
     </g>
    </g>
    <g id="xtick_14">
     <g id="line2d_20">
      <g>
       <use xlink:href="#m4e3cf68e67" x="619.115404" y="267.077647" style="stroke: #000000; stroke-width: 0.8"/>
      </g>
     </g>
     <g id="text_20">
      <!-- 5300 -->
      <g transform="translate(606.390404 281.676085) scale(0.1 -0.1)">
       <use xlink:href="#DejaVuSans-35"/>
       <use xlink:href="#DejaVuSans-33" x="63.623047"/>
       <use xlink:href="#DejaVuSans-30" x="127.246094"/>
       <use xlink:href="#DejaVuSans-30" x="190.869141"/>
      </g>
     </g>
    </g>
   </g>
   <g id="matplotlib.axis_4">
    <g id="ytick_5">
     <g id="line2d_21">
      <g>
       <use xlink:href="#meb4339717c" x="90" y="253.101176" style="stroke: #000000; stroke-width: 0.8"/>
      </g>
     </g>
     <g id="text_21">
      <!-- 0 -->
      <g transform="translate(76.6375 256.900395) scale(0.1 -0.1)">
       <use xlink:href="#DejaVuSans-30"/>
      </g>
     </g>
    </g>
    <g id="ytick_6">
     <g id="line2d_22">
      <g>
       <use xlink:href="#meb4339717c" x="90" y="225.148235" style="stroke: #000000; stroke-width: 0.8"/>
      </g>
     </g>
     <g id="text_22">
      <!-- 10 -->
      <g transform="translate(70.275 228.947454) scale(0.1 -0.1)">
       <use xlink:href="#DejaVuSans-31"/>
       <use xlink:href="#DejaVuSans-30" x="63.623047"/>
      </g>
     </g>
    </g>
    <g id="ytick_7">
     <g id="line2d_23">
      <g>
       <use xlink:href="#meb4339717c" x="90" y="197.195294" style="stroke: #000000; stroke-width: 0.8"/>
      </g>
     </g>
     <g id="text_23">
      <!-- 20 -->
      <g transform="translate(70.275 200.994513) scale(0.1 -0.1)">
       <use xlink:href="#DejaVuSans-32"/>
       <use xlink:href="#DejaVuSans-30" x="63.623047"/>
      </g>
     </g>
    </g>
    <g id="ytick_8">
     <g id="line2d_24">
      <g>
       <use xlink:href="#meb4339717c" x="90" y="169.242353" style="stroke: #000000; stroke-width: 0.8"/>
      </g>
     </g>
     <g id="text_24">
      <!-- 30 -->
      <g transform="translate(70.275 173.041572) scale(0.1 -0.1)">
       <use xlink:href="#DejaVuSans-33"/>
       <use xlink:href="#DejaVuSans-30" x="63.623047"/>
      </g>
     </g>
    </g>
    <g id="text_25">
     <!-- Delta Y -->
     <g transform="translate(63.363438 243.335938) rotate(-90) scale(0.14 -0.14)">
      <defs>
       <path id="DejaVuSans-59" d="M -13 4666 
L 666 4666 
L 1959 2747 
L 3244 4666 
L 3922 4666 
L 2272 2222 
L 2272 0 
L 1638 0 
L 1638 2222 
L -13 4666 
z
" transform="scale(0.015625)"/>
      </defs>
      <use xlink:href="#DejaVuSans-44"/>
      <use xlink:href="#DejaVuSans-65" x="77.001953"/>
      <use xlink:href="#DejaVuSans-6c" x="138.525391"/>
      <use xlink:href="#DejaVuSans-74" x="166.308594"/>
      <use xlink:href="#DejaVuSans-61" x="205.517578"/>
      <use xlink:href="#DejaVuSans-20" x="266.796875"/>
      <use xlink:href="#DejaVuSans-59" x="298.583984"/>
     </g>
    </g>
   </g>
   <g id="line2d_25">
    <path d="M 90 253.101176 
L 106.858006 253.010532 
L 110.229607 252.989854 
L 111.915408 253.075641 
L 118.65861 253.093964 
L 119.501511 252.468321 
L 120.344411 252.90443 
L 121.187311 252.398423 
L 122.873112 252.203855 
L 123.716012 252.837584 
L 125.401813 253.067061 
L 132.145015 253.086361 
L 132.987915 253.009545 
L 134.673716 253.092028 
L 135.516616 252.387308 
L 136.359517 252.187673 
L 137.202417 252.13235 
L 138.045317 252.861326 
L 139.731118 253.069566 
L 143.945619 253.074738 
L 144.78852 252.970075 
L 146.47432 253.015287 
L 149.845921 253.09404 
L 151.531722 253.038366 
L 152.374622 252.537787 
L 153.217523 252.899349 
L 156.589124 253.100743 
L 158.274924 253.07553 
L 161.646526 253.075061 
L 162.489426 252.896232 
L 167.546828 252.974093 
L 170.918429 253.064834 
L 181.033233 253.096134 
L 181.876133 253.099102 
L 182.719033 252.319334 
L 183.561934 252.887326 
L 185.247734 253.042028 
L 186.090634 252.302633 
L 186.933535 252.863837 
L 187.776435 253.083611 
L 190.305136 253.033559 
L 191.148036 252.296985 
L 191.990937 252.077344 
L 192.833837 252.009485 
L 193.676737 252.79446 
L 194.519637 252.228001 
L 195.362538 252.849752 
L 196.205438 253.035574 
L 197.048338 253.076066 
L 197.891239 252.292307 
L 198.734139 252.874556 
L 199.577039 253.028438 
L 200.41994 252.277994 
L 201.26284 252.077829 
L 202.10574 252.024347 
L 202.94864 252.79185 
L 203.791541 253.019228 
L 204.634441 253.086306 
L 205.477341 252.303367 
L 206.320242 252.087675 
L 208.006042 252.002897 
L 208.848943 252.795549 
L 209.691843 253.022829 
L 211.377644 253.099925 
L 212.220544 252.982336 
L 213.906344 253.099844 
L 217.277946 253.050054 
L 218.120846 253.100643 
L 218.963746 253.01935 
L 221.492447 253.056616 
L 235.821752 252.988671 
L 237.507553 252.929639 
L 241.722054 253.089242 
L 242.564955 252.987664 
L 244.250755 252.97216 
L 245.093656 252.889191 
L 250.993958 253.046742 
L 256.89426 253.092211 
L 257.73716 252.354536 
L 258.58006 252.906522 
L 259.422961 253.062685 
L 260.265861 252.342298 
L 261.108761 252.890947 
L 261.951662 253.026416 
L 266.166163 253.089728 
L 267.009063 252.354756 
L 267.851964 252.908898 
L 268.694864 252.344362 
L 270.380665 252.150143 
L 271.223565 252.879276 
L 272.066465 252.34648 
L 272.909366 252.196938 
L 273.752266 252.894419 
L 274.595166 253.092215 
L 275.438066 253.054255 
L 276.280967 252.425111 
L 277.123867 252.219306 
L 277.966767 252.900703 
L 278.809668 252.353499 
L 279.652568 252.937879 
L 280.495468 253.096814 
L 281.338369 252.412344 
L 282.181269 252.955237 
L 283.024169 253.0932 
L 283.867069 253.047987 
L 284.70997 252.426496 
L 285.55287 252.959536 
L 286.39577 253.091823 
L 287.238671 253.049395 
L 288.081571 252.426251 
L 288.924471 252.959621 
L 289.767372 252.37035 
L 290.610272 252.202537 
L 291.453172 252.896683 
L 292.296073 252.353222 
L 293.981873 252.153802 
L 294.824773 252.881035 
L 295.667674 253.08929 
L 296.510574 252.40763 
L 297.353474 252.213441 
L 298.196375 252.89826 
L 299.039275 253.09434 
L 299.882175 253.052651 
L 300.725076 252.424594 
L 301.567976 252.958418 
L 302.410876 252.369276 
L 303.253776 252.876827 
L 304.939577 253.059974 
L 306.625378 253.007588 
L 309.154079 253.056013 
L 315.897281 253.096781 
L 319.268882 253.053762 
L 326.854985 253.076601 
L 328.540785 252.943747 
L 330.226586 253.083164 
L 331.069486 253.06662 
L 331.912387 252.743891 
L 332.755287 253.041762 
L 336.969789 253.095887 
L 337.812689 252.701451 
L 338.655589 253.010733 
L 339.498489 253.094839 
L 340.34139 252.673078 
L 341.18429 252.966997 
L 342.02719 253.0846 
L 343.712991 252.953348 
L 345.398792 253.059383 
L 358.885196 252.969762 
L 359.728097 253.069363 
L 362.256798 253.003951 
L 363.099698 253.081386 
L 363.942598 252.99045 
L 365.628399 252.999806 
L 366.471299 252.924514 
L 368.1571 253.094632 
L 374.057402 252.97175 
L 374.900302 253.003136 
L 375.743202 252.904843 
L 376.586103 253.027167 
L 378.271903 252.836484 
L 379.957704 253.052822 
L 390.915408 253.016831 
L 393.444109 253.023275 
L 395.97281 253.088805 
L 397.65861 253.059916 
L 403.558912 253.094097 
L 417.045317 253.099833 
L 417.888218 252.308141 
L 418.731118 252.838235 
L 420.416918 253.056153 
L 424.63142 253.070158 
L 431.374622 253.088558 
L 440.646526 252.99992 
L 441.489426 253.097446 
L 445.703927 252.832166 
L 446.546828 252.94065 
L 448.232628 252.487941 
L 449.075529 252.888167 
L 451.60423 253.090396 
L 454.132931 252.996372 
L 454.975831 253.080719 
L 456.661631 253.033278 
L 457.504532 253.081466 
L 458.347432 252.94182 
L 461.719033 253.008989 
L 463.404834 252.958933 
L 465.090634 253.059373 
L 470.148036 253.072388 
L 474.362538 253.089293 
L 481.10574 253.004528 
L 485.320242 253.057786 
L 487.006042 253.032112 
L 488.691843 253.073237 
L 491.220544 253.075305 
L 505.549849 253.037504 
L 506.392749 252.734703 
L 507.23565 252.608123 
L 508.07855 253.009186 
L 508.92145 252.683122 
L 509.76435 253.027444 
L 510.607251 252.687174 
L 511.450151 253.027501 
L 513.135952 253.066221 
L 514.821752 253.029359 
L 515.664653 252.739111 
L 516.507553 252.616893 
L 517.350453 253.018545 
L 519.036254 253.037087 
L 519.879154 252.738011 
L 520.722054 252.615583 
L 521.564955 253.019167 
L 522.407855 252.695408 
L 523.250755 253.042025 
L 524.093656 252.702078 
L 524.936556 253.04385 
L 526.622356 253.033894 
L 527.465257 252.738111 
L 529.151057 252.581264 
L 529.993958 253.009797 
L 531.679758 253.03653 
L 534.208459 253.023793 
L 535.05136 251.389361 
L 535.89426 251.05291 
L 536.73716 251.060894 
L 538.422961 251.393049 
L 539.265861 252.631746 
L 540.108761 253.002773 
L 540.951662 253.011913 
L 541.794562 252.546431 
L 542.637462 252.829706 
L 543.480363 252.939052 
L 551.066465 252.976122 
L 551.909366 253.032076 
L 553.595166 252.962045 
L 556.123867 253.073366 
L 560.338369 253.068293 
L 570.453172 252.990102 
L 571.296073 253.097828 
L 574.667674 253.050411 
L 575.510574 246.847528 
L 576.353474 245.119681 
L 577.196375 245.189314 
L 578.039275 245.100753 
L 578.882175 245.690542 
L 579.725076 245.680741 
L 580.567976 246.397083 
L 582.253776 246.411149 
L 583.096677 251.181721 
L 583.939577 252.550071 
L 584.782477 252.958963 
L 586.468278 253.0901 
L 590.682779 253.043017 
L 593.21148 253.00701 
L 594.897281 253.090452 
L 596.583082 253.096658 
L 597.425982 252.46992 
L 598.268882 252.287907 
L 599.111782 252.869298 
L 599.954683 252.401301 
L 600.797583 252.267399 
L 601.640483 252.864695 
L 602.483384 252.399278 
L 603.326284 252.902381 
L 605.012085 253.084196 
L 609.226586 253.006967 
L 610.912387 253.092942 
L 612.598187 253.055472 
L 618.498489 253.093631 
L 621.870091 253.086819 
L 626.927492 253.082659 
L 627.770393 252.28881 
L 628.613293 252.847112 
L 629.456193 252.220003 
L 630.299094 252.041575 
L 631.141994 252.773696 
L 631.984894 253.008581 
L 632.827795 252.291951 
L 633.670695 252.090909 
L 634.513595 252.034753 
L 635.356495 252.812397 
L 636.199396 252.240548 
L 637.042296 252.078073 
L 637.885196 252.825179 
L 638.728097 252.244263 
L 639.570997 252.079249 
L 640.413897 252.825543 
L 641.256798 253.037679 
L 642.099698 252.291029 
L 642.942598 252.879223 
L 643.785498 253.050186 
L 644.628399 252.307413 
L 645.471299 252.88994 
L 646.314199 253.055768 
L 647.1571 252.30992 
L 647.1571 252.30992 
" clip-path="url(#p77b8584601)" style="fill: none; stroke: #c0c0c0; stroke-width: 1.5; stroke-linecap: square"/>
   </g>
   <g id="patch_9">
    <path d="M 90 267.077647 
L 90 169.242353 
" style="fill: none; stroke: #000000; stroke-width: 0.8; stroke-linejoin: miter; stroke-linecap: square"/>
   </g>
   <g id="patch_10">
    <path d="M 648 267.077647 
L 648 169.242353 
" style="fill: none; stroke: #000000; stroke-width: 0.8; stroke-linejoin: miter; stroke-linecap: square"/>
   </g>
   <g id="patch_11">
    <path d="M 90 267.077647 
L 648 267.077647 
" style="fill: none; stroke: #000000; stroke-width: 0.8; stroke-linejoin: miter; stroke-linecap: square"/>
   </g>
   <g id="patch_12">
    <path d="M 90 169.242353 
L 648 169.242353 
" style="fill: none; stroke: #000000; stroke-width: 0.8; stroke-linejoin: miter; stroke-linecap: square"/>
   </g>
   <g id="legend_2">
    <g id="patch_13">
     <path d="M 527.454375 196.456103 
L 639.6 196.456103 
Q 642 196.456103 642 194.056103 
L 642 177.642353 
Q 642 175.242353 639.6 175.242353 
L 527.454375 175.242353 
Q 525.054375 175.242353 525.054375 177.642353 
L 525.054375 194.056103 
Q 525.054375 196.456103 527.454375 196.456103 
z
" style="fill: #ffffff; opacity: 0.5; stroke: #cccccc; stroke-linejoin: miter"/>
    </g>
    <g id="line2d_26">
     <path d="M 529.854375 184.960478 
L 541.854375 184.960478 
L 553.854375 184.960478 
" style="fill: none; stroke: #c0c0c0; stroke-width: 1.5; stroke-linecap: square"/>
    </g>
    <g id="text_26">
     <!-- abs(Delta Y) -->
     <g transform="translate(563.454375 189.160478) scale(0.12 -0.12)">
      <use xlink:href="#DejaVuSans-61"/>
      <use xlink:href="#DejaVuSans-62" x="61.279297"/>
      <use xlink:href="#DejaVuSans-73" x="124.755859"/>
      <use xlink:href="#DejaVuSans-28" x="176.855469"/>
      <use xlink:href="#DejaVuSans-44" x="215.869141"/>
      <use xlink:href="#DejaVuSans-65" x="292.871094"/>
      <use xlink:href="#DejaVuSans-6c" x="354.394531"/>
      <use xlink:href="#DejaVuSans-74" x="382.177734"/>
      <use xlink:href="#DejaVuSans-61" x="421.386719"/>
      <use xlink:href="#DejaVuSans-20" x="482.666016"/>
      <use xlink:href="#DejaVuSans-59" x="514.453125"/>
      <use xlink:href="#DejaVuSans-29" x="575.537109"/>
     </g>
    </g>
   </g>
  </g>
  <g id="axes_3">
   <g id="patch_14">
    <path d="M 90 384.48 
L 648 384.48 
L 648 286.644706 
L 90 286.644706 
z
" style="fill: #ffffff"/>
   </g>
   <g id="matplotlib.axis_5">
    <g id="xtick_15">
     <g id="line2d_27">
      <g>
       <use xlink:href="#m4e3cf68e67" x="116.706229" y="384.48" style="stroke: #000000; stroke-width: 0.8"/>
      </g>
     </g>
     <g id="text_27">
      <!-- 4700 -->
      <g transform="translate(103.981229 399.078438) scale(0.1 -0.1)">
       <use xlink:href="#DejaVuSans-34"/>
       <use xlink:href="#DejaVuSans-37" x="63.623047"/>
       <use xlink:href="#DejaVuSans-30" x="127.246094"/>
       <use xlink:href="#DejaVuSans-30" x="190.869141"/>
      </g>
     </g>
    </g>
    <g id="xtick_16">
     <g id="line2d_28">
      <g>
       <use xlink:href="#m4e3cf68e67" x="200.441091" y="384.48" style="stroke: #000000; stroke-width: 0.8"/>
      </g>
     </g>
     <g id="text_28">
      <!-- 4800 -->
      <g transform="translate(187.716091 399.078438) scale(0.1 -0.1)">
       <use xlink:href="#DejaVuSans-34"/>
       <use xlink:href="#DejaVuSans-38" x="63.623047"/>
       <use xlink:href="#DejaVuSans-30" x="127.246094"/>
       <use xlink:href="#DejaVuSans-30" x="190.869141"/>
      </g>
     </g>
    </g>
    <g id="xtick_17">
     <g id="line2d_29">
      <g>
       <use xlink:href="#m4e3cf68e67" x="284.175954" y="384.48" style="stroke: #000000; stroke-width: 0.8"/>
      </g>
     </g>
     <g id="text_29">
      <!-- 4900 -->
      <g transform="translate(271.450954 399.078438) scale(0.1 -0.1)">
       <use xlink:href="#DejaVuSans-34"/>
       <use xlink:href="#DejaVuSans-39" x="63.623047"/>
       <use xlink:href="#DejaVuSans-30" x="127.246094"/>
       <use xlink:href="#DejaVuSans-30" x="190.869141"/>
      </g>
     </g>
    </g>
    <g id="xtick_18">
     <g id="line2d_30">
      <g>
       <use xlink:href="#m4e3cf68e67" x="367.910816" y="384.48" style="stroke: #000000; stroke-width: 0.8"/>
      </g>
     </g>
     <g id="text_30">
      <!-- 5000 -->
      <g transform="translate(355.185816 399.078438) scale(0.1 -0.1)">
       <use xlink:href="#DejaVuSans-35"/>
       <use xlink:href="#DejaVuSans-30" x="63.623047"/>
       <use xlink:href="#DejaVuSans-30" x="127.246094"/>
       <use xlink:href="#DejaVuSans-30" x="190.869141"/>
      </g>
     </g>
    </g>
    <g id="xtick_19">
     <g id="line2d_31">
      <g>
       <use xlink:href="#m4e3cf68e67" x="451.645679" y="384.48" style="stroke: #000000; stroke-width: 0.8"/>
      </g>
     </g>
     <g id="text_31">
      <!-- 5100 -->
      <g transform="translate(438.920679 399.078438) scale(0.1 -0.1)">
       <use xlink:href="#DejaVuSans-35"/>
       <use xlink:href="#DejaVuSans-31" x="63.623047"/>
       <use xlink:href="#DejaVuSans-30" x="127.246094"/>
       <use xlink:href="#DejaVuSans-30" x="190.869141"/>
      </g>
     </g>
    </g>
    <g id="xtick_20">
     <g id="line2d_32">
      <g>
       <use xlink:href="#m4e3cf68e67" x="535.380541" y="384.48" style="stroke: #000000; stroke-width: 0.8"/>
      </g>
     </g>
     <g id="text_32">
      <!-- 5200 -->
      <g transform="translate(522.655541 399.078438) scale(0.1 -0.1)">
       <use xlink:href="#DejaVuSans-35"/>
       <use xlink:href="#DejaVuSans-32" x="63.623047"/>
       <use xlink:href="#DejaVuSans-30" x="127.246094"/>
       <use xlink:href="#DejaVuSans-30" x="190.869141"/>
      </g>
     </g>
    </g>
    <g id="xtick_21">
     <g id="line2d_33">
      <g>
       <use xlink:href="#m4e3cf68e67" x="619.115404" y="384.48" style="stroke: #000000; stroke-width: 0.8"/>
      </g>
     </g>
     <g id="text_33">
      <!-- 5300 -->
      <g transform="translate(606.390404 399.078438) scale(0.1 -0.1)">
       <use xlink:href="#DejaVuSans-35"/>
       <use xlink:href="#DejaVuSans-33" x="63.623047"/>
       <use xlink:href="#DejaVuSans-30" x="127.246094"/>
       <use xlink:href="#DejaVuSans-30" x="190.869141"/>
      </g>
     </g>
    </g>
    <g id="text_34">
     <!-- Time step -->
     <g transform="translate(334.506406 421.795937) scale(0.14 -0.14)">
      <defs>
       <path id="DejaVuSans-54" d="M -19 4666 
L 3928 4666 
L 3928 4134 
L 2272 4134 
L 2272 0 
L 1638 0 
L 1638 4134 
L -19 4134 
L -19 4666 
z
" transform="scale(0.015625)"/>
       <path id="DejaVuSans-69" d="M 603 3500 
L 1178 3500 
L 1178 0 
L 603 0 
L 603 3500 
z
M 603 4863 
L 1178 4863 
L 1178 4134 
L 603 4134 
L 603 4863 
z
" transform="scale(0.015625)"/>
       <path id="DejaVuSans-6d" d="M 3328 2828 
Q 3544 3216 3844 3400 
Q 4144 3584 4550 3584 
Q 5097 3584 5394 3201 
Q 5691 2819 5691 2113 
L 5691 0 
L 5113 0 
L 5113 2094 
Q 5113 2597 4934 2840 
Q 4756 3084 4391 3084 
Q 3944 3084 3684 2787 
Q 3425 2491 3425 1978 
L 3425 0 
L 2847 0 
L 2847 2094 
Q 2847 2600 2669 2842 
Q 2491 3084 2119 3084 
Q 1678 3084 1418 2786 
Q 1159 2488 1159 1978 
L 1159 0 
L 581 0 
L 581 3500 
L 1159 3500 
L 1159 2956 
Q 1356 3278 1631 3431 
Q 1906 3584 2284 3584 
Q 2666 3584 2933 3390 
Q 3200 3197 3328 2828 
z
" transform="scale(0.015625)"/>
       <path id="DejaVuSans-70" d="M 1159 525 
L 1159 -1331 
L 581 -1331 
L 581 3500 
L 1159 3500 
L 1159 2969 
Q 1341 3281 1617 3432 
Q 1894 3584 2278 3584 
Q 2916 3584 3314 3078 
Q 3713 2572 3713 1747 
Q 3713 922 3314 415 
Q 2916 -91 2278 -91 
Q 1894 -91 1617 61 
Q 1341 213 1159 525 
z
M 3116 1747 
Q 3116 2381 2855 2742 
Q 2594 3103 2138 3103 
Q 1681 3103 1420 2742 
Q 1159 2381 1159 1747 
Q 1159 1113 1420 752 
Q 1681 391 2138 391 
Q 2594 391 2855 752 
Q 3116 1113 3116 1747 
z
" transform="scale(0.015625)"/>
      </defs>
      <use xlink:href="#DejaVuSans-54"/>
      <use xlink:href="#DejaVuSans-69" x="57.958984"/>
      <use xlink:href="#DejaVuSans-6d" x="85.742188"/>
      <use xlink:href="#DejaVuSans-65" x="183.154297"/>
      <use xlink:href="#DejaVuSans-20" x="244.677734"/>
      <use xlink:href="#DejaVuSans-73" x="276.464844"/>
      <use xlink:href="#DejaVuSans-74" x="328.564453"/>
      <use xlink:href="#DejaVuSans-65" x="367.773438"/>
      <use xlink:href="#DejaVuSans-70" x="429.296875"/>
     </g>
    </g>
   </g>
   <g id="matplotlib.axis_6">
    <g id="ytick_9">
     <g id="line2d_34">
      <g>
       <use xlink:href="#meb4339717c" x="90" y="364.912941" style="stroke: #000000; stroke-width: 0.8"/>
      </g>
     </g>
     <g id="text_35">
      <!-- 0 -->
      <g transform="translate(76.6375 368.71216) scale(0.1 -0.1)">
       <use xlink:href="#DejaVuSans-30"/>
      </g>
     </g>
    </g>
    <g id="ytick_10">
     <g id="line2d_35">
      <g>
       <use xlink:href="#meb4339717c" x="90" y="325.778824" style="stroke: #000000; stroke-width: 0.8"/>
      </g>
     </g>
     <g id="text_36">
      <!-- 10 -->
      <g transform="translate(70.275 329.578042) scale(0.1 -0.1)">
       <use xlink:href="#DejaVuSans-31"/>
       <use xlink:href="#DejaVuSans-30" x="63.623047"/>
      </g>
     </g>
    </g>
    <g id="ytick_11">
     <g id="line2d_36">
      <g>
       <use xlink:href="#meb4339717c" x="90" y="286.644706" style="stroke: #000000; stroke-width: 0.8"/>
      </g>
     </g>
     <g id="text_37">
      <!-- 20 -->
      <g transform="translate(70.275 290.443925) scale(0.1 -0.1)">
       <use xlink:href="#DejaVuSans-32"/>
       <use xlink:href="#DejaVuSans-30" x="63.623047"/>
      </g>
     </g>
    </g>
    <g id="text_38">
     <!-- Delta Theta -->
     <g transform="translate(63.363438 376.515634) rotate(-90) scale(0.14 -0.14)">
      <defs>
       <path id="DejaVuSans-68" d="M 3513 2113 
L 3513 0 
L 2938 0 
L 2938 2094 
Q 2938 2591 2744 2837 
Q 2550 3084 2163 3084 
Q 1697 3084 1428 2787 
Q 1159 2491 1159 1978 
L 1159 0 
L 581 0 
L 581 4863 
L 1159 4863 
L 1159 2956 
Q 1366 3272 1645 3428 
Q 1925 3584 2291 3584 
Q 2894 3584 3203 3211 
Q 3513 2838 3513 2113 
z
" transform="scale(0.015625)"/>
      </defs>
      <use xlink:href="#DejaVuSans-44"/>
      <use xlink:href="#DejaVuSans-65" x="77.001953"/>
      <use xlink:href="#DejaVuSans-6c" x="138.525391"/>
      <use xlink:href="#DejaVuSans-74" x="166.308594"/>
      <use xlink:href="#DejaVuSans-61" x="205.517578"/>
      <use xlink:href="#DejaVuSans-20" x="266.796875"/>
      <use xlink:href="#DejaVuSans-54" x="298.583984"/>
      <use xlink:href="#DejaVuSans-68" x="359.667969"/>
      <use xlink:href="#DejaVuSans-65" x="423.046875"/>
      <use xlink:href="#DejaVuSans-74" x="484.570312"/>
      <use xlink:href="#DejaVuSans-61" x="523.779297"/>
     </g>
    </g>
   </g>
   <g id="line2d_37">
    <path d="M 90 364.912941 
L 93.371601 364.912941 
L 94.214502 362.692557 
L 95.057402 358.962369 
L 95.900302 363.144704 
L 96.743202 364.460277 
L 97.586103 362.146071 
L 98.429003 361.626034 
L 99.271903 361.384753 
L 100.114804 362.66071 
L 100.957704 363.171799 
L 101.800604 362.783931 
L 102.643505 357.382287 
L 103.486405 361.835419 
L 104.329305 362.647626 
L 105.172205 359.507305 
L 106.015106 364.476679 
L 106.858006 360.947145 
L 107.700906 363.204133 
L 108.543807 357.842984 
L 109.386707 363.155708 
L 110.229607 358.440089 
L 111.072508 362.820595 
L 111.915408 357.10906 
L 112.758308 359.334819 
L 113.601208 363.601847 
L 114.444109 363.695275 
L 115.287009 362.344818 
L 116.129909 361.718247 
L 116.97281 361.427537 
L 118.65861 361.230076 
L 122.873112 361.177073 
L 123.716012 360.10011 
L 124.558912 358.056556 
L 125.401813 357.000269 
L 126.244713 363.427736 
L 127.087613 358.27077 
L 128.773414 363.4953 
L 129.616314 362.743514 
L 130.459215 354.66467 
L 131.302115 363.658336 
L 132.145015 356.782785 
L 132.987915 364.264405 
L 133.830816 363.009058 
L 134.673716 364.029598 
L 135.516616 364.503097 
L 136.359517 364.722786 
L 137.202417 364.824715 
L 138.045317 358.723388 
L 138.888218 364.73501 
L 139.731118 362.353106 
L 140.574018 363.852723 
L 141.416918 359.358842 
L 142.259819 364.15461 
L 143.102719 363.492605 
L 143.945619 352.649959 
L 144.78852 356.512617 
L 145.63142 358.022131 
L 147.317221 355.900331 
L 148.160121 357.191291 
L 149.003021 363.222732 
L 149.845921 358.97965 
L 150.688822 359.529896 
L 151.531722 360.412209 
L 152.374622 360.821575 
L 153.217523 358.584494 
L 154.060423 362.029735 
L 154.903323 360.47894 
L 155.746224 363.162722 
L 156.589124 360.040904 
L 157.432024 364.794215 
L 158.274924 359.27011 
L 159.117825 355.511331 
L 159.960725 359.95585 
L 160.803625 363.76757 
L 161.646526 355.698943 
L 162.489426 361.343635 
L 163.332326 362.735958 
L 164.175227 355.222661 
L 165.018127 363.130661 
L 165.861027 364.264109 
L 166.703927 357.018131 
L 167.546828 359.683027 
L 168.389728 363.208842 
L 169.232628 355.04526 
L 170.075529 362.540703 
L 170.918429 360.063406 
L 171.761329 359.77138 
L 172.60423 362.457612 
L 173.44713 358.518206 
L 174.29003 361.929598 
L 175.132931 358.54125 
L 175.975831 362.635356 
L 176.818731 358.600283 
L 177.661631 357.794955 
L 178.504532 363.68171 
L 179.347432 360.046293 
L 180.190332 358.697371 
L 181.033233 363.137871 
L 181.876133 362.086199 
L 182.719033 361.598255 
L 183.561934 357.789122 
L 184.404834 361.15108 
L 185.247734 363.289066 
L 186.090634 360.153185 
L 186.933535 361.583762 
L 187.776435 356.447329 
L 188.619335 364.2747 
L 189.462236 359.791151 
L 190.305136 356.918741 
L 191.148036 362.612516 
L 191.990937 357.836123 
L 192.833837 362.186878 
L 193.676737 357.63864 
L 194.519637 362.278504 
L 195.362538 360.125749 
L 196.205438 361.124562 
L 197.048338 357.145758 
L 197.891239 362.507187 
L 198.734139 360.019647 
L 199.577039 356.633111 
L 200.41994 362.745039 
L 201.26284 357.89761 
L 202.10574 362.15835 
L 202.94864 360.181497 
L 203.791541 356.708204 
L 204.634441 362.710198 
L 205.477341 359.925456 
L 206.320242 356.589409 
L 207.163142 362.765315 
L 208.006042 359.899883 
L 208.848943 356.577544 
L 209.691843 362.77082 
L 210.534743 359.897329 
L 211.377644 361.230542 
L 212.220544 363.223826 
L 213.063444 364.318119 
L 213.906344 360.262139 
L 214.749245 361.354263 
L 215.592145 361.048138 
L 216.435045 360.157842 
L 217.277946 357.882282 
L 218.120846 356.868927 
L 218.963746 362.441548 
L 219.806647 358.157767 
L 220.649547 361.880831 
L 221.492447 363.126528 
L 222.335347 363.232826 
L 223.178248 356.73619 
L 224.021148 359.435584 
L 224.864048 362.928515 
L 225.706949 357.06168 
L 226.549849 361.471648 
L 227.392749 359.35215 
L 228.23565 347.827004 
L 229.07855 358.710819 
L 229.92145 358.896949 
L 230.76435 355.23557 
L 231.607251 362.835553 
L 232.450151 361.352353 
L 233.293051 360.939432 
L 234.135952 361.309899 
L 234.978852 364.434752 
L 235.821752 360.551859 
L 236.664653 360.399491 
L 237.507553 364.196072 
L 238.350453 357.530502 
L 239.193353 363.089877 
L 240.036254 360.770388 
L 240.879154 356.917073 
L 241.722054 362.432637 
L 242.564955 362.994746 
L 243.407855 361.779382 
L 244.250755 353.12314 
L 245.093656 360.049545 
L 245.936556 358.507319 
L 246.779456 360.129954 
L 247.622356 363.786051 
L 248.465257 359.101845 
L 249.308157 362.894816 
L 250.151057 364.70216 
L 250.993958 361.47862 
L 252.679758 364.439272 
L 253.522659 350.714574 
L 254.365559 358.806549 
L 255.208459 364.442803 
L 256.05136 362.691648 
L 256.89426 361.879165 
L 257.73716 361.502198 
L 259.422961 361.246148 
L 260.265861 361.208497 
L 261.108761 364.530892 
L 261.951662 355.651896 
L 262.794562 362.596489 
L 264.480363 357.713729 
L 265.323263 358.488585 
L 266.166163 362.661071 
L 267.009063 361.951413 
L 267.851964 359.532555 
L 268.694864 358.410279 
L 269.537764 357.889577 
L 270.380665 357.647987 
L 272.066465 357.48389 
L 277.123867 357.439324 
L 302.410876 357.438875 
L 303.253776 357.786884 
L 304.096677 359.311619 
L 304.939577 356.663598 
L 305.782477 358.010086 
L 306.625378 364.039546 
L 307.468278 360.008787 
L 308.311178 364.122076 
L 309.154079 361.585262 
L 309.996979 361.785876 
L 310.839879 362.591367 
L 311.682779 354.889515 
L 312.52568 364.723075 
L 313.36858 358.99803 
L 314.21148 362.101381 
L 315.054381 363.545537 
L 315.897281 362.374442 
L 316.740181 355.836663 
L 317.583082 362.168173 
L 318.425982 358.230658 
L 319.268882 363.456708 
L 320.111782 363.968937 
L 320.954683 362.725075 
L 321.797583 364.084852 
L 322.640483 362.035721 
L 323.483384 356.486893 
L 324.326284 360.936464 
L 325.169184 359.476909 
L 326.012085 362.818028 
L 326.854985 360.424166 
L 327.697885 359.308629 
L 328.540785 360.505524 
L 329.383686 364.788452 
L 330.226586 364.523567 
L 331.069486 358.880633 
L 331.912387 358.107807 
L 332.755287 357.749239 
L 334.441088 357.505687 
L 335.283988 357.469874 
L 336.126888 360.324548 
L 336.969789 360.780903 
L 338.655589 361.090876 
L 339.498489 362.057731 
L 340.34139 363.588211 
L 341.18429 364.298307 
L 342.02719 360.453234 
L 342.870091 355.947031 
L 343.712991 364.100606 
L 344.555891 364.61162 
L 345.398792 357.582575 
L 346.241692 359.875052 
L 347.084592 355.856007 
L 347.927492 356.440369 
L 348.770393 357.964026 
L 349.613293 356.905992 
L 350.456193 360.393831 
L 351.299094 360.251207 
L 352.141994 362.727562 
L 352.984894 362.516494 
L 353.827795 354.847285 
L 354.670695 357.154416 
L 355.513595 364.66064 
L 356.356495 361.150152 
L 357.199396 359.586178 
L 358.042296 358.858858 
L 358.885196 362.562287 
L 359.728097 354.950652 
L 360.570997 359.54759 
L 361.413897 356.681056 
L 362.256798 363.249978 
L 363.099698 360.446072 
L 363.942598 362.89958 
L 364.785498 362.665598 
L 365.628399 358.145464 
L 366.471299 363.468112 
L 367.314199 362.375413 
L 368.1571 364.868903 
L 369 364.906113 
L 369.8429 362.906609 
L 370.685801 361.978901 
L 371.528701 361.548472 
L 373.214502 361.256109 
L 374.057402 362.87219 
L 374.900302 356.199569 
L 375.743202 362.967336 
L 376.586103 355.813145 
L 377.429003 353.405514 
L 378.271903 362.997164 
L 379.114804 361.600959 
L 379.957704 363.365005 
L 380.800604 362.182598 
L 381.643505 356.160425 
L 382.486405 364.717853 
L 383.329305 353.719456 
L 384.172205 356.919994 
L 385.015106 362.018127 
L 385.858006 358.903266 
L 386.700906 362.36386 
L 387.543807 362.213539 
L 388.386707 364.434997 
L 389.229607 361.502163 
L 390.072508 361.284522 
L 390.915408 359.957684 
L 391.758308 362.951177 
L 392.601208 359.652938 
L 393.444109 361.780461 
L 394.287009 359.055312 
L 395.129909 361.713261 
L 395.97281 362.486389 
L 396.81571 361.477864 
L 397.65861 358.533619 
L 398.501511 363.942348 
L 399.344411 364.82964 
L 400.187311 360.921468 
L 401.030211 362.746307 
L 401.873112 362.506061 
L 402.716012 360.627657 
L 403.558912 362.477542 
L 404.401813 359.466046 
L 405.244713 364.128098 
L 406.087613 358.553277 
L 406.930514 363.881496 
L 407.773414 362.82767 
L 408.616314 352.458763 
L 409.459215 363.844973 
L 410.302115 362.503454 
L 411.145015 357.904572 
L 411.987915 360.370069 
L 412.830816 362.081988 
L 413.673716 364.871621 
L 414.516616 361.103139 
L 415.359517 364.06924 
L 416.202417 361.298066 
L 417.045317 359.229422 
L 417.888218 358.269634 
L 418.731118 349.496514 
L 419.574018 363.384846 
L 420.416918 360.972887 
L 421.259819 356.739867 
L 422.102719 361.362583 
L 422.945619 363.767564 
L 423.78852 361.289857 
L 424.63142 359.835432 
L 425.47432 358.900672 
L 426.317221 364.736093 
L 427.160121 360.012174 
L 428.003021 364.783488 
L 428.845921 360.169319 
L 429.688822 362.971448 
L 430.531722 360.706159 
L 431.374622 357.550508 
L 432.217523 362.568717 
L 433.060423 362.257247 
L 434.746224 358.972588 
L 435.589124 360.94167 
L 436.432024 364.34149 
L 437.274924 360.697114 
L 438.117825 360.075768 
L 438.960725 359.964263 
L 439.803625 360.978007 
L 440.646526 358.317191 
L 441.489426 358.744105 
L 442.332326 364.163209 
L 443.175227 361.254578 
L 444.018127 356.354726 
L 444.861027 347.083657 
L 445.703927 360.669936 
L 446.546828 360.868262 
L 447.389728 364.786385 
L 448.232628 362.851059 
L 449.075529 361.842193 
L 449.918429 352.955592 
L 450.761329 363.210896 
L 451.60423 361.964636 
L 452.44713 353.1229 
L 453.29003 361.664301 
L 454.132931 361.130741 
L 454.975831 352.878879 
L 456.661631 364.137473 
L 457.504532 348.956239 
L 458.347432 361.651827 
L 460.033233 359.181923 
L 460.876133 356.985354 
L 461.719033 358.784666 
L 462.561934 355.484339 
L 463.404834 364.042595 
L 464.247734 364.090033 
L 465.090634 359.242041 
L 465.933535 355.771949 
L 466.776435 358.264696 
L 467.619335 364.343573 
L 468.462236 363.196798 
L 469.305136 363.979011 
L 470.148036 362.517424 
L 470.990937 362.240595 
L 471.833837 363.392022 
L 472.676737 357.460049 
L 473.519637 363.707123 
L 474.362538 357.90858 
L 475.205438 358.221463 
L 476.048338 362.509635 
L 476.891239 361.074642 
L 477.734139 358.473861 
L 478.577039 356.663728 
L 479.41994 353.298004 
L 480.26284 354.124835 
L 481.10574 358.466919 
L 481.94864 361.453977 
L 482.791541 355.092938 
L 483.634441 361.44875 
L 484.477341 363.711461 
L 485.320242 361.344017 
L 486.163142 355.477461 
L 487.006042 364.646524 
L 487.848943 357.289685 
L 488.691843 356.461857 
L 489.534743 361.489347 
L 490.377644 361.857321 
L 491.220544 359.997292 
L 492.063444 355.722175 
L 492.906344 360.267573 
L 493.749245 363.010997 
L 494.592145 353.615858 
L 495.435045 364.144952 
L 496.277946 359.259774 
L 497.120846 360.540504 
L 497.963746 359.948427 
L 498.806647 356.948277 
L 499.649547 361.915651 
L 500.492447 359.634866 
L 501.335347 362.722528 
L 502.178248 364.819831 
L 503.021148 358.252659 
L 503.864048 359.020826 
L 504.706949 359.029002 
L 505.549849 354.936757 
L 506.392749 356.277968 
L 507.23565 356.90025 
L 508.07855 357.18897 
L 509.76435 357.385079 
L 511.450151 357.427295 
L 512.293051 361.007465 
L 513.978852 361.139648 
L 519.879154 361.17574 
L 534.208459 361.175908 
L 535.05136 361.681248 
L 535.89426 361.865971 
L 536.73716 364.209165 
L 537.58006 361.413522 
L 538.422961 361.38095 
L 539.265861 361.467366 
L 540.108761 359.992056 
L 540.951662 364.065685 
L 541.794562 361.525998 
L 542.637462 364.426224 
L 543.480363 360.86796 
L 544.323263 362.092156 
L 545.166163 362.155043 
L 546.009063 358.62741 
L 546.851964 364.170766 
L 547.694864 359.258628 
L 548.537764 362.107873 
L 549.380665 364.244848 
L 550.223565 362.233227 
L 551.066465 362.288585 
L 551.909366 353.94152 
L 552.752266 361.748954 
L 553.595166 364.297543 
L 554.438066 355.882014 
L 555.280967 362.429364 
L 556.123867 359.458108 
L 556.966767 362.632706 
L 557.809668 357.290094 
L 558.652568 362.473346 
L 559.495468 363.698754 
L 560.338369 360.997847 
L 561.181269 353.55653 
L 562.024169 358.665185 
L 562.867069 360.307282 
L 563.70997 359.047219 
L 564.55287 362.798539 
L 565.39577 363.882465 
L 566.238671 362.044619 
L 567.081571 355.365928 
L 567.924471 356.353819 
L 568.767372 359.121299 
L 569.610272 359.391916 
L 570.453172 362.81528 
L 571.296073 359.710225 
L 572.138973 358.134471 
L 572.981873 362.199458 
L 573.824773 364.494566 
L 574.667674 361.3771 
L 575.510574 351.199842 
L 576.353474 364.554399 
L 577.196375 364.164926 
L 578.039275 357.716852 
L 578.882175 363.970054 
L 579.725076 364.034954 
L 580.567976 358.595639 
L 581.410876 358.378693 
L 582.253776 364.748322 
L 583.096677 357.407773 
L 583.939577 354.25043 
L 584.782477 362.503126 
L 585.625378 362.213853 
L 586.468278 358.121308 
L 587.311178 362.583075 
L 588.154079 361.361629 
L 588.996979 362.210257 
L 589.839879 362.290576 
L 590.682779 360.113446 
L 591.52568 356.935066 
L 592.36858 364.78162 
L 593.21148 363.381257 
L 594.897281 364.424714 
L 595.740181 364.686419 
L 597.425982 364.864178 
L 602.483384 364.912455 
L 605.012085 364.909836 
L 605.854985 362.010678 
L 606.697885 357.423927 
L 607.540785 359.043149 
L 608.383686 364.014581 
L 609.226586 353.567176 
L 610.069486 363.455399 
L 610.912387 357.554125 
L 611.755287 363.166123 
L 612.598187 363.97829 
L 613.441088 362.560577 
L 614.283988 362.930307 
L 615.126888 362.455988 
L 615.969789 353.863444 
L 616.812689 354.539447 
L 617.655589 360.939746 
L 618.498489 364.371305 
L 619.34139 364.495899 
L 621.02719 361.684143 
L 621.870091 362.236307 
L 622.712991 357.939255 
L 623.555891 350.027792 
L 624.398792 348.420153 
L 625.241692 358.87928 
L 626.084592 356.104016 
L 626.927492 354.816377 
L 627.770393 354.218953 
L 628.613293 353.941766 
L 630.299094 353.75349 
L 631.141994 364.081096 
L 631.984894 358.517499 
L 632.827795 355.93616 
L 633.670695 354.738498 
L 634.513595 354.182819 
L 635.356495 353.925001 
L 637.042296 353.749881 
L 640.413897 353.704068 
L 641.256798 364.104026 
L 642.099698 359.278763 
L 642.942598 356.289363 
L 643.785498 354.902373 
L 644.628399 354.258852 
L 645.471299 353.960278 
L 646.314199 353.821749 
L 647.1571 364.049426 
L 647.1571 364.049426 
" clip-path="url(#pfa6b5b4283)" style="fill: none; stroke: #c0c0c0; stroke-width: 1.5; stroke-linecap: square"/>
   </g>
   <g id="patch_15">
    <path d="M 90 384.48 
L 90 286.644706 
" style="fill: none; stroke: #000000; stroke-width: 0.8; stroke-linejoin: miter; stroke-linecap: square"/>
   </g>
   <g id="patch_16">
    <path d="M 648 384.48 
L 648 286.644706 
" style="fill: none; stroke: #000000; stroke-width: 0.8; stroke-linejoin: miter; stroke-linecap: square"/>
   </g>
   <g id="patch_17">
    <path d="M 90 384.48 
L 648 384.48 
" style="fill: none; stroke: #000000; stroke-width: 0.8; stroke-linejoin: miter; stroke-linecap: square"/>
   </g>
   <g id="patch_18">
    <path d="M 90 286.644706 
L 648 286.644706 
" style="fill: none; stroke: #000000; stroke-width: 0.8; stroke-linejoin: miter; stroke-linecap: square"/>
   </g>
   <g id="legend_3">
    <g id="patch_19">
     <path d="M 500.4075 313.858456 
L 639.6 313.858456 
Q 642 313.858456 642 311.458456 
L 642 295.044706 
Q 642 292.644706 639.6 292.644706 
L 500.4075 292.644706 
Q 498.0075 292.644706 498.0075 295.044706 
L 498.0075 311.458456 
Q 498.0075 313.858456 500.4075 313.858456 
z
" style="fill: #ffffff; opacity: 0.5; stroke: #cccccc; stroke-linejoin: miter"/>
    </g>
    <g id="line2d_38">
     <path d="M 502.8075 302.362831 
L 514.8075 302.362831 
L 526.8075 302.362831 
" style="fill: none; stroke: #c0c0c0; stroke-width: 1.5; stroke-linecap: square"/>
    </g>
    <g id="text_39">
     <!-- abs(Delta Theta) -->
     <g transform="translate(536.4075 306.562831) scale(0.12 -0.12)">
      <use xlink:href="#DejaVuSans-61"/>
      <use xlink:href="#DejaVuSans-62" x="61.279297"/>
      <use xlink:href="#DejaVuSans-73" x="124.755859"/>
      <use xlink:href="#DejaVuSans-28" x="176.855469"/>
      <use xlink:href="#DejaVuSans-44" x="215.869141"/>
      <use xlink:href="#DejaVuSans-65" x="292.871094"/>
      <use xlink:href="#DejaVuSans-6c" x="354.394531"/>
      <use xlink:href="#DejaVuSans-74" x="382.177734"/>
      <use xlink:href="#DejaVuSans-61" x="421.386719"/>
      <use xlink:href="#DejaVuSans-20" x="482.666016"/>
      <use xlink:href="#DejaVuSans-54" x="514.453125"/>
      <use xlink:href="#DejaVuSans-68" x="575.537109"/>
      <use xlink:href="#DejaVuSans-65" x="638.916016"/>
      <use xlink:href="#DejaVuSans-74" x="700.439453"/>
      <use xlink:href="#DejaVuSans-61" x="739.648438"/>
      <use xlink:href="#DejaVuSans-29" x="800.927734"/>
     </g>
    </g>
   </g>
  </g>
 </g>
 <defs>
  <clipPath id="p6e38f3f694">
   <rect x="90" y="51.84" width="558" height="97.835294"/>
  </clipPath>
  <clipPath id="p77b8584601">
   <rect x="90" y="169.242353" width="558" height="97.835294"/>
  </clipPath>
  <clipPath id="pfa6b5b4283">
   <rect x="90" y="286.644706" width="558" height="97.835294"/>
  </clipPath>
 </defs>
</svg>
