<?xml version="1.0" encoding="utf-8" standalone="no"?>
<!DOCTYPE svg PUBLIC "-//W3C//DTD SVG 1.1//EN"
  "http://www.w3.org/Graphics/SVG/1.1/DTD/svg11.dtd">
<svg xmlns:xlink="http://www.w3.org/1999/xlink" width="720pt" height="432pt" viewBox="0 0 720 432" xmlns="http://www.w3.org/2000/svg" version="1.1">
 <metadata>
  <rdf:RDF xmlns:dc="http://purl.org/dc/elements/1.1/" xmlns:cc="http://creativecommons.org/ns#" xmlns:rdf="http://www.w3.org/1999/02/22-rdf-syntax-ns#">
   <cc:Work>
    <dc:type rdf:resource="http://purl.org/dc/dcmitype/StillImage"/>
    <dc:date>2024-05-05T00:42:41.508321</dc:date>
    <dc:format>image/svg+xml</dc:format>
    <dc:creator>
     <cc:Agent>
      <dc:title>Matplotlib v3.8.4, https://matplotlib.org/</dc:title>
     </cc:Agent>
    </dc:creator>
   </cc:Work>
  </rdf:RDF>
 </metadata>
 <defs>
  <style type="text/css">*{stroke-linejoin: round; stroke-linecap: butt}</style>
 </defs>
 <g id="figure_1">
  <g id="patch_1">
   <path d="M 0 432 
L 720 432 
L 720 0 
L 0 0 
z
" style="fill: #ffffff"/>
  </g>
  <g id="axes_1">
   <g id="patch_2">
    <path d="M 90 149.675294 
L 648 149.675294 
L 648 51.84 
L 90 51.84 
z
" style="fill: #ffffff"/>
   </g>
   <g id="matplotlib.axis_1">
    <g id="xtick_1">
     <g id="line2d_1">
      <defs>
       <path id="md9067910f6" d="M 0 0 
L 0 3.5 
" style="stroke: #000000; stroke-width: 0.8"/>
      </defs>
      <g>
       <use xlink:href="#md9067910f6" x="116.008978" y="149.675294" style="stroke: #000000; stroke-width: 0.8"/>
      </g>
     </g>
     <g id="text_1">
      <!-- 2700 -->
      <g transform="translate(103.283978 164.273732) scale(0.1 -0.1)">
       <defs>
        <path id="DejaVuSans-32" d="M 1228 531 
L 3431 531 
L 3431 0 
L 469 0 
L 469 531 
Q 828 903 1448 1529 
Q 2069 2156 2228 2338 
Q 2531 2678 2651 2914 
Q 2772 3150 2772 3378 
Q 2772 3750 2511 3984 
Q 2250 4219 1831 4219 
Q 1534 4219 1204 4116 
Q 875 4013 500 3803 
L 500 4441 
Q 881 4594 1212 4672 
Q 1544 4750 1819 4750 
Q 2544 4750 2975 4387 
Q 3406 4025 3406 3419 
Q 3406 3131 3298 2873 
Q 3191 2616 2906 2266 
Q 2828 2175 2409 1742 
Q 1991 1309 1228 531 
z
" transform="scale(0.015625)"/>
        <path id="DejaVuSans-37" d="M 525 4666 
L 3525 4666 
L 3525 4397 
L 1831 0 
L 1172 0 
L 2766 4134 
L 525 4134 
L 525 4666 
z
" transform="scale(0.015625)"/>
        <path id="DejaVuSans-30" d="M 2034 4250 
Q 1547 4250 1301 3770 
Q 1056 3291 1056 2328 
Q 1056 1369 1301 889 
Q 1547 409 2034 409 
Q 2525 409 2770 889 
Q 3016 1369 3016 2328 
Q 3016 3291 2770 3770 
Q 2525 4250 2034 4250 
z
M 2034 4750 
Q 2819 4750 3233 4129 
Q 3647 3509 3647 2328 
Q 3647 1150 3233 529 
Q 2819 -91 2034 -91 
Q 1250 -91 836 529 
Q 422 1150 422 2328 
Q 422 3509 836 4129 
Q 1250 4750 2034 4750 
z
" transform="scale(0.015625)"/>
       </defs>
       <use xlink:href="#DejaVuSans-32"/>
       <use xlink:href="#DejaVuSans-37" x="63.623047"/>
       <use xlink:href="#DejaVuSans-30" x="127.246094"/>
       <use xlink:href="#DejaVuSans-30" x="190.869141"/>
      </g>
     </g>
    </g>
    <g id="xtick_2">
     <g id="line2d_2">
      <g>
       <use xlink:href="#md9067910f6" x="199.743841" y="149.675294" style="stroke: #000000; stroke-width: 0.8"/>
      </g>
     </g>
     <g id="text_2">
      <!-- 2800 -->
      <g transform="translate(187.018841 164.273732) scale(0.1 -0.1)">
       <defs>
        <path id="DejaVuSans-38" d="M 2034 2216 
Q 1584 2216 1326 1975 
Q 1069 1734 1069 1313 
Q 1069 891 1326 650 
Q 1584 409 2034 409 
Q 2484 409 2743 651 
Q 3003 894 3003 1313 
Q 3003 1734 2745 1975 
Q 2488 2216 2034 2216 
z
M 1403 2484 
Q 997 2584 770 2862 
Q 544 3141 544 3541 
Q 544 4100 942 4425 
Q 1341 4750 2034 4750 
Q 2731 4750 3128 4425 
Q 3525 4100 3525 3541 
Q 3525 3141 3298 2862 
Q 3072 2584 2669 2484 
Q 3125 2378 3379 2068 
Q 3634 1759 3634 1313 
Q 3634 634 3220 271 
Q 2806 -91 2034 -91 
Q 1263 -91 848 271 
Q 434 634 434 1313 
Q 434 1759 690 2068 
Q 947 2378 1403 2484 
z
M 1172 3481 
Q 1172 3119 1398 2916 
Q 1625 2713 2034 2713 
Q 2441 2713 2670 2916 
Q 2900 3119 2900 3481 
Q 2900 3844 2670 4047 
Q 2441 4250 2034 4250 
Q 1625 4250 1398 4047 
Q 1172 3844 1172 3481 
z
" transform="scale(0.015625)"/>
       </defs>
       <use xlink:href="#DejaVuSans-32"/>
       <use xlink:href="#DejaVuSans-38" x="63.623047"/>
       <use xlink:href="#DejaVuSans-30" x="127.246094"/>
       <use xlink:href="#DejaVuSans-30" x="190.869141"/>
      </g>
     </g>
    </g>
    <g id="xtick_3">
     <g id="line2d_3">
      <g>
       <use xlink:href="#md9067910f6" x="283.478703" y="149.675294" style="stroke: #000000; stroke-width: 0.8"/>
      </g>
     </g>
     <g id="text_3">
      <!-- 2900 -->
      <g transform="translate(270.753703 164.273732) scale(0.1 -0.1)">
       <defs>
        <path id="DejaVuSans-39" d="M 703 97 
L 703 672 
Q 941 559 1184 500 
Q 1428 441 1663 441 
Q 2288 441 2617 861 
Q 2947 1281 2994 2138 
Q 2813 1869 2534 1725 
Q 2256 1581 1919 1581 
Q 1219 1581 811 2004 
Q 403 2428 403 3163 
Q 403 3881 828 4315 
Q 1253 4750 1959 4750 
Q 2769 4750 3195 4129 
Q 3622 3509 3622 2328 
Q 3622 1225 3098 567 
Q 2575 -91 1691 -91 
Q 1453 -91 1209 -44 
Q 966 3 703 97 
z
M 1959 2075 
Q 2384 2075 2632 2365 
Q 2881 2656 2881 3163 
Q 2881 3666 2632 3958 
Q 2384 4250 1959 4250 
Q 1534 4250 1286 3958 
Q 1038 3666 1038 3163 
Q 1038 2656 1286 2365 
Q 1534 2075 1959 2075 
z
" transform="scale(0.015625)"/>
       </defs>
       <use xlink:href="#DejaVuSans-32"/>
       <use xlink:href="#DejaVuSans-39" x="63.623047"/>
       <use xlink:href="#DejaVuSans-30" x="127.246094"/>
       <use xlink:href="#DejaVuSans-30" x="190.869141"/>
      </g>
     </g>
    </g>
    <g id="xtick_4">
     <g id="line2d_4">
      <g>
       <use xlink:href="#md9067910f6" x="367.213566" y="149.675294" style="stroke: #000000; stroke-width: 0.8"/>
      </g>
     </g>
     <g id="text_4">
      <!-- 3000 -->
      <g transform="translate(354.488566 164.273732) scale(0.1 -0.1)">
       <defs>
        <path id="DejaVuSans-33" d="M 2597 2516 
Q 3050 2419 3304 2112 
Q 3559 1806 3559 1356 
Q 3559 666 3084 287 
Q 2609 -91 1734 -91 
Q 1441 -91 1130 -33 
Q 819 25 488 141 
L 488 750 
Q 750 597 1062 519 
Q 1375 441 1716 441 
Q 2309 441 2620 675 
Q 2931 909 2931 1356 
Q 2931 1769 2642 2001 
Q 2353 2234 1838 2234 
L 1294 2234 
L 1294 2753 
L 1863 2753 
Q 2328 2753 2575 2939 
Q 2822 3125 2822 3475 
Q 2822 3834 2567 4026 
Q 2313 4219 1838 4219 
Q 1578 4219 1281 4162 
Q 984 4106 628 3988 
L 628 4550 
Q 988 4650 1302 4700 
Q 1616 4750 1894 4750 
Q 2613 4750 3031 4423 
Q 3450 4097 3450 3541 
Q 3450 3153 3228 2886 
Q 3006 2619 2597 2516 
z
" transform="scale(0.015625)"/>
       </defs>
       <use xlink:href="#DejaVuSans-33"/>
       <use xlink:href="#DejaVuSans-30" x="63.623047"/>
       <use xlink:href="#DejaVuSans-30" x="127.246094"/>
       <use xlink:href="#DejaVuSans-30" x="190.869141"/>
      </g>
     </g>
    </g>
    <g id="xtick_5">
     <g id="line2d_5">
      <g>
       <use xlink:href="#md9067910f6" x="450.948428" y="149.675294" style="stroke: #000000; stroke-width: 0.8"/>
      </g>
     </g>
     <g id="text_5">
      <!-- 3100 -->
      <g transform="translate(438.223428 164.273732) scale(0.1 -0.1)">
       <defs>
        <path id="DejaVuSans-31" d="M 794 531 
L 1825 531 
L 1825 4091 
L 703 3866 
L 703 4441 
L 1819 4666 
L 2450 4666 
L 2450 531 
L 3481 531 
L 3481 0 
L 794 0 
L 794 531 
z
" transform="scale(0.015625)"/>
       </defs>
       <use xlink:href="#DejaVuSans-33"/>
       <use xlink:href="#DejaVuSans-31" x="63.623047"/>
       <use xlink:href="#DejaVuSans-30" x="127.246094"/>
       <use xlink:href="#DejaVuSans-30" x="190.869141"/>
      </g>
     </g>
    </g>
    <g id="xtick_6">
     <g id="line2d_6">
      <g>
       <use xlink:href="#md9067910f6" x="534.683291" y="149.675294" style="stroke: #000000; stroke-width: 0.8"/>
      </g>
     </g>
     <g id="text_6">
      <!-- 3200 -->
      <g transform="translate(521.958291 164.273732) scale(0.1 -0.1)">
       <use xlink:href="#DejaVuSans-33"/>
       <use xlink:href="#DejaVuSans-32" x="63.623047"/>
       <use xlink:href="#DejaVuSans-30" x="127.246094"/>
       <use xlink:href="#DejaVuSans-30" x="190.869141"/>
      </g>
     </g>
    </g>
    <g id="xtick_7">
     <g id="line2d_7">
      <g>
       <use xlink:href="#md9067910f6" x="618.418153" y="149.675294" style="stroke: #000000; stroke-width: 0.8"/>
      </g>
     </g>
     <g id="text_7">
      <!-- 3300 -->
      <g transform="translate(605.693153 164.273732) scale(0.1 -0.1)">
       <use xlink:href="#DejaVuSans-33"/>
       <use xlink:href="#DejaVuSans-33" x="63.623047"/>
       <use xlink:href="#DejaVuSans-30" x="127.246094"/>
       <use xlink:href="#DejaVuSans-30" x="190.869141"/>
      </g>
     </g>
    </g>
   </g>
   <g id="matplotlib.axis_2">
    <g id="ytick_1">
     <g id="line2d_8">
      <defs>
       <path id="m3a2c1abcde" d="M 0 0 
L -3.5 0 
" style="stroke: #000000; stroke-width: 0.8"/>
      </defs>
      <g>
       <use xlink:href="#m3a2c1abcde" x="90" y="135.698824" style="stroke: #000000; stroke-width: 0.8"/>
      </g>
     </g>
     <g id="text_8">
      <!-- 0 -->
      <g transform="translate(76.6375 139.498042) scale(0.1 -0.1)">
       <use xlink:href="#DejaVuSans-30"/>
      </g>
     </g>
    </g>
    <g id="ytick_2">
     <g id="line2d_9">
      <g>
       <use xlink:href="#m3a2c1abcde" x="90" y="107.745882" style="stroke: #000000; stroke-width: 0.8"/>
      </g>
     </g>
     <g id="text_9">
      <!-- 10 -->
      <g transform="translate(70.275 111.545101) scale(0.1 -0.1)">
       <use xlink:href="#DejaVuSans-31"/>
       <use xlink:href="#DejaVuSans-30" x="63.623047"/>
      </g>
     </g>
    </g>
    <g id="ytick_3">
     <g id="line2d_10">
      <g>
       <use xlink:href="#m3a2c1abcde" x="90" y="79.792941" style="stroke: #000000; stroke-width: 0.8"/>
      </g>
     </g>
     <g id="text_10">
      <!-- 20 -->
      <g transform="translate(70.275 83.59216) scale(0.1 -0.1)">
       <use xlink:href="#DejaVuSans-32"/>
       <use xlink:href="#DejaVuSans-30" x="63.623047"/>
      </g>
     </g>
    </g>
    <g id="ytick_4">
     <g id="line2d_11">
      <g>
       <use xlink:href="#m3a2c1abcde" x="90" y="51.84" style="stroke: #000000; stroke-width: 0.8"/>
      </g>
     </g>
     <g id="text_11">
      <!-- 30 -->
      <g transform="translate(70.275 55.639219) scale(0.1 -0.1)">
       <use xlink:href="#DejaVuSans-33"/>
       <use xlink:href="#DejaVuSans-30" x="63.623047"/>
      </g>
     </g>
    </g>
    <g id="text_12">
     <!-- Delta X -->
     <g transform="translate(63.363438 126.453116) rotate(-90) scale(0.14 -0.14)">
      <defs>
       <path id="DejaVuSans-44" d="M 1259 4147 
L 1259 519 
L 2022 519 
Q 2988 519 3436 956 
Q 3884 1394 3884 2338 
Q 3884 3275 3436 3711 
Q 2988 4147 2022 4147 
L 1259 4147 
z
M 628 4666 
L 1925 4666 
Q 3281 4666 3915 4102 
Q 4550 3538 4550 2338 
Q 4550 1131 3912 565 
Q 3275 0 1925 0 
L 628 0 
L 628 4666 
z
" transform="scale(0.015625)"/>
       <path id="DejaVuSans-65" d="M 3597 1894 
L 3597 1613 
L 953 1613 
Q 991 1019 1311 708 
Q 1631 397 2203 397 
Q 2534 397 2845 478 
Q 3156 559 3463 722 
L 3463 178 
Q 3153 47 2828 -22 
Q 2503 -91 2169 -91 
Q 1331 -91 842 396 
Q 353 884 353 1716 
Q 353 2575 817 3079 
Q 1281 3584 2069 3584 
Q 2775 3584 3186 3129 
Q 3597 2675 3597 1894 
z
M 3022 2063 
Q 3016 2534 2758 2815 
Q 2500 3097 2075 3097 
Q 1594 3097 1305 2825 
Q 1016 2553 972 2059 
L 3022 2063 
z
" transform="scale(0.015625)"/>
       <path id="DejaVuSans-6c" d="M 603 4863 
L 1178 4863 
L 1178 0 
L 603 0 
L 603 4863 
z
" transform="scale(0.015625)"/>
       <path id="DejaVuSans-74" d="M 1172 4494 
L 1172 3500 
L 2356 3500 
L 2356 3053 
L 1172 3053 
L 1172 1153 
Q 1172 725 1289 603 
Q 1406 481 1766 481 
L 2356 481 
L 2356 0 
L 1766 0 
Q 1100 0 847 248 
Q 594 497 594 1153 
L 594 3053 
L 172 3053 
L 172 3500 
L 594 3500 
L 594 4494 
L 1172 4494 
z
" transform="scale(0.015625)"/>
       <path id="DejaVuSans-61" d="M 2194 1759 
Q 1497 1759 1228 1600 
Q 959 1441 959 1056 
Q 959 750 1161 570 
Q 1363 391 1709 391 
Q 2188 391 2477 730 
Q 2766 1069 2766 1631 
L 2766 1759 
L 2194 1759 
z
M 3341 1997 
L 3341 0 
L 2766 0 
L 2766 531 
Q 2569 213 2275 61 
Q 1981 -91 1556 -91 
Q 1019 -91 701 211 
Q 384 513 384 1019 
Q 384 1609 779 1909 
Q 1175 2209 1959 2209 
L 2766 2209 
L 2766 2266 
Q 2766 2663 2505 2880 
Q 2244 3097 1772 3097 
Q 1472 3097 1187 3025 
Q 903 2953 641 2809 
L 641 3341 
Q 956 3463 1253 3523 
Q 1550 3584 1831 3584 
Q 2591 3584 2966 3190 
Q 3341 2797 3341 1997 
z
" transform="scale(0.015625)"/>
       <path id="DejaVuSans-20" transform="scale(0.015625)"/>
       <path id="DejaVuSans-58" d="M 403 4666 
L 1081 4666 
L 2241 2931 
L 3406 4666 
L 4084 4666 
L 2584 2425 
L 4184 0 
L 3506 0 
L 2194 1984 
L 872 0 
L 191 0 
L 1856 2491 
L 403 4666 
z
" transform="scale(0.015625)"/>
      </defs>
      <use xlink:href="#DejaVuSans-44"/>
      <use xlink:href="#DejaVuSans-65" x="77.001953"/>
      <use xlink:href="#DejaVuSans-6c" x="138.525391"/>
      <use xlink:href="#DejaVuSans-74" x="166.308594"/>
      <use xlink:href="#DejaVuSans-61" x="205.517578"/>
      <use xlink:href="#DejaVuSans-20" x="266.796875"/>
      <use xlink:href="#DejaVuSans-58" x="298.583984"/>
     </g>
    </g>
   </g>
   <g id="line2d_12">
    <path d="M 90 135.65196 
L 90.8429 133.071541 
L 91.685801 135.660642 
L 92.528701 134.451474 
L 93.371601 131.688047 
L 94.214502 134.119606 
L 95.057402 134.627684 
L 95.900302 132.992898 
L 96.743202 135.2066 
L 97.586103 135.395464 
L 98.429003 132.707019 
L 99.271903 133.217493 
L 100.114804 133.581429 
L 100.957704 133.66042 
L 101.800604 133.98634 
L 102.643505 132.316819 
L 103.486405 135.440638 
L 104.329305 135.572084 
L 105.172205 133.636491 
L 106.015106 135.397775 
L 106.858006 135.354313 
L 107.700906 133.714346 
L 108.543807 132.703493 
L 109.386707 134.928837 
L 110.229607 133.275894 
L 111.072508 134.530636 
L 111.915408 135.347312 
L 112.758308 133.327089 
L 113.601208 132.400076 
L 114.444109 134.962723 
L 115.287009 135.115862 
L 116.129909 134.280181 
L 116.97281 134.84151 
L 117.81571 133.749851 
L 118.65861 133.394408 
L 119.501511 131.631668 
L 120.344411 134.021808 
L 121.187311 133.350211 
L 122.030211 135.642546 
L 122.873112 135.171597 
L 123.716012 134.304579 
L 124.558912 135.440585 
L 125.401813 135.272061 
L 126.244713 134.722674 
L 127.087613 132.587306 
L 127.930514 132.43169 
L 130.459215 135.675427 
L 131.302115 132.447443 
L 132.145015 135.185449 
L 132.987915 134.129356 
L 133.830816 134.935929 
L 134.673716 132.585871 
L 135.516616 133.034934 
L 136.359517 134.04553 
L 137.202417 134.446033 
L 138.045317 133.728946 
L 138.888218 135.100656 
L 139.731118 133.099125 
L 140.574018 135.179906 
L 141.416918 133.33054 
L 142.259819 134.441521 
L 143.945619 132.359971 
L 144.78852 134.724646 
L 145.63142 131.980509 
L 146.47432 134.518933 
L 147.317221 132.858609 
L 148.160121 135.063601 
L 149.003021 134.725844 
L 149.845921 135.168108 
L 150.688822 135.375259 
L 151.531722 135.235083 
L 152.374622 133.230087 
L 153.217523 133.944935 
L 154.060423 134.938181 
L 154.903323 135.503959 
L 155.746224 133.818031 
L 156.589124 130.446462 
L 157.432024 134.549649 
L 158.274924 133.368854 
L 159.117825 134.014743 
L 159.960725 130.866615 
L 160.803625 131.919063 
L 161.646526 135.119317 
L 162.489426 135.384016 
L 163.332326 132.742507 
L 164.175227 131.724469 
L 165.018127 134.35311 
L 165.861027 133.547486 
L 166.703927 129.288263 
L 167.546828 135.094574 
L 168.389728 132.034085 
L 169.232628 134.564909 
L 170.075529 133.241185 
L 170.918429 132.652229 
L 171.761329 134.821113 
L 172.60423 134.37263 
L 173.44713 133.532959 
L 174.29003 135.221015 
L 175.975831 130.443478 
L 176.818731 131.055431 
L 177.661631 133.066048 
L 178.504532 133.385188 
L 179.347432 131.719467 
L 180.190332 134.030929 
L 181.876133 135.068796 
L 183.561934 133.397976 
L 184.404834 134.670582 
L 185.247734 133.691531 
L 186.090634 135.573926 
L 186.933535 133.034861 
L 187.776435 132.833057 
L 188.619335 132.153872 
L 189.462236 133.089364 
L 190.305136 132.851925 
L 191.148036 133.842385 
L 191.990937 134.222447 
L 192.833837 133.601893 
L 193.676737 134.264539 
L 194.519637 135.517981 
L 195.362538 133.038392 
L 196.205438 135.23115 
L 197.048338 134.779664 
L 197.891239 131.416132 
L 198.734139 132.612187 
L 199.577039 133.01716 
L 200.41994 132.931169 
L 202.10574 126.6611 
L 202.94864 126.352408 
L 203.791541 125.429503 
L 204.634441 125.577589 
L 205.477341 124.744766 
L 206.320242 124.253188 
L 207.163142 124.596576 
L 208.006042 123.751834 
L 208.848943 122.355173 
L 209.691843 125.294007 
L 210.534743 126.433123 
L 211.377644 124.044106 
L 212.220544 126.614743 
L 213.906344 127.301397 
L 214.749245 130.1563 
L 215.592145 129.876869 
L 216.435045 130.715934 
L 217.277946 134.167989 
L 218.120846 135.017502 
L 218.963746 135.425356 
L 219.806647 132.804112 
L 222.335347 121.325726 
L 223.178248 114.670578 
L 224.021148 114.661638 
L 225.706949 104.045277 
L 227.392749 89.503532 
L 228.23565 84.815201 
L 229.07855 78.544227 
L 229.92145 66.968174 
L 230.76435 62.438587 
L 231.607251 53.274713 
L 232.450151 51.175363 
L 234.978852 24.805464 
L 235.821752 18.674134 
L 238.041075 -1 
M 250.57038 -1 
L 250.993958 80.705581 
L 251.836858 123.860626 
L 252.679758 135.080307 
L 253.522659 132.370782 
L 254.365559 131.216644 
L 255.208459 135.200952 
L 256.05136 131.033588 
L 256.89426 129.352828 
L 257.73716 132.188958 
L 258.58006 131.696433 
L 259.422961 131.605474 
L 260.265861 135.558545 
L 261.951662 135.290548 
L 262.794562 133.28022 
L 263.637462 135.61918 
L 264.480363 135.244856 
L 265.323263 135.554718 
L 267.009063 133.838106 
L 267.851964 134.828548 
L 268.694864 133.467805 
L 269.537764 132.532543 
L 270.380665 135.355437 
L 271.223565 130.344776 
L 272.066465 128.893849 
L 272.909366 129.9291 
L 273.752266 130.381954 
L 274.595166 131.945152 
L 275.438066 130.860586 
L 276.280967 134.575574 
L 277.123867 134.2205 
L 277.966767 131.58456 
L 279.652568 134.544134 
L 280.495468 133.741375 
L 281.338369 130.949764 
L 282.181269 134.984144 
L 283.024169 132.880284 
L 283.867069 133.920094 
L 284.70997 130.653677 
L 285.55287 134.368335 
L 286.39577 134.105376 
L 287.238671 131.216291 
L 288.081571 129.061754 
L 288.924471 128.229772 
L 289.767372 132.903255 
L 290.610272 134.55787 
L 291.453172 134.017405 
L 292.296073 132.697717 
L 293.138973 135.402573 
L 293.981873 134.780833 
L 294.824773 132.957225 
L 295.667674 135.216093 
L 296.510574 135.148402 
L 297.353474 134.923631 
L 299.039275 122.940122 
L 299.882175 114.307765 
L 300.725076 110.796399 
L 302.410876 102.10423 
L 303.253776 100.291197 
L 304.096677 94.549661 
L 304.939577 92.084051 
L 305.782477 92.353717 
L 306.625378 94.647654 
L 307.468278 90.881085 
L 308.311178 88.201749 
L 309.154079 88.734078 
L 309.996979 126.436591 
L 310.839879 133.726564 
L 311.682779 135.274804 
L 312.52568 134.698724 
L 313.36858 134.57673 
L 314.21148 132.103101 
L 315.054381 133.253273 
L 315.897281 133.541558 
L 316.740181 134.624899 
L 317.583082 133.405729 
L 318.425982 134.975105 
L 319.268882 134.744816 
L 320.111782 131.060178 
L 320.954683 134.110435 
L 321.797583 134.749308 
L 323.483384 132.461815 
L 324.326284 132.756533 
L 325.169184 133.747077 
L 326.012085 135.406215 
L 326.854985 133.60842 
L 327.697885 134.512129 
L 328.540785 135.121243 
L 329.383686 135.243073 
L 330.226586 134.2003 
L 331.069486 133.968562 
L 331.912387 135.188341 
L 332.755287 134.007936 
L 333.598187 135.348041 
L 334.441088 133.546986 
L 335.283988 132.041981 
L 336.126888 134.253731 
L 336.969789 134.928048 
L 337.812689 132.163409 
L 338.655589 134.362889 
L 339.498489 134.999539 
L 340.34139 133.708906 
L 341.18429 133.032974 
L 342.02719 132.209555 
L 342.870091 133.558205 
L 343.712991 134.186937 
L 345.398792 129.410294 
L 347.084592 134.485845 
L 347.927492 132.023039 
L 348.770393 135.126078 
L 349.613293 135.440552 
L 350.456193 134.382255 
L 351.299094 131.645495 
L 352.141994 128.347068 
L 354.670695 103.713176 
L 355.513595 98.282557 
L 357.199396 81.230874 
L 358.042296 74.306178 
L 358.885196 65.868643 
L 360.570997 54.992824 
L 361.413897 46.435091 
L 362.256798 39.837431 
L 363.942598 20.666463 
L 364.785498 14.101424 
L 365.628399 5.392963 
L 366.406012 -1 
M 367.414612 -1 
L 368.1571 96.550998 
L 369 127.274793 
L 369.8429 132.495281 
L 370.685801 133.692626 
L 371.528701 132.966299 
L 372.371601 135.126031 
L 373.214502 133.94422 
L 374.057402 135.46231 
L 374.900302 133.964506 
L 375.743202 134.753177 
L 376.586103 134.621991 
L 377.429003 135.388973 
L 378.271903 133.297036 
L 379.957704 134.368623 
L 380.800604 133.198669 
L 381.643505 135.518533 
L 382.486405 133.249018 
L 383.329305 134.612423 
L 384.172205 134.472735 
L 385.015106 134.010138 
L 385.858006 133.220064 
L 386.700906 133.847506 
L 387.543807 133.174767 
L 388.386707 134.646679 
L 389.229607 131.900714 
L 390.072508 129.666178 
L 390.915408 135.199305 
L 391.758308 133.74457 
L 392.601208 130.655938 
L 393.444109 134.657402 
L 394.287009 135.424006 
L 395.129909 134.078718 
L 395.97281 133.967717 
L 396.81571 131.0621 
L 397.65861 135.19791 
L 398.501511 135.65153 
L 399.344411 133.437368 
L 400.187311 133.65219 
L 401.030211 134.698153 
L 401.873112 135.357776 
L 402.716012 134.77899 
L 403.558912 134.635991 
L 404.401813 130.939092 
L 405.244713 133.800625 
L 406.087613 131.041552 
L 406.930514 124.939776 
L 407.773414 124.098896 
L 408.616314 119.6625 
L 409.459215 116.705766 
L 410.302115 114.76391 
L 411.145015 109.144043 
L 411.987915 110.462444 
L 412.830816 107.136908 
L 413.673716 102.946159 
L 414.516616 99.789368 
L 415.359517 98.125613 
L 416.202417 95.563994 
L 417.045317 90.217743 
L 417.888218 87.703341 
L 418.731118 83.491055 
L 419.574018 84.298924 
L 421.259819 81.575872 
L 422.102719 77.172495 
L 422.945619 77.727566 
L 423.78852 73.440956 
L 424.63142 76.041357 
L 425.47432 73.845745 
L 426.317221 74.860845 
L 427.160121 72.13797 
L 428.003021 68.714609 
L 429.688822 56.712359 
L 430.531722 52.558282 
L 431.374622 47.162992 
L 432.217523 42.879201 
L 433.060423 39.937689 
L 433.903323 33.500783 
L 434.746224 29.827924 
L 435.589124 20.409478 
L 436.432024 17.885292 
L 438.117825 0.529455 
L 438.614005 -1 
M 443.397198 -1 
L 444.018127 92.419434 
L 444.861027 124.516193 
L 445.703927 135.648037 
L 446.546828 131.417589 
L 447.389728 134.963383 
L 448.232628 135.490904 
L 449.075529 134.03955 
L 449.918429 131.150095 
L 451.60423 135.187152 
L 452.44713 135.570817 
L 453.29003 135.007528 
L 454.132931 134.814714 
L 454.975831 135.188534 
L 455.818731 135.166823 
L 456.661631 134.458726 
L 457.504532 133.498497 
L 458.347432 134.095299 
L 459.190332 127.550876 
L 460.033233 123.488091 
L 460.876133 122.819256 
L 461.719033 120.183434 
L 462.561934 119.239311 
L 463.404834 114.785789 
L 464.247734 112.775346 
L 465.090634 111.404378 
L 465.933535 108.678517 
L 466.776435 103.683421 
L 467.619335 97.135747 
L 468.462236 98.128464 
L 469.305136 94.890305 
L 470.148036 93.190401 
L 470.990937 90.916043 
L 471.833837 92.431353 
L 472.676737 90.964787 
L 473.519637 90.004814 
L 474.362538 89.692128 
L 475.205438 91.393007 
L 476.891239 93.109706 
L 477.734139 92.888286 
L 478.577039 91.500825 
L 479.41994 93.666513 
L 480.26284 98.372045 
L 481.10574 99.754685 
L 481.94864 102.889329 
L 482.791541 107.855229 
L 483.634441 110.134553 
L 484.477341 124.836899 
L 485.320242 133.268732 
L 486.163142 132.756823 
L 487.006042 135.140043 
L 487.848943 134.306835 
L 488.691843 132.655834 
L 489.534743 134.983627 
L 490.377644 133.576272 
L 491.220544 135.401628 
L 492.063444 135.22123 
L 492.906344 132.903017 
L 493.749245 134.51054 
L 494.592145 131.899738 
L 495.435045 132.266045 
L 496.277946 134.379619 
L 497.120846 133.43977 
L 497.963746 135.580681 
L 498.806647 134.50563 
L 499.649547 134.541513 
L 500.492447 135.53786 
L 501.335347 135.485216 
L 502.178248 131.488927 
L 503.021148 132.914649 
L 503.864048 134.672326 
L 504.706949 132.198224 
L 505.549849 132.841537 
L 506.392749 135.166934 
L 507.23565 135.448151 
L 508.07855 134.479158 
L 508.92145 134.22167 
L 509.76435 134.880476 
L 510.607251 134.569459 
L 511.450151 135.435956 
L 512.293051 132.510348 
L 513.135952 133.755441 
L 513.978852 133.25381 
L 514.821752 135.663844 
L 515.664653 135.171619 
L 516.507553 126.001139 
L 517.350453 120.831671 
L 518.193353 112.212272 
L 519.036254 106.206334 
L 520.722054 86.740723 
L 521.564955 79.148006 
L 522.407855 66.25243 
L 523.250755 58.295078 
L 524.936556 36.937665 
L 525.779456 29.226852 
L 526.622356 19.34655 
L 527.465257 10.888583 
L 528.459471 -1 
M 554.346778 -1 
L 554.438066 30.836449 
L 555.280967 107.626874 
L 556.123867 124.974685 
L 556.966767 127.484203 
L 557.809668 133.090574 
L 558.652568 133.530457 
L 559.495468 134.377773 
L 560.338369 132.639227 
L 561.181269 135.594004 
L 562.024169 135.372756 
L 562.867069 134.164386 
L 563.70997 135.030156 
L 564.55287 132.674225 
L 565.39577 134.825567 
L 566.238671 135.328067 
L 567.081571 134.29603 
L 567.924471 134.580398 
L 568.767372 133.855697 
L 569.610272 135.648579 
L 570.453172 134.959585 
L 571.296073 135.551422 
L 572.138973 135.081336 
L 572.981873 135.618117 
L 573.824773 132.14152 
L 574.667674 133.622631 
L 575.510574 133.889055 
L 576.353474 132.563594 
L 577.196375 133.948924 
L 578.039275 134.905793 
L 579.725076 134.827259 
L 580.567976 134.888425 
L 581.410876 132.428361 
L 582.253776 134.499433 
L 583.096677 133.321685 
L 583.939577 135.144246 
L 584.782477 133.780617 
L 585.625378 134.767599 
L 586.468278 130.36023 
L 587.311178 129.33606 
L 588.154079 125.086962 
L 588.996979 118.246971 
L 589.839879 117.196637 
L 590.682779 114.114996 
L 592.36858 99.122057 
L 593.21148 96.352765 
L 594.054381 91.376381 
L 594.897281 83.595056 
L 595.740181 73.658173 
L 596.583082 70.041102 
L 597.425982 61.818123 
L 598.268882 55.43273 
L 599.111782 50.661586 
L 599.954683 44.09097 
L 600.797583 40.135257 
L 602.483384 25.6468 
L 603.326284 17.435263 
L 604.169184 12.637113 
L 605.012085 106.642949 
L 605.854985 125.549259 
L 607.540785 134.860477 
L 608.383686 135.559804 
L 609.226586 134.802288 
L 610.069486 132.843684 
L 610.912387 134.025912 
L 611.755287 133.863727 
L 612.598187 134.707584 
L 613.441088 135.103507 
L 616.812689 133.211067 
L 617.655589 130.215867 
L 618.498489 129.901427 
L 619.34139 134.927034 
L 620.18429 135.241313 
L 621.870091 135.373775 
L 622.712991 134.562946 
L 623.555891 134.934959 
L 624.398792 131.437756 
L 625.241692 134.29925 
L 626.084592 132.857833 
L 626.927492 133.627062 
L 627.770393 135.616845 
L 628.613293 128.941411 
L 629.456193 127.895428 
L 630.299094 123.961459 
L 631.141994 124.80018 
L 631.984894 129.152671 
L 632.827795 132.712022 
L 633.670695 133.746431 
L 634.513595 135.12099 
L 635.356495 131.505934 
L 636.199396 133.984778 
L 637.885196 131.264648 
L 638.728097 129.59504 
L 639.570997 126.312911 
L 640.413897 125.367913 
L 641.256798 119.439061 
L 642.099698 128.952659 
L 643.785498 134.839567 
L 644.628399 132.780983 
L 645.471299 135.534448 
L 646.314199 134.30869 
L 647.1571 134.274773 
L 647.1571 134.274773 
" clip-path="url(#pcbe54ca115)" style="fill: none; stroke: #bc8f8f; stroke-width: 1.5; stroke-linecap: square"/>
   </g>
   <g id="patch_3">
    <path d="M 90 149.675294 
L 90 51.84 
" style="fill: none; stroke: #000000; stroke-width: 0.8; stroke-linejoin: miter; stroke-linecap: square"/>
   </g>
   <g id="patch_4">
    <path d="M 648 149.675294 
L 648 51.84 
" style="fill: none; stroke: #000000; stroke-width: 0.8; stroke-linejoin: miter; stroke-linecap: square"/>
   </g>
   <g id="patch_5">
    <path d="M 90 149.675294 
L 648 149.675294 
" style="fill: none; stroke: #000000; stroke-width: 0.8; stroke-linejoin: miter; stroke-linecap: square"/>
   </g>
   <g id="patch_6">
    <path d="M 90 51.84 
L 648 51.84 
" style="fill: none; stroke: #000000; stroke-width: 0.8; stroke-linejoin: miter; stroke-linecap: square"/>
   </g>
   <g id="legend_1">
    <g id="patch_7">
     <path d="M 526.56375 79.05375 
L 639.6 79.05375 
Q 642 79.05375 642 76.65375 
L 642 60.24 
Q 642 57.84 639.6 57.84 
L 526.56375 57.84 
Q 524.16375 57.84 524.16375 60.24 
L 524.16375 76.65375 
Q 524.16375 79.05375 526.56375 79.05375 
z
" style="fill: #ffffff; opacity: 0.5; stroke: #cccccc; stroke-linejoin: miter"/>
    </g>
    <g id="line2d_13">
     <path d="M 528.96375 67.558125 
L 540.96375 67.558125 
L 552.96375 67.558125 
" style="fill: none; stroke: #bc8f8f; stroke-width: 1.5; stroke-linecap: square"/>
    </g>
    <g id="text_13">
     <!-- abs(Delta X) -->
     <g transform="translate(562.56375 71.758125) scale(0.12 -0.12)">
      <defs>
       <path id="DejaVuSans-62" d="M 3116 1747 
Q 3116 2381 2855 2742 
Q 2594 3103 2138 3103 
Q 1681 3103 1420 2742 
Q 1159 2381 1159 1747 
Q 1159 1113 1420 752 
Q 1681 391 2138 391 
Q 2594 391 2855 752 
Q 3116 1113 3116 1747 
z
M 1159 2969 
Q 1341 3281 1617 3432 
Q 1894 3584 2278 3584 
Q 2916 3584 3314 3078 
Q 3713 2572 3713 1747 
Q 3713 922 3314 415 
Q 2916 -91 2278 -91 
Q 1894 -91 1617 61 
Q 1341 213 1159 525 
L 1159 0 
L 581 0 
L 581 4863 
L 1159 4863 
L 1159 2969 
z
" transform="scale(0.015625)"/>
       <path id="DejaVuSans-73" d="M 2834 3397 
L 2834 2853 
Q 2591 2978 2328 3040 
Q 2066 3103 1784 3103 
Q 1356 3103 1142 2972 
Q 928 2841 928 2578 
Q 928 2378 1081 2264 
Q 1234 2150 1697 2047 
L 1894 2003 
Q 2506 1872 2764 1633 
Q 3022 1394 3022 966 
Q 3022 478 2636 193 
Q 2250 -91 1575 -91 
Q 1294 -91 989 -36 
Q 684 19 347 128 
L 347 722 
Q 666 556 975 473 
Q 1284 391 1588 391 
Q 1994 391 2212 530 
Q 2431 669 2431 922 
Q 2431 1156 2273 1281 
Q 2116 1406 1581 1522 
L 1381 1569 
Q 847 1681 609 1914 
Q 372 2147 372 2553 
Q 372 3047 722 3315 
Q 1072 3584 1716 3584 
Q 2034 3584 2315 3537 
Q 2597 3491 2834 3397 
z
" transform="scale(0.015625)"/>
       <path id="DejaVuSans-28" d="M 1984 4856 
Q 1566 4138 1362 3434 
Q 1159 2731 1159 2009 
Q 1159 1288 1364 580 
Q 1569 -128 1984 -844 
L 1484 -844 
Q 1016 -109 783 600 
Q 550 1309 550 2009 
Q 550 2706 781 3412 
Q 1013 4119 1484 4856 
L 1984 4856 
z
" transform="scale(0.015625)"/>
       <path id="DejaVuSans-29" d="M 513 4856 
L 1013 4856 
Q 1481 4119 1714 3412 
Q 1947 2706 1947 2009 
Q 1947 1309 1714 600 
Q 1481 -109 1013 -844 
L 513 -844 
Q 928 -128 1133 580 
Q 1338 1288 1338 2009 
Q 1338 2731 1133 3434 
Q 928 4138 513 4856 
z
" transform="scale(0.015625)"/>
      </defs>
      <use xlink:href="#DejaVuSans-61"/>
      <use xlink:href="#DejaVuSans-62" x="61.279297"/>
      <use xlink:href="#DejaVuSans-73" x="124.755859"/>
      <use xlink:href="#DejaVuSans-28" x="176.855469"/>
      <use xlink:href="#DejaVuSans-44" x="215.869141"/>
      <use xlink:href="#DejaVuSans-65" x="292.871094"/>
      <use xlink:href="#DejaVuSans-6c" x="354.394531"/>
      <use xlink:href="#DejaVuSans-74" x="382.177734"/>
      <use xlink:href="#DejaVuSans-61" x="421.386719"/>
      <use xlink:href="#DejaVuSans-20" x="482.666016"/>
      <use xlink:href="#DejaVuSans-58" x="514.453125"/>
      <use xlink:href="#DejaVuSans-29" x="582.958984"/>
     </g>
    </g>
   </g>
  </g>
  <g id="axes_2">
   <g id="patch_8">
    <path d="M 90 267.077647 
L 648 267.077647 
L 648 169.242353 
L 90 169.242353 
z
" style="fill: #ffffff"/>
   </g>
   <g id="matplotlib.axis_3">
    <g id="xtick_8">
     <g id="line2d_14">
      <g>
       <use xlink:href="#md9067910f6" x="116.008978" y="267.077647" style="stroke: #000000; stroke-width: 0.8"/>
      </g>
     </g>
     <g id="text_14">
      <!-- 2700 -->
      <g transform="translate(103.283978 281.676085) scale(0.1 -0.1)">
       <use xlink:href="#DejaVuSans-32"/>
       <use xlink:href="#DejaVuSans-37" x="63.623047"/>
       <use xlink:href="#DejaVuSans-30" x="127.246094"/>
       <use xlink:href="#DejaVuSans-30" x="190.869141"/>
      </g>
     </g>
    </g>
    <g id="xtick_9">
     <g id="line2d_15">
      <g>
       <use xlink:href="#md9067910f6" x="199.743841" y="267.077647" style="stroke: #000000; stroke-width: 0.8"/>
      </g>
     </g>
     <g id="text_15">
      <!-- 2800 -->
      <g transform="translate(187.018841 281.676085) scale(0.1 -0.1)">
       <use xlink:href="#DejaVuSans-32"/>
       <use xlink:href="#DejaVuSans-38" x="63.623047"/>
       <use xlink:href="#DejaVuSans-30" x="127.246094"/>
       <use xlink:href="#DejaVuSans-30" x="190.869141"/>
      </g>
     </g>
    </g>
    <g id="xtick_10">
     <g id="line2d_16">
      <g>
       <use xlink:href="#md9067910f6" x="283.478703" y="267.077647" style="stroke: #000000; stroke-width: 0.8"/>
      </g>
     </g>
     <g id="text_16">
      <!-- 2900 -->
      <g transform="translate(270.753703 281.676085) scale(0.1 -0.1)">
       <use xlink:href="#DejaVuSans-32"/>
       <use xlink:href="#DejaVuSans-39" x="63.623047"/>
       <use xlink:href="#DejaVuSans-30" x="127.246094"/>
       <use xlink:href="#DejaVuSans-30" x="190.869141"/>
      </g>
     </g>
    </g>
    <g id="xtick_11">
     <g id="line2d_17">
      <g>
       <use xlink:href="#md9067910f6" x="367.213566" y="267.077647" style="stroke: #000000; stroke-width: 0.8"/>
      </g>
     </g>
     <g id="text_17">
      <!-- 3000 -->
      <g transform="translate(354.488566 281.676085) scale(0.1 -0.1)">
       <use xlink:href="#DejaVuSans-33"/>
       <use xlink:href="#DejaVuSans-30" x="63.623047"/>
       <use xlink:href="#DejaVuSans-30" x="127.246094"/>
       <use xlink:href="#DejaVuSans-30" x="190.869141"/>
      </g>
     </g>
    </g>
    <g id="xtick_12">
     <g id="line2d_18">
      <g>
       <use xlink:href="#md9067910f6" x="450.948428" y="267.077647" style="stroke: #000000; stroke-width: 0.8"/>
      </g>
     </g>
     <g id="text_18">
      <!-- 3100 -->
      <g transform="translate(438.223428 281.676085) scale(0.1 -0.1)">
       <use xlink:href="#DejaVuSans-33"/>
       <use xlink:href="#DejaVuSans-31" x="63.623047"/>
       <use xlink:href="#DejaVuSans-30" x="127.246094"/>
       <use xlink:href="#DejaVuSans-30" x="190.869141"/>
      </g>
     </g>
    </g>
    <g id="xtick_13">
     <g id="line2d_19">
      <g>
       <use xlink:href="#md9067910f6" x="534.683291" y="267.077647" style="stroke: #000000; stroke-width: 0.8"/>
      </g>
     </g>
     <g id="text_19">
      <!-- 3200 -->
      <g transform="translate(521.958291 281.676085) scale(0.1 -0.1)">
       <use xlink:href="#DejaVuSans-33"/>
       <use xlink:href="#DejaVuSans-32" x="63.623047"/>
       <use xlink:href="#DejaVuSans-30" x="127.246094"/>
       <use xlink:href="#DejaVuSans-30" x="190.869141"/>
      </g>
     </g>
    </g>
    <g id="xtick_14">
     <g id="line2d_20">
      <g>
       <use xlink:href="#md9067910f6" x="618.418153" y="267.077647" style="stroke: #000000; stroke-width: 0.8"/>
      </g>
     </g>
     <g id="text_20">
      <!-- 3300 -->
      <g transform="translate(605.693153 281.676085) scale(0.1 -0.1)">
       <use xlink:href="#DejaVuSans-33"/>
       <use xlink:href="#DejaVuSans-33" x="63.623047"/>
       <use xlink:href="#DejaVuSans-30" x="127.246094"/>
       <use xlink:href="#DejaVuSans-30" x="190.869141"/>
      </g>
     </g>
    </g>
   </g>
   <g id="matplotlib.axis_4">
    <g id="ytick_5">
     <g id="line2d_21">
      <g>
       <use xlink:href="#m3a2c1abcde" x="90" y="253.101176" style="stroke: #000000; stroke-width: 0.8"/>
      </g>
     </g>
     <g id="text_21">
      <!-- 0 -->
      <g transform="translate(76.6375 256.900395) scale(0.1 -0.1)">
       <use xlink:href="#DejaVuSans-30"/>
      </g>
     </g>
    </g>
    <g id="ytick_6">
     <g id="line2d_22">
      <g>
       <use xlink:href="#m3a2c1abcde" x="90" y="225.148235" style="stroke: #000000; stroke-width: 0.8"/>
      </g>
     </g>
     <g id="text_22">
      <!-- 10 -->
      <g transform="translate(70.275 228.947454) scale(0.1 -0.1)">
       <use xlink:href="#DejaVuSans-31"/>
       <use xlink:href="#DejaVuSans-30" x="63.623047"/>
      </g>
     </g>
    </g>
    <g id="ytick_7">
     <g id="line2d_23">
      <g>
       <use xlink:href="#m3a2c1abcde" x="90" y="197.195294" style="stroke: #000000; stroke-width: 0.8"/>
      </g>
     </g>
     <g id="text_23">
      <!-- 20 -->
      <g transform="translate(70.275 200.994513) scale(0.1 -0.1)">
       <use xlink:href="#DejaVuSans-32"/>
       <use xlink:href="#DejaVuSans-30" x="63.623047"/>
      </g>
     </g>
    </g>
    <g id="ytick_8">
     <g id="line2d_24">
      <g>
       <use xlink:href="#m3a2c1abcde" x="90" y="169.242353" style="stroke: #000000; stroke-width: 0.8"/>
      </g>
     </g>
     <g id="text_24">
      <!-- 30 -->
      <g transform="translate(70.275 173.041572) scale(0.1 -0.1)">
       <use xlink:href="#DejaVuSans-33"/>
       <use xlink:href="#DejaVuSans-30" x="63.623047"/>
      </g>
     </g>
    </g>
    <g id="text_25">
     <!-- Delta Y -->
     <g transform="translate(63.363438 243.335938) rotate(-90) scale(0.14 -0.14)">
      <defs>
       <path id="DejaVuSans-59" d="M -13 4666 
L 666 4666 
L 1959 2747 
L 3244 4666 
L 3922 4666 
L 2272 2222 
L 2272 0 
L 1638 0 
L 1638 2222 
L -13 4666 
z
" transform="scale(0.015625)"/>
      </defs>
      <use xlink:href="#DejaVuSans-44"/>
      <use xlink:href="#DejaVuSans-65" x="77.001953"/>
      <use xlink:href="#DejaVuSans-6c" x="138.525391"/>
      <use xlink:href="#DejaVuSans-74" x="166.308594"/>
      <use xlink:href="#DejaVuSans-61" x="205.517578"/>
      <use xlink:href="#DejaVuSans-20" x="266.796875"/>
      <use xlink:href="#DejaVuSans-59" x="298.583984"/>
     </g>
    </g>
   </g>
   <g id="line2d_25">
    <path d="M 90 252.379324 
L 90.8429 252.542997 
L 92.528701 251.067201 
L 93.371601 251.661083 
L 94.214502 249.085724 
L 95.057402 251.545198 
L 95.900302 252.928784 
L 96.743202 248.319994 
L 97.586103 248.164144 
L 98.429003 251.970772 
L 99.271903 250.353848 
L 100.114804 252.365336 
L 100.957704 252.160643 
L 101.800604 252.07621 
L 102.643505 252.956019 
L 103.486405 252.090621 
L 104.329305 252.504111 
L 105.172205 252.762277 
L 106.015106 252.574661 
L 106.858006 251.043116 
L 107.700906 250.263552 
L 108.543807 252.733785 
L 109.386707 251.874452 
L 110.229607 252.361457 
L 111.072508 251.165887 
L 111.915408 252.018311 
L 112.758308 250.864276 
L 113.601208 251.612429 
L 114.444109 250.26893 
L 115.287009 249.52873 
L 116.129909 249.597724 
L 116.97281 251.327462 
L 117.81571 250.932573 
L 118.65861 252.214594 
L 119.501511 250.964953 
L 120.344411 252.169302 
L 121.187311 249.618469 
L 122.030211 251.708413 
L 122.873112 252.178516 
L 123.716012 249.570115 
L 124.558912 252.868817 
L 125.401813 252.802326 
L 126.244713 252.892375 
L 127.087613 251.69401 
L 127.930514 252.016788 
L 128.773414 252.976274 
L 129.616314 253.030036 
L 130.459215 251.734071 
L 131.302115 251.072077 
L 132.145015 252.837721 
L 132.987915 250.63886 
L 133.830816 250.094192 
L 134.673716 251.417889 
L 135.516616 249.976802 
L 136.359517 249.387428 
L 137.202417 249.863322 
L 138.045317 249.37451 
L 138.888218 251.125364 
L 139.731118 251.653852 
L 140.574018 249.339316 
L 141.416918 251.514014 
L 142.259819 252.300232 
L 143.102719 251.151242 
L 143.945619 249.517937 
L 144.78852 250.299501 
L 145.63142 253.075379 
L 146.47432 251.483711 
L 147.317221 252.329618 
L 148.160121 250.831556 
L 149.003021 252.467123 
L 149.845921 252.149055 
L 150.688822 248.97457 
L 151.531722 251.3643 
L 152.374622 251.603037 
L 153.217523 250.525756 
L 154.060423 250.765513 
L 154.903323 251.88836 
L 155.746224 252.143274 
L 156.589124 252.201073 
L 157.432024 253.028534 
L 158.274924 252.774777 
L 159.117825 249.282566 
L 159.960725 252.793516 
L 160.803625 249.434125 
L 161.646526 251.832969 
L 162.489426 248.622453 
L 163.332326 249.110659 
L 164.175227 250.348871 
L 165.018127 250.203802 
L 165.861027 252.106519 
L 166.703927 247.715347 
L 167.546828 252.263813 
L 168.389728 249.302837 
L 169.232628 253.032336 
L 170.075529 251.544878 
L 170.918429 252.597695 
L 171.761329 251.421543 
L 172.60423 251.992178 
L 173.44713 252.852289 
L 174.29003 250.517394 
L 175.132931 250.485471 
L 175.975831 249.78482 
L 176.818731 244.527625 
L 177.661631 249.721708 
L 178.504532 253.087476 
L 180.190332 252.292228 
L 181.033233 250.966937 
L 181.876133 252.787529 
L 182.719033 252.789152 
L 183.561934 252.256481 
L 184.404834 252.949836 
L 185.247734 253.0121 
L 186.090634 250.415186 
L 186.933535 252.232793 
L 187.776435 251.677519 
L 188.619335 250.060277 
L 189.462236 249.047338 
L 191.148036 252.710895 
L 191.990937 249.897905 
L 192.833837 250.756939 
L 193.676737 251.801789 
L 194.519637 252.387363 
L 195.362538 250.622381 
L 196.205438 251.030314 
L 197.048338 250.027615 
L 197.891239 252.971975 
L 198.734139 251.994555 
L 199.577039 251.338446 
L 200.41994 252.08606 
L 202.10574 235.636278 
L 203.791541 216.635727 
L 204.634441 208.892288 
L 206.320242 189.490299 
L 207.163142 181.845593 
L 208.006042 171.666034 
L 208.848943 164.037602 
L 209.691843 153.385839 
L 210.534743 145.479626 
L 211.377644 135.368675 
L 213.906344 113.773331 
L 214.749245 104.932997 
L 218.120846 77.907732 
L 219.806647 60.727849 
L 220.649547 57.267339 
L 221.492447 51.339819 
L 224.021148 39.332454 
L 224.864048 34.430518 
L 225.706949 28.426178 
L 226.549849 29.130662 
L 227.392749 25.074929 
L 228.23565 22.55745 
L 229.07855 18.235366 
L 229.92145 15.159943 
L 230.76435 13.213261 
L 232.450151 13.952355 
L 233.293051 16.57749 
L 234.135952 20.051443 
L 234.978852 21.191574 
L 236.664653 24.816937 
L 237.507553 30.31181 
L 238.350453 34.006104 
L 239.193353 38.558041 
L 240.036254 45.530899 
L 240.879154 50.581863 
L 242.564955 63.693875 
L 243.407855 70.027812 
L 244.250755 74.253158 
L 245.093656 80.253024 
L 245.936556 88.342047 
L 246.779456 95.195145 
L 247.622356 103.048375 
L 248.465257 114.279119 
L 249.308157 123.178331 
L 250.151057 133.721319 
L 250.993958 214.683639 
L 251.836858 243.223521 
L 252.679758 252.663854 
L 253.522659 249.257246 
L 254.365559 247.435809 
L 255.208459 250.180151 
L 256.05136 251.321275 
L 256.89426 249.318454 
L 257.73716 249.333779 
L 258.58006 251.597485 
L 259.422961 251.791396 
L 260.265861 250.853918 
L 261.108761 252.326704 
L 261.951662 252.709319 
L 262.794562 252.046554 
L 263.637462 252.538653 
L 264.480363 252.001276 
L 265.323263 251.320499 
L 266.166163 253.005521 
L 267.009063 251.710161 
L 267.851964 252.72809 
L 268.694864 246.611203 
L 269.537764 249.35766 
L 270.380665 252.709973 
L 271.223565 252.654972 
L 272.066465 251.262464 
L 272.909366 249.154136 
L 273.752266 252.654225 
L 274.595166 250.883557 
L 275.438066 252.837567 
L 276.280967 251.407059 
L 277.123867 253.013994 
L 277.966767 251.913403 
L 278.809668 250.259691 
L 279.652568 252.967643 
L 280.495468 252.334912 
L 281.338369 251.015487 
L 282.181269 251.207387 
L 283.024169 252.63516 
L 283.867069 248.68245 
L 284.70997 249.226645 
L 285.55287 248.563883 
L 286.39577 252.80625 
L 287.238671 252.906451 
L 288.081571 250.252496 
L 288.924471 250.167834 
L 289.767372 250.233178 
L 290.610272 251.424437 
L 291.453172 251.668969 
L 292.296073 251.575366 
L 293.138973 249.908262 
L 293.981873 252.159281 
L 294.824773 252.094132 
L 295.667674 251.418685 
L 296.510574 251.177061 
L 297.353474 250.118509 
L 298.196375 241.035568 
L 299.039275 233.399395 
L 301.567976 202.253583 
L 303.253776 184.767198 
L 304.096677 175.132581 
L 304.939577 168.374911 
L 306.625378 150.722391 
L 307.468278 144.03256 
L 309.154079 132.394982 
L 309.996979 211.840115 
L 310.839879 237.009532 
L 311.682779 250.418311 
L 312.52568 251.08774 
L 313.36858 251.152617 
L 314.21148 250.082322 
L 315.054381 251.879713 
L 315.897281 253.071857 
L 316.740181 252.606518 
L 317.583082 248.327311 
L 318.425982 252.320729 
L 319.268882 249.636836 
L 320.111782 251.024052 
L 320.954683 251.929625 
L 321.797583 251.943085 
L 322.640483 248.722416 
L 323.483384 251.69145 
L 324.326284 248.968001 
L 325.169184 252.29656 
L 326.012085 251.697554 
L 326.854985 250.273768 
L 327.697885 252.820974 
L 328.540785 251.326748 
L 329.383686 252.864956 
L 330.226586 249.831707 
L 331.069486 250.298649 
L 331.912387 251.404319 
L 332.755287 248.943102 
L 333.598187 252.737376 
L 334.441088 250.759025 
L 335.283988 250.154116 
L 336.126888 248.556259 
L 336.969789 252.818892 
L 337.812689 251.605362 
L 338.655589 249.197962 
L 340.34139 250.926254 
L 341.18429 249.527286 
L 342.02719 251.772705 
L 342.870091 253.07832 
L 343.712991 249.800912 
L 344.555891 248.826869 
L 345.398792 251.843159 
L 346.241692 251.366842 
L 347.927492 252.080811 
L 348.770393 251.173587 
L 349.613293 251.30455 
L 350.456193 251.639182 
L 351.299094 250.800156 
L 352.141994 245.431482 
L 352.984894 242.963723 
L 353.827795 242.402824 
L 354.670695 242.789587 
L 355.513595 242.918635 
L 356.356495 239.718765 
L 357.199396 241.880792 
L 358.042296 237.31679 
L 358.885196 234.008341 
L 359.728097 232.133823 
L 360.570997 228.704616 
L 361.413897 227.103866 
L 362.256798 220.838344 
L 363.099698 217.236161 
L 363.942598 216.496205 
L 364.785498 217.315662 
L 365.628399 216.108463 
L 366.471299 216.613299 
L 367.314199 219.568762 
L 368.1571 241.718364 
L 369 247.615821 
L 369.8429 251.595116 
L 370.685801 252.533812 
L 371.528701 252.577217 
L 372.371601 252.922433 
L 373.214502 250.868375 
L 374.057402 250.780407 
L 374.900302 250.866403 
L 375.743202 251.693115 
L 376.586103 253.07155 
L 377.429003 249.796893 
L 378.271903 252.378169 
L 379.114804 252.137853 
L 379.957704 252.651503 
L 380.800604 252.917225 
L 381.643505 252.472006 
L 382.486405 252.267074 
L 383.329305 252.698195 
L 384.172205 250.33547 
L 385.015106 252.584997 
L 385.858006 248.214627 
L 386.700906 251.376685 
L 387.543807 252.76926 
L 388.386707 250.93303 
L 389.229607 251.870785 
L 390.072508 249.630354 
L 390.915408 252.359219 
L 391.758308 253.040165 
L 392.601208 251.178864 
L 393.444109 252.341234 
L 394.287009 252.836458 
L 395.129909 250.652959 
L 397.65861 252.254949 
L 398.501511 246.297793 
L 399.344411 252.662284 
L 400.187311 250.41627 
L 401.030211 251.740692 
L 401.873112 249.937858 
L 402.716012 252.293285 
L 403.558912 252.567658 
L 405.244713 251.600955 
L 406.087613 248.500217 
L 406.930514 244.427381 
L 407.773414 237.032615 
L 411.145015 196.941935 
L 411.987915 188.272764 
L 412.830816 180.872438 
L 414.516616 162.167574 
L 416.202417 140.543101 
L 417.888218 111.55801 
L 418.731118 102.072059 
L 419.574018 91.313391 
L 420.416918 83.874941 
L 422.945619 58.629694 
L 423.78852 48.629308 
L 426.317221 24.393353 
L 428.655125 -1 
M 443.542053 -1 
L 444.018127 136.264262 
L 444.861027 214.838911 
L 445.703927 243.472272 
L 446.546828 246.993589 
L 447.389728 249.488683 
L 448.232628 251.198894 
L 449.075529 251.685129 
L 449.918429 252.943664 
L 450.761329 253.026222 
L 451.60423 251.641367 
L 452.44713 248.271223 
L 453.29003 249.906808 
L 454.132931 252.462287 
L 454.975831 251.788586 
L 455.818731 252.006646 
L 456.661631 250.455337 
L 457.504532 251.027877 
L 458.347432 243.846394 
L 459.190332 234.456588 
L 460.033233 231.953533 
L 460.876133 226.471094 
L 461.719033 223.665041 
L 462.561934 219.175719 
L 463.404834 209.12365 
L 464.247734 201.671866 
L 465.090634 195.231461 
L 466.776435 177.743072 
L 470.990937 145.390991 
L 471.833837 134.722466 
L 472.676737 129.401431 
L 473.519637 122.922549 
L 474.362538 112.587776 
L 475.205438 103.929179 
L 476.048338 99.665198 
L 478.577039 69.312375 
L 479.41994 63.373408 
L 481.10574 46.678122 
L 481.94864 41.035814 
L 482.791541 33.990679 
L 483.634441 25.903144 
L 484.477341 178.262751 
L 485.320242 230.62533 
L 486.163142 246.083421 
L 487.006042 247.213659 
L 487.848943 252.101415 
L 488.691843 250.974538 
L 489.534743 250.308264 
L 490.377644 251.05179 
L 491.220544 249.454688 
L 492.063444 251.46429 
L 492.906344 252.281856 
L 493.749245 248.666411 
L 494.592145 249.730394 
L 495.435045 249.9316 
L 497.120846 251.704594 
L 497.963746 250.324759 
L 498.806647 251.180115 
L 499.649547 252.50283 
L 500.492447 249.629464 
L 501.335347 251.888057 
L 502.178248 253.079553 
L 503.021148 251.322061 
L 503.864048 252.113273 
L 504.706949 251.958569 
L 505.549849 252.922955 
L 506.392749 249.359279 
L 507.23565 252.324786 
L 508.07855 251.085015 
L 508.92145 251.562755 
L 509.76435 251.493212 
L 510.607251 251.540099 
L 511.450151 251.809745 
L 512.293051 250.498683 
L 513.135952 251.508643 
L 514.821752 250.737658 
L 515.664653 252.927618 
L 517.350453 241.083261 
L 519.036254 231.522839 
L 519.879154 226.759881 
L 522.407855 209.511362 
L 523.250755 208.188777 
L 524.093656 207.78557 
L 525.779456 199.633897 
L 526.622356 192.776917 
L 529.151057 182.759475 
L 529.993958 180.567577 
L 531.679758 170.418257 
L 533.365559 156.883347 
L 534.208459 153.172315 
L 535.05136 152.065224 
L 535.89426 152.879395 
L 536.73716 155.472944 
L 537.58006 151.57244 
L 538.422961 152.130072 
L 539.265861 147.476449 
L 540.108761 150.138925 
L 540.951662 146.612794 
L 541.794562 148.628933 
L 542.637462 151.550376 
L 543.480363 149.644428 
L 544.323263 146.357291 
L 545.166163 143.525651 
L 546.009063 143.080789 
L 546.851964 143.019745 
L 547.694864 142.339938 
L 548.537764 141.97761 
L 549.380665 143.458572 
L 550.223565 147.103358 
L 551.066465 149.753244 
L 551.909366 148.784483 
L 552.752266 148.960168 
L 553.595166 154.743483 
L 554.438066 220.037927 
L 555.280967 244.258178 
L 556.123867 247.243444 
L 556.966767 248.179108 
L 557.809668 251.789132 
L 558.652568 251.40063 
L 560.338369 249.246085 
L 561.181269 252.529095 
L 562.024169 252.220214 
L 562.867069 250.489407 
L 563.70997 252.809748 
L 564.55287 250.16402 
L 565.39577 252.906086 
L 566.238671 251.308597 
L 567.081571 252.993493 
L 567.924471 251.306036 
L 568.767372 252.666004 
L 569.610272 253.077075 
L 571.296073 252.272896 
L 572.138973 248.888122 
L 572.981873 252.670042 
L 573.824773 252.194261 
L 574.667674 253.059808 
L 575.510574 246.412654 
L 576.353474 241.501544 
L 577.196375 245.450081 
L 578.039275 243.317077 
L 578.882175 247.52177 
L 579.725076 243.811812 
L 580.567976 243.362892 
L 581.410876 247.259176 
L 582.253776 243.702487 
L 583.096677 251.375381 
L 583.939577 252.808827 
L 584.782477 249.408943 
L 585.625378 240.92402 
L 586.468278 235.780167 
L 587.311178 229.739629 
L 588.154079 222.159961 
L 588.996979 219.297471 
L 589.839879 214.193469 
L 590.682779 208.034472 
L 592.36858 190.539547 
L 593.21148 184.295162 
L 594.054381 180.60657 
L 594.897281 175.313983 
L 595.740181 166.168253 
L 597.425982 151.520513 
L 598.268882 146.014384 
L 599.954683 131.428468 
L 600.797583 127.775023 
L 601.640483 121.873405 
L 602.483384 113.150858 
L 603.326284 107.168163 
L 604.169184 96.022691 
L 605.012085 202.63464 
L 605.854985 238.802846 
L 607.540785 251.660195 
L 608.383686 250.711681 
L 609.226586 252.237966 
L 610.069486 250.094327 
L 610.912387 252.149586 
L 611.755287 251.648795 
L 612.598187 252.780835 
L 613.441088 250.906925 
L 614.283988 251.464088 
L 615.969789 251.227389 
L 616.812689 252.980311 
L 617.655589 252.143166 
L 618.498489 249.554274 
L 619.34139 251.921782 
L 620.18429 251.434975 
L 621.02719 251.753103 
L 621.870091 251.221446 
L 622.712991 244.989783 
L 623.555891 235.124479 
L 625.241692 219.840232 
L 626.927492 203.910524 
L 628.613293 180.310465 
L 629.456193 171.800407 
L 631.141994 150.727817 
L 631.984894 143.085104 
L 632.827795 133.748388 
L 633.670695 125.927054 
L 638.728097 51.787142 
L 639.570997 40.794047 
L 640.413897 33.114319 
L 641.256798 24.093056 
L 642.099698 175.783188 
L 642.942598 227.876744 
L 643.785498 243.769592 
L 644.628399 245.384057 
L 645.471299 252.052563 
L 646.314199 251.543448 
L 647.1571 251.697999 
L 647.1571 251.697999 
" clip-path="url(#p0fea4f1cd7)" style="fill: none; stroke: #c0c0c0; stroke-width: 1.5; stroke-linecap: square"/>
   </g>
   <g id="patch_9">
    <path d="M 90 267.077647 
L 90 169.242353 
" style="fill: none; stroke: #000000; stroke-width: 0.8; stroke-linejoin: miter; stroke-linecap: square"/>
   </g>
   <g id="patch_10">
    <path d="M 648 267.077647 
L 648 169.242353 
" style="fill: none; stroke: #000000; stroke-width: 0.8; stroke-linejoin: miter; stroke-linecap: square"/>
   </g>
   <g id="patch_11">
    <path d="M 90 267.077647 
L 648 267.077647 
" style="fill: none; stroke: #000000; stroke-width: 0.8; stroke-linejoin: miter; stroke-linecap: square"/>
   </g>
   <g id="patch_12">
    <path d="M 90 169.242353 
L 648 169.242353 
" style="fill: none; stroke: #000000; stroke-width: 0.8; stroke-linejoin: miter; stroke-linecap: square"/>
   </g>
   <g id="legend_2">
    <g id="patch_13">
     <path d="M 527.454375 196.456103 
L 639.6 196.456103 
Q 642 196.456103 642 194.056103 
L 642 177.642353 
Q 642 175.242353 639.6 175.242353 
L 527.454375 175.242353 
Q 525.054375 175.242353 525.054375 177.642353 
L 525.054375 194.056103 
Q 525.054375 196.456103 527.454375 196.456103 
z
" style="fill: #ffffff; opacity: 0.5; stroke: #cccccc; stroke-linejoin: miter"/>
    </g>
    <g id="line2d_26">
     <path d="M 529.854375 184.960478 
L 541.854375 184.960478 
L 553.854375 184.960478 
" style="fill: none; stroke: #c0c0c0; stroke-width: 1.5; stroke-linecap: square"/>
    </g>
    <g id="text_26">
     <!-- abs(Delta Y) -->
     <g transform="translate(563.454375 189.160478) scale(0.12 -0.12)">
      <use xlink:href="#DejaVuSans-61"/>
      <use xlink:href="#DejaVuSans-62" x="61.279297"/>
      <use xlink:href="#DejaVuSans-73" x="124.755859"/>
      <use xlink:href="#DejaVuSans-28" x="176.855469"/>
      <use xlink:href="#DejaVuSans-44" x="215.869141"/>
      <use xlink:href="#DejaVuSans-65" x="292.871094"/>
      <use xlink:href="#DejaVuSans-6c" x="354.394531"/>
      <use xlink:href="#DejaVuSans-74" x="382.177734"/>
      <use xlink:href="#DejaVuSans-61" x="421.386719"/>
      <use xlink:href="#DejaVuSans-20" x="482.666016"/>
      <use xlink:href="#DejaVuSans-59" x="514.453125"/>
      <use xlink:href="#DejaVuSans-29" x="575.537109"/>
     </g>
    </g>
   </g>
  </g>
  <g id="axes_3">
   <g id="patch_14">
    <path d="M 90 384.48 
L 648 384.48 
L 648 286.644706 
L 90 286.644706 
z
" style="fill: #ffffff"/>
   </g>
   <g id="matplotlib.axis_5">
    <g id="xtick_15">
     <g id="line2d_27">
      <g>
       <use xlink:href="#md9067910f6" x="116.008978" y="384.48" style="stroke: #000000; stroke-width: 0.8"/>
      </g>
     </g>
     <g id="text_27">
      <!-- 2700 -->
      <g transform="translate(103.283978 399.078438) scale(0.1 -0.1)">
       <use xlink:href="#DejaVuSans-32"/>
       <use xlink:href="#DejaVuSans-37" x="63.623047"/>
       <use xlink:href="#DejaVuSans-30" x="127.246094"/>
       <use xlink:href="#DejaVuSans-30" x="190.869141"/>
      </g>
     </g>
    </g>
    <g id="xtick_16">
     <g id="line2d_28">
      <g>
       <use xlink:href="#md9067910f6" x="199.743841" y="384.48" style="stroke: #000000; stroke-width: 0.8"/>
      </g>
     </g>
     <g id="text_28">
      <!-- 2800 -->
      <g transform="translate(187.018841 399.078438) scale(0.1 -0.1)">
       <use xlink:href="#DejaVuSans-32"/>
       <use xlink:href="#DejaVuSans-38" x="63.623047"/>
       <use xlink:href="#DejaVuSans-30" x="127.246094"/>
       <use xlink:href="#DejaVuSans-30" x="190.869141"/>
      </g>
     </g>
    </g>
    <g id="xtick_17">
     <g id="line2d_29">
      <g>
       <use xlink:href="#md9067910f6" x="283.478703" y="384.48" style="stroke: #000000; stroke-width: 0.8"/>
      </g>
     </g>
     <g id="text_29">
      <!-- 2900 -->
      <g transform="translate(270.753703 399.078438) scale(0.1 -0.1)">
       <use xlink:href="#DejaVuSans-32"/>
       <use xlink:href="#DejaVuSans-39" x="63.623047"/>
       <use xlink:href="#DejaVuSans-30" x="127.246094"/>
       <use xlink:href="#DejaVuSans-30" x="190.869141"/>
      </g>
     </g>
    </g>
    <g id="xtick_18">
     <g id="line2d_30">
      <g>
       <use xlink:href="#md9067910f6" x="367.213566" y="384.48" style="stroke: #000000; stroke-width: 0.8"/>
      </g>
     </g>
     <g id="text_30">
      <!-- 3000 -->
      <g transform="translate(354.488566 399.078438) scale(0.1 -0.1)">
       <use xlink:href="#DejaVuSans-33"/>
       <use xlink:href="#DejaVuSans-30" x="63.623047"/>
       <use xlink:href="#DejaVuSans-30" x="127.246094"/>
       <use xlink:href="#DejaVuSans-30" x="190.869141"/>
      </g>
     </g>
    </g>
    <g id="xtick_19">
     <g id="line2d_31">
      <g>
       <use xlink:href="#md9067910f6" x="450.948428" y="384.48" style="stroke: #000000; stroke-width: 0.8"/>
      </g>
     </g>
     <g id="text_31">
      <!-- 3100 -->
      <g transform="translate(438.223428 399.078438) scale(0.1 -0.1)">
       <use xlink:href="#DejaVuSans-33"/>
       <use xlink:href="#DejaVuSans-31" x="63.623047"/>
       <use xlink:href="#DejaVuSans-30" x="127.246094"/>
       <use xlink:href="#DejaVuSans-30" x="190.869141"/>
      </g>
     </g>
    </g>
    <g id="xtick_20">
     <g id="line2d_32">
      <g>
       <use xlink:href="#md9067910f6" x="534.683291" y="384.48" style="stroke: #000000; stroke-width: 0.8"/>
      </g>
     </g>
     <g id="text_32">
      <!-- 3200 -->
      <g transform="translate(521.958291 399.078438) scale(0.1 -0.1)">
       <use xlink:href="#DejaVuSans-33"/>
       <use xlink:href="#DejaVuSans-32" x="63.623047"/>
       <use xlink:href="#DejaVuSans-30" x="127.246094"/>
       <use xlink:href="#DejaVuSans-30" x="190.869141"/>
      </g>
     </g>
    </g>
    <g id="xtick_21">
     <g id="line2d_33">
      <g>
       <use xlink:href="#md9067910f6" x="618.418153" y="384.48" style="stroke: #000000; stroke-width: 0.8"/>
      </g>
     </g>
     <g id="text_33">
      <!-- 3300 -->
      <g transform="translate(605.693153 399.078438) scale(0.1 -0.1)">
       <use xlink:href="#DejaVuSans-33"/>
       <use xlink:href="#DejaVuSans-33" x="63.623047"/>
       <use xlink:href="#DejaVuSans-30" x="127.246094"/>
       <use xlink:href="#DejaVuSans-30" x="190.869141"/>
      </g>
     </g>
    </g>
    <g id="text_34">
     <!-- Time step -->
     <g transform="translate(334.506406 421.795937) scale(0.14 -0.14)">
      <defs>
       <path id="DejaVuSans-54" d="M -19 4666 
L 3928 4666 
L 3928 4134 
L 2272 4134 
L 2272 0 
L 1638 0 
L 1638 4134 
L -19 4134 
L -19 4666 
z
" transform="scale(0.015625)"/>
       <path id="DejaVuSans-69" d="M 603 3500 
L 1178 3500 
L 1178 0 
L 603 0 
L 603 3500 
z
M 603 4863 
L 1178 4863 
L 1178 4134 
L 603 4134 
L 603 4863 
z
" transform="scale(0.015625)"/>
       <path id="DejaVuSans-6d" d="M 3328 2828 
Q 3544 3216 3844 3400 
Q 4144 3584 4550 3584 
Q 5097 3584 5394 3201 
Q 5691 2819 5691 2113 
L 5691 0 
L 5113 0 
L 5113 2094 
Q 5113 2597 4934 2840 
Q 4756 3084 4391 3084 
Q 3944 3084 3684 2787 
Q 3425 2491 3425 1978 
L 3425 0 
L 2847 0 
L 2847 2094 
Q 2847 2600 2669 2842 
Q 2491 3084 2119 3084 
Q 1678 3084 1418 2786 
Q 1159 2488 1159 1978 
L 1159 0 
L 581 0 
L 581 3500 
L 1159 3500 
L 1159 2956 
Q 1356 3278 1631 3431 
Q 1906 3584 2284 3584 
Q 2666 3584 2933 3390 
Q 3200 3197 3328 2828 
z
" transform="scale(0.015625)"/>
       <path id="DejaVuSans-70" d="M 1159 525 
L 1159 -1331 
L 581 -1331 
L 581 3500 
L 1159 3500 
L 1159 2969 
Q 1341 3281 1617 3432 
Q 1894 3584 2278 3584 
Q 2916 3584 3314 3078 
Q 3713 2572 3713 1747 
Q 3713 922 3314 415 
Q 2916 -91 2278 -91 
Q 1894 -91 1617 61 
Q 1341 213 1159 525 
z
M 3116 1747 
Q 3116 2381 2855 2742 
Q 2594 3103 2138 3103 
Q 1681 3103 1420 2742 
Q 1159 2381 1159 1747 
Q 1159 1113 1420 752 
Q 1681 391 2138 391 
Q 2594 391 2855 752 
Q 3116 1113 3116 1747 
z
" transform="scale(0.015625)"/>
      </defs>
      <use xlink:href="#DejaVuSans-54"/>
      <use xlink:href="#DejaVuSans-69" x="57.958984"/>
      <use xlink:href="#DejaVuSans-6d" x="85.742188"/>
      <use xlink:href="#DejaVuSans-65" x="183.154297"/>
      <use xlink:href="#DejaVuSans-20" x="244.677734"/>
      <use xlink:href="#DejaVuSans-73" x="276.464844"/>
      <use xlink:href="#DejaVuSans-74" x="328.564453"/>
      <use xlink:href="#DejaVuSans-65" x="367.773438"/>
      <use xlink:href="#DejaVuSans-70" x="429.296875"/>
     </g>
    </g>
   </g>
   <g id="matplotlib.axis_6">
    <g id="ytick_9">
     <g id="line2d_34">
      <g>
       <use xlink:href="#m3a2c1abcde" x="90" y="364.912941" style="stroke: #000000; stroke-width: 0.8"/>
      </g>
     </g>
     <g id="text_35">
      <!-- 0 -->
      <g transform="translate(76.6375 368.71216) scale(0.1 -0.1)">
       <use xlink:href="#DejaVuSans-30"/>
      </g>
     </g>
    </g>
    <g id="ytick_10">
     <g id="line2d_35">
      <g>
       <use xlink:href="#m3a2c1abcde" x="90" y="325.778824" style="stroke: #000000; stroke-width: 0.8"/>
      </g>
     </g>
     <g id="text_36">
      <!-- 10 -->
      <g transform="translate(70.275 329.578042) scale(0.1 -0.1)">
       <use xlink:href="#DejaVuSans-31"/>
       <use xlink:href="#DejaVuSans-30" x="63.623047"/>
      </g>
     </g>
    </g>
    <g id="ytick_11">
     <g id="line2d_36">
      <g>
       <use xlink:href="#m3a2c1abcde" x="90" y="286.644706" style="stroke: #000000; stroke-width: 0.8"/>
      </g>
     </g>
     <g id="text_37">
      <!-- 20 -->
      <g transform="translate(70.275 290.443925) scale(0.1 -0.1)">
       <use xlink:href="#DejaVuSans-32"/>
       <use xlink:href="#DejaVuSans-30" x="63.623047"/>
      </g>
     </g>
    </g>
    <g id="text_38">
     <!-- Delta Theta -->
     <g transform="translate(63.363438 376.515634) rotate(-90) scale(0.14 -0.14)">
      <defs>
       <path id="DejaVuSans-68" d="M 3513 2113 
L 3513 0 
L 2938 0 
L 2938 2094 
Q 2938 2591 2744 2837 
Q 2550 3084 2163 3084 
Q 1697 3084 1428 2787 
Q 1159 2491 1159 1978 
L 1159 0 
L 581 0 
L 581 4863 
L 1159 4863 
L 1159 2956 
Q 1366 3272 1645 3428 
Q 1925 3584 2291 3584 
Q 2894 3584 3203 3211 
Q 3513 2838 3513 2113 
z
" transform="scale(0.015625)"/>
      </defs>
      <use xlink:href="#DejaVuSans-44"/>
      <use xlink:href="#DejaVuSans-65" x="77.001953"/>
      <use xlink:href="#DejaVuSans-6c" x="138.525391"/>
      <use xlink:href="#DejaVuSans-74" x="166.308594"/>
      <use xlink:href="#DejaVuSans-61" x="205.517578"/>
      <use xlink:href="#DejaVuSans-20" x="266.796875"/>
      <use xlink:href="#DejaVuSans-54" x="298.583984"/>
      <use xlink:href="#DejaVuSans-68" x="359.667969"/>
      <use xlink:href="#DejaVuSans-65" x="423.046875"/>
      <use xlink:href="#DejaVuSans-74" x="484.570312"/>
      <use xlink:href="#DejaVuSans-61" x="523.779297"/>
     </g>
    </g>
   </g>
   <g id="line2d_37">
    <path d="M 90 347.850258 
L 90.8429 361.411107 
L 91.685801 352.01864 
L 92.528701 361.591578 
L 93.371601 328.73529 
L 94.214502 306.991127 
L 95.057402 334.722502 
L 95.900302 314.616097 
L 96.743202 335.321238 
L 97.586103 309.568627 
L 98.429003 287.313765 
L 99.271903 328.611272 
L 100.114804 360.144685 
L 100.957704 325.624395 
L 101.800604 305.30875 
L 102.643505 326.344218 
L 103.486405 363.418367 
L 104.329305 310.437645 
L 105.172205 306.783365 
L 106.015106 340.589773 
L 106.858006 357.277178 
L 107.700906 281.460992 
L 108.543807 322.935539 
L 109.386707 320.653699 
L 110.229607 358.703336 
L 111.072508 309.523001 
L 111.915408 339.182672 
L 112.758308 335.493717 
L 113.601208 362.983995 
L 114.444109 338.831401 
L 115.287009 364.533955 
L 116.129909 346.426936 
L 116.97281 306.16166 
L 117.81571 363.23216 
L 118.65861 292.205844 
L 119.501511 304.495556 
L 120.344411 324.752368 
L 121.187311 339.37085 
L 122.030211 346.51219 
L 122.873112 356.789356 
L 123.716012 331.939308 
L 124.558912 323.735745 
L 125.401813 358.12696 
L 126.244713 324.986639 
L 127.087613 312.824671 
L 127.930514 279.80801 
L 128.773414 331.41702 
L 129.616314 358.487227 
L 130.459215 307.681216 
L 131.302115 322.919203 
L 132.145015 340.743936 
L 132.987915 351.065192 
L 133.830816 311.379615 
L 134.673716 284.650346 
L 136.359517 188.684428 
L 137.202417 197.09803 
L 138.045317 147.787668 
L 138.888218 159.190673 
L 139.731118 161.173018 
L 140.574018 216.271837 
L 141.416918 233.214509 
L 142.259819 288.780388 
L 143.102719 299.585177 
L 143.945619 242.493146 
L 145.63142 303.231048 
L 146.47432 298.720681 
L 147.317221 273.777345 
L 148.160121 292.123334 
L 149.003021 278.324554 
L 149.845921 286.124632 
L 150.688822 353.94952 
L 151.531722 335.926605 
L 152.374622 312.340513 
L 153.217523 279.930289 
L 154.060423 362.888122 
L 154.903323 362.869174 
L 155.746224 312.748366 
L 156.589124 358.216879 
L 157.432024 330.318319 
L 158.274924 359.756957 
L 159.117825 313.869532 
L 159.960725 344.311483 
L 160.803625 316.604016 
L 161.646526 359.349767 
L 162.489426 319.218777 
L 163.332326 307.463115 
L 164.175227 302.37474 
L 165.018127 331.190185 
L 165.861027 249.619403 
L 166.703927 294.969143 
L 168.389728 353.912511 
L 169.232628 336.501317 
L 170.075529 298.555878 
L 170.918429 292.110401 
L 171.761329 297.928417 
L 172.60423 273.792577 
L 173.44713 258.866651 
L 174.29003 272.877501 
L 175.132931 279.511156 
L 175.975831 322.28326 
L 176.818731 341.442391 
L 177.661631 346.489788 
L 178.504532 356.019891 
L 179.347432 355.505866 
L 180.190332 357.503579 
L 181.033233 337.451743 
L 181.876133 305.127039 
L 182.719033 319.677545 
L 183.561934 305.940664 
L 184.404834 324.23212 
L 185.247734 319.898655 
L 186.090634 339.013416 
L 186.933535 326.338062 
L 187.776435 363.062981 
L 188.619335 339.690427 
L 189.462236 332.936778 
L 190.305136 277.167832 
L 191.148036 306.114421 
L 191.990937 308.005376 
L 192.833837 278.1951 
L 193.676737 264.761544 
L 194.519637 265.240987 
L 195.362538 307.546506 
L 197.048338 318.225822 
L 197.891239 343.656219 
L 198.734139 363.336466 
L 199.577039 355.175284 
L 200.41994 350.068882 
L 201.26284 342.903304 
L 202.10574 356.86513 
L 202.94864 336.094903 
L 203.791541 310.448835 
L 204.634441 318.502737 
L 205.477341 344.152458 
L 206.320242 337.11495 
L 207.163142 312.024178 
L 208.006042 296.912955 
L 208.848943 260.476569 
L 210.534743 341.884008 
L 211.377644 323.193838 
L 212.220544 298.151198 
L 213.063444 330.770056 
L 213.906344 354.331065 
L 214.749245 363.018134 
L 215.592145 328.148972 
L 216.435045 320.028671 
L 217.277946 330.228252 
L 218.120846 360.61498 
L 218.963746 364.583317 
L 219.806647 330.937049 
L 220.649547 332.284797 
L 221.492447 320.912534 
L 222.335347 256.494055 
L 224.021148 169.17312 
L 224.864048 158.212674 
L 225.706949 155.875475 
L 226.549849 161.427814 
L 227.392749 152.14569 
L 228.23565 158.808704 
L 229.07855 137.372132 
L 229.92145 99.744091 
L 230.76435 107.995488 
L 231.607251 137.616583 
L 232.450151 84.897436 
L 233.293051 107.5703 
L 234.135952 111.050075 
L 234.978852 81.165394 
L 235.821752 73.084106 
L 236.664653 24.843939 
L 237.507553 14.076067 
L 237.757873 -1 
M 251.410933 -1 
L 251.836858 51.161179 
L 252.679758 122.300649 
L 253.522659 159.498129 
L 254.365559 122.145298 
L 255.208459 138.545341 
L 256.05136 144.98774 
L 256.89426 194.853996 
L 257.73716 263.822762 
L 258.58006 307.637371 
L 259.422961 315.709019 
L 260.265861 276.533363 
L 261.108761 295.595344 
L 261.951662 283.931897 
L 262.794562 343.530107 
L 263.637462 350.899178 
L 264.480363 329.6841 
L 265.323263 287.127913 
L 266.166163 293.101421 
L 267.009063 314.320084 
L 267.851964 340.306434 
L 268.694864 309.519806 
L 269.537764 297.073941 
L 270.380665 254.383451 
L 271.223565 198.298018 
L 272.066465 196.510572 
L 272.909366 218.143834 
L 273.752266 308.623882 
L 274.595166 315.866883 
L 275.438066 307.281474 
L 276.280967 297.150113 
L 277.123867 312.864587 
L 277.966767 254.5107 
L 278.809668 227.139184 
L 279.652568 212.303639 
L 280.495468 215.28765 
L 281.338369 212.993722 
L 282.181269 192.690502 
L 283.024169 184.807276 
L 283.867069 214.112097 
L 284.70997 229.528421 
L 287.238671 290.021669 
L 288.081571 266.058471 
L 288.924471 229.073357 
L 289.767372 286.075555 
L 290.610272 316.46269 
L 291.453172 359.976704 
L 292.296073 340.17984 
L 293.138973 345.231906 
L 293.981873 308.805631 
L 294.824773 224.964478 
L 295.667674 298.740438 
L 296.510574 268.271432 
L 297.353474 246.236137 
L 298.196375 310.556989 
L 299.039275 348.560598 
L 299.882175 344.780188 
L 300.725076 359.09323 
L 302.410876 315.941882 
L 303.253776 298.618429 
L 304.096677 309.586812 
L 304.939577 310.937388 
L 305.782477 313.407015 
L 306.625378 293.873278 
L 307.468278 349.388221 
L 309.996979 286.483107 
L 310.839879 241.890048 
L 311.682779 243.718615 
L 312.52568 316.590042 
L 313.36858 323.028853 
L 314.21148 360.156517 
L 315.054381 311.699541 
L 315.897281 304.233675 
L 316.740181 282.452624 
L 317.583082 316.120127 
L 318.425982 331.119721 
L 319.268882 350.889449 
L 320.111782 330.744532 
L 320.954683 332.86685 
L 321.797583 329.871632 
L 322.640483 296.40124 
L 323.483384 289.097062 
L 324.326284 299.660064 
L 325.169184 229.596495 
L 328.540785 340.85836 
L 329.383686 324.133504 
L 330.226586 363.038896 
L 331.069486 320.958056 
L 331.912387 354.229536 
L 332.755287 357.037436 
L 333.598187 327.57275 
L 334.441088 343.321136 
L 335.283988 300.778381 
L 336.126888 340.183083 
L 336.969789 314.732324 
L 337.812689 280.712575 
L 338.655589 285.414347 
L 339.498489 350.46621 
L 340.34139 331.070313 
L 341.18429 336.028785 
L 342.02719 351.79076 
L 342.870091 315.615172 
L 343.712991 273.49639 
L 344.555891 250.054118 
L 345.398792 251.315784 
L 346.241692 247.229568 
L 347.927492 230.545888 
L 348.770393 303.27428 
L 349.613293 294.580332 
L 350.456193 327.434719 
L 351.299094 319.202906 
L 352.141994 326.770158 
L 352.984894 279.607129 
L 353.827795 293.287404 
L 354.670695 281.58473 
L 355.513595 233.389607 
L 356.356495 287.420553 
L 357.199396 318.784763 
L 358.042296 300.495777 
L 358.885196 324.562668 
L 359.728097 288.6115 
L 360.570997 302.289483 
L 361.413897 287.210751 
L 362.256798 267.567018 
L 363.099698 243.551984 
L 364.785498 337.940658 
L 365.628399 316.260668 
L 366.471299 364.524678 
L 367.314199 352.216146 
L 368.1571 343.348177 
L 369 350.801476 
L 369.8429 360.011943 
L 370.685801 364.22876 
L 371.528701 350.516452 
L 372.371601 363.202912 
L 373.214502 318.627642 
L 374.057402 322.420839 
L 374.900302 363.570579 
L 375.743202 357.186987 
L 376.586103 338.426036 
L 377.429003 328.254699 
L 378.271903 316.542748 
L 379.114804 361.123524 
L 379.957704 338.937502 
L 380.800604 354.522256 
L 381.643505 346.167915 
L 383.329305 322.850519 
L 384.172205 334.395212 
L 385.015106 328.956315 
L 385.858006 329.44629 
L 386.700906 354.27929 
L 387.543807 345.198007 
L 388.386707 363.630595 
L 389.229607 326.557576 
L 390.072508 358.33864 
L 390.915408 355.7554 
L 391.758308 361.418845 
L 392.601208 327.524122 
L 393.444109 350.351931 
L 394.287009 355.739038 
L 395.129909 340.904017 
L 395.97281 308.278343 
L 396.81571 316.699939 
L 397.65861 363.837536 
L 398.501511 330.864214 
L 399.344411 293.151691 
L 400.187311 277.03589 
L 401.030211 320.965829 
L 401.873112 315.456388 
L 402.716012 332.72245 
L 403.558912 319.386773 
L 404.401813 302.734861 
L 405.244713 292.045555 
L 406.087613 303.647315 
L 407.773414 234.344523 
L 408.616314 286.709348 
L 409.459215 272.078013 
L 410.302115 248.250462 
L 411.145015 259.086192 
L 411.987915 257.995123 
L 412.830816 202.812102 
L 413.673716 158.935654 
L 414.516616 150.174236 
L 415.359517 126.353636 
L 416.202417 88.95578 
L 417.045317 89.777855 
L 417.888218 83.426429 
L 418.731118 111.028456 
L 419.574018 106.686999 
L 420.416918 164.149916 
L 421.259819 232.554958 
L 422.102719 164.53288 
L 422.945619 211.605722 
L 423.78852 246.385259 
L 424.63142 230.529436 
L 425.47432 231.774022 
L 426.317221 240.087122 
L 427.160121 261.791521 
L 428.003021 262.572909 
L 428.845921 262.589026 
L 429.688822 285.44588 
L 430.531722 279.894219 
L 431.374622 238.391419 
L 432.217523 259.839412 
L 433.060423 240.031367 
L 433.903323 262.543356 
L 434.746224 231.538521 
L 435.589124 216.053821 
L 436.432024 226.634162 
L 437.274924 229.611121 
L 438.117825 255.094534 
L 438.960725 260.938673 
L 439.803625 303.674542 
L 440.646526 338.425843 
L 441.489426 321.722177 
L 442.332326 318.805838 
L 443.175227 352.606339 
L 444.018127 357.486436 
L 444.861027 357.88669 
L 446.546828 342.544374 
L 448.232628 347.968592 
L 449.075529 296.97324 
L 449.918429 286.243956 
L 450.761329 270.203504 
L 451.60423 280.027919 
L 452.44713 326.786711 
L 453.29003 322.24466 
L 454.132931 312.853481 
L 454.975831 296.173464 
L 455.818731 277.153096 
L 456.661631 290.334828 
L 457.504532 286.43455 
L 458.347432 313.676018 
L 459.190332 305.920134 
L 460.033233 337.522766 
L 460.876133 348.914869 
L 461.719033 364.377572 
L 462.561934 341.744859 
L 463.404834 322.189908 
L 464.247734 315.970525 
L 465.090634 305.023456 
L 465.933535 295.912675 
L 466.776435 296.780662 
L 467.619335 291.332838 
L 468.462236 310.292915 
L 470.148036 262.236774 
L 470.990937 290.437031 
L 471.833837 324.262159 
L 472.676737 310.283327 
L 473.519637 335.701991 
L 474.362538 315.964068 
L 475.205438 302.76859 
L 476.048338 307.890957 
L 476.891239 265.637697 
L 477.734139 300.685162 
L 478.577039 295.743205 
L 479.41994 355.114994 
L 480.26284 315.172862 
L 481.10574 355.58983 
L 481.94864 319.527481 
L 482.791541 317.369085 
L 483.634441 308.568641 
L 484.477341 271.187148 
L 485.320242 257.476439 
L 486.163142 269.116658 
L 487.006042 325.611116 
L 487.848943 338.158414 
L 488.691843 329.406412 
L 489.534743 306.676588 
L 490.377644 294.586215 
L 491.220544 273.674851 
L 492.063444 296.95856 
L 492.906344 339.629437 
L 493.749245 353.339951 
L 494.592145 301.99903 
L 495.435045 318.310358 
L 497.120846 253.376961 
L 497.963746 313.886873 
L 498.806647 361.279304 
L 499.649547 348.951656 
L 500.492447 352.764462 
L 501.335347 361.549717 
L 502.178248 351.106014 
L 503.021148 332.231099 
L 503.864048 344.044829 
L 504.706949 258.0756 
L 505.549849 322.440536 
L 506.392749 287.779554 
L 507.23565 299.780383 
L 508.07855 328.577634 
L 508.92145 316.055395 
L 509.76435 335.897598 
L 510.607251 329.432397 
L 511.450151 340.806231 
L 512.293051 360.450508 
L 513.135952 356.863595 
L 513.978852 337.799489 
L 514.821752 357.028812 
L 515.664653 340.353289 
L 516.507553 312.991598 
L 517.350453 335.233734 
L 518.193353 350.497345 
L 519.036254 358.756027 
L 519.879154 340.083071 
L 520.722054 340.459803 
L 521.564955 304.320153 
L 522.407855 309.952883 
L 523.250755 353.765597 
L 524.093656 360.129205 
L 524.936556 358.419273 
L 525.779456 352.595263 
L 526.622356 344.168239 
L 527.465257 361.072228 
L 528.308157 338.075646 
L 529.151057 318.716072 
L 529.993958 317.100921 
L 530.836858 327.765938 
L 531.679758 271.251802 
L 532.522659 241.524267 
L 533.365559 276.445141 
L 534.208459 269.206902 
L 535.05136 289.001026 
L 535.89426 296.463815 
L 536.73716 277.850663 
L 537.58006 295.705606 
L 538.422961 271.845385 
L 539.265861 233.549868 
L 540.108761 214.341249 
L 540.951662 225.9769 
L 541.794562 264.343673 
L 542.637462 189.744111 
L 543.480363 270.815791 
L 544.323263 232.534153 
L 545.166163 234.082132 
L 546.009063 271.691883 
L 546.851964 245.431827 
L 547.694864 269.557433 
L 548.537764 265.458607 
L 549.380665 248.812532 
L 550.223565 243.755482 
L 551.066465 234.069374 
L 551.909366 186.56597 
L 552.752266 145.900272 
L 553.595166 145.415697 
L 554.438066 150.118514 
L 555.280967 152.155716 
L 556.123867 184.157907 
L 556.966767 207.602749 
L 557.809668 212.903814 
L 558.652568 234.001914 
L 559.495468 234.148215 
L 560.338369 272.070221 
L 561.181269 266.157903 
L 562.024169 314.749634 
L 562.867069 338.25064 
L 563.70997 332.919709 
L 564.55287 305.961366 
L 565.39577 287.958497 
L 566.238671 265.419372 
L 567.081571 311.499513 
L 567.924471 321.363577 
L 568.767372 329.485615 
L 569.610272 334.905046 
L 570.453172 317.419225 
L 571.296073 302.297444 
L 572.138973 325.984398 
L 572.981873 362.280256 
L 574.667674 328.243635 
L 575.510574 270.513903 
L 576.353474 261.654469 
L 577.196375 277.882557 
L 578.039275 256.352672 
L 578.882175 273.665343 
L 579.725076 335.459987 
L 581.410876 364.149365 
L 582.253776 331.731578 
L 583.096677 343.249149 
L 583.939577 352.761207 
L 584.782477 322.619889 
L 586.468278 358.890508 
L 587.311178 344.807048 
L 588.154079 352.556733 
L 588.996979 332.427171 
L 589.839879 335.841275 
L 590.682779 317.223746 
L 591.52568 345.475323 
L 592.36858 350.775672 
L 593.21148 323.490913 
L 594.054381 348.881989 
L 594.897281 350.79579 
L 595.740181 342.230467 
L 596.583082 350.13703 
L 597.425982 304.285559 
L 598.268882 333.912898 
L 599.111782 290.316301 
L 599.954683 280.7988 
L 600.797583 273.200042 
L 601.640483 325.969367 
L 602.483384 294.509139 
L 603.326284 280.175908 
L 604.169184 305.145285 
L 605.012085 273.499026 
L 605.854985 299.921006 
L 606.697885 292.213949 
L 607.540785 267.07686 
L 608.383686 342.521224 
L 609.226586 329.427951 
L 610.069486 298.914491 
L 610.912387 293.307217 
L 611.755287 338.17427 
L 612.598187 304.236488 
L 613.441088 322.210274 
L 614.283988 346.28139 
L 615.126888 318.461721 
L 615.969789 308.168751 
L 616.812689 274.175191 
L 617.655589 317.66267 
L 618.498489 354.834572 
L 619.34139 312.770467 
L 620.18429 360.846656 
L 621.02719 358.982191 
L 621.870091 364.139249 
L 622.712991 347.584373 
L 623.555891 350.060191 
L 624.398792 357.977641 
L 625.241692 323.305473 
L 626.084592 322.677322 
L 626.927492 304.804143 
L 627.770393 320.544455 
L 628.613293 256.996792 
L 629.456193 346.127808 
L 630.299094 296.881148 
L 631.141994 287.287841 
L 631.984894 304.172504 
L 632.827795 308.040404 
L 633.670695 221.476505 
L 634.513595 174.259401 
L 635.356495 135.288008 
L 636.199396 144.400792 
L 637.042296 166.338306 
L 637.885196 193.771696 
L 638.728097 233.642493 
L 639.570997 235.125831 
L 640.413897 241.248945 
L 641.256798 256.899861 
L 642.099698 269.188657 
L 642.942598 249.338424 
L 643.785498 205.621733 
L 644.628399 244.825441 
L 645.471299 262.822025 
L 646.314199 308.001861 
L 647.1571 320.215357 
L 647.1571 320.215357 
" clip-path="url(#p33086660b6)" style="fill: none; stroke: #c0c0c0; stroke-width: 1.5; stroke-linecap: square"/>
   </g>
   <g id="patch_15">
    <path d="M 90 384.48 
L 90 286.644706 
" style="fill: none; stroke: #000000; stroke-width: 0.8; stroke-linejoin: miter; stroke-linecap: square"/>
   </g>
   <g id="patch_16">
    <path d="M 648 384.48 
L 648 286.644706 
" style="fill: none; stroke: #000000; stroke-width: 0.8; stroke-linejoin: miter; stroke-linecap: square"/>
   </g>
   <g id="patch_17">
    <path d="M 90 384.48 
L 648 384.48 
" style="fill: none; stroke: #000000; stroke-width: 0.8; stroke-linejoin: miter; stroke-linecap: square"/>
   </g>
   <g id="patch_18">
    <path d="M 90 286.644706 
L 648 286.644706 
" style="fill: none; stroke: #000000; stroke-width: 0.8; stroke-linejoin: miter; stroke-linecap: square"/>
   </g>
   <g id="legend_3">
    <g id="patch_19">
     <path d="M 500.4075 313.858456 
L 639.6 313.858456 
Q 642 313.858456 642 311.458456 
L 642 295.044706 
Q 642 292.644706 639.6 292.644706 
L 500.4075 292.644706 
Q 498.0075 292.644706 498.0075 295.044706 
L 498.0075 311.458456 
Q 498.0075 313.858456 500.4075 313.858456 
z
" style="fill: #ffffff; opacity: 0.5; stroke: #cccccc; stroke-linejoin: miter"/>
    </g>
    <g id="line2d_38">
     <path d="M 502.8075 302.362831 
L 514.8075 302.362831 
L 526.8075 302.362831 
" style="fill: none; stroke: #c0c0c0; stroke-width: 1.5; stroke-linecap: square"/>
    </g>
    <g id="text_39">
     <!-- abs(Delta Theta) -->
     <g transform="translate(536.4075 306.562831) scale(0.12 -0.12)">
      <use xlink:href="#DejaVuSans-61"/>
      <use xlink:href="#DejaVuSans-62" x="61.279297"/>
      <use xlink:href="#DejaVuSans-73" x="124.755859"/>
      <use xlink:href="#DejaVuSans-28" x="176.855469"/>
      <use xlink:href="#DejaVuSans-44" x="215.869141"/>
      <use xlink:href="#DejaVuSans-65" x="292.871094"/>
      <use xlink:href="#DejaVuSans-6c" x="354.394531"/>
      <use xlink:href="#DejaVuSans-74" x="382.177734"/>
      <use xlink:href="#DejaVuSans-61" x="421.386719"/>
      <use xlink:href="#DejaVuSans-20" x="482.666016"/>
      <use xlink:href="#DejaVuSans-54" x="514.453125"/>
      <use xlink:href="#DejaVuSans-68" x="575.537109"/>
      <use xlink:href="#DejaVuSans-65" x="638.916016"/>
      <use xlink:href="#DejaVuSans-74" x="700.439453"/>
      <use xlink:href="#DejaVuSans-61" x="739.648438"/>
      <use xlink:href="#DejaVuSans-29" x="800.927734"/>
     </g>
    </g>
   </g>
  </g>
 </g>
 <defs>
  <clipPath id="pcbe54ca115">
   <rect x="90" y="51.84" width="558" height="97.835294"/>
  </clipPath>
  <clipPath id="p0fea4f1cd7">
   <rect x="90" y="169.242353" width="558" height="97.835294"/>
  </clipPath>
  <clipPath id="p33086660b6">
   <rect x="90" y="286.644706" width="558" height="97.835294"/>
  </clipPath>
 </defs>
</svg>
