<?xml version="1.0" encoding="utf-8" standalone="no"?>
<!DOCTYPE svg PUBLIC "-//W3C//DTD SVG 1.1//EN"
  "http://www.w3.org/Graphics/SVG/1.1/DTD/svg11.dtd">
<svg xmlns:xlink="http://www.w3.org/1999/xlink" width="720pt" height="432pt" viewBox="0 0 720 432" xmlns="http://www.w3.org/2000/svg" version="1.1">
 <metadata>
  <rdf:RDF xmlns:dc="http://purl.org/dc/elements/1.1/" xmlns:cc="http://creativecommons.org/ns#" xmlns:rdf="http://www.w3.org/1999/02/22-rdf-syntax-ns#">
   <cc:Work>
    <dc:type rdf:resource="http://purl.org/dc/dcmitype/StillImage"/>
    <dc:date>2024-05-05T00:49:45.613553</dc:date>
    <dc:format>image/svg+xml</dc:format>
    <dc:creator>
     <cc:Agent>
      <dc:title>Matplotlib v3.8.4, https://matplotlib.org/</dc:title>
     </cc:Agent>
    </dc:creator>
   </cc:Work>
  </rdf:RDF>
 </metadata>
 <defs>
  <style type="text/css">*{stroke-linejoin: round; stroke-linecap: butt}</style>
 </defs>
 <g id="figure_1">
  <g id="patch_1">
   <path d="M 0 432 
L 720 432 
L 720 0 
L 0 0 
z
" style="fill: #ffffff"/>
  </g>
  <g id="axes_1">
   <g id="patch_2">
    <path d="M 90 149.675294 
L 648 149.675294 
L 648 51.84 
L 90 51.84 
z
" style="fill: #ffffff"/>
   </g>
   <g id="matplotlib.axis_1">
    <g id="xtick_1">
     <g id="line2d_1">
      <defs>
       <path id="mbcb068fe4b" d="M 0 0 
L 0 3.5 
" style="stroke: #000000; stroke-width: 0.8"/>
      </defs>
      <g>
       <use xlink:href="#mbcb068fe4b" x="144.850266" y="149.675294" style="stroke: #000000; stroke-width: 0.8"/>
      </g>
     </g>
     <g id="text_1">
      <!-- 5400 -->
      <g transform="translate(132.125266 164.273732) scale(0.1 -0.1)">
       <defs>
        <path id="DejaVuSans-35" d="M 691 4666 
L 3169 4666 
L 3169 4134 
L 1269 4134 
L 1269 2991 
Q 1406 3038 1543 3061 
Q 1681 3084 1819 3084 
Q 2600 3084 3056 2656 
Q 3513 2228 3513 1497 
Q 3513 744 3044 326 
Q 2575 -91 1722 -91 
Q 1428 -91 1123 -41 
Q 819 9 494 109 
L 494 744 
Q 775 591 1075 516 
Q 1375 441 1709 441 
Q 2250 441 2565 725 
Q 2881 1009 2881 1497 
Q 2881 1984 2565 2268 
Q 2250 2553 1709 2553 
Q 1456 2553 1204 2497 
Q 953 2441 691 2322 
L 691 4666 
z
" transform="scale(0.015625)"/>
        <path id="DejaVuSans-34" d="M 2419 4116 
L 825 1625 
L 2419 1625 
L 2419 4116 
z
M 2253 4666 
L 3047 4666 
L 3047 1625 
L 3713 1625 
L 3713 1100 
L 3047 1100 
L 3047 0 
L 2419 0 
L 2419 1100 
L 313 1100 
L 313 1709 
L 2253 4666 
z
" transform="scale(0.015625)"/>
        <path id="DejaVuSans-30" d="M 2034 4250 
Q 1547 4250 1301 3770 
Q 1056 3291 1056 2328 
Q 1056 1369 1301 889 
Q 1547 409 2034 409 
Q 2525 409 2770 889 
Q 3016 1369 3016 2328 
Q 3016 3291 2770 3770 
Q 2525 4250 2034 4250 
z
M 2034 4750 
Q 2819 4750 3233 4129 
Q 3647 3509 3647 2328 
Q 3647 1150 3233 529 
Q 2819 -91 2034 -91 
Q 1250 -91 836 529 
Q 422 1150 422 2328 
Q 422 3509 836 4129 
Q 1250 4750 2034 4750 
z
" transform="scale(0.015625)"/>
       </defs>
       <use xlink:href="#DejaVuSans-35"/>
       <use xlink:href="#DejaVuSans-34" x="63.623047"/>
       <use xlink:href="#DejaVuSans-30" x="127.246094"/>
       <use xlink:href="#DejaVuSans-30" x="190.869141"/>
      </g>
     </g>
    </g>
    <g id="xtick_2">
     <g id="line2d_2">
      <g>
       <use xlink:href="#mbcb068fe4b" x="228.585129" y="149.675294" style="stroke: #000000; stroke-width: 0.8"/>
      </g>
     </g>
     <g id="text_2">
      <!-- 5500 -->
      <g transform="translate(215.860129 164.273732) scale(0.1 -0.1)">
       <use xlink:href="#DejaVuSans-35"/>
       <use xlink:href="#DejaVuSans-35" x="63.623047"/>
       <use xlink:href="#DejaVuSans-30" x="127.246094"/>
       <use xlink:href="#DejaVuSans-30" x="190.869141"/>
      </g>
     </g>
    </g>
    <g id="xtick_3">
     <g id="line2d_3">
      <g>
       <use xlink:href="#mbcb068fe4b" x="312.319991" y="149.675294" style="stroke: #000000; stroke-width: 0.8"/>
      </g>
     </g>
     <g id="text_3">
      <!-- 5600 -->
      <g transform="translate(299.594991 164.273732) scale(0.1 -0.1)">
       <defs>
        <path id="DejaVuSans-36" d="M 2113 2584 
Q 1688 2584 1439 2293 
Q 1191 2003 1191 1497 
Q 1191 994 1439 701 
Q 1688 409 2113 409 
Q 2538 409 2786 701 
Q 3034 994 3034 1497 
Q 3034 2003 2786 2293 
Q 2538 2584 2113 2584 
z
M 3366 4563 
L 3366 3988 
Q 3128 4100 2886 4159 
Q 2644 4219 2406 4219 
Q 1781 4219 1451 3797 
Q 1122 3375 1075 2522 
Q 1259 2794 1537 2939 
Q 1816 3084 2150 3084 
Q 2853 3084 3261 2657 
Q 3669 2231 3669 1497 
Q 3669 778 3244 343 
Q 2819 -91 2113 -91 
Q 1303 -91 875 529 
Q 447 1150 447 2328 
Q 447 3434 972 4092 
Q 1497 4750 2381 4750 
Q 2619 4750 2861 4703 
Q 3103 4656 3366 4563 
z
" transform="scale(0.015625)"/>
       </defs>
       <use xlink:href="#DejaVuSans-35"/>
       <use xlink:href="#DejaVuSans-36" x="63.623047"/>
       <use xlink:href="#DejaVuSans-30" x="127.246094"/>
       <use xlink:href="#DejaVuSans-30" x="190.869141"/>
      </g>
     </g>
    </g>
    <g id="xtick_4">
     <g id="line2d_4">
      <g>
       <use xlink:href="#mbcb068fe4b" x="396.054854" y="149.675294" style="stroke: #000000; stroke-width: 0.8"/>
      </g>
     </g>
     <g id="text_4">
      <!-- 5700 -->
      <g transform="translate(383.329854 164.273732) scale(0.1 -0.1)">
       <defs>
        <path id="DejaVuSans-37" d="M 525 4666 
L 3525 4666 
L 3525 4397 
L 1831 0 
L 1172 0 
L 2766 4134 
L 525 4134 
L 525 4666 
z
" transform="scale(0.015625)"/>
       </defs>
       <use xlink:href="#DejaVuSans-35"/>
       <use xlink:href="#DejaVuSans-37" x="63.623047"/>
       <use xlink:href="#DejaVuSans-30" x="127.246094"/>
       <use xlink:href="#DejaVuSans-30" x="190.869141"/>
      </g>
     </g>
    </g>
    <g id="xtick_5">
     <g id="line2d_5">
      <g>
       <use xlink:href="#mbcb068fe4b" x="479.789716" y="149.675294" style="stroke: #000000; stroke-width: 0.8"/>
      </g>
     </g>
     <g id="text_5">
      <!-- 5800 -->
      <g transform="translate(467.064716 164.273732) scale(0.1 -0.1)">
       <defs>
        <path id="DejaVuSans-38" d="M 2034 2216 
Q 1584 2216 1326 1975 
Q 1069 1734 1069 1313 
Q 1069 891 1326 650 
Q 1584 409 2034 409 
Q 2484 409 2743 651 
Q 3003 894 3003 1313 
Q 3003 1734 2745 1975 
Q 2488 2216 2034 2216 
z
M 1403 2484 
Q 997 2584 770 2862 
Q 544 3141 544 3541 
Q 544 4100 942 4425 
Q 1341 4750 2034 4750 
Q 2731 4750 3128 4425 
Q 3525 4100 3525 3541 
Q 3525 3141 3298 2862 
Q 3072 2584 2669 2484 
Q 3125 2378 3379 2068 
Q 3634 1759 3634 1313 
Q 3634 634 3220 271 
Q 2806 -91 2034 -91 
Q 1263 -91 848 271 
Q 434 634 434 1313 
Q 434 1759 690 2068 
Q 947 2378 1403 2484 
z
M 1172 3481 
Q 1172 3119 1398 2916 
Q 1625 2713 2034 2713 
Q 2441 2713 2670 2916 
Q 2900 3119 2900 3481 
Q 2900 3844 2670 4047 
Q 2441 4250 2034 4250 
Q 1625 4250 1398 4047 
Q 1172 3844 1172 3481 
z
" transform="scale(0.015625)"/>
       </defs>
       <use xlink:href="#DejaVuSans-35"/>
       <use xlink:href="#DejaVuSans-38" x="63.623047"/>
       <use xlink:href="#DejaVuSans-30" x="127.246094"/>
       <use xlink:href="#DejaVuSans-30" x="190.869141"/>
      </g>
     </g>
    </g>
    <g id="xtick_6">
     <g id="line2d_6">
      <g>
       <use xlink:href="#mbcb068fe4b" x="563.524579" y="149.675294" style="stroke: #000000; stroke-width: 0.8"/>
      </g>
     </g>
     <g id="text_6">
      <!-- 5900 -->
      <g transform="translate(550.799579 164.273732) scale(0.1 -0.1)">
       <defs>
        <path id="DejaVuSans-39" d="M 703 97 
L 703 672 
Q 941 559 1184 500 
Q 1428 441 1663 441 
Q 2288 441 2617 861 
Q 2947 1281 2994 2138 
Q 2813 1869 2534 1725 
Q 2256 1581 1919 1581 
Q 1219 1581 811 2004 
Q 403 2428 403 3163 
Q 403 3881 828 4315 
Q 1253 4750 1959 4750 
Q 2769 4750 3195 4129 
Q 3622 3509 3622 2328 
Q 3622 1225 3098 567 
Q 2575 -91 1691 -91 
Q 1453 -91 1209 -44 
Q 966 3 703 97 
z
M 1959 2075 
Q 2384 2075 2632 2365 
Q 2881 2656 2881 3163 
Q 2881 3666 2632 3958 
Q 2384 4250 1959 4250 
Q 1534 4250 1286 3958 
Q 1038 3666 1038 3163 
Q 1038 2656 1286 2365 
Q 1534 2075 1959 2075 
z
" transform="scale(0.015625)"/>
       </defs>
       <use xlink:href="#DejaVuSans-35"/>
       <use xlink:href="#DejaVuSans-39" x="63.623047"/>
       <use xlink:href="#DejaVuSans-30" x="127.246094"/>
       <use xlink:href="#DejaVuSans-30" x="190.869141"/>
      </g>
     </g>
    </g>
    <g id="xtick_7">
     <g id="line2d_7">
      <g>
       <use xlink:href="#mbcb068fe4b" x="647.259441" y="149.675294" style="stroke: #000000; stroke-width: 0.8"/>
      </g>
     </g>
     <g id="text_7">
      <!-- 6000 -->
      <g transform="translate(634.534441 164.273732) scale(0.1 -0.1)">
       <use xlink:href="#DejaVuSans-36"/>
       <use xlink:href="#DejaVuSans-30" x="63.623047"/>
       <use xlink:href="#DejaVuSans-30" x="127.246094"/>
       <use xlink:href="#DejaVuSans-30" x="190.869141"/>
      </g>
     </g>
    </g>
   </g>
   <g id="matplotlib.axis_2">
    <g id="ytick_1">
     <g id="line2d_8">
      <defs>
       <path id="mcc0e82108e" d="M 0 0 
L -3.5 0 
" style="stroke: #000000; stroke-width: 0.8"/>
      </defs>
      <g>
       <use xlink:href="#mcc0e82108e" x="90" y="135.698824" style="stroke: #000000; stroke-width: 0.8"/>
      </g>
     </g>
     <g id="text_8">
      <!-- 0 -->
      <g transform="translate(76.6375 139.498042) scale(0.1 -0.1)">
       <use xlink:href="#DejaVuSans-30"/>
      </g>
     </g>
    </g>
    <g id="ytick_2">
     <g id="line2d_9">
      <g>
       <use xlink:href="#mcc0e82108e" x="90" y="107.745882" style="stroke: #000000; stroke-width: 0.8"/>
      </g>
     </g>
     <g id="text_9">
      <!-- 10 -->
      <g transform="translate(70.275 111.545101) scale(0.1 -0.1)">
       <defs>
        <path id="DejaVuSans-31" d="M 794 531 
L 1825 531 
L 1825 4091 
L 703 3866 
L 703 4441 
L 1819 4666 
L 2450 4666 
L 2450 531 
L 3481 531 
L 3481 0 
L 794 0 
L 794 531 
z
" transform="scale(0.015625)"/>
       </defs>
       <use xlink:href="#DejaVuSans-31"/>
       <use xlink:href="#DejaVuSans-30" x="63.623047"/>
      </g>
     </g>
    </g>
    <g id="ytick_3">
     <g id="line2d_10">
      <g>
       <use xlink:href="#mcc0e82108e" x="90" y="79.792941" style="stroke: #000000; stroke-width: 0.8"/>
      </g>
     </g>
     <g id="text_10">
      <!-- 20 -->
      <g transform="translate(70.275 83.59216) scale(0.1 -0.1)">
       <defs>
        <path id="DejaVuSans-32" d="M 1228 531 
L 3431 531 
L 3431 0 
L 469 0 
L 469 531 
Q 828 903 1448 1529 
Q 2069 2156 2228 2338 
Q 2531 2678 2651 2914 
Q 2772 3150 2772 3378 
Q 2772 3750 2511 3984 
Q 2250 4219 1831 4219 
Q 1534 4219 1204 4116 
Q 875 4013 500 3803 
L 500 4441 
Q 881 4594 1212 4672 
Q 1544 4750 1819 4750 
Q 2544 4750 2975 4387 
Q 3406 4025 3406 3419 
Q 3406 3131 3298 2873 
Q 3191 2616 2906 2266 
Q 2828 2175 2409 1742 
Q 1991 1309 1228 531 
z
" transform="scale(0.015625)"/>
       </defs>
       <use xlink:href="#DejaVuSans-32"/>
       <use xlink:href="#DejaVuSans-30" x="63.623047"/>
      </g>
     </g>
    </g>
    <g id="ytick_4">
     <g id="line2d_11">
      <g>
       <use xlink:href="#mcc0e82108e" x="90" y="51.84" style="stroke: #000000; stroke-width: 0.8"/>
      </g>
     </g>
     <g id="text_11">
      <!-- 30 -->
      <g transform="translate(70.275 55.639219) scale(0.1 -0.1)">
       <defs>
        <path id="DejaVuSans-33" d="M 2597 2516 
Q 3050 2419 3304 2112 
Q 3559 1806 3559 1356 
Q 3559 666 3084 287 
Q 2609 -91 1734 -91 
Q 1441 -91 1130 -33 
Q 819 25 488 141 
L 488 750 
Q 750 597 1062 519 
Q 1375 441 1716 441 
Q 2309 441 2620 675 
Q 2931 909 2931 1356 
Q 2931 1769 2642 2001 
Q 2353 2234 1838 2234 
L 1294 2234 
L 1294 2753 
L 1863 2753 
Q 2328 2753 2575 2939 
Q 2822 3125 2822 3475 
Q 2822 3834 2567 4026 
Q 2313 4219 1838 4219 
Q 1578 4219 1281 4162 
Q 984 4106 628 3988 
L 628 4550 
Q 988 4650 1302 4700 
Q 1616 4750 1894 4750 
Q 2613 4750 3031 4423 
Q 3450 4097 3450 3541 
Q 3450 3153 3228 2886 
Q 3006 2619 2597 2516 
z
" transform="scale(0.015625)"/>
       </defs>
       <use xlink:href="#DejaVuSans-33"/>
       <use xlink:href="#DejaVuSans-30" x="63.623047"/>
      </g>
     </g>
    </g>
    <g id="text_12">
     <!-- Delta X -->
     <g transform="translate(63.363438 126.453116) rotate(-90) scale(0.14 -0.14)">
      <defs>
       <path id="DejaVuSans-44" d="M 1259 4147 
L 1259 519 
L 2022 519 
Q 2988 519 3436 956 
Q 3884 1394 3884 2338 
Q 3884 3275 3436 3711 
Q 2988 4147 2022 4147 
L 1259 4147 
z
M 628 4666 
L 1925 4666 
Q 3281 4666 3915 4102 
Q 4550 3538 4550 2338 
Q 4550 1131 3912 565 
Q 3275 0 1925 0 
L 628 0 
L 628 4666 
z
" transform="scale(0.015625)"/>
       <path id="DejaVuSans-65" d="M 3597 1894 
L 3597 1613 
L 953 1613 
Q 991 1019 1311 708 
Q 1631 397 2203 397 
Q 2534 397 2845 478 
Q 3156 559 3463 722 
L 3463 178 
Q 3153 47 2828 -22 
Q 2503 -91 2169 -91 
Q 1331 -91 842 396 
Q 353 884 353 1716 
Q 353 2575 817 3079 
Q 1281 3584 2069 3584 
Q 2775 3584 3186 3129 
Q 3597 2675 3597 1894 
z
M 3022 2063 
Q 3016 2534 2758 2815 
Q 2500 3097 2075 3097 
Q 1594 3097 1305 2825 
Q 1016 2553 972 2059 
L 3022 2063 
z
" transform="scale(0.015625)"/>
       <path id="DejaVuSans-6c" d="M 603 4863 
L 1178 4863 
L 1178 0 
L 603 0 
L 603 4863 
z
" transform="scale(0.015625)"/>
       <path id="DejaVuSans-74" d="M 1172 4494 
L 1172 3500 
L 2356 3500 
L 2356 3053 
L 1172 3053 
L 1172 1153 
Q 1172 725 1289 603 
Q 1406 481 1766 481 
L 2356 481 
L 2356 0 
L 1766 0 
Q 1100 0 847 248 
Q 594 497 594 1153 
L 594 3053 
L 172 3053 
L 172 3500 
L 594 3500 
L 594 4494 
L 1172 4494 
z
" transform="scale(0.015625)"/>
       <path id="DejaVuSans-61" d="M 2194 1759 
Q 1497 1759 1228 1600 
Q 959 1441 959 1056 
Q 959 750 1161 570 
Q 1363 391 1709 391 
Q 2188 391 2477 730 
Q 2766 1069 2766 1631 
L 2766 1759 
L 2194 1759 
z
M 3341 1997 
L 3341 0 
L 2766 0 
L 2766 531 
Q 2569 213 2275 61 
Q 1981 -91 1556 -91 
Q 1019 -91 701 211 
Q 384 513 384 1019 
Q 384 1609 779 1909 
Q 1175 2209 1959 2209 
L 2766 2209 
L 2766 2266 
Q 2766 2663 2505 2880 
Q 2244 3097 1772 3097 
Q 1472 3097 1187 3025 
Q 903 2953 641 2809 
L 641 3341 
Q 956 3463 1253 3523 
Q 1550 3584 1831 3584 
Q 2591 3584 2966 3190 
Q 3341 2797 3341 1997 
z
" transform="scale(0.015625)"/>
       <path id="DejaVuSans-20" transform="scale(0.015625)"/>
       <path id="DejaVuSans-58" d="M 403 4666 
L 1081 4666 
L 2241 2931 
L 3406 4666 
L 4084 4666 
L 2584 2425 
L 4184 0 
L 3506 0 
L 2194 1984 
L 872 0 
L 191 0 
L 1856 2491 
L 403 4666 
z
" transform="scale(0.015625)"/>
      </defs>
      <use xlink:href="#DejaVuSans-44"/>
      <use xlink:href="#DejaVuSans-65" x="77.001953"/>
      <use xlink:href="#DejaVuSans-6c" x="138.525391"/>
      <use xlink:href="#DejaVuSans-74" x="166.308594"/>
      <use xlink:href="#DejaVuSans-61" x="205.517578"/>
      <use xlink:href="#DejaVuSans-20" x="266.796875"/>
      <use xlink:href="#DejaVuSans-58" x="298.583984"/>
     </g>
    </g>
   </g>
   <g id="line2d_12">
    <path d="M 90 135.698824 
L 107.700906 135.636049 
L 109.386707 135.596945 
L 112.758308 135.687107 
L 117.81571 135.697854 
L 118.65861 135.147673 
L 119.501511 135.532842 
L 120.344411 135.669717 
L 123.716012 135.572967 
L 129.616314 135.529195 
L 130.459215 135.42664 
L 131.302115 135.466368 
L 132.145015 135.66766 
L 134.673716 135.690346 
L 135.516616 135.285641 
L 136.359517 135.154768 
L 137.202417 135.52228 
L 138.888218 135.620799 
L 139.731118 135.51451 
L 140.574018 135.638853 
L 147.317221 135.621 
L 148.160121 135.673759 
L 149.845921 135.593688 
L 150.688822 135.621716 
L 151.531722 134.978172 
L 152.374622 135.478863 
L 153.217523 135.658942 
L 156.589124 135.648934 
L 157.432024 135.585892 
L 159.117825 135.655524 
L 160.803625 135.651396 
L 161.646526 135.668287 
L 162.489426 134.983548 
L 163.332326 134.812184 
L 164.175227 133.780961 
L 165.018127 135.107169 
L 165.861027 134.946235 
L 166.703927 134.903155 
L 167.546828 135.01007 
L 168.389728 134.130909 
L 169.232628 135.149279 
L 170.075529 135.53773 
L 170.918429 135.399218 
L 171.761329 134.461998 
L 172.60423 135.324834 
L 173.44713 135.596318 
L 176.818731 135.664972 
L 178.504532 135.627542 
L 179.347432 134.965551 
L 181.033233 132.927634 
L 187.776435 122.297089 
L 188.619335 121.348172 
L 189.462236 120.617186 
L 190.305136 120.139788 
L 191.148036 119.484679 
L 191.990937 130.535807 
L 192.833837 133.88713 
L 193.676737 134.897515 
L 194.519637 135.530868 
L 195.362538 135.476319 
L 196.205438 135.66047 
L 197.048338 135.547876 
L 197.891239 135.63372 
L 200.41994 135.613723 
L 201.26284 134.875909 
L 206.320242 129.576174 
L 209.691843 125.993564 
L 210.534743 132.443058 
L 211.377644 134.454974 
L 212.220544 135.411779 
L 213.063444 135.64931 
L 213.906344 135.659468 
L 215.592145 135.504831 
L 217.277946 135.605214 
L 218.120846 135.658352 
L 218.963746 135.530403 
L 219.806647 135.581078 
L 221.492447 135.507729 
L 222.335347 135.642206 
L 224.864048 125.838341 
L 226.549849 117.615618 
L 228.23565 108.027279 
L 230.76435 91.586814 
L 234.135952 67.105962 
L 240.036254 23.16453 
L 242.564955 6.299592 
L 243.815306 -1 
M 277.469054 -1 
L 277.966767 76.436718 
L 278.809668 117.525864 
L 279.652568 129.897373 
L 280.495468 133.914851 
L 281.338369 135.059511 
L 282.181269 135.044438 
L 283.024169 135.35546 
L 283.867069 135.121528 
L 284.70997 135.044031 
L 285.55287 135.346561 
L 286.39577 135.115953 
L 287.238671 135.04284 
L 288.081571 135.347213 
L 288.924471 135.117421 
L 290.610272 135.018419 
L 291.453172 135.338608 
L 292.296073 135.442202 
L 293.138973 135.147351 
L 293.981873 135.379881 
L 294.824773 135.126815 
L 295.667674 135.372886 
L 296.510574 135.126053 
L 297.353474 135.374144 
L 298.196375 135.126121 
L 299.039275 135.373826 
L 299.882175 135.125677 
L 301.567976 135.018803 
L 302.410876 135.010114 
L 303.253776 135.365935 
L 304.939577 135.620547 
L 305.782477 135.552174 
L 306.625378 135.670724 
L 310.839879 135.631385 
L 313.36858 135.520906 
L 314.21148 135.68468 
L 315.054381 135.600867 
L 315.897281 135.692221 
L 316.740181 135.613745 
L 317.583082 135.671102 
L 318.425982 135.579948 
L 320.111782 135.689545 
L 331.912387 135.673897 
L 332.755287 134.886033 
L 333.598187 135.406105 
L 334.441088 134.797247 
L 335.283988 135.391892 
L 336.126888 135.595329 
L 337.812689 135.696477 
L 348.770393 135.634901 
L 350.456193 135.647569 
L 354.670695 104.315681 
L 361.413897 52.264082 
L 363.099698 38.954571 
L 367.314199 -0.371145 
L 368.1571 91.514486 
L 369 121.366533 
L 369.8429 130.156088 
L 370.685801 133.00402 
L 371.528701 134.831197 
L 372.371601 134.51922 
L 373.214502 135.322519 
L 374.057402 135.554443 
L 393.444109 135.576241 
L 395.129909 135.557801 
L 401.030211 135.697879 
L 406.087613 135.668117 
L 406.930514 135.564729 
L 408.616314 135.644974 
L 409.459215 135.535928 
L 411.145015 135.635666 
L 411.987915 135.58844 
L 412.830816 135.694906 
L 414.516616 135.558445 
L 415.359517 135.681801 
L 417.045317 135.513945 
L 419.574018 135.521503 
L 422.102719 135.641007 
L 422.945619 135.530366 
L 424.63142 135.554826 
L 425.47432 135.474257 
L 426.317221 135.624835 
L 428.003021 135.537115 
L 431.374622 135.67738 
L 433.903323 135.67131 
L 434.746224 135.696166 
L 435.589124 135.600235 
L 437.274924 135.640413 
L 438.960725 135.645538 
L 439.803625 135.69828 
L 440.646526 135.588727 
L 442.332326 135.667569 
L 443.175227 135.606719 
L 444.018127 135.685526 
L 444.861027 135.604712 
L 445.703927 135.695718 
L 446.546828 135.546117 
L 447.389728 135.114307 
L 448.232628 134.852227 
L 449.075529 135.565859 
L 451.60423 135.661541 
L 452.44713 135.567572 
L 453.29003 135.676142 
L 458.347432 135.466834 
L 459.190332 135.594314 
L 460.876133 135.656585 
L 466.776435 135.690898 
L 468.462236 135.444698 
L 469.305136 135.576269 
L 471.833837 135.548721 
L 472.676737 135.275235 
L 473.519637 134.680804 
L 474.362538 133.70797 
L 475.205438 132.428488 
L 476.048338 130.805135 
L 476.891239 128.782475 
L 477.734139 126.450592 
L 479.41994 120.792375 
L 481.10574 113.919101 
L 482.791541 105.65534 
L 484.477341 96.276309 
L 491.220544 54.893809 
L 494.592145 31.767847 
L 496.277946 17.767826 
L 498.845833 -1 
M 533.501619 -1 
L 534.208459 84.734851 
L 535.05136 112.934019 
L 535.89426 122.551408 
L 536.73716 125.425816 
L 537.58006 126.934758 
L 538.422961 127.159292 
L 539.265861 132.960232 
L 540.108761 129.646345 
L 540.951662 133.713597 
L 542.637462 111.67114 
L 546.851964 83.735414 
L 549.380665 68.59177 
L 551.909366 54.26349 
L 556.966767 23.446847 
L 559.495468 9.488805 
L 561.181269 0.842765 
L 562.024169 93.404574 
L 562.867069 122.622716 
L 563.70997 131.733945 
L 564.55287 134.55218 
L 565.39577 135.471131 
L 566.238671 135.690798 
L 567.081571 135.56481 
L 568.767372 135.608953 
L 572.981873 135.673212 
L 574.667674 128.227159 
L 575.510574 131.645585 
L 576.353474 132.677696 
L 577.196375 133.331652 
L 579.725076 134.158906 
L 581.410876 134.632633 
L 582.253776 135.691484 
L 583.096677 135.551571 
L 584.782477 135.606149 
L 585.625378 134.393321 
L 586.468278 132.673774 
L 587.311178 130.495477 
L 588.154079 127.835215 
L 589.839879 120.244196 
L 591.52568 109.993876 
L 594.054381 90.734661 
L 604.169184 1.307796 
L 605.012085 90.639521 
L 605.854985 120.634488 
L 606.697885 130.830335 
L 607.540785 134.10065 
L 608.383686 135.192479 
L 609.226586 135.663264 
L 619.34139 135.629964 
L 621.02719 135.682808 
L 621.870091 135.513706 
L 623.555891 135.673015 
L 624.398792 135.67896 
L 625.241692 135.543837 
L 629.456193 129.449952 
L 637.042296 118.449336 
L 640.413897 113.70072 
L 641.256798 128.36375 
L 642.099698 133.405135 
L 642.942598 134.763079 
L 643.785498 135.148621 
L 644.628399 135.306744 
L 646.314199 135.313154 
L 647.1571 135.298711 
L 647.1571 135.298711 
" clip-path="url(#pd263eec927)" style="fill: none; stroke: #bc8f8f; stroke-width: 1.5; stroke-linecap: square"/>
   </g>
   <g id="patch_3">
    <path d="M 90 149.675294 
L 90 51.84 
" style="fill: none; stroke: #000000; stroke-width: 0.8; stroke-linejoin: miter; stroke-linecap: square"/>
   </g>
   <g id="patch_4">
    <path d="M 648 149.675294 
L 648 51.84 
" style="fill: none; stroke: #000000; stroke-width: 0.8; stroke-linejoin: miter; stroke-linecap: square"/>
   </g>
   <g id="patch_5">
    <path d="M 90 149.675294 
L 648 149.675294 
" style="fill: none; stroke: #000000; stroke-width: 0.8; stroke-linejoin: miter; stroke-linecap: square"/>
   </g>
   <g id="patch_6">
    <path d="M 90 51.84 
L 648 51.84 
" style="fill: none; stroke: #000000; stroke-width: 0.8; stroke-linejoin: miter; stroke-linecap: square"/>
   </g>
   <g id="legend_1">
    <g id="patch_7">
     <path d="M 526.56375 79.05375 
L 639.6 79.05375 
Q 642 79.05375 642 76.65375 
L 642 60.24 
Q 642 57.84 639.6 57.84 
L 526.56375 57.84 
Q 524.16375 57.84 524.16375 60.24 
L 524.16375 76.65375 
Q 524.16375 79.05375 526.56375 79.05375 
z
" style="fill: #ffffff; opacity: 0.5; stroke: #cccccc; stroke-linejoin: miter"/>
    </g>
    <g id="line2d_13">
     <path d="M 528.96375 67.558125 
L 540.96375 67.558125 
L 552.96375 67.558125 
" style="fill: none; stroke: #bc8f8f; stroke-width: 1.5; stroke-linecap: square"/>
    </g>
    <g id="text_13">
     <!-- abs(Delta X) -->
     <g transform="translate(562.56375 71.758125) scale(0.12 -0.12)">
      <defs>
       <path id="DejaVuSans-62" d="M 3116 1747 
Q 3116 2381 2855 2742 
Q 2594 3103 2138 3103 
Q 1681 3103 1420 2742 
Q 1159 2381 1159 1747 
Q 1159 1113 1420 752 
Q 1681 391 2138 391 
Q 2594 391 2855 752 
Q 3116 1113 3116 1747 
z
M 1159 2969 
Q 1341 3281 1617 3432 
Q 1894 3584 2278 3584 
Q 2916 3584 3314 3078 
Q 3713 2572 3713 1747 
Q 3713 922 3314 415 
Q 2916 -91 2278 -91 
Q 1894 -91 1617 61 
Q 1341 213 1159 525 
L 1159 0 
L 581 0 
L 581 4863 
L 1159 4863 
L 1159 2969 
z
" transform="scale(0.015625)"/>
       <path id="DejaVuSans-73" d="M 2834 3397 
L 2834 2853 
Q 2591 2978 2328 3040 
Q 2066 3103 1784 3103 
Q 1356 3103 1142 2972 
Q 928 2841 928 2578 
Q 928 2378 1081 2264 
Q 1234 2150 1697 2047 
L 1894 2003 
Q 2506 1872 2764 1633 
Q 3022 1394 3022 966 
Q 3022 478 2636 193 
Q 2250 -91 1575 -91 
Q 1294 -91 989 -36 
Q 684 19 347 128 
L 347 722 
Q 666 556 975 473 
Q 1284 391 1588 391 
Q 1994 391 2212 530 
Q 2431 669 2431 922 
Q 2431 1156 2273 1281 
Q 2116 1406 1581 1522 
L 1381 1569 
Q 847 1681 609 1914 
Q 372 2147 372 2553 
Q 372 3047 722 3315 
Q 1072 3584 1716 3584 
Q 2034 3584 2315 3537 
Q 2597 3491 2834 3397 
z
" transform="scale(0.015625)"/>
       <path id="DejaVuSans-28" d="M 1984 4856 
Q 1566 4138 1362 3434 
Q 1159 2731 1159 2009 
Q 1159 1288 1364 580 
Q 1569 -128 1984 -844 
L 1484 -844 
Q 1016 -109 783 600 
Q 550 1309 550 2009 
Q 550 2706 781 3412 
Q 1013 4119 1484 4856 
L 1984 4856 
z
" transform="scale(0.015625)"/>
       <path id="DejaVuSans-29" d="M 513 4856 
L 1013 4856 
Q 1481 4119 1714 3412 
Q 1947 2706 1947 2009 
Q 1947 1309 1714 600 
Q 1481 -109 1013 -844 
L 513 -844 
Q 928 -128 1133 580 
Q 1338 1288 1338 2009 
Q 1338 2731 1133 3434 
Q 928 4138 513 4856 
z
" transform="scale(0.015625)"/>
      </defs>
      <use xlink:href="#DejaVuSans-61"/>
      <use xlink:href="#DejaVuSans-62" x="61.279297"/>
      <use xlink:href="#DejaVuSans-73" x="124.755859"/>
      <use xlink:href="#DejaVuSans-28" x="176.855469"/>
      <use xlink:href="#DejaVuSans-44" x="215.869141"/>
      <use xlink:href="#DejaVuSans-65" x="292.871094"/>
      <use xlink:href="#DejaVuSans-6c" x="354.394531"/>
      <use xlink:href="#DejaVuSans-74" x="382.177734"/>
      <use xlink:href="#DejaVuSans-61" x="421.386719"/>
      <use xlink:href="#DejaVuSans-20" x="482.666016"/>
      <use xlink:href="#DejaVuSans-58" x="514.453125"/>
      <use xlink:href="#DejaVuSans-29" x="582.958984"/>
     </g>
    </g>
   </g>
  </g>
  <g id="axes_2">
   <g id="patch_8">
    <path d="M 90 267.077647 
L 648 267.077647 
L 648 169.242353 
L 90 169.242353 
z
" style="fill: #ffffff"/>
   </g>
   <g id="matplotlib.axis_3">
    <g id="xtick_8">
     <g id="line2d_14">
      <g>
       <use xlink:href="#mbcb068fe4b" x="144.850266" y="267.077647" style="stroke: #000000; stroke-width: 0.8"/>
      </g>
     </g>
     <g id="text_14">
      <!-- 5400 -->
      <g transform="translate(132.125266 281.676085) scale(0.1 -0.1)">
       <use xlink:href="#DejaVuSans-35"/>
       <use xlink:href="#DejaVuSans-34" x="63.623047"/>
       <use xlink:href="#DejaVuSans-30" x="127.246094"/>
       <use xlink:href="#DejaVuSans-30" x="190.869141"/>
      </g>
     </g>
    </g>
    <g id="xtick_9">
     <g id="line2d_15">
      <g>
       <use xlink:href="#mbcb068fe4b" x="228.585129" y="267.077647" style="stroke: #000000; stroke-width: 0.8"/>
      </g>
     </g>
     <g id="text_15">
      <!-- 5500 -->
      <g transform="translate(215.860129 281.676085) scale(0.1 -0.1)">
       <use xlink:href="#DejaVuSans-35"/>
       <use xlink:href="#DejaVuSans-35" x="63.623047"/>
       <use xlink:href="#DejaVuSans-30" x="127.246094"/>
       <use xlink:href="#DejaVuSans-30" x="190.869141"/>
      </g>
     </g>
    </g>
    <g id="xtick_10">
     <g id="line2d_16">
      <g>
       <use xlink:href="#mbcb068fe4b" x="312.319991" y="267.077647" style="stroke: #000000; stroke-width: 0.8"/>
      </g>
     </g>
     <g id="text_16">
      <!-- 5600 -->
      <g transform="translate(299.594991 281.676085) scale(0.1 -0.1)">
       <use xlink:href="#DejaVuSans-35"/>
       <use xlink:href="#DejaVuSans-36" x="63.623047"/>
       <use xlink:href="#DejaVuSans-30" x="127.246094"/>
       <use xlink:href="#DejaVuSans-30" x="190.869141"/>
      </g>
     </g>
    </g>
    <g id="xtick_11">
     <g id="line2d_17">
      <g>
       <use xlink:href="#mbcb068fe4b" x="396.054854" y="267.077647" style="stroke: #000000; stroke-width: 0.8"/>
      </g>
     </g>
     <g id="text_17">
      <!-- 5700 -->
      <g transform="translate(383.329854 281.676085) scale(0.1 -0.1)">
       <use xlink:href="#DejaVuSans-35"/>
       <use xlink:href="#DejaVuSans-37" x="63.623047"/>
       <use xlink:href="#DejaVuSans-30" x="127.246094"/>
       <use xlink:href="#DejaVuSans-30" x="190.869141"/>
      </g>
     </g>
    </g>
    <g id="xtick_12">
     <g id="line2d_18">
      <g>
       <use xlink:href="#mbcb068fe4b" x="479.789716" y="267.077647" style="stroke: #000000; stroke-width: 0.8"/>
      </g>
     </g>
     <g id="text_18">
      <!-- 5800 -->
      <g transform="translate(467.064716 281.676085) scale(0.1 -0.1)">
       <use xlink:href="#DejaVuSans-35"/>
       <use xlink:href="#DejaVuSans-38" x="63.623047"/>
       <use xlink:href="#DejaVuSans-30" x="127.246094"/>
       <use xlink:href="#DejaVuSans-30" x="190.869141"/>
      </g>
     </g>
    </g>
    <g id="xtick_13">
     <g id="line2d_19">
      <g>
       <use xlink:href="#mbcb068fe4b" x="563.524579" y="267.077647" style="stroke: #000000; stroke-width: 0.8"/>
      </g>
     </g>
     <g id="text_19">
      <!-- 5900 -->
      <g transform="translate(550.799579 281.676085) scale(0.1 -0.1)">
       <use xlink:href="#DejaVuSans-35"/>
       <use xlink:href="#DejaVuSans-39" x="63.623047"/>
       <use xlink:href="#DejaVuSans-30" x="127.246094"/>
       <use xlink:href="#DejaVuSans-30" x="190.869141"/>
      </g>
     </g>
    </g>
    <g id="xtick_14">
     <g id="line2d_20">
      <g>
       <use xlink:href="#mbcb068fe4b" x="647.259441" y="267.077647" style="stroke: #000000; stroke-width: 0.8"/>
      </g>
     </g>
     <g id="text_20">
      <!-- 6000 -->
      <g transform="translate(634.534441 281.676085) scale(0.1 -0.1)">
       <use xlink:href="#DejaVuSans-36"/>
       <use xlink:href="#DejaVuSans-30" x="63.623047"/>
       <use xlink:href="#DejaVuSans-30" x="127.246094"/>
       <use xlink:href="#DejaVuSans-30" x="190.869141"/>
      </g>
     </g>
    </g>
   </g>
   <g id="matplotlib.axis_4">
    <g id="ytick_5">
     <g id="line2d_21">
      <g>
       <use xlink:href="#mcc0e82108e" x="90" y="253.101176" style="stroke: #000000; stroke-width: 0.8"/>
      </g>
     </g>
     <g id="text_21">
      <!-- 0 -->
      <g transform="translate(76.6375 256.900395) scale(0.1 -0.1)">
       <use xlink:href="#DejaVuSans-30"/>
      </g>
     </g>
    </g>
    <g id="ytick_6">
     <g id="line2d_22">
      <g>
       <use xlink:href="#mcc0e82108e" x="90" y="225.148235" style="stroke: #000000; stroke-width: 0.8"/>
      </g>
     </g>
     <g id="text_22">
      <!-- 10 -->
      <g transform="translate(70.275 228.947454) scale(0.1 -0.1)">
       <use xlink:href="#DejaVuSans-31"/>
       <use xlink:href="#DejaVuSans-30" x="63.623047"/>
      </g>
     </g>
    </g>
    <g id="ytick_7">
     <g id="line2d_23">
      <g>
       <use xlink:href="#mcc0e82108e" x="90" y="197.195294" style="stroke: #000000; stroke-width: 0.8"/>
      </g>
     </g>
     <g id="text_23">
      <!-- 20 -->
      <g transform="translate(70.275 200.994513) scale(0.1 -0.1)">
       <use xlink:href="#DejaVuSans-32"/>
       <use xlink:href="#DejaVuSans-30" x="63.623047"/>
      </g>
     </g>
    </g>
    <g id="ytick_8">
     <g id="line2d_24">
      <g>
       <use xlink:href="#mcc0e82108e" x="90" y="169.242353" style="stroke: #000000; stroke-width: 0.8"/>
      </g>
     </g>
     <g id="text_24">
      <!-- 30 -->
      <g transform="translate(70.275 173.041572) scale(0.1 -0.1)">
       <use xlink:href="#DejaVuSans-33"/>
       <use xlink:href="#DejaVuSans-30" x="63.623047"/>
      </g>
     </g>
    </g>
    <g id="text_25">
     <!-- Delta Y -->
     <g transform="translate(63.363438 243.335938) rotate(-90) scale(0.14 -0.14)">
      <defs>
       <path id="DejaVuSans-59" d="M -13 4666 
L 666 4666 
L 1959 2747 
L 3244 4666 
L 3922 4666 
L 2272 2222 
L 2272 0 
L 1638 0 
L 1638 2222 
L -13 4666 
z
" transform="scale(0.015625)"/>
      </defs>
      <use xlink:href="#DejaVuSans-44"/>
      <use xlink:href="#DejaVuSans-65" x="77.001953"/>
      <use xlink:href="#DejaVuSans-6c" x="138.525391"/>
      <use xlink:href="#DejaVuSans-74" x="166.308594"/>
      <use xlink:href="#DejaVuSans-61" x="205.517578"/>
      <use xlink:href="#DejaVuSans-20" x="266.796875"/>
      <use xlink:href="#DejaVuSans-59" x="298.583984"/>
     </g>
    </g>
   </g>
   <g id="line2d_25">
    <path d="M 90 253.101176 
L 100.957704 253.078159 
L 102.643505 252.95062 
L 103.486405 253.037475 
L 104.329305 252.863824 
L 106.015106 252.822725 
L 106.858006 252.870759 
L 107.700906 252.6644 
L 108.543807 252.577655 
L 110.229607 252.694404 
L 111.072508 252.884147 
L 116.129909 253.091776 
L 117.81571 253.097665 
L 118.65861 251.726368 
L 119.501511 252.229556 
L 120.344411 252.524029 
L 122.030211 252.773848 
L 127.087613 253.008443 
L 127.930514 252.859765 
L 128.773414 252.94914 
L 131.302115 252.793018 
L 132.145015 252.970338 
L 134.673716 253.100689 
L 135.516616 251.553858 
L 136.359517 250.592778 
L 137.202417 251.543271 
L 138.888218 252.557467 
L 140.574018 253.048693 
L 143.102719 252.895616 
L 143.945619 253.020963 
L 147.317221 252.849546 
L 148.160121 253.068453 
L 149.845921 252.772875 
L 150.688822 252.907983 
L 151.531722 252.108111 
L 152.374622 252.454434 
L 154.903323 252.900753 
L 155.746224 253.000577 
L 157.432024 252.885761 
L 160.803625 252.957652 
L 161.646526 252.959456 
L 163.332326 252.43894 
L 164.175227 252.399309 
L 165.018127 252.699954 
L 166.703927 252.626909 
L 169.232628 252.796555 
L 170.075529 252.916956 
L 172.60423 252.973103 
L 174.29003 253.096431 
L 175.975831 253.08585 
L 178.504532 253.099144 
L 179.347432 251.020189 
L 181.033233 245.942909 
L 182.719033 239.833326 
L 185.247734 228.946456 
L 186.090634 223.066802 
L 190.305136 199.453722 
L 191.148036 192.409746 
L 191.990937 213.654026 
L 192.833837 226.886806 
L 193.676737 235.110298 
L 194.519637 241.914141 
L 195.362538 244.437307 
L 196.205438 247.702078 
L 197.048338 248.029957 
L 197.891239 249.932768 
L 198.734139 249.374706 
L 199.577039 249.066327 
L 200.41994 250.574597 
L 202.94864 229.573363 
L 205.477341 213.771311 
L 206.320242 206.770899 
L 207.163142 201.503549 
L 209.691843 180.502314 
L 210.534743 208.036915 
L 211.377644 225.14116 
L 212.220544 235.757667 
L 213.063444 242.274012 
L 213.906344 246.355127 
L 214.749245 248.885907 
L 215.592145 250.525074 
L 216.435045 251.435969 
L 217.277946 252.089041 
L 218.120846 252.455256 
L 219.806647 252.83728 
L 220.649547 253.000482 
L 222.335347 252.935162 
L 223.178248 249.584063 
L 224.864048 244.727369 
L 225.706949 242.724358 
L 227.392749 239.616983 
L 228.23565 238.630375 
L 229.07855 238.01694 
L 229.92145 237.779864 
L 230.76435 238.007988 
L 231.607251 238.575032 
L 232.450151 239.557176 
L 233.293051 241.014622 
L 234.135952 243.00873 
L 234.978852 245.434806 
L 235.821752 248.376928 
L 236.664653 251.806794 
L 237.507553 250.546753 
L 239.193353 241.294382 
L 240.879154 230.149095 
L 242.564955 217.084822 
L 244.250755 202.551756 
L 246.779456 178.390646 
L 250.151057 142.381619 
L 251.836858 120.095308 
L 254.365559 79.650518 
L 256.05136 49.201004 
L 258.780277 -1 
M 278.705535 -1 
L 278.809668 16.154703 
L 279.652568 103.945696 
L 280.495468 160.407286 
L 281.338369 195.59531 
L 282.181269 215.870634 
L 283.024169 230.086646 
L 283.867069 237.301427 
L 285.55287 246.18209 
L 286.39577 247.296311 
L 287.238671 247.987936 
L 288.081571 250.035929 
L 288.924471 249.689624 
L 290.610272 249.340484 
L 291.453172 250.875841 
L 292.296073 251.828982 
L 293.138973 250.802858 
L 293.981873 251.783158 
L 294.824773 250.773896 
L 295.667674 251.765765 
L 296.510574 250.763688 
L 297.353474 251.758918 
L 298.196375 250.758992 
L 299.039275 251.756593 
L 299.882175 250.758139 
L 300.725076 250.137927 
L 301.567976 249.752571 
L 302.410876 249.513042 
L 303.253776 250.872821 
L 304.096677 251.843523 
L 304.939577 252.207068 
L 309.154079 252.99957 
L 311.682779 253.034152 
L 318.425982 252.929595 
L 319.268882 253.088652 
L 320.111782 253.006152 
L 321.797583 253.039794 
L 323.483384 252.903363 
L 324.326284 253.022879 
L 326.854985 252.888183 
L 327.697885 252.979208 
L 328.540785 252.884739 
L 330.226586 252.942383 
L 331.912387 252.930416 
L 332.755287 252.408004 
L 333.598187 252.767589 
L 334.441088 252.098426 
L 335.283988 252.528309 
L 336.969789 252.892433 
L 340.34139 253.012228 
L 342.870091 252.984517 
L 343.712991 252.670819 
L 344.555891 252.560957 
L 346.241692 252.90909 
L 347.927492 252.897091 
L 348.770393 252.703216 
L 350.456193 253.055981 
L 352.141994 250.401077 
L 353.827795 248.154436 
L 355.513595 246.42677 
L 356.356495 245.741773 
L 357.199396 245.252605 
L 358.885196 244.746727 
L 360.570997 244.704951 
L 361.413897 244.775057 
L 362.256798 245.004708 
L 363.099698 245.517059 
L 363.942598 246.44566 
L 364.785498 247.561364 
L 365.628399 249.043981 
L 366.471299 250.890029 
L 367.314199 253.076485 
L 368.1571 250.919654 
L 369 251.032832 
L 369.8429 251.539723 
L 371.528701 252.191967 
L 374.900302 252.490535 
L 375.743202 252.242405 
L 376.586103 252.594171 
L 379.957704 253.095396 
L 380.800604 252.865763 
L 381.643505 253.080318 
L 385.015106 253.020605 
L 385.858006 252.830673 
L 389.229607 252.878873 
L 390.072508 252.999902 
L 390.915408 252.910975 
L 391.758308 253.090743 
L 392.601208 253.005957 
L 393.444109 252.695187 
L 396.81571 252.846393 
L 397.65861 252.978403 
L 406.087613 253.06468 
L 406.930514 252.981655 
L 407.773414 253.088876 
L 409.459215 252.89914 
L 410.302115 253.043241 
L 411.145015 252.994348 
L 412.830816 253.091541 
L 415.359517 253.055562 
L 416.202417 251.395833 
L 417.045317 252.044061 
L 417.888218 250.711013 
L 418.731118 251.643341 
L 419.574018 252.168969 
L 421.259819 252.734668 
L 423.78852 253.067635 
L 429.688822 252.994337 
L 432.217523 253.017456 
L 433.060423 252.923677 
L 434.746224 253.061852 
L 442.332326 253.04889 
L 445.703927 252.979318 
L 446.546828 252.828482 
L 447.389728 251.66414 
L 448.232628 251.003131 
L 449.075529 251.742722 
L 449.918429 252.230745 
L 450.761329 252.219504 
L 454.132931 253.06472 
L 455.818731 252.900028 
L 457.504532 252.930064 
L 458.347432 252.795297 
L 459.190332 252.902798 
L 460.033233 252.870326 
L 460.876133 253.039949 
L 461.719033 253.083863 
L 462.561934 252.908232 
L 464.247734 253.060842 
L 465.933535 252.956325 
L 468.462236 253.049257 
L 471.833837 253.067511 
L 475.205438 235.9664 
L 478.577039 219.962222 
L 480.26284 212.298964 
L 482.791541 201.939938 
L 484.477341 195.817285 
L 486.163142 190.452359 
L 488.691843 184.043349 
L 491.220544 178.510438 
L 492.906344 175.190472 
L 493.749245 173.64764 
L 494.592145 172.391598 
L 496.277946 166.063526 
L 497.963746 163.662562 
L 498.806647 162.69107 
L 499.649547 162.019304 
L 500.492447 161.512031 
L 501.335347 161.182628 
L 502.178248 160.987823 
L 503.864048 161.267082 
L 505.549849 161.930872 
L 508.07855 163.095764 
L 508.92145 161.829201 
L 509.76435 162.217499 
L 510.607251 160.950936 
L 512.293051 161.779638 
L 513.978852 159.541756 
L 515.664653 161.066904 
L 516.507553 160.176735 
L 517.350453 160.939309 
L 518.193353 160.04914 
L 519.036254 160.811714 
L 522.407855 157.251037 
L 524.093656 158.776185 
L 524.936556 157.886016 
L 525.779456 158.64859 
L 526.622356 157.758421 
L 527.465257 158.520995 
L 530.836858 154.960319 
L 531.679758 155.722893 
L 532.522659 154.832724 
L 533.365559 195.690977 
L 534.208459 217.809385 
L 535.05136 226.979299 
L 535.89426 233.287769 
L 536.73716 237.515991 
L 537.58006 240.608889 
L 538.422961 242.962958 
L 539.265861 247.004555 
L 540.108761 249.458983 
L 540.951662 251.095938 
L 541.794562 249.643523 
L 542.637462 251.231585 
L 543.480363 251.75294 
L 544.323263 252.725498 
L 545.166163 252.013816 
L 546.009063 250.065773 
L 546.851964 247.686009 
L 547.694864 244.953005 
L 549.380665 238.173474 
L 550.223565 234.201375 
L 551.909366 223.869287 
L 553.595166 211.24312 
L 556.966767 181.144254 
L 561.181269 141.547149 
L 562.024169 179.311965 
L 562.867069 205.965501 
L 563.70997 223.468413 
L 564.55287 234.510843 
L 565.39577 241.504296 
L 566.238671 245.79451 
L 567.081571 248.372402 
L 567.924471 249.969826 
L 568.767372 251.213012 
L 569.610272 251.996191 
L 570.453172 252.306983 
L 572.981873 252.724081 
L 574.667674 244.298244 
L 575.510574 234.064522 
L 576.353474 227.746564 
L 577.196375 224.964873 
L 578.039275 223.082729 
L 578.882175 223.127147 
L 579.725076 222.91401 
L 580.567976 224.230695 
L 581.410876 224.964484 
L 582.253776 225.238964 
L 583.096677 235.738849 
L 583.939577 242.285455 
L 584.782477 246.482214 
L 587.311178 237.576987 
L 595.740181 210.811174 
L 596.583082 206.411683 
L 598.268882 200.992972 
L 599.111782 196.593482 
L 601.640483 188.465415 
L 602.483384 184.065924 
L 603.326284 181.356569 
L 604.169184 176.957078 
L 605.012085 207.093067 
L 605.854985 224.968114 
L 606.697885 235.643018 
L 607.540785 242.299719 
L 608.383686 246.314871 
L 609.226586 248.788206 
L 610.069486 250.499004 
L 610.912387 251.437859 
L 611.755287 252.042781 
L 612.598187 252.47825 
L 613.441088 252.736488 
L 615.126888 252.895576 
L 617.655589 253.100812 
L 618.498489 253.000673 
L 623.555891 253.047265 
L 624.398792 253.00877 
L 625.241692 253.092201 
L 626.927492 242.635281 
L 631.141994 207.784558 
L 631.984894 202.547123 
L 634.513595 181.636689 
L 636.199396 171.161818 
L 637.042296 164.191674 
L 640.413897 143.241932 
L 641.256798 184.919298 
L 642.099698 210.74734 
L 642.942598 225.09335 
L 643.785498 234.008285 
L 644.628399 241.278687 
L 645.471299 245.793806 
L 646.314199 246.864485 
L 647.1571 247.529387 
L 647.1571 247.529387 
" clip-path="url(#p921a3a535f)" style="fill: none; stroke: #c0c0c0; stroke-width: 1.5; stroke-linecap: square"/>
   </g>
   <g id="patch_9">
    <path d="M 90 267.077647 
L 90 169.242353 
" style="fill: none; stroke: #000000; stroke-width: 0.8; stroke-linejoin: miter; stroke-linecap: square"/>
   </g>
   <g id="patch_10">
    <path d="M 648 267.077647 
L 648 169.242353 
" style="fill: none; stroke: #000000; stroke-width: 0.8; stroke-linejoin: miter; stroke-linecap: square"/>
   </g>
   <g id="patch_11">
    <path d="M 90 267.077647 
L 648 267.077647 
" style="fill: none; stroke: #000000; stroke-width: 0.8; stroke-linejoin: miter; stroke-linecap: square"/>
   </g>
   <g id="patch_12">
    <path d="M 90 169.242353 
L 648 169.242353 
" style="fill: none; stroke: #000000; stroke-width: 0.8; stroke-linejoin: miter; stroke-linecap: square"/>
   </g>
   <g id="legend_2">
    <g id="patch_13">
     <path d="M 527.454375 196.456103 
L 639.6 196.456103 
Q 642 196.456103 642 194.056103 
L 642 177.642353 
Q 642 175.242353 639.6 175.242353 
L 527.454375 175.242353 
Q 525.054375 175.242353 525.054375 177.642353 
L 525.054375 194.056103 
Q 525.054375 196.456103 527.454375 196.456103 
z
" style="fill: #ffffff; opacity: 0.5; stroke: #cccccc; stroke-linejoin: miter"/>
    </g>
    <g id="line2d_26">
     <path d="M 529.854375 184.960478 
L 541.854375 184.960478 
L 553.854375 184.960478 
" style="fill: none; stroke: #c0c0c0; stroke-width: 1.5; stroke-linecap: square"/>
    </g>
    <g id="text_26">
     <!-- abs(Delta Y) -->
     <g transform="translate(563.454375 189.160478) scale(0.12 -0.12)">
      <use xlink:href="#DejaVuSans-61"/>
      <use xlink:href="#DejaVuSans-62" x="61.279297"/>
      <use xlink:href="#DejaVuSans-73" x="124.755859"/>
      <use xlink:href="#DejaVuSans-28" x="176.855469"/>
      <use xlink:href="#DejaVuSans-44" x="215.869141"/>
      <use xlink:href="#DejaVuSans-65" x="292.871094"/>
      <use xlink:href="#DejaVuSans-6c" x="354.394531"/>
      <use xlink:href="#DejaVuSans-74" x="382.177734"/>
      <use xlink:href="#DejaVuSans-61" x="421.386719"/>
      <use xlink:href="#DejaVuSans-20" x="482.666016"/>
      <use xlink:href="#DejaVuSans-59" x="514.453125"/>
      <use xlink:href="#DejaVuSans-29" x="575.537109"/>
     </g>
    </g>
   </g>
  </g>
  <g id="axes_3">
   <g id="patch_14">
    <path d="M 90 384.48 
L 648 384.48 
L 648 286.644706 
L 90 286.644706 
z
" style="fill: #ffffff"/>
   </g>
   <g id="matplotlib.axis_5">
    <g id="xtick_15">
     <g id="line2d_27">
      <g>
       <use xlink:href="#mbcb068fe4b" x="144.850266" y="384.48" style="stroke: #000000; stroke-width: 0.8"/>
      </g>
     </g>
     <g id="text_27">
      <!-- 5400 -->
      <g transform="translate(132.125266 399.078438) scale(0.1 -0.1)">
       <use xlink:href="#DejaVuSans-35"/>
       <use xlink:href="#DejaVuSans-34" x="63.623047"/>
       <use xlink:href="#DejaVuSans-30" x="127.246094"/>
       <use xlink:href="#DejaVuSans-30" x="190.869141"/>
      </g>
     </g>
    </g>
    <g id="xtick_16">
     <g id="line2d_28">
      <g>
       <use xlink:href="#mbcb068fe4b" x="228.585129" y="384.48" style="stroke: #000000; stroke-width: 0.8"/>
      </g>
     </g>
     <g id="text_28">
      <!-- 5500 -->
      <g transform="translate(215.860129 399.078438) scale(0.1 -0.1)">
       <use xlink:href="#DejaVuSans-35"/>
       <use xlink:href="#DejaVuSans-35" x="63.623047"/>
       <use xlink:href="#DejaVuSans-30" x="127.246094"/>
       <use xlink:href="#DejaVuSans-30" x="190.869141"/>
      </g>
     </g>
    </g>
    <g id="xtick_17">
     <g id="line2d_29">
      <g>
       <use xlink:href="#mbcb068fe4b" x="312.319991" y="384.48" style="stroke: #000000; stroke-width: 0.8"/>
      </g>
     </g>
     <g id="text_29">
      <!-- 5600 -->
      <g transform="translate(299.594991 399.078438) scale(0.1 -0.1)">
       <use xlink:href="#DejaVuSans-35"/>
       <use xlink:href="#DejaVuSans-36" x="63.623047"/>
       <use xlink:href="#DejaVuSans-30" x="127.246094"/>
       <use xlink:href="#DejaVuSans-30" x="190.869141"/>
      </g>
     </g>
    </g>
    <g id="xtick_18">
     <g id="line2d_30">
      <g>
       <use xlink:href="#mbcb068fe4b" x="396.054854" y="384.48" style="stroke: #000000; stroke-width: 0.8"/>
      </g>
     </g>
     <g id="text_30">
      <!-- 5700 -->
      <g transform="translate(383.329854 399.078438) scale(0.1 -0.1)">
       <use xlink:href="#DejaVuSans-35"/>
       <use xlink:href="#DejaVuSans-37" x="63.623047"/>
       <use xlink:href="#DejaVuSans-30" x="127.246094"/>
       <use xlink:href="#DejaVuSans-30" x="190.869141"/>
      </g>
     </g>
    </g>
    <g id="xtick_19">
     <g id="line2d_31">
      <g>
       <use xlink:href="#mbcb068fe4b" x="479.789716" y="384.48" style="stroke: #000000; stroke-width: 0.8"/>
      </g>
     </g>
     <g id="text_31">
      <!-- 5800 -->
      <g transform="translate(467.064716 399.078438) scale(0.1 -0.1)">
       <use xlink:href="#DejaVuSans-35"/>
       <use xlink:href="#DejaVuSans-38" x="63.623047"/>
       <use xlink:href="#DejaVuSans-30" x="127.246094"/>
       <use xlink:href="#DejaVuSans-30" x="190.869141"/>
      </g>
     </g>
    </g>
    <g id="xtick_20">
     <g id="line2d_32">
      <g>
       <use xlink:href="#mbcb068fe4b" x="563.524579" y="384.48" style="stroke: #000000; stroke-width: 0.8"/>
      </g>
     </g>
     <g id="text_32">
      <!-- 5900 -->
      <g transform="translate(550.799579 399.078438) scale(0.1 -0.1)">
       <use xlink:href="#DejaVuSans-35"/>
       <use xlink:href="#DejaVuSans-39" x="63.623047"/>
       <use xlink:href="#DejaVuSans-30" x="127.246094"/>
       <use xlink:href="#DejaVuSans-30" x="190.869141"/>
      </g>
     </g>
    </g>
    <g id="xtick_21">
     <g id="line2d_33">
      <g>
       <use xlink:href="#mbcb068fe4b" x="647.259441" y="384.48" style="stroke: #000000; stroke-width: 0.8"/>
      </g>
     </g>
     <g id="text_33">
      <!-- 6000 -->
      <g transform="translate(634.534441 399.078438) scale(0.1 -0.1)">
       <use xlink:href="#DejaVuSans-36"/>
       <use xlink:href="#DejaVuSans-30" x="63.623047"/>
       <use xlink:href="#DejaVuSans-30" x="127.246094"/>
       <use xlink:href="#DejaVuSans-30" x="190.869141"/>
      </g>
     </g>
    </g>
    <g id="text_34">
     <!-- Time step -->
     <g transform="translate(334.506406 421.795937) scale(0.14 -0.14)">
      <defs>
       <path id="DejaVuSans-54" d="M -19 4666 
L 3928 4666 
L 3928 4134 
L 2272 4134 
L 2272 0 
L 1638 0 
L 1638 4134 
L -19 4134 
L -19 4666 
z
" transform="scale(0.015625)"/>
       <path id="DejaVuSans-69" d="M 603 3500 
L 1178 3500 
L 1178 0 
L 603 0 
L 603 3500 
z
M 603 4863 
L 1178 4863 
L 1178 4134 
L 603 4134 
L 603 4863 
z
" transform="scale(0.015625)"/>
       <path id="DejaVuSans-6d" d="M 3328 2828 
Q 3544 3216 3844 3400 
Q 4144 3584 4550 3584 
Q 5097 3584 5394 3201 
Q 5691 2819 5691 2113 
L 5691 0 
L 5113 0 
L 5113 2094 
Q 5113 2597 4934 2840 
Q 4756 3084 4391 3084 
Q 3944 3084 3684 2787 
Q 3425 2491 3425 1978 
L 3425 0 
L 2847 0 
L 2847 2094 
Q 2847 2600 2669 2842 
Q 2491 3084 2119 3084 
Q 1678 3084 1418 2786 
Q 1159 2488 1159 1978 
L 1159 0 
L 581 0 
L 581 3500 
L 1159 3500 
L 1159 2956 
Q 1356 3278 1631 3431 
Q 1906 3584 2284 3584 
Q 2666 3584 2933 3390 
Q 3200 3197 3328 2828 
z
" transform="scale(0.015625)"/>
       <path id="DejaVuSans-70" d="M 1159 525 
L 1159 -1331 
L 581 -1331 
L 581 3500 
L 1159 3500 
L 1159 2969 
Q 1341 3281 1617 3432 
Q 1894 3584 2278 3584 
Q 2916 3584 3314 3078 
Q 3713 2572 3713 1747 
Q 3713 922 3314 415 
Q 2916 -91 2278 -91 
Q 1894 -91 1617 61 
Q 1341 213 1159 525 
z
M 3116 1747 
Q 3116 2381 2855 2742 
Q 2594 3103 2138 3103 
Q 1681 3103 1420 2742 
Q 1159 2381 1159 1747 
Q 1159 1113 1420 752 
Q 1681 391 2138 391 
Q 2594 391 2855 752 
Q 3116 1113 3116 1747 
z
" transform="scale(0.015625)"/>
      </defs>
      <use xlink:href="#DejaVuSans-54"/>
      <use xlink:href="#DejaVuSans-69" x="57.958984"/>
      <use xlink:href="#DejaVuSans-6d" x="85.742188"/>
      <use xlink:href="#DejaVuSans-65" x="183.154297"/>
      <use xlink:href="#DejaVuSans-20" x="244.677734"/>
      <use xlink:href="#DejaVuSans-73" x="276.464844"/>
      <use xlink:href="#DejaVuSans-74" x="328.564453"/>
      <use xlink:href="#DejaVuSans-65" x="367.773438"/>
      <use xlink:href="#DejaVuSans-70" x="429.296875"/>
     </g>
    </g>
   </g>
   <g id="matplotlib.axis_6">
    <g id="ytick_9">
     <g id="line2d_34">
      <g>
       <use xlink:href="#mcc0e82108e" x="90" y="364.912941" style="stroke: #000000; stroke-width: 0.8"/>
      </g>
     </g>
     <g id="text_35">
      <!-- 0 -->
      <g transform="translate(76.6375 368.71216) scale(0.1 -0.1)">
       <use xlink:href="#DejaVuSans-30"/>
      </g>
     </g>
    </g>
    <g id="ytick_10">
     <g id="line2d_35">
      <g>
       <use xlink:href="#mcc0e82108e" x="90" y="325.778824" style="stroke: #000000; stroke-width: 0.8"/>
      </g>
     </g>
     <g id="text_36">
      <!-- 10 -->
      <g transform="translate(70.275 329.578042) scale(0.1 -0.1)">
       <use xlink:href="#DejaVuSans-31"/>
       <use xlink:href="#DejaVuSans-30" x="63.623047"/>
      </g>
     </g>
    </g>
    <g id="ytick_11">
     <g id="line2d_36">
      <g>
       <use xlink:href="#mcc0e82108e" x="90" y="286.644706" style="stroke: #000000; stroke-width: 0.8"/>
      </g>
     </g>
     <g id="text_37">
      <!-- 20 -->
      <g transform="translate(70.275 290.443925) scale(0.1 -0.1)">
       <use xlink:href="#DejaVuSans-32"/>
       <use xlink:href="#DejaVuSans-30" x="63.623047"/>
      </g>
     </g>
    </g>
    <g id="text_38">
     <!-- Delta Theta -->
     <g transform="translate(63.363438 376.515634) rotate(-90) scale(0.14 -0.14)">
      <defs>
       <path id="DejaVuSans-68" d="M 3513 2113 
L 3513 0 
L 2938 0 
L 2938 2094 
Q 2938 2591 2744 2837 
Q 2550 3084 2163 3084 
Q 1697 3084 1428 2787 
Q 1159 2491 1159 1978 
L 1159 0 
L 581 0 
L 581 4863 
L 1159 4863 
L 1159 2956 
Q 1366 3272 1645 3428 
Q 1925 3584 2291 3584 
Q 2894 3584 3203 3211 
Q 3513 2838 3513 2113 
z
" transform="scale(0.015625)"/>
      </defs>
      <use xlink:href="#DejaVuSans-44"/>
      <use xlink:href="#DejaVuSans-65" x="77.001953"/>
      <use xlink:href="#DejaVuSans-6c" x="138.525391"/>
      <use xlink:href="#DejaVuSans-74" x="166.308594"/>
      <use xlink:href="#DejaVuSans-61" x="205.517578"/>
      <use xlink:href="#DejaVuSans-20" x="266.796875"/>
      <use xlink:href="#DejaVuSans-54" x="298.583984"/>
      <use xlink:href="#DejaVuSans-68" x="359.667969"/>
      <use xlink:href="#DejaVuSans-65" x="423.046875"/>
      <use xlink:href="#DejaVuSans-74" x="484.570312"/>
      <use xlink:href="#DejaVuSans-61" x="523.779297"/>
     </g>
    </g>
   </g>
   <g id="line2d_37">
    <path d="M 90 364.912941 
L 93.371601 364.912941 
L 94.214502 363.06056 
L 95.057402 359.428142 
L 95.900302 363.146456 
L 96.743202 362.486342 
L 97.586103 363.4636 
L 98.429003 361.931086 
L 99.271903 361.425196 
L 100.114804 363.653216 
L 100.957704 359.800074 
L 101.800604 361.690637 
L 102.643505 355.221545 
L 103.486405 364.516948 
L 104.329305 363.027803 
L 105.172205 360.369038 
L 106.015106 358.470554 
L 107.700906 357.445522 
L 108.543807 360.361341 
L 109.386707 364.844104 
L 110.229607 355.920944 
L 111.072508 362.431233 
L 111.915408 354.784903 
L 112.758308 359.625175 
L 113.601208 362.65503 
L 114.444109 363.515815 
L 115.287009 361.948322 
L 116.129909 361.430886 
L 116.97281 361.260077 
L 119.501511 361.178936 
L 122.873112 361.175944 
L 123.716012 359.093357 
L 124.558912 361.60377 
L 125.401813 362.427091 
L 126.244713 362.990378 
L 127.087613 354.491087 
L 127.930514 362.187879 
L 128.773414 356.811592 
L 129.616314 350.688184 
L 130.459215 354.979384 
L 131.302115 360.681791 
L 132.145015 362.445642 
L 132.987915 363.739588 
L 133.830816 364.541809 
L 134.673716 364.790429 
L 136.359517 364.899591 
L 137.202417 364.908534 
L 138.045317 362.369918 
L 138.888218 355.104016 
L 139.731118 364.89304 
L 140.574018 355.966547 
L 141.416918 358.827345 
L 142.259819 360.392979 
L 143.102719 360.20864 
L 143.945619 359.669212 
L 144.78852 356.583427 
L 145.63142 359.598141 
L 146.47432 353.912284 
L 147.317221 363.947942 
L 149.003021 356.916085 
L 149.845921 364.769286 
L 150.688822 362.57 
L 151.531722 363.182936 
L 152.374622 361.838437 
L 153.217523 361.719107 
L 154.060423 358.78408 
L 154.903323 362.231713 
L 155.746224 360.013389 
L 156.589124 355.079576 
L 157.432024 363.917325 
L 158.274924 364.768127 
L 159.117825 356.08348 
L 159.960725 363.630784 
L 160.803625 364.482432 
L 161.646526 357.291928 
L 162.489426 359.93542 
L 163.332326 364.09934 
L 164.175227 356.990942 
L 165.018127 361.719988 
L 165.861027 363.964501 
L 166.703927 357.184707 
L 167.546828 361.132451 
L 168.389728 363.178016 
L 169.232628 359.029364 
L 170.075529 361.82061 
L 170.918429 363.648077 
L 171.761329 358.01279 
L 172.60423 358.710845 
L 173.44713 364.702984 
L 174.29003 355.88145 
L 175.132931 359.006572 
L 175.975831 363.448343 
L 176.818731 358.713026 
L 177.661631 363.420536 
L 178.504532 362.381494 
L 180.190332 354.76491 
L 181.033233 352.599658 
L 182.719033 352.599658 
L 183.561934 356.293912 
L 184.404834 356.592378 
L 185.247734 360.42524 
L 186.090634 360.42524 
L 186.933535 364.610814 
L 187.776435 362.529376 
L 188.619335 358.624633 
L 189.462236 352.346923 
L 190.305136 354.709281 
L 191.148036 354.709281 
L 191.990937 360.770953 
L 192.833837 356.035388 
L 193.676737 360.333199 
L 194.519637 358.914472 
L 195.362538 359.3828 
L 196.205438 359.228203 
L 197.048338 359.279236 
L 197.891239 355.542966 
L 198.734139 360.49575 
L 199.577039 358.860813 
L 200.41994 359.400513 
L 209.691843 359.400513 
L 210.534743 355.583 
L 211.377644 360.482534 
L 212.220544 364.310515 
L 213.063444 364.583373 
L 213.906344 359.541429 
L 214.749245 360.469592 
L 215.592145 361.89252 
L 216.435045 361.685834 
L 217.277946 359.857359 
L 218.120846 359.748667 
L 218.963746 363.493808 
L 219.806647 358.684007 
L 220.649547 362.879497 
L 221.492447 357.336137 
L 222.335347 362.064402 
L 223.178248 361.421409 
L 224.021148 351.781289 
L 225.706949 327.840556 
L 226.549849 320.285488 
L 229.07855 289.222344 
L 229.92145 280.5955 
L 230.76435 269.299078 
L 232.450151 254.128592 
L 233.293051 240.184198 
L 235.821752 206.963187 
L 236.664653 200.426567 
L 237.507553 187.11154 
L 239.193353 164.403006 
L 240.036254 149.977635 
L 240.879154 137.482556 
L 242.564955 122.508747 
L 244.250755 104.562017 
L 245.093656 97.854971 
L 246.779456 75.025328 
L 248.465257 60.033021 
L 249.308157 46.054386 
L 250.151057 36.341049 
L 250.993958 24.015207 
L 251.836858 16.348797 
L 252.679758 14.443901 
L 253.522659 10.443998 
L 254.365559 11.438453 
L 255.208459 8.158391 
L 260.265861 8.158391 
L 261.108761 6.654208 
L 261.951662 6.542585 
L 262.794562 8.436518 
L 263.637462 7.422049 
L 264.480363 6.740286 
L 265.323263 12.879941 
L 266.166163 20.653265 
L 277.123867 20.653265 
L 277.966767 256.278081 
L 278.809668 334.058916 
L 279.652568 359.734728 
L 280.495468 361.615451 
L 281.338369 358.817582 
L 282.181269 357.893993 
L 283.024169 357.589112 
L 284.70997 357.455246 
L 293.981873 357.438875 
L 302.410876 357.438875 
L 303.253776 358.102336 
L 304.096677 363.158974 
L 304.939577 356.740326 
L 305.782477 357.015277 
L 306.625378 363.106811 
L 307.468278 358.664008 
L 308.311178 357.200129 
L 309.154079 363.269235 
L 309.996979 362.936415 
L 310.839879 363.538064 
L 311.682779 363.15846 
L 313.36858 356.911922 
L 314.21148 363.844129 
L 315.054381 356.677009 
L 315.897281 363.539143 
L 316.740181 360.427204 
L 317.583082 362.583192 
L 318.425982 356.760474 
L 319.268882 360.931833 
L 320.111782 358.183391 
L 320.954683 364.321626 
L 321.797583 362.498941 
L 322.640483 364.681178 
L 323.483384 359.17622 
L 324.326284 363.67611 
L 325.169184 360.900909 
L 326.012085 364.707783 
L 326.854985 359.226708 
L 327.697885 363.869023 
L 328.540785 360.140701 
L 329.383686 364.624409 
L 330.226586 363.116039 
L 331.069486 359.622638 
L 331.912387 358.159745 
L 332.755287 357.676838 
L 334.441088 357.464806 
L 335.283988 357.447435 
L 336.126888 359.810225 
L 336.969789 360.72509 
L 337.812689 361.027091 
L 338.655589 361.126783 
L 339.498489 363.601405 
L 340.34139 364.479997 
L 341.18429 364.770024 
L 342.02719 363.608613 
L 342.870091 354.626542 
L 343.712991 355.805923 
L 344.555891 362.755412 
L 345.398792 364.468734 
L 346.241692 361.882054 
L 347.084592 363.842572 
L 347.927492 356.284545 
L 348.770393 360.013303 
L 349.613293 356.333412 
L 350.456193 359.633806 
L 351.299094 360.32882 
L 352.984894 364.415768 
L 353.827795 361.538088 
L 354.670695 361.191307 
L 355.513595 358.574586 
L 356.356495 352.65752 
L 357.199396 347.850779 
L 358.042296 347.832348 
L 358.885196 343.92131 
L 359.728097 343.130437 
L 360.570997 343.443043 
L 361.413897 339.875781 
L 362.256798 330.616308 
L 363.099698 324.931695 
L 363.942598 323.771171 
L 365.628399 309.835761 
L 366.471299 307.694842 
L 367.314199 303.448002 
L 368.1571 346.238547 
L 369 360.144358 
L 369.8429 360.835389 
L 370.685801 361.063501 
L 372.371601 361.163659 
L 373.214502 361.171865 
L 374.057402 360.335583 
L 374.900302 353.075119 
L 375.743202 360.080194 
L 377.429003 364.771631 
L 378.271903 354.011268 
L 379.114804 360.918597 
L 379.957704 361.467097 
L 380.800604 358.006706 
L 381.643505 362.466561 
L 382.486405 364.74053 
L 383.329305 361.306026 
L 384.172205 362.118339 
L 385.015106 361.816069 
L 385.858006 364.771236 
L 386.700906 364.275039 
L 387.543807 363.062067 
L 388.386707 360.767895 
L 389.229607 358.852286 
L 390.072508 363.123552 
L 390.915408 360.079343 
L 391.758308 363.655008 
L 392.601208 356.479799 
L 394.287009 361.735769 
L 395.97281 360.397664 
L 396.81571 359.507561 
L 397.65861 361.745046 
L 398.501511 361.804769 
L 399.344411 364.390787 
L 400.187311 360.063101 
L 401.030211 361.502007 
L 401.873112 363.335114 
L 402.716012 361.657041 
L 403.558912 361.539893 
L 404.401813 362.873656 
L 405.244713 363.828173 
L 406.087613 357.600247 
L 406.930514 361.004773 
L 407.773414 363.946261 
L 408.616314 358.811303 
L 409.459215 362.213643 
L 410.302115 363.791615 
L 411.145015 363.156248 
L 411.987915 361.311566 
L 412.830816 358.525832 
L 413.673716 356.766762 
L 414.516616 363.3187 
L 415.359517 358.599378 
L 416.202417 357.821963 
L 417.045317 357.565334 
L 417.888218 357.48062 
L 418.731118 356.250732 
L 419.574018 359.585715 
L 420.416918 361.413521 
L 421.259819 362.420513 
L 422.102719 358.539836 
L 422.945619 363.40429 
L 423.78852 362.405339 
L 424.63142 357.376278 
L 425.47432 361.015608 
L 426.317221 361.929937 
L 427.160121 360.880195 
L 428.003021 364.731988 
L 428.845921 363.553454 
L 429.688822 362.945169 
L 430.531722 360.665472 
L 431.374622 363.531904 
L 432.217523 361.096801 
L 433.060423 356.989004 
L 433.903323 361.424552 
L 434.746224 362.865537 
L 435.589124 362.180029 
L 436.432024 357.667275 
L 437.274924 359.983257 
L 438.117825 356.553851 
L 438.960725 361.754107 
L 439.803625 359.556103 
L 440.646526 362.174989 
L 441.489426 360.766178 
L 442.332326 364.155171 
L 443.175227 360.666236 
L 444.018127 360.664796 
L 444.861027 358.332451 
L 445.703927 353.52012 
L 446.546828 357.446026 
L 447.389728 359.944657 
L 448.232628 360.769466 
L 449.075529 362.851433 
L 449.918429 357.856004 
L 450.761329 364.304389 
L 451.60423 359.630535 
L 452.44713 358.150645 
L 453.29003 355.0341 
L 454.132931 364.237341 
L 454.975831 358.942533 
L 455.818731 363.550186 
L 456.661631 362.133549 
L 457.504532 355.325114 
L 458.347432 362.844186 
L 459.190332 361.98787 
L 460.033233 355.382315 
L 460.876133 359.411371 
L 461.719033 361.443417 
L 462.561934 355.453927 
L 463.404834 357.587257 
L 464.247734 362.051349 
L 465.090634 360.816444 
L 465.933535 360.622668 
L 466.776435 358.984928 
L 467.619335 355.809744 
L 468.462236 363.355644 
L 469.305136 364.188304 
L 470.148036 357.657802 
L 470.990937 363.549794 
L 471.833837 361.460926 
L 472.676737 357.239114 
L 473.519637 349.343337 
L 474.362538 345.862945 
L 475.205438 339.934375 
L 476.048338 330.448821 
L 476.891239 326.425153 
L 477.734139 319.020361 
L 478.577039 317.204963 
L 479.41994 314.634483 
L 480.26284 304.383306 
L 481.10574 296.659685 
L 481.94864 292.413192 
L 482.791541 289.210045 
L 485.320242 274.807182 
L 486.163142 273.52274 
L 487.006042 270.555794 
L 487.848943 267.132519 
L 488.691843 266.643625 
L 489.534743 262.401801 
L 490.377644 257.167075 
L 491.220544 252.671097 
L 492.063444 246.826324 
L 492.906344 246.922414 
L 493.749245 247.362158 
L 494.592145 242.657923 
L 496.277946 242.657923 
L 497.120846 238.261947 
L 497.963746 232.368965 
L 499.649547 224.147171 
L 500.492447 223.633446 
L 501.335347 220.353459 
L 502.178248 218.818671 
L 503.021148 216.32563 
L 503.864048 208.431392 
L 504.706949 207.654745 
L 505.549849 204.675725 
L 511.450151 204.675725 
L 512.293051 209.314203 
L 532.522659 209.314203 
L 533.365559 311.045661 
L 534.208459 344.627683 
L 535.89426 364.135111 
L 536.73716 363.641688 
L 537.58006 352.454172 
L 538.422961 364.467055 
L 539.265861 357.602855 
L 540.108761 361.21229 
L 540.951662 363.140005 
L 541.794562 358.348414 
L 546.009063 303.252783 
L 546.851964 296.139525 
L 547.694864 283.367906 
L 548.537764 274.828033 
L 549.380665 263.906293 
L 550.223565 250.764139 
L 551.066465 247.203755 
L 551.909366 240.727147 
L 552.752266 238.587779 
L 553.595166 235.347038 
L 554.438066 230.482671 
L 555.280967 227.668704 
L 556.123867 221.819439 
L 556.966767 219.517626 
L 557.809668 219.656082 
L 558.652568 221.138925 
L 559.495468 219.724523 
L 560.338369 219.484654 
L 561.181269 212.890583 
L 562.024169 315.169673 
L 562.867069 348.626724 
L 563.70997 357.441961 
L 564.55287 359.579214 
L 565.39577 362.102113 
L 566.238671 357.435085 
L 567.081571 362.962481 
L 567.924471 357.044789 
L 568.767372 358.843763 
L 569.610272 362.522712 
L 570.453172 358.06693 
L 571.296073 356.395789 
L 572.138973 361.075404 
L 572.981873 360.046844 
L 573.824773 362.250862 
L 574.667674 364.802884 
L 575.510574 355.966886 
L 576.353474 362.011601 
L 578.039275 363.051391 
L 578.882175 359.76835 
L 579.725076 363.780965 
L 580.567976 364.523202 
L 581.410876 355.65944 
L 583.096677 364.034442 
L 583.939577 361.552692 
L 584.782477 363.152664 
L 585.625378 351.570877 
L 586.468278 343.068354 
L 588.996979 308.485003 
L 589.839879 300.510737 
L 590.682779 289.693114 
L 593.21148 271.046581 
L 594.054381 271.523555 
L 604.169184 271.523555 
L 605.012085 334.730797 
L 605.854985 361.666653 
L 606.697885 359.495222 
L 607.540785 363.130424 
L 608.383686 360.173418 
L 609.226586 358.324555 
L 610.069486 362.372347 
L 610.912387 363.20206 
L 611.755287 359.74076 
L 612.598187 361.643036 
L 613.441088 358.434451 
L 614.283988 361.542296 
L 615.126888 358.836203 
L 615.969789 359.766103 
L 616.812689 362.553843 
L 617.655589 364.828584 
L 618.498489 364.028038 
L 619.34139 359.947147 
L 620.18429 362.079988 
L 621.02719 357.441281 
L 621.870091 361.85988 
L 622.712991 360.304962 
L 623.555891 364.417147 
L 624.398792 358.533931 
L 625.241692 354.650771 
L 640.413897 354.650771 
L 641.256798 360.790267 
L 642.099698 358.763591 
L 642.942598 355.372749 
L 643.785498 354.253416 
L 644.628399 353.883919 
L 646.314199 353.721683 
L 647.1571 361.096963 
L 647.1571 361.096963 
" clip-path="url(#p89179f054d)" style="fill: none; stroke: #c0c0c0; stroke-width: 1.5; stroke-linecap: square"/>
   </g>
   <g id="patch_15">
    <path d="M 90 384.48 
L 90 286.644706 
" style="fill: none; stroke: #000000; stroke-width: 0.8; stroke-linejoin: miter; stroke-linecap: square"/>
   </g>
   <g id="patch_16">
    <path d="M 648 384.48 
L 648 286.644706 
" style="fill: none; stroke: #000000; stroke-width: 0.8; stroke-linejoin: miter; stroke-linecap: square"/>
   </g>
   <g id="patch_17">
    <path d="M 90 384.48 
L 648 384.48 
" style="fill: none; stroke: #000000; stroke-width: 0.8; stroke-linejoin: miter; stroke-linecap: square"/>
   </g>
   <g id="patch_18">
    <path d="M 90 286.644706 
L 648 286.644706 
" style="fill: none; stroke: #000000; stroke-width: 0.8; stroke-linejoin: miter; stroke-linecap: square"/>
   </g>
   <g id="legend_3">
    <g id="patch_19">
     <path d="M 500.4075 313.858456 
L 639.6 313.858456 
Q 642 313.858456 642 311.458456 
L 642 295.044706 
Q 642 292.644706 639.6 292.644706 
L 500.4075 292.644706 
Q 498.0075 292.644706 498.0075 295.044706 
L 498.0075 311.458456 
Q 498.0075 313.858456 500.4075 313.858456 
z
" style="fill: #ffffff; opacity: 0.5; stroke: #cccccc; stroke-linejoin: miter"/>
    </g>
    <g id="line2d_38">
     <path d="M 502.8075 302.362831 
L 514.8075 302.362831 
L 526.8075 302.362831 
" style="fill: none; stroke: #c0c0c0; stroke-width: 1.5; stroke-linecap: square"/>
    </g>
    <g id="text_39">
     <!-- abs(Delta Theta) -->
     <g transform="translate(536.4075 306.562831) scale(0.12 -0.12)">
      <use xlink:href="#DejaVuSans-61"/>
      <use xlink:href="#DejaVuSans-62" x="61.279297"/>
      <use xlink:href="#DejaVuSans-73" x="124.755859"/>
      <use xlink:href="#DejaVuSans-28" x="176.855469"/>
      <use xlink:href="#DejaVuSans-44" x="215.869141"/>
      <use xlink:href="#DejaVuSans-65" x="292.871094"/>
      <use xlink:href="#DejaVuSans-6c" x="354.394531"/>
      <use xlink:href="#DejaVuSans-74" x="382.177734"/>
      <use xlink:href="#DejaVuSans-61" x="421.386719"/>
      <use xlink:href="#DejaVuSans-20" x="482.666016"/>
      <use xlink:href="#DejaVuSans-54" x="514.453125"/>
      <use xlink:href="#DejaVuSans-68" x="575.537109"/>
      <use xlink:href="#DejaVuSans-65" x="638.916016"/>
      <use xlink:href="#DejaVuSans-74" x="700.439453"/>
      <use xlink:href="#DejaVuSans-61" x="739.648438"/>
      <use xlink:href="#DejaVuSans-29" x="800.927734"/>
     </g>
    </g>
   </g>
  </g>
 </g>
 <defs>
  <clipPath id="pd263eec927">
   <rect x="90" y="51.84" width="558" height="97.835294"/>
  </clipPath>
  <clipPath id="p921a3a535f">
   <rect x="90" y="169.242353" width="558" height="97.835294"/>
  </clipPath>
  <clipPath id="p89179f054d">
   <rect x="90" y="286.644706" width="558" height="97.835294"/>
  </clipPath>
 </defs>
</svg>
