<?xml version="1.0" encoding="utf-8" standalone="no"?>
<!DOCTYPE svg PUBLIC "-//W3C//DTD SVG 1.1//EN"
  "http://www.w3.org/Graphics/SVG/1.1/DTD/svg11.dtd">
<svg xmlns:xlink="http://www.w3.org/1999/xlink" width="720pt" height="432pt" viewBox="0 0 720 432" xmlns="http://www.w3.org/2000/svg" version="1.1">
 <metadata>
  <rdf:RDF xmlns:dc="http://purl.org/dc/elements/1.1/" xmlns:cc="http://creativecommons.org/ns#" xmlns:rdf="http://www.w3.org/1999/02/22-rdf-syntax-ns#">
   <cc:Work>
    <dc:type rdf:resource="http://purl.org/dc/dcmitype/StillImage"/>
    <dc:date>2024-05-05T00:35:33.500326</dc:date>
    <dc:format>image/svg+xml</dc:format>
    <dc:creator>
     <cc:Agent>
      <dc:title>Matplotlib v3.8.4, https://matplotlib.org/</dc:title>
     </cc:Agent>
    </dc:creator>
   </cc:Work>
  </rdf:RDF>
 </metadata>
 <defs>
  <style type="text/css">*{stroke-linejoin: round; stroke-linecap: butt}</style>
 </defs>
 <g id="figure_1">
  <g id="patch_1">
   <path d="M 0 432 
L 720 432 
L 720 0 
L 0 0 
z
" style="fill: #ffffff"/>
  </g>
  <g id="axes_1">
   <g id="patch_2">
    <path d="M 90 149.675294 
L 648 149.675294 
L 648 51.84 
L 90 51.84 
z
" style="fill: #ffffff"/>
   </g>
   <g id="matplotlib.axis_1">
    <g id="xtick_1">
     <g id="line2d_1">
      <defs>
       <path id="md568f6e461" d="M 0 0 
L 0 3.5 
" style="stroke: #000000; stroke-width: 0.8"/>
      </defs>
      <g>
       <use xlink:href="#md568f6e461" x="170.902553" y="149.675294" style="stroke: #000000; stroke-width: 0.8"/>
      </g>
     </g>
     <g id="text_1">
      <!-- 100 -->
      <g transform="translate(161.358803 164.273732) scale(0.1 -0.1)">
       <defs>
        <path id="DejaVuSans-31" d="M 794 531 
L 1825 531 
L 1825 4091 
L 703 3866 
L 703 4441 
L 1819 4666 
L 2450 4666 
L 2450 531 
L 3481 531 
L 3481 0 
L 794 0 
L 794 531 
z
" transform="scale(0.015625)"/>
        <path id="DejaVuSans-30" d="M 2034 4250 
Q 1547 4250 1301 3770 
Q 1056 3291 1056 2328 
Q 1056 1369 1301 889 
Q 1547 409 2034 409 
Q 2525 409 2770 889 
Q 3016 1369 3016 2328 
Q 3016 3291 2770 3770 
Q 2525 4250 2034 4250 
z
M 2034 4750 
Q 2819 4750 3233 4129 
Q 3647 3509 3647 2328 
Q 3647 1150 3233 529 
Q 2819 -91 2034 -91 
Q 1250 -91 836 529 
Q 422 1150 422 2328 
Q 422 3509 836 4129 
Q 1250 4750 2034 4750 
z
" transform="scale(0.015625)"/>
       </defs>
       <use xlink:href="#DejaVuSans-31"/>
       <use xlink:href="#DejaVuSans-30" x="63.623047"/>
       <use xlink:href="#DejaVuSans-30" x="127.246094"/>
      </g>
     </g>
    </g>
    <g id="xtick_2">
     <g id="line2d_2">
      <g>
       <use xlink:href="#md568f6e461" x="254.637415" y="149.675294" style="stroke: #000000; stroke-width: 0.8"/>
      </g>
     </g>
     <g id="text_2">
      <!-- 200 -->
      <g transform="translate(245.093665 164.273732) scale(0.1 -0.1)">
       <defs>
        <path id="DejaVuSans-32" d="M 1228 531 
L 3431 531 
L 3431 0 
L 469 0 
L 469 531 
Q 828 903 1448 1529 
Q 2069 2156 2228 2338 
Q 2531 2678 2651 2914 
Q 2772 3150 2772 3378 
Q 2772 3750 2511 3984 
Q 2250 4219 1831 4219 
Q 1534 4219 1204 4116 
Q 875 4013 500 3803 
L 500 4441 
Q 881 4594 1212 4672 
Q 1544 4750 1819 4750 
Q 2544 4750 2975 4387 
Q 3406 4025 3406 3419 
Q 3406 3131 3298 2873 
Q 3191 2616 2906 2266 
Q 2828 2175 2409 1742 
Q 1991 1309 1228 531 
z
" transform="scale(0.015625)"/>
       </defs>
       <use xlink:href="#DejaVuSans-32"/>
       <use xlink:href="#DejaVuSans-30" x="63.623047"/>
       <use xlink:href="#DejaVuSans-30" x="127.246094"/>
      </g>
     </g>
    </g>
    <g id="xtick_3">
     <g id="line2d_3">
      <g>
       <use xlink:href="#md568f6e461" x="338.372278" y="149.675294" style="stroke: #000000; stroke-width: 0.8"/>
      </g>
     </g>
     <g id="text_3">
      <!-- 300 -->
      <g transform="translate(328.828528 164.273732) scale(0.1 -0.1)">
       <defs>
        <path id="DejaVuSans-33" d="M 2597 2516 
Q 3050 2419 3304 2112 
Q 3559 1806 3559 1356 
Q 3559 666 3084 287 
Q 2609 -91 1734 -91 
Q 1441 -91 1130 -33 
Q 819 25 488 141 
L 488 750 
Q 750 597 1062 519 
Q 1375 441 1716 441 
Q 2309 441 2620 675 
Q 2931 909 2931 1356 
Q 2931 1769 2642 2001 
Q 2353 2234 1838 2234 
L 1294 2234 
L 1294 2753 
L 1863 2753 
Q 2328 2753 2575 2939 
Q 2822 3125 2822 3475 
Q 2822 3834 2567 4026 
Q 2313 4219 1838 4219 
Q 1578 4219 1281 4162 
Q 984 4106 628 3988 
L 628 4550 
Q 988 4650 1302 4700 
Q 1616 4750 1894 4750 
Q 2613 4750 3031 4423 
Q 3450 4097 3450 3541 
Q 3450 3153 3228 2886 
Q 3006 2619 2597 2516 
z
" transform="scale(0.015625)"/>
       </defs>
       <use xlink:href="#DejaVuSans-33"/>
       <use xlink:href="#DejaVuSans-30" x="63.623047"/>
       <use xlink:href="#DejaVuSans-30" x="127.246094"/>
      </g>
     </g>
    </g>
    <g id="xtick_4">
     <g id="line2d_4">
      <g>
       <use xlink:href="#md568f6e461" x="422.10714" y="149.675294" style="stroke: #000000; stroke-width: 0.8"/>
      </g>
     </g>
     <g id="text_4">
      <!-- 400 -->
      <g transform="translate(412.56339 164.273732) scale(0.1 -0.1)">
       <defs>
        <path id="DejaVuSans-34" d="M 2419 4116 
L 825 1625 
L 2419 1625 
L 2419 4116 
z
M 2253 4666 
L 3047 4666 
L 3047 1625 
L 3713 1625 
L 3713 1100 
L 3047 1100 
L 3047 0 
L 2419 0 
L 2419 1100 
L 313 1100 
L 313 1709 
L 2253 4666 
z
" transform="scale(0.015625)"/>
       </defs>
       <use xlink:href="#DejaVuSans-34"/>
       <use xlink:href="#DejaVuSans-30" x="63.623047"/>
       <use xlink:href="#DejaVuSans-30" x="127.246094"/>
      </g>
     </g>
    </g>
    <g id="xtick_5">
     <g id="line2d_5">
      <g>
       <use xlink:href="#md568f6e461" x="505.842003" y="149.675294" style="stroke: #000000; stroke-width: 0.8"/>
      </g>
     </g>
     <g id="text_5">
      <!-- 500 -->
      <g transform="translate(496.298253 164.273732) scale(0.1 -0.1)">
       <defs>
        <path id="DejaVuSans-35" d="M 691 4666 
L 3169 4666 
L 3169 4134 
L 1269 4134 
L 1269 2991 
Q 1406 3038 1543 3061 
Q 1681 3084 1819 3084 
Q 2600 3084 3056 2656 
Q 3513 2228 3513 1497 
Q 3513 744 3044 326 
Q 2575 -91 1722 -91 
Q 1428 -91 1123 -41 
Q 819 9 494 109 
L 494 744 
Q 775 591 1075 516 
Q 1375 441 1709 441 
Q 2250 441 2565 725 
Q 2881 1009 2881 1497 
Q 2881 1984 2565 2268 
Q 2250 2553 1709 2553 
Q 1456 2553 1204 2497 
Q 953 2441 691 2322 
L 691 4666 
z
" transform="scale(0.015625)"/>
       </defs>
       <use xlink:href="#DejaVuSans-35"/>
       <use xlink:href="#DejaVuSans-30" x="63.623047"/>
       <use xlink:href="#DejaVuSans-30" x="127.246094"/>
      </g>
     </g>
    </g>
    <g id="xtick_6">
     <g id="line2d_6">
      <g>
       <use xlink:href="#md568f6e461" x="589.576865" y="149.675294" style="stroke: #000000; stroke-width: 0.8"/>
      </g>
     </g>
     <g id="text_6">
      <!-- 600 -->
      <g transform="translate(580.033115 164.273732) scale(0.1 -0.1)">
       <defs>
        <path id="DejaVuSans-36" d="M 2113 2584 
Q 1688 2584 1439 2293 
Q 1191 2003 1191 1497 
Q 1191 994 1439 701 
Q 1688 409 2113 409 
Q 2538 409 2786 701 
Q 3034 994 3034 1497 
Q 3034 2003 2786 2293 
Q 2538 2584 2113 2584 
z
M 3366 4563 
L 3366 3988 
Q 3128 4100 2886 4159 
Q 2644 4219 2406 4219 
Q 1781 4219 1451 3797 
Q 1122 3375 1075 2522 
Q 1259 2794 1537 2939 
Q 1816 3084 2150 3084 
Q 2853 3084 3261 2657 
Q 3669 2231 3669 1497 
Q 3669 778 3244 343 
Q 2819 -91 2113 -91 
Q 1303 -91 875 529 
Q 447 1150 447 2328 
Q 447 3434 972 4092 
Q 1497 4750 2381 4750 
Q 2619 4750 2861 4703 
Q 3103 4656 3366 4563 
z
" transform="scale(0.015625)"/>
       </defs>
       <use xlink:href="#DejaVuSans-36"/>
       <use xlink:href="#DejaVuSans-30" x="63.623047"/>
       <use xlink:href="#DejaVuSans-30" x="127.246094"/>
      </g>
     </g>
    </g>
   </g>
   <g id="matplotlib.axis_2">
    <g id="ytick_1">
     <g id="line2d_7">
      <defs>
       <path id="m4e3243f6f9" d="M 0 0 
L -3.5 0 
" style="stroke: #000000; stroke-width: 0.8"/>
      </defs>
      <g>
       <use xlink:href="#m4e3243f6f9" x="90" y="135.698824" style="stroke: #000000; stroke-width: 0.8"/>
      </g>
     </g>
     <g id="text_7">
      <!-- 0 -->
      <g transform="translate(76.6375 139.498042) scale(0.1 -0.1)">
       <use xlink:href="#DejaVuSans-30"/>
      </g>
     </g>
    </g>
    <g id="ytick_2">
     <g id="line2d_8">
      <g>
       <use xlink:href="#m4e3243f6f9" x="90" y="107.745882" style="stroke: #000000; stroke-width: 0.8"/>
      </g>
     </g>
     <g id="text_8">
      <!-- 10 -->
      <g transform="translate(70.275 111.545101) scale(0.1 -0.1)">
       <use xlink:href="#DejaVuSans-31"/>
       <use xlink:href="#DejaVuSans-30" x="63.623047"/>
      </g>
     </g>
    </g>
    <g id="ytick_3">
     <g id="line2d_9">
      <g>
       <use xlink:href="#m4e3243f6f9" x="90" y="79.792941" style="stroke: #000000; stroke-width: 0.8"/>
      </g>
     </g>
     <g id="text_9">
      <!-- 20 -->
      <g transform="translate(70.275 83.59216) scale(0.1 -0.1)">
       <use xlink:href="#DejaVuSans-32"/>
       <use xlink:href="#DejaVuSans-30" x="63.623047"/>
      </g>
     </g>
    </g>
    <g id="ytick_4">
     <g id="line2d_10">
      <g>
       <use xlink:href="#m4e3243f6f9" x="90" y="51.84" style="stroke: #000000; stroke-width: 0.8"/>
      </g>
     </g>
     <g id="text_10">
      <!-- 30 -->
      <g transform="translate(70.275 55.639219) scale(0.1 -0.1)">
       <use xlink:href="#DejaVuSans-33"/>
       <use xlink:href="#DejaVuSans-30" x="63.623047"/>
      </g>
     </g>
    </g>
    <g id="text_11">
     <!-- Delta X -->
     <g transform="translate(63.363438 126.453116) rotate(-90) scale(0.14 -0.14)">
      <defs>
       <path id="DejaVuSans-44" d="M 1259 4147 
L 1259 519 
L 2022 519 
Q 2988 519 3436 956 
Q 3884 1394 3884 2338 
Q 3884 3275 3436 3711 
Q 2988 4147 2022 4147 
L 1259 4147 
z
M 628 4666 
L 1925 4666 
Q 3281 4666 3915 4102 
Q 4550 3538 4550 2338 
Q 4550 1131 3912 565 
Q 3275 0 1925 0 
L 628 0 
L 628 4666 
z
" transform="scale(0.015625)"/>
       <path id="DejaVuSans-65" d="M 3597 1894 
L 3597 1613 
L 953 1613 
Q 991 1019 1311 708 
Q 1631 397 2203 397 
Q 2534 397 2845 478 
Q 3156 559 3463 722 
L 3463 178 
Q 3153 47 2828 -22 
Q 2503 -91 2169 -91 
Q 1331 -91 842 396 
Q 353 884 353 1716 
Q 353 2575 817 3079 
Q 1281 3584 2069 3584 
Q 2775 3584 3186 3129 
Q 3597 2675 3597 1894 
z
M 3022 2063 
Q 3016 2534 2758 2815 
Q 2500 3097 2075 3097 
Q 1594 3097 1305 2825 
Q 1016 2553 972 2059 
L 3022 2063 
z
" transform="scale(0.015625)"/>
       <path id="DejaVuSans-6c" d="M 603 4863 
L 1178 4863 
L 1178 0 
L 603 0 
L 603 4863 
z
" transform="scale(0.015625)"/>
       <path id="DejaVuSans-74" d="M 1172 4494 
L 1172 3500 
L 2356 3500 
L 2356 3053 
L 1172 3053 
L 1172 1153 
Q 1172 725 1289 603 
Q 1406 481 1766 481 
L 2356 481 
L 2356 0 
L 1766 0 
Q 1100 0 847 248 
Q 594 497 594 1153 
L 594 3053 
L 172 3053 
L 172 3500 
L 594 3500 
L 594 4494 
L 1172 4494 
z
" transform="scale(0.015625)"/>
       <path id="DejaVuSans-61" d="M 2194 1759 
Q 1497 1759 1228 1600 
Q 959 1441 959 1056 
Q 959 750 1161 570 
Q 1363 391 1709 391 
Q 2188 391 2477 730 
Q 2766 1069 2766 1631 
L 2766 1759 
L 2194 1759 
z
M 3341 1997 
L 3341 0 
L 2766 0 
L 2766 531 
Q 2569 213 2275 61 
Q 1981 -91 1556 -91 
Q 1019 -91 701 211 
Q 384 513 384 1019 
Q 384 1609 779 1909 
Q 1175 2209 1959 2209 
L 2766 2209 
L 2766 2266 
Q 2766 2663 2505 2880 
Q 2244 3097 1772 3097 
Q 1472 3097 1187 3025 
Q 903 2953 641 2809 
L 641 3341 
Q 956 3463 1253 3523 
Q 1550 3584 1831 3584 
Q 2591 3584 2966 3190 
Q 3341 2797 3341 1997 
z
" transform="scale(0.015625)"/>
       <path id="DejaVuSans-20" transform="scale(0.015625)"/>
       <path id="DejaVuSans-58" d="M 403 4666 
L 1081 4666 
L 2241 2931 
L 3406 4666 
L 4084 4666 
L 2584 2425 
L 4184 0 
L 3506 0 
L 2194 1984 
L 872 0 
L 191 0 
L 1856 2491 
L 403 4666 
z
" transform="scale(0.015625)"/>
      </defs>
      <use xlink:href="#DejaVuSans-44"/>
      <use xlink:href="#DejaVuSans-65" x="77.001953"/>
      <use xlink:href="#DejaVuSans-6c" x="138.525391"/>
      <use xlink:href="#DejaVuSans-74" x="166.308594"/>
      <use xlink:href="#DejaVuSans-61" x="205.517578"/>
      <use xlink:href="#DejaVuSans-20" x="266.796875"/>
      <use xlink:href="#DejaVuSans-58" x="298.583984"/>
     </g>
    </g>
   </g>
   <g id="line2d_11">
    <path d="M 90 135.698824 
L 106.858006 135.6233 
L 109.386707 135.488801 
L 121.187311 135.603615 
L 127.087613 135.38965 
L 128.773414 135.568908 
L 131.302115 135.676125 
L 132.145015 135.478792 
L 134.673716 135.635873 
L 137.202417 135.696742 
L 140.574018 135.603193 
L 141.416918 135.693952 
L 143.945619 135.631088 
L 145.63142 135.695052 
L 147.317221 135.692059 
L 161.646526 135.519909 
L 162.489426 134.223646 
L 163.332326 133.587855 
L 164.175227 131.619609 
L 165.018127 133.246235 
L 166.703927 133.315614 
L 167.546828 133.513731 
L 168.389728 132.064481 
L 169.232628 133.581721 
L 170.075529 134.382042 
L 170.918429 134.451362 
L 171.761329 132.97192 
L 172.60423 134.010988 
L 173.44713 134.656125 
L 175.132931 135.294533 
L 176.818731 135.516387 
L 178.504532 135.655314 
L 183.561934 135.445489 
L 185.247734 135.278021 
L 187.776435 135.629533 
L 189.462236 135.594968 
L 190.305136 135.476557 
L 191.148036 135.658821 
L 192.833837 135.407098 
L 194.519637 135.608738 
L 195.362538 135.696754 
L 196.205438 135.574821 
L 197.048338 135.688153 
L 197.891239 135.486439 
L 198.734139 135.610205 
L 200.41994 135.35257 
L 202.10574 135.6411 
L 202.94864 135.674398 
L 204.634441 135.40587 
L 205.477341 135.54902 
L 207.163142 135.320861 
L 208.006042 135.491815 
L 209.691843 135.296251 
L 210.534743 135.476042 
L 211.377644 135.418352 
L 212.220544 135.656383 
L 213.906344 135.679257 
L 216.435045 135.315683 
L 218.120846 135.439809 
L 220.649547 135.209811 
L 221.492447 135.210759 
L 223.178248 135.406433 
L 224.864048 135.292822 
L 233.293051 135.620531 
L 236.664653 135.648604 
L 240.036254 135.654777 
L 255.208459 135.434218 
L 256.89426 135.677846 
L 259.422961 135.483568 
L 261.951662 135.308282 
L 262.794562 135.189585 
L 265.323263 135.50032 
L 267.851964 135.390093 
L 271.223565 135.192173 
L 277.966767 135.127815 
L 303.253776 135.206383 
L 304.939577 135.415989 
L 305.782477 135.617784 
L 310.839879 135.547552 
L 313.36858 135.471358 
L 315.897281 135.509918 
L 318.425982 135.473158 
L 320.954683 135.523956 
L 323.483384 135.504124 
L 326.012085 135.556469 
L 328.540785 135.552482 
L 331.069486 135.651122 
L 401.030211 135.674677 
L 404.401813 135.665452 
L 406.087613 135.645335 
L 406.930514 135.530888 
L 408.616314 135.519185 
L 409.459215 135.420858 
L 411.145015 135.489437 
L 411.987915 135.404993 
L 413.673716 135.612268 
L 415.359517 135.58391 
L 418.731118 135.337447 
L 420.416918 135.470131 
L 421.259819 135.611669 
L 422.102719 135.604245 
L 422.945619 135.39263 
L 442.332326 135.632898 
L 444.018127 135.61809 
L 446.546828 135.491274 
L 448.232628 135.68761 
L 450.761329 135.55744 
L 452.44713 135.564076 
L 454.132931 135.454822 
L 454.975831 135.429216 
L 456.661631 135.593123 
L 460.033233 135.399807 
L 460.876133 135.28864 
L 462.561934 135.31282 
L 463.404834 135.219774 
L 465.933535 135.429714 
L 466.776435 135.529034 
L 467.619335 135.509174 
L 468.462236 135.368368 
L 470.990937 135.482677 
L 471.833837 135.566116 
L 472.676737 135.532872 
L 474.362538 135.678949 
L 475.205438 135.61504 
L 476.891239 135.68107 
L 477.734139 135.641195 
L 478.577039 135.461946 
L 480.26284 135.39989 
L 481.10574 135.277953 
L 483.634441 135.455127 
L 485.320242 135.530872 
L 486.163142 135.409966 
L 488.691843 135.519375 
L 489.534743 135.475515 
L 492.063444 135.673833 
L 494.592145 135.595568 
L 495.435045 135.506887 
L 496.277946 135.603908 
L 497.120846 135.535982 
L 499.649547 135.620216 
L 501.335347 135.593606 
L 510.607251 135.581597 
L 534.208459 135.530409 
L 535.05136 124.386125 
L 535.89426 119.054044 
L 536.73716 115.663889 
L 538.422961 113.935372 
L 539.265861 123.213517 
L 540.108761 119.549683 
L 540.951662 126.444952 
L 541.794562 121.022226 
L 542.637462 117.821162 
L 543.480363 125.501296 
L 544.323263 129.892622 
L 545.166163 132.401801 
L 546.009063 133.85177 
L 546.851964 134.688076 
L 547.694864 135.156239 
L 548.537764 135.45786 
L 549.380665 135.636817 
L 550.223565 135.680825 
L 552.752266 135.514229 
L 555.280967 135.577418 
L 557.809668 135.46688 
L 559.495468 135.579021 
L 561.181269 135.486338 
L 562.024169 135.371961 
L 565.39577 135.544105 
L 566.238671 135.466562 
L 567.924471 135.694257 
L 569.610272 135.65034 
L 570.453172 135.675234 
L 571.296073 135.551678 
L 572.981873 135.658121 
L 574.667674 135.627671 
L 575.510574 132.779007 
L 576.353474 131.154207 
L 577.196375 130.639665 
L 578.039275 130.513092 
L 578.882175 130.714259 
L 579.725076 131.124563 
L 581.410876 132.320525 
L 582.253776 134.686713 
L 583.096677 135.241894 
L 583.939577 135.542156 
L 584.782477 135.640515 
L 593.21148 135.465898 
L 595.740181 135.679292 
L 601.640483 135.696189 
L 605.012085 135.650553 
L 609.226586 135.422897 
L 610.912387 135.498263 
L 611.755287 135.422682 
L 613.441088 135.497782 
L 614.283988 135.417145 
L 615.969789 135.493569 
L 616.812689 135.410579 
L 618.498489 135.488666 
L 619.34139 135.405417 
L 621.02719 135.486464 
L 621.870091 135.403281 
L 624.398792 135.515687 
L 625.241692 135.422684 
L 626.084592 135.622534 
L 626.927492 135.537159 
L 628.613293 135.161097 
L 631.141994 134.89425 
L 632.827795 135.506978 
L 633.670695 135.583822 
L 635.356495 135.161092 
L 637.885196 134.886823 
L 641.256798 134.794612 
L 642.099698 135.101595 
L 643.785498 135.106029 
L 647.1571 134.866934 
L 647.1571 134.866934 
" clip-path="url(#p15d5b101ec)" style="fill: none; stroke: #bc8f8f; stroke-width: 1.5; stroke-linecap: square"/>
   </g>
   <g id="patch_3">
    <path d="M 90 149.675294 
L 90 51.84 
" style="fill: none; stroke: #000000; stroke-width: 0.8; stroke-linejoin: miter; stroke-linecap: square"/>
   </g>
   <g id="patch_4">
    <path d="M 648 149.675294 
L 648 51.84 
" style="fill: none; stroke: #000000; stroke-width: 0.8; stroke-linejoin: miter; stroke-linecap: square"/>
   </g>
   <g id="patch_5">
    <path d="M 90 149.675294 
L 648 149.675294 
" style="fill: none; stroke: #000000; stroke-width: 0.8; stroke-linejoin: miter; stroke-linecap: square"/>
   </g>
   <g id="patch_6">
    <path d="M 90 51.84 
L 648 51.84 
" style="fill: none; stroke: #000000; stroke-width: 0.8; stroke-linejoin: miter; stroke-linecap: square"/>
   </g>
   <g id="legend_1">
    <g id="patch_7">
     <path d="M 526.56375 79.05375 
L 639.6 79.05375 
Q 642 79.05375 642 76.65375 
L 642 60.24 
Q 642 57.84 639.6 57.84 
L 526.56375 57.84 
Q 524.16375 57.84 524.16375 60.24 
L 524.16375 76.65375 
Q 524.16375 79.05375 526.56375 79.05375 
z
" style="fill: #ffffff; opacity: 0.5; stroke: #cccccc; stroke-linejoin: miter"/>
    </g>
    <g id="line2d_12">
     <path d="M 528.96375 67.558125 
L 540.96375 67.558125 
L 552.96375 67.558125 
" style="fill: none; stroke: #bc8f8f; stroke-width: 1.5; stroke-linecap: square"/>
    </g>
    <g id="text_12">
     <!-- abs(Delta X) -->
     <g transform="translate(562.56375 71.758125) scale(0.12 -0.12)">
      <defs>
       <path id="DejaVuSans-62" d="M 3116 1747 
Q 3116 2381 2855 2742 
Q 2594 3103 2138 3103 
Q 1681 3103 1420 2742 
Q 1159 2381 1159 1747 
Q 1159 1113 1420 752 
Q 1681 391 2138 391 
Q 2594 391 2855 752 
Q 3116 1113 3116 1747 
z
M 1159 2969 
Q 1341 3281 1617 3432 
Q 1894 3584 2278 3584 
Q 2916 3584 3314 3078 
Q 3713 2572 3713 1747 
Q 3713 922 3314 415 
Q 2916 -91 2278 -91 
Q 1894 -91 1617 61 
Q 1341 213 1159 525 
L 1159 0 
L 581 0 
L 581 4863 
L 1159 4863 
L 1159 2969 
z
" transform="scale(0.015625)"/>
       <path id="DejaVuSans-73" d="M 2834 3397 
L 2834 2853 
Q 2591 2978 2328 3040 
Q 2066 3103 1784 3103 
Q 1356 3103 1142 2972 
Q 928 2841 928 2578 
Q 928 2378 1081 2264 
Q 1234 2150 1697 2047 
L 1894 2003 
Q 2506 1872 2764 1633 
Q 3022 1394 3022 966 
Q 3022 478 2636 193 
Q 2250 -91 1575 -91 
Q 1294 -91 989 -36 
Q 684 19 347 128 
L 347 722 
Q 666 556 975 473 
Q 1284 391 1588 391 
Q 1994 391 2212 530 
Q 2431 669 2431 922 
Q 2431 1156 2273 1281 
Q 2116 1406 1581 1522 
L 1381 1569 
Q 847 1681 609 1914 
Q 372 2147 372 2553 
Q 372 3047 722 3315 
Q 1072 3584 1716 3584 
Q 2034 3584 2315 3537 
Q 2597 3491 2834 3397 
z
" transform="scale(0.015625)"/>
       <path id="DejaVuSans-28" d="M 1984 4856 
Q 1566 4138 1362 3434 
Q 1159 2731 1159 2009 
Q 1159 1288 1364 580 
Q 1569 -128 1984 -844 
L 1484 -844 
Q 1016 -109 783 600 
Q 550 1309 550 2009 
Q 550 2706 781 3412 
Q 1013 4119 1484 4856 
L 1984 4856 
z
" transform="scale(0.015625)"/>
       <path id="DejaVuSans-29" d="M 513 4856 
L 1013 4856 
Q 1481 4119 1714 3412 
Q 1947 2706 1947 2009 
Q 1947 1309 1714 600 
Q 1481 -109 1013 -844 
L 513 -844 
Q 928 -128 1133 580 
Q 1338 1288 1338 2009 
Q 1338 2731 1133 3434 
Q 928 4138 513 4856 
z
" transform="scale(0.015625)"/>
      </defs>
      <use xlink:href="#DejaVuSans-61"/>
      <use xlink:href="#DejaVuSans-62" x="61.279297"/>
      <use xlink:href="#DejaVuSans-73" x="124.755859"/>
      <use xlink:href="#DejaVuSans-28" x="176.855469"/>
      <use xlink:href="#DejaVuSans-44" x="215.869141"/>
      <use xlink:href="#DejaVuSans-65" x="292.871094"/>
      <use xlink:href="#DejaVuSans-6c" x="354.394531"/>
      <use xlink:href="#DejaVuSans-74" x="382.177734"/>
      <use xlink:href="#DejaVuSans-61" x="421.386719"/>
      <use xlink:href="#DejaVuSans-20" x="482.666016"/>
      <use xlink:href="#DejaVuSans-58" x="514.453125"/>
      <use xlink:href="#DejaVuSans-29" x="582.958984"/>
     </g>
    </g>
   </g>
  </g>
  <g id="axes_2">
   <g id="patch_8">
    <path d="M 90 267.077647 
L 648 267.077647 
L 648 169.242353 
L 90 169.242353 
z
" style="fill: #ffffff"/>
   </g>
   <g id="matplotlib.axis_3">
    <g id="xtick_7">
     <g id="line2d_13">
      <g>
       <use xlink:href="#md568f6e461" x="170.902553" y="267.077647" style="stroke: #000000; stroke-width: 0.8"/>
      </g>
     </g>
     <g id="text_13">
      <!-- 100 -->
      <g transform="translate(161.358803 281.676085) scale(0.1 -0.1)">
       <use xlink:href="#DejaVuSans-31"/>
       <use xlink:href="#DejaVuSans-30" x="63.623047"/>
       <use xlink:href="#DejaVuSans-30" x="127.246094"/>
      </g>
     </g>
    </g>
    <g id="xtick_8">
     <g id="line2d_14">
      <g>
       <use xlink:href="#md568f6e461" x="254.637415" y="267.077647" style="stroke: #000000; stroke-width: 0.8"/>
      </g>
     </g>
     <g id="text_14">
      <!-- 200 -->
      <g transform="translate(245.093665 281.676085) scale(0.1 -0.1)">
       <use xlink:href="#DejaVuSans-32"/>
       <use xlink:href="#DejaVuSans-30" x="63.623047"/>
       <use xlink:href="#DejaVuSans-30" x="127.246094"/>
      </g>
     </g>
    </g>
    <g id="xtick_9">
     <g id="line2d_15">
      <g>
       <use xlink:href="#md568f6e461" x="338.372278" y="267.077647" style="stroke: #000000; stroke-width: 0.8"/>
      </g>
     </g>
     <g id="text_15">
      <!-- 300 -->
      <g transform="translate(328.828528 281.676085) scale(0.1 -0.1)">
       <use xlink:href="#DejaVuSans-33"/>
       <use xlink:href="#DejaVuSans-30" x="63.623047"/>
       <use xlink:href="#DejaVuSans-30" x="127.246094"/>
      </g>
     </g>
    </g>
    <g id="xtick_10">
     <g id="line2d_16">
      <g>
       <use xlink:href="#md568f6e461" x="422.10714" y="267.077647" style="stroke: #000000; stroke-width: 0.8"/>
      </g>
     </g>
     <g id="text_16">
      <!-- 400 -->
      <g transform="translate(412.56339 281.676085) scale(0.1 -0.1)">
       <use xlink:href="#DejaVuSans-34"/>
       <use xlink:href="#DejaVuSans-30" x="63.623047"/>
       <use xlink:href="#DejaVuSans-30" x="127.246094"/>
      </g>
     </g>
    </g>
    <g id="xtick_11">
     <g id="line2d_17">
      <g>
       <use xlink:href="#md568f6e461" x="505.842003" y="267.077647" style="stroke: #000000; stroke-width: 0.8"/>
      </g>
     </g>
     <g id="text_17">
      <!-- 500 -->
      <g transform="translate(496.298253 281.676085) scale(0.1 -0.1)">
       <use xlink:href="#DejaVuSans-35"/>
       <use xlink:href="#DejaVuSans-30" x="63.623047"/>
       <use xlink:href="#DejaVuSans-30" x="127.246094"/>
      </g>
     </g>
    </g>
    <g id="xtick_12">
     <g id="line2d_18">
      <g>
       <use xlink:href="#md568f6e461" x="589.576865" y="267.077647" style="stroke: #000000; stroke-width: 0.8"/>
      </g>
     </g>
     <g id="text_18">
      <!-- 600 -->
      <g transform="translate(580.033115 281.676085) scale(0.1 -0.1)">
       <use xlink:href="#DejaVuSans-36"/>
       <use xlink:href="#DejaVuSans-30" x="63.623047"/>
       <use xlink:href="#DejaVuSans-30" x="127.246094"/>
      </g>
     </g>
    </g>
   </g>
   <g id="matplotlib.axis_4">
    <g id="ytick_5">
     <g id="line2d_19">
      <g>
       <use xlink:href="#m4e3243f6f9" x="90" y="253.101176" style="stroke: #000000; stroke-width: 0.8"/>
      </g>
     </g>
     <g id="text_19">
      <!-- 0 -->
      <g transform="translate(76.6375 256.900395) scale(0.1 -0.1)">
       <use xlink:href="#DejaVuSans-30"/>
      </g>
     </g>
    </g>
    <g id="ytick_6">
     <g id="line2d_20">
      <g>
       <use xlink:href="#m4e3243f6f9" x="90" y="225.148235" style="stroke: #000000; stroke-width: 0.8"/>
      </g>
     </g>
     <g id="text_20">
      <!-- 10 -->
      <g transform="translate(70.275 228.947454) scale(0.1 -0.1)">
       <use xlink:href="#DejaVuSans-31"/>
       <use xlink:href="#DejaVuSans-30" x="63.623047"/>
      </g>
     </g>
    </g>
    <g id="ytick_7">
     <g id="line2d_21">
      <g>
       <use xlink:href="#m4e3243f6f9" x="90" y="197.195294" style="stroke: #000000; stroke-width: 0.8"/>
      </g>
     </g>
     <g id="text_21">
      <!-- 20 -->
      <g transform="translate(70.275 200.994513) scale(0.1 -0.1)">
       <use xlink:href="#DejaVuSans-32"/>
       <use xlink:href="#DejaVuSans-30" x="63.623047"/>
      </g>
     </g>
    </g>
    <g id="ytick_8">
     <g id="line2d_22">
      <g>
       <use xlink:href="#m4e3243f6f9" x="90" y="169.242353" style="stroke: #000000; stroke-width: 0.8"/>
      </g>
     </g>
     <g id="text_22">
      <!-- 30 -->
      <g transform="translate(70.275 173.041572) scale(0.1 -0.1)">
       <use xlink:href="#DejaVuSans-33"/>
       <use xlink:href="#DejaVuSans-30" x="63.623047"/>
      </g>
     </g>
    </g>
    <g id="text_23">
     <!-- Delta Y -->
     <g transform="translate(63.363438 243.335938) rotate(-90) scale(0.14 -0.14)">
      <defs>
       <path id="DejaVuSans-59" d="M -13 4666 
L 666 4666 
L 1959 2747 
L 3244 4666 
L 3922 4666 
L 2272 2222 
L 2272 0 
L 1638 0 
L 1638 2222 
L -13 4666 
z
" transform="scale(0.015625)"/>
      </defs>
      <use xlink:href="#DejaVuSans-44"/>
      <use xlink:href="#DejaVuSans-65" x="77.001953"/>
      <use xlink:href="#DejaVuSans-6c" x="138.525391"/>
      <use xlink:href="#DejaVuSans-74" x="166.308594"/>
      <use xlink:href="#DejaVuSans-61" x="205.517578"/>
      <use xlink:href="#DejaVuSans-20" x="266.796875"/>
      <use xlink:href="#DejaVuSans-59" x="298.583984"/>
     </g>
    </g>
   </g>
   <g id="line2d_23">
    <path d="M 90 253.101176 
L 103.486405 253.030869 
L 106.015106 252.944364 
L 107.700906 252.919811 
L 109.386707 252.914957 
L 114.444109 253.089819 
L 121.187311 253.05375 
L 127.087613 252.99492 
L 129.616314 253.077616 
L 133.830816 253.068781 
L 138.045317 253.087589 
L 142.259819 253.076032 
L 149.003021 253.070757 
L 150.688822 253.049843 
L 152.374622 253.070143 
L 154.903323 253.048274 
L 158.274924 253.04042 
L 161.646526 253.038326 
L 162.489426 252.777633 
L 164.175227 252.719194 
L 165.018127 252.901709 
L 166.703927 252.854342 
L 173.44713 253.081942 
L 182.719033 253.075676 
L 190.305136 253.087199 
L 197.048338 253.098325 
L 204.634441 253.088185 
L 215.592145 253.095884 
L 240.879154 252.951789 
L 242.564955 252.98711 
L 283.024169 252.978209 
L 304.939577 253.056353 
L 307.468278 253.094585 
L 320.111782 253.04573 
L 326.012085 253.033113 
L 328.540785 252.993934 
L 331.069486 253.069485 
L 340.34139 253.04917 
L 342.870091 253.015991 
L 343.712991 252.970935 
L 345.398792 253.087795 
L 348.770393 253.013136 
L 350.456193 253.065341 
L 356.356495 253.037043 
L 363.099698 253.081265 
L 363.942598 252.956482 
L 365.628399 252.991938 
L 366.471299 252.927411 
L 368.1571 253.078757 
L 372.371601 252.986678 
L 374.900302 252.868062 
L 375.743202 252.789091 
L 377.429003 252.907902 
L 379.114804 252.949453 
L 382.486405 252.995078 
L 384.172205 252.992519 
L 390.072508 253.017194 
L 391.758308 253.012879 
L 406.087613 253.090892 
L 410.302115 253.081475 
L 424.63142 253.085665 
L 435.589124 253.015014 
L 439.803625 253.034192 
L 441.489426 253.047604 
L 443.175227 253.088558 
L 446.546828 252.973285 
L 448.232628 253.074698 
L 449.918429 252.947678 
L 452.44713 253.022647 
L 454.132931 252.974044 
L 465.090634 253.028217 
L 468.462236 253.067137 
L 479.41994 253.059496 
L 489.534743 253.014786 
L 492.063444 253.073096 
L 494.592145 253.037051 
L 495.435045 252.989869 
L 496.277946 253.064847 
L 497.963746 253.049221 
L 499.649547 253.062802 
L 501.335347 253.040399 
L 513.978852 252.965515 
L 519.036254 252.960664 
L 534.208459 252.963903 
L 535.05136 250.64936 
L 535.89426 249.783584 
L 536.73716 249.57856 
L 538.422961 249.900265 
L 539.265861 251.928144 
L 540.108761 252.63073 
L 540.951662 253.051214 
L 541.794562 252.206924 
L 542.637462 252.866903 
L 549.380665 252.903757 
L 551.909366 252.958229 
L 553.595166 252.997917 
L 555.280967 253.028186 
L 557.809668 252.974525 
L 559.495468 253.052648 
L 563.70997 253.038304 
L 570.453172 253.088435 
L 572.138973 253.084101 
L 574.667674 253.080378 
L 575.510574 244.088108 
L 576.353474 240.290806 
L 577.196375 239.556631 
L 578.039275 239.094656 
L 578.882175 239.81113 
L 579.725076 239.932216 
L 580.567976 240.960238 
L 581.410876 241.272446 
L 582.253776 241.333615 
L 583.096677 248.24961 
L 583.939577 251.105164 
L 584.782477 252.282275 
L 585.625378 252.779701 
L 586.468278 252.986881 
L 588.154079 253.08604 
L 594.054381 253.063068 
L 596.583082 253.09323 
L 605.854985 253.044578 
L 607.540785 253.021011 
L 620.18429 253.08942 
L 636.199396 253.069013 
L 647.1571 253.065457 
L 647.1571 253.065457 
" clip-path="url(#pa9b2531aa7)" style="fill: none; stroke: #c0c0c0; stroke-width: 1.5; stroke-linecap: square"/>
   </g>
   <g id="patch_9">
    <path d="M 90 267.077647 
L 90 169.242353 
" style="fill: none; stroke: #000000; stroke-width: 0.8; stroke-linejoin: miter; stroke-linecap: square"/>
   </g>
   <g id="patch_10">
    <path d="M 648 267.077647 
L 648 169.242353 
" style="fill: none; stroke: #000000; stroke-width: 0.8; stroke-linejoin: miter; stroke-linecap: square"/>
   </g>
   <g id="patch_11">
    <path d="M 90 267.077647 
L 648 267.077647 
" style="fill: none; stroke: #000000; stroke-width: 0.8; stroke-linejoin: miter; stroke-linecap: square"/>
   </g>
   <g id="patch_12">
    <path d="M 90 169.242353 
L 648 169.242353 
" style="fill: none; stroke: #000000; stroke-width: 0.8; stroke-linejoin: miter; stroke-linecap: square"/>
   </g>
   <g id="legend_2">
    <g id="patch_13">
     <path d="M 527.454375 196.456103 
L 639.6 196.456103 
Q 642 196.456103 642 194.056103 
L 642 177.642353 
Q 642 175.242353 639.6 175.242353 
L 527.454375 175.242353 
Q 525.054375 175.242353 525.054375 177.642353 
L 525.054375 194.056103 
Q 525.054375 196.456103 527.454375 196.456103 
z
" style="fill: #ffffff; opacity: 0.5; stroke: #cccccc; stroke-linejoin: miter"/>
    </g>
    <g id="line2d_24">
     <path d="M 529.854375 184.960478 
L 541.854375 184.960478 
L 553.854375 184.960478 
" style="fill: none; stroke: #c0c0c0; stroke-width: 1.5; stroke-linecap: square"/>
    </g>
    <g id="text_24">
     <!-- abs(Delta Y) -->
     <g transform="translate(563.454375 189.160478) scale(0.12 -0.12)">
      <use xlink:href="#DejaVuSans-61"/>
      <use xlink:href="#DejaVuSans-62" x="61.279297"/>
      <use xlink:href="#DejaVuSans-73" x="124.755859"/>
      <use xlink:href="#DejaVuSans-28" x="176.855469"/>
      <use xlink:href="#DejaVuSans-44" x="215.869141"/>
      <use xlink:href="#DejaVuSans-65" x="292.871094"/>
      <use xlink:href="#DejaVuSans-6c" x="354.394531"/>
      <use xlink:href="#DejaVuSans-74" x="382.177734"/>
      <use xlink:href="#DejaVuSans-61" x="421.386719"/>
      <use xlink:href="#DejaVuSans-20" x="482.666016"/>
      <use xlink:href="#DejaVuSans-59" x="514.453125"/>
      <use xlink:href="#DejaVuSans-29" x="575.537109"/>
     </g>
    </g>
   </g>
  </g>
  <g id="axes_3">
   <g id="patch_14">
    <path d="M 90 384.48 
L 648 384.48 
L 648 286.644706 
L 90 286.644706 
z
" style="fill: #ffffff"/>
   </g>
   <g id="matplotlib.axis_5">
    <g id="xtick_13">
     <g id="line2d_25">
      <g>
       <use xlink:href="#md568f6e461" x="170.902553" y="384.48" style="stroke: #000000; stroke-width: 0.8"/>
      </g>
     </g>
     <g id="text_25">
      <!-- 100 -->
      <g transform="translate(161.358803 399.078438) scale(0.1 -0.1)">
       <use xlink:href="#DejaVuSans-31"/>
       <use xlink:href="#DejaVuSans-30" x="63.623047"/>
       <use xlink:href="#DejaVuSans-30" x="127.246094"/>
      </g>
     </g>
    </g>
    <g id="xtick_14">
     <g id="line2d_26">
      <g>
       <use xlink:href="#md568f6e461" x="254.637415" y="384.48" style="stroke: #000000; stroke-width: 0.8"/>
      </g>
     </g>
     <g id="text_26">
      <!-- 200 -->
      <g transform="translate(245.093665 399.078438) scale(0.1 -0.1)">
       <use xlink:href="#DejaVuSans-32"/>
       <use xlink:href="#DejaVuSans-30" x="63.623047"/>
       <use xlink:href="#DejaVuSans-30" x="127.246094"/>
      </g>
     </g>
    </g>
    <g id="xtick_15">
     <g id="line2d_27">
      <g>
       <use xlink:href="#md568f6e461" x="338.372278" y="384.48" style="stroke: #000000; stroke-width: 0.8"/>
      </g>
     </g>
     <g id="text_27">
      <!-- 300 -->
      <g transform="translate(328.828528 399.078438) scale(0.1 -0.1)">
       <use xlink:href="#DejaVuSans-33"/>
       <use xlink:href="#DejaVuSans-30" x="63.623047"/>
       <use xlink:href="#DejaVuSans-30" x="127.246094"/>
      </g>
     </g>
    </g>
    <g id="xtick_16">
     <g id="line2d_28">
      <g>
       <use xlink:href="#md568f6e461" x="422.10714" y="384.48" style="stroke: #000000; stroke-width: 0.8"/>
      </g>
     </g>
     <g id="text_28">
      <!-- 400 -->
      <g transform="translate(412.56339 399.078438) scale(0.1 -0.1)">
       <use xlink:href="#DejaVuSans-34"/>
       <use xlink:href="#DejaVuSans-30" x="63.623047"/>
       <use xlink:href="#DejaVuSans-30" x="127.246094"/>
      </g>
     </g>
    </g>
    <g id="xtick_17">
     <g id="line2d_29">
      <g>
       <use xlink:href="#md568f6e461" x="505.842003" y="384.48" style="stroke: #000000; stroke-width: 0.8"/>
      </g>
     </g>
     <g id="text_29">
      <!-- 500 -->
      <g transform="translate(496.298253 399.078438) scale(0.1 -0.1)">
       <use xlink:href="#DejaVuSans-35"/>
       <use xlink:href="#DejaVuSans-30" x="63.623047"/>
       <use xlink:href="#DejaVuSans-30" x="127.246094"/>
      </g>
     </g>
    </g>
    <g id="xtick_18">
     <g id="line2d_30">
      <g>
       <use xlink:href="#md568f6e461" x="589.576865" y="384.48" style="stroke: #000000; stroke-width: 0.8"/>
      </g>
     </g>
     <g id="text_30">
      <!-- 600 -->
      <g transform="translate(580.033115 399.078438) scale(0.1 -0.1)">
       <use xlink:href="#DejaVuSans-36"/>
       <use xlink:href="#DejaVuSans-30" x="63.623047"/>
       <use xlink:href="#DejaVuSans-30" x="127.246094"/>
      </g>
     </g>
    </g>
    <g id="text_31">
     <!-- Time step -->
     <g transform="translate(334.506406 421.795937) scale(0.14 -0.14)">
      <defs>
       <path id="DejaVuSans-54" d="M -19 4666 
L 3928 4666 
L 3928 4134 
L 2272 4134 
L 2272 0 
L 1638 0 
L 1638 4134 
L -19 4134 
L -19 4666 
z
" transform="scale(0.015625)"/>
       <path id="DejaVuSans-69" d="M 603 3500 
L 1178 3500 
L 1178 0 
L 603 0 
L 603 3500 
z
M 603 4863 
L 1178 4863 
L 1178 4134 
L 603 4134 
L 603 4863 
z
" transform="scale(0.015625)"/>
       <path id="DejaVuSans-6d" d="M 3328 2828 
Q 3544 3216 3844 3400 
Q 4144 3584 4550 3584 
Q 5097 3584 5394 3201 
Q 5691 2819 5691 2113 
L 5691 0 
L 5113 0 
L 5113 2094 
Q 5113 2597 4934 2840 
Q 4756 3084 4391 3084 
Q 3944 3084 3684 2787 
Q 3425 2491 3425 1978 
L 3425 0 
L 2847 0 
L 2847 2094 
Q 2847 2600 2669 2842 
Q 2491 3084 2119 3084 
Q 1678 3084 1418 2786 
Q 1159 2488 1159 1978 
L 1159 0 
L 581 0 
L 581 3500 
L 1159 3500 
L 1159 2956 
Q 1356 3278 1631 3431 
Q 1906 3584 2284 3584 
Q 2666 3584 2933 3390 
Q 3200 3197 3328 2828 
z
" transform="scale(0.015625)"/>
       <path id="DejaVuSans-70" d="M 1159 525 
L 1159 -1331 
L 581 -1331 
L 581 3500 
L 1159 3500 
L 1159 2969 
Q 1341 3281 1617 3432 
Q 1894 3584 2278 3584 
Q 2916 3584 3314 3078 
Q 3713 2572 3713 1747 
Q 3713 922 3314 415 
Q 2916 -91 2278 -91 
Q 1894 -91 1617 61 
Q 1341 213 1159 525 
z
M 3116 1747 
Q 3116 2381 2855 2742 
Q 2594 3103 2138 3103 
Q 1681 3103 1420 2742 
Q 1159 2381 1159 1747 
Q 1159 1113 1420 752 
Q 1681 391 2138 391 
Q 2594 391 2855 752 
Q 3116 1113 3116 1747 
z
" transform="scale(0.015625)"/>
      </defs>
      <use xlink:href="#DejaVuSans-54"/>
      <use xlink:href="#DejaVuSans-69" x="57.958984"/>
      <use xlink:href="#DejaVuSans-6d" x="85.742188"/>
      <use xlink:href="#DejaVuSans-65" x="183.154297"/>
      <use xlink:href="#DejaVuSans-20" x="244.677734"/>
      <use xlink:href="#DejaVuSans-73" x="276.464844"/>
      <use xlink:href="#DejaVuSans-74" x="328.564453"/>
      <use xlink:href="#DejaVuSans-65" x="367.773438"/>
      <use xlink:href="#DejaVuSans-70" x="429.296875"/>
     </g>
    </g>
   </g>
   <g id="matplotlib.axis_6">
    <g id="ytick_9">
     <g id="line2d_31">
      <g>
       <use xlink:href="#m4e3243f6f9" x="90" y="364.912941" style="stroke: #000000; stroke-width: 0.8"/>
      </g>
     </g>
     <g id="text_32">
      <!-- 0 -->
      <g transform="translate(76.6375 368.71216) scale(0.1 -0.1)">
       <use xlink:href="#DejaVuSans-30"/>
      </g>
     </g>
    </g>
    <g id="ytick_10">
     <g id="line2d_32">
      <g>
       <use xlink:href="#m4e3243f6f9" x="90" y="325.778824" style="stroke: #000000; stroke-width: 0.8"/>
      </g>
     </g>
     <g id="text_33">
      <!-- 10 -->
      <g transform="translate(70.275 329.578042) scale(0.1 -0.1)">
       <use xlink:href="#DejaVuSans-31"/>
       <use xlink:href="#DejaVuSans-30" x="63.623047"/>
      </g>
     </g>
    </g>
    <g id="ytick_11">
     <g id="line2d_33">
      <g>
       <use xlink:href="#m4e3243f6f9" x="90" y="286.644706" style="stroke: #000000; stroke-width: 0.8"/>
      </g>
     </g>
     <g id="text_34">
      <!-- 20 -->
      <g transform="translate(70.275 290.443925) scale(0.1 -0.1)">
       <use xlink:href="#DejaVuSans-32"/>
       <use xlink:href="#DejaVuSans-30" x="63.623047"/>
      </g>
     </g>
    </g>
    <g id="text_35">
     <!-- Delta Theta -->
     <g transform="translate(63.363438 376.515634) rotate(-90) scale(0.14 -0.14)">
      <defs>
       <path id="DejaVuSans-68" d="M 3513 2113 
L 3513 0 
L 2938 0 
L 2938 2094 
Q 2938 2591 2744 2837 
Q 2550 3084 2163 3084 
Q 1697 3084 1428 2787 
Q 1159 2491 1159 1978 
L 1159 0 
L 581 0 
L 581 4863 
L 1159 4863 
L 1159 2956 
Q 1366 3272 1645 3428 
Q 1925 3584 2291 3584 
Q 2894 3584 3203 3211 
Q 3513 2838 3513 2113 
z
" transform="scale(0.015625)"/>
      </defs>
      <use xlink:href="#DejaVuSans-44"/>
      <use xlink:href="#DejaVuSans-65" x="77.001953"/>
      <use xlink:href="#DejaVuSans-6c" x="138.525391"/>
      <use xlink:href="#DejaVuSans-74" x="166.308594"/>
      <use xlink:href="#DejaVuSans-61" x="205.517578"/>
      <use xlink:href="#DejaVuSans-20" x="266.796875"/>
      <use xlink:href="#DejaVuSans-54" x="298.583984"/>
      <use xlink:href="#DejaVuSans-68" x="359.667969"/>
      <use xlink:href="#DejaVuSans-65" x="423.046875"/>
      <use xlink:href="#DejaVuSans-74" x="484.570312"/>
      <use xlink:href="#DejaVuSans-61" x="523.779297"/>
     </g>
    </g>
   </g>
   <g id="line2d_34">
    <path d="M 90 364.912941 
L 93.371601 364.912941 
L 94.214502 363.435694 
L 95.057402 361.066679 
L 95.900302 364.288214 
L 96.743202 364.53493 
L 98.429003 362.682598 
L 99.271903 362.087607 
L 100.114804 363.203328 
L 100.957704 362.995931 
L 101.800604 364.597177 
L 102.643505 360.294625 
L 103.486405 363.59414 
L 104.329305 364.114933 
L 105.172205 362.954316 
L 106.015106 360.776277 
L 106.858006 362.988796 
L 107.700906 360.79714 
L 108.543807 360.946715 
L 109.386707 363.988721 
L 110.229607 361.044941 
L 111.072508 362.572409 
L 111.915408 361.901954 
L 112.758308 364.566737 
L 113.601208 364.703453 
L 114.444109 363.310431 
L 115.287009 362.467511 
L 116.129909 361.957459 
L 116.97281 361.648826 
L 118.65861 361.349066 
L 121.187311 361.214272 
L 122.873112 361.189955 
L 123.716012 359.708659 
L 124.558912 357.336576 
L 125.401813 361.80422 
L 126.244713 361.556101 
L 127.087613 362.516923 
L 127.930514 361.987358 
L 128.773414 364.618416 
L 129.616314 362.139661 
L 130.459215 362.16381 
L 131.302115 358.822191 
L 132.145015 364.178917 
L 132.987915 363.881351 
L 133.830816 364.288725 
L 135.516616 364.684386 
L 137.202417 364.829256 
L 138.045317 363.48783 
L 138.888218 361.099107 
L 139.731118 362.793451 
L 140.574018 360.678937 
L 141.416918 360.87519 
L 142.259819 362.469692 
L 143.102719 364.910277 
L 143.945619 360.484082 
L 144.78852 360.757283 
L 145.63142 363.874095 
L 146.47432 359.857087 
L 147.317221 360.377888 
L 148.160121 363.644523 
L 149.003021 361.253216 
L 149.845921 364.175948 
L 150.688822 362.991237 
L 151.531722 362.274366 
L 152.374622 361.840587 
L 153.217523 360.102357 
L 154.060423 363.396586 
L 154.903323 362.519643 
L 155.746224 364.88538 
L 156.589124 360.469017 
L 157.432024 363.699665 
L 158.274924 362.703037 
L 159.117825 359.148478 
L 159.960725 362.900605 
L 160.803625 362.219525 
L 161.646526 358.855904 
L 162.489426 362.723568 
L 163.332326 362.1124 
L 164.175227 358.791083 
L 165.018127 362.684345 
L 165.861027 362.088665 
L 166.703927 362.194668 
L 167.546828 361.792361 
L 168.389728 364.500423 
L 169.232628 360.73531 
L 170.075529 363.860799 
L 170.918429 362.80054 
L 171.761329 359.207477 
L 172.60423 362.936306 
L 173.44713 362.241127 
L 174.29003 362.102413 
L 175.132931 361.736538 
L 175.975831 364.466644 
L 176.818731 360.215639 
L 177.661631 360.594848 
L 178.504532 363.775806 
L 179.347432 359.797612 
L 180.190332 358.86615 
L 181.033233 359.77827 
L 181.876133 360.330196 
L 182.719033 360.664166 
L 183.561934 359.390504 
L 184.404834 357.144059 
L 185.247734 363.163477 
L 186.090634 363.020046 
L 186.933535 362.291799 
L 188.619335 364.396918 
L 189.462236 361.649197 
L 190.305136 362.460591 
L 191.148036 361.969615 
L 191.990937 358.704684 
L 192.833837 364.24232 
L 193.676737 360.079901 
L 194.519637 363.410174 
L 195.362538 361.395021 
L 196.205438 362.614393 
L 197.048338 359.09484 
L 197.891239 364.006236 
L 199.577039 358.138749 
L 200.41994 364.584768 
L 201.26284 360.287116 
L 202.10574 363.284788 
L 202.94864 361.470892 
L 203.791541 358.402906 
L 204.634441 364.424926 
L 205.477341 360.780993 
L 206.320242 357.985447 
L 207.163142 364.677531 
L 208.006042 360.628141 
L 208.848943 357.892956 
L 209.691843 364.733498 
L 210.534743 360.594276 
L 211.377644 363.098925 
L 212.220544 363.059107 
L 213.063444 362.315435 
L 213.906344 364.816935 
L 214.749245 360.543788 
L 215.592145 362.26916 
L 216.435045 362.08545 
L 217.277946 363.202022 
L 218.120846 361.520974 
L 218.963746 362.860457 
L 219.806647 359.243733 
L 220.649547 361.482495 
L 222.335347 363.490058 
L 223.178248 361.346683 
L 224.021148 361.279244 
L 224.864048 364.189935 
L 225.706949 360.923187 
L 226.549849 363.974484 
L 227.392749 362.86933 
L 228.23565 359.249103 
L 229.07855 362.961493 
L 229.92145 362.256368 
L 230.76435 358.878198 
L 231.607251 362.737058 
L 232.450151 362.120562 
L 233.293051 362.175367 
L 234.135952 361.780682 
L 234.978852 364.493356 
L 235.821752 360.231803 
L 236.664653 360.604629 
L 237.507553 363.781724 
L 238.350453 361.170196 
L 239.193353 364.123949 
L 240.036254 362.959772 
L 240.879154 359.303829 
L 241.722054 362.994608 
L 242.564955 362.276406 
L 243.407855 362.081066 
L 244.250755 361.72362 
L 245.093656 364.458827 
L 245.936556 360.760479 
L 246.779456 363.876029 
L 247.622356 362.809755 
L 248.465257 359.213054 
L 249.308157 362.93968 
L 250.151057 362.243169 
L 250.993958 363.576926 
L 251.836858 364.245617 
L 252.679758 363.840991 
L 253.522659 359.837056 
L 254.365559 364.793014 
L 255.208459 363.509761 
L 256.05136 362.588126 
L 256.89426 362.030443 
L 257.73716 361.692988 
L 259.422961 361.365236 
L 260.265861 361.290471 
L 261.108761 359.769481 
L 261.951662 357.373379 
L 262.794562 363.302239 
L 263.637462 364.41183 
L 264.480363 364.609718 
L 265.323263 363.620673 
L 266.166163 361.17949 
L 267.009063 359.702327 
L 267.851964 358.808493 
L 268.694864 358.267633 
L 269.537764 357.940358 
L 271.223565 357.622492 
L 273.752266 357.479557 
L 281.338369 357.439318 
L 302.410876 357.438875 
L 303.253776 358.914624 
L 304.096677 361.283351 
L 304.939577 364.19242 
L 305.782477 360.049706 
L 306.625378 360.494442 
L 307.468278 363.71505 
L 308.311178 361.236597 
L 309.154079 364.164129 
L 309.996979 361.508336 
L 310.839879 364.328559 
L 311.682779 361.607833 
L 312.52568 364.388764 
L 313.36858 361.644263 
L 314.21148 364.410808 
L 315.054381 361.657602 
L 315.897281 364.41888 
L 316.740181 361.662486 
L 317.583082 364.421835 
L 318.425982 361.664274 
L 319.268882 364.422917 
L 320.111782 361.664929 
L 320.954683 364.423313 
L 321.797583 361.665169 
L 322.640483 364.423458 
L 323.483384 361.665257 
L 324.326284 364.423511 
L 325.169184 361.665289 
L 326.012085 364.423531 
L 326.854985 361.6653 
L 327.697885 364.423538 
L 328.540785 361.665305 
L 329.383686 362.947792 
L 330.226586 364.626307 
L 331.069486 361.788001 
L 331.912387 360.070537 
L 332.755287 359.031298 
L 333.598187 358.402452 
L 334.441088 358.021937 
L 335.283988 357.791687 
L 336.126888 359.128111 
L 336.969789 359.936783 
L 337.812689 360.426112 
L 338.655589 360.722205 
L 339.498489 362.377121 
L 340.34139 363.378513 
L 341.18429 363.984456 
L 342.02719 362.875365 
L 342.870091 360.728503 
L 343.712991 363.017704 
L 344.555891 360.814633 
L 345.398792 360.9573 
L 346.241692 362.519377 
L 347.084592 364.885541 
L 347.927492 361.944864 
L 348.770393 362.281682 
L 349.613293 360.369265 
L 350.456193 360.687807 
L 351.299094 362.356306 
L 352.141994 364.841667 
L 352.984894 362.004572 
L 353.827795 358.725836 
L 354.670695 364.120613 
L 355.513595 363.916631 
L 356.356495 364.310073 
L 357.199396 363.801989 
L 358.042296 361.289205 
L 358.885196 362.678423 
L 359.728097 360.609333 
L 360.570997 360.833073 
L 361.413897 362.444207 
L 362.256798 364.894855 
L 363.099698 361.972387 
L 363.942598 363.740777 
L 364.785498 364.203663 
L 365.628399 362.390629 
L 366.471299 363.487698 
L 367.314199 362.574776 
L 369 364.293306 
L 369.8429 363.06225 
L 370.685801 362.317337 
L 371.528701 361.866588 
L 373.214502 361.428799 
L 374.057402 359.853184 
L 374.900302 357.424028 
L 375.743202 363.332887 
L 376.586103 363.956848 
L 377.429003 361.38291 
L 378.271903 364.09747 
L 379.114804 364.419499 
L 379.957704 362.260026 
L 380.800604 363.566726 
L 381.643505 364.098344 
L 382.486405 362.454357 
L 383.329305 363.449136 
L 384.172205 364.027191 
L 385.015106 362.497412 
L 385.858006 363.423083 
L 386.700906 364.011426 
L 387.543807 362.506951 
L 388.386707 363.417311 
L 389.229607 364.007933 
L 390.072508 362.509065 
L 390.915408 363.416032 
L 391.758308 364.007159 
L 392.601208 362.509533 
L 393.444109 363.415749 
L 394.287009 364.006988 
L 395.129909 362.509637 
L 395.97281 363.415686 
L 396.81571 364.00695 
L 397.65861 362.50966 
L 398.501511 363.415672 
L 399.344411 364.006942 
L 400.187311 362.509665 
L 401.030211 363.415669 
L 401.873112 364.00694 
L 402.716012 362.509666 
L 403.558912 363.415669 
L 404.401813 362.53119 
L 405.244713 364.878393 
L 406.087613 361.940538 
L 406.930514 363.760049 
L 407.773414 364.215324 
L 408.616314 362.383572 
L 409.459215 363.491968 
L 410.302115 364.053108 
L 411.145015 362.481729 
L 411.987915 363.432573 
L 412.830816 362.541419 
L 414.516616 364.30552 
L 415.359517 361.593892 
L 416.202417 359.953082 
L 417.045317 358.960225 
L 417.888218 358.359446 
L 418.731118 359.471663 
L 419.574018 361.620416 
L 420.416918 364.396378 
L 421.259819 362.274016 
L 422.102719 358.888877 
L 422.945619 364.219269 
L 423.78852 364.493199 
L 424.63142 361.707457 
L 425.47432 363.901087 
L 426.317221 364.300666 
L 427.160121 362.331932 
L 428.003021 363.523216 
L 428.845921 364.072016 
L 429.688822 362.470288 
L 430.531722 363.439496 
L 431.374622 364.021358 
L 432.217523 362.500942 
L 433.060423 363.420948 
L 433.903323 364.010134 
L 434.746224 362.507733 
L 435.589124 363.416838 
L 436.432024 364.007647 
L 437.274924 362.509238 
L 438.117825 363.415928 
L 438.960725 364.007096 
L 439.803625 362.509572 
L 440.646526 363.415726 
L 441.489426 362.531225 
L 443.175227 364.309252 
L 444.018127 361.59615 
L 444.861027 358.4787 
L 445.703927 363.97107 
L 446.546828 364.00712 
L 447.389728 362.889078 
L 448.232628 362.21255 
L 449.075529 360.327433 
L 449.918429 363.260392 
L 450.761329 362.437233 
L 451.60423 364.890635 
L 452.44713 360.499192 
L 453.29003 363.717924 
L 454.975831 361.816225 
L 455.818731 361.563365 
L 456.661631 364.361857 
L 457.504532 360.819157 
L 458.347432 363.911535 
L 459.190332 362.83124 
L 460.033233 359.226054 
L 460.876133 362.947546 
L 461.719033 362.247929 
L 462.561934 358.873092 
L 463.404834 362.733968 
L 464.247734 362.118693 
L 465.090634 362.176498 
L 465.933535 361.781367 
L 466.776435 364.49377 
L 467.619335 360.739336 
L 468.462236 363.863235 
L 470.148036 361.76302 
L 470.990937 361.53117 
L 471.833837 364.342376 
L 472.676737 360.140444 
L 473.519637 360.549348 
L 474.362538 363.748273 
L 475.205438 359.780952 
L 476.048338 360.331818 
L 476.891239 363.616646 
L 477.734139 361.270085 
L 478.577039 364.184392 
L 479.41994 362.996346 
L 480.26284 359.32596 
L 481.10574 363.008 
L 481.94864 362.284509 
L 482.791541 362.076162 
L 483.634441 361.720653 
L 484.477341 364.457032 
L 485.320242 360.761566 
L 486.163142 363.876687 
L 487.006042 364.285902 
L 487.848943 363.05777 
L 488.691843 360.838877 
L 489.534743 362.950917 
L 490.377644 360.77422 
L 491.220544 360.932846 
L 492.063444 362.50458 
L 492.906344 364.894495 
L 494.592145 358.692985 
L 495.435045 364.249399 
L 496.277946 360.887205 
L 497.120846 364.397422 
L 497.963746 363.125251 
L 498.806647 363.831207 
L 499.649547 362.616002 
L 501.335347 363.968005 
L 502.178248 362.533226 
L 503.021148 363.401413 
L 503.864048 363.998313 
L 504.706949 363.990635 
L 505.549849 361.403355 
L 506.392749 359.837787 
L 507.23565 358.890461 
L 508.07855 358.317232 
L 508.92145 357.97037 
L 510.607251 357.633481 
L 511.450151 357.556631 
L 512.293051 358.985879 
L 513.135952 359.850718 
L 513.978852 360.374034 
L 514.821752 360.690693 
L 516.507553 360.998248 
L 519.036254 361.136546 
L 526.622356 361.17548 
L 534.208459 361.175904 
L 535.05136 359.700156 
L 535.89426 364.710175 
L 536.73716 364.790247 
L 537.58006 360.411452 
L 538.422961 362.189084 
L 539.265861 363.609653 
L 540.108761 362.750065 
L 540.951662 363.604181 
L 541.794562 362.753376 
L 542.637462 363.2682 
L 543.480363 363.917706 
L 544.323263 362.563662 
L 545.166163 363.382996 
L 546.009063 363.987169 
L 546.851964 362.521629 
L 547.694864 363.40843 
L 548.537764 364.002559 
L 549.380665 362.512317 
L 551.066465 364.344165 
L 551.909366 362.305611 
L 552.752266 363.539143 
L 553.595166 364.081654 
L 554.438066 363.940206 
L 555.280967 361.37284 
L 556.123867 358.343574 
L 556.966767 363.889305 
L 557.809668 364.056596 
L 558.652568 364.394765 
L 559.495468 363.750741 
L 560.338369 361.258194 
L 561.181269 358.274202 
L 562.024169 363.847328 
L 563.70997 364.410135 
L 564.55287 363.741441 
L 565.39577 361.252567 
L 566.238671 362.700592 
L 567.081571 360.622748 
L 567.924471 360.84119 
L 568.767372 362.449119 
L 569.610272 364.897828 
L 570.453172 361.970589 
L 571.296073 362.266116 
L 572.138973 360.359846 
L 572.981873 360.682108 
L 573.824773 362.352858 
L 574.667674 364.83958 
L 575.510574 362.005834 
L 576.353474 362.244789 
L 577.196375 361.82269 
L 578.039275 364.518774 
L 578.882175 361.722932 
L 579.725076 364.458411 
L 580.567976 363.162156 
L 581.410876 359.426292 
L 582.253776 363.06871 
L 583.096677 362.321246 
L 583.939577 358.917456 
L 584.782477 362.760813 
L 585.625378 362.134936 
L 586.468278 358.80472 
L 587.311178 362.692596 
L 588.154079 362.093658 
L 588.996979 363.667395 
L 589.839879 364.190874 
L 590.682779 363.874116 
L 591.52568 359.8571 
L 592.36858 364.805142 
L 593.21148 363.502422 
L 594.054381 364.059434 
L 594.897281 364.396483 
L 596.583082 364.723841 
L 599.111782 364.871045 
L 604.169184 364.910885 
L 605.012085 363.435948 
L 605.854985 361.067713 
L 606.697885 364.288197 
L 607.540785 364.534907 
L 608.383686 362.190192 
L 609.226586 363.608983 
L 610.069486 364.123914 
L 610.912387 362.438885 
L 611.755287 363.458498 
L 612.598187 364.032856 
L 613.441088 362.493984 
L 614.283988 363.425158 
L 615.126888 364.012681 
L 615.969789 362.506192 
L 616.812689 363.417771 
L 617.655589 364.008211 
L 618.498489 362.508897 
L 619.34139 363.416134 
L 620.18429 364.007221 
L 621.02719 362.509496 
L 621.870091 363.415772 
L 622.712991 364.007002 
L 623.555891 363.985378 
L 624.398792 361.400173 
L 625.241692 362.611275 
L 626.084592 359.092953 
L 626.927492 356.964011 
L 627.770393 355.675785 
L 628.613293 354.896278 
L 629.456193 354.424597 
L 630.299094 354.139182 
L 631.141994 362.820971 
L 631.984894 361.751549 
L 632.827795 358.572731 
L 633.670695 356.649224 
L 634.513595 355.485307 
L 635.356495 354.78102 
L 636.199396 354.354854 
L 637.885196 353.940941 
L 640.413897 353.754816 
L 641.256798 362.58839 
L 642.099698 359.079105 
L 642.942598 356.955632 
L 643.785498 355.670715 
L 644.628399 354.89321 
L 645.471299 354.422741 
L 646.314199 354.138059 
L 647.1571 362.820291 
L 647.1571 362.820291 
" clip-path="url(#p3028e569bb)" style="fill: none; stroke: #c0c0c0; stroke-width: 1.5; stroke-linecap: square"/>
   </g>
   <g id="patch_15">
    <path d="M 90 384.48 
L 90 286.644706 
" style="fill: none; stroke: #000000; stroke-width: 0.8; stroke-linejoin: miter; stroke-linecap: square"/>
   </g>
   <g id="patch_16">
    <path d="M 648 384.48 
L 648 286.644706 
" style="fill: none; stroke: #000000; stroke-width: 0.8; stroke-linejoin: miter; stroke-linecap: square"/>
   </g>
   <g id="patch_17">
    <path d="M 90 384.48 
L 648 384.48 
" style="fill: none; stroke: #000000; stroke-width: 0.8; stroke-linejoin: miter; stroke-linecap: square"/>
   </g>
   <g id="patch_18">
    <path d="M 90 286.644706 
L 648 286.644706 
" style="fill: none; stroke: #000000; stroke-width: 0.8; stroke-linejoin: miter; stroke-linecap: square"/>
   </g>
   <g id="legend_3">
    <g id="patch_19">
     <path d="M 500.4075 313.858456 
L 639.6 313.858456 
Q 642 313.858456 642 311.458456 
L 642 295.044706 
Q 642 292.644706 639.6 292.644706 
L 500.4075 292.644706 
Q 498.0075 292.644706 498.0075 295.044706 
L 498.0075 311.458456 
Q 498.0075 313.858456 500.4075 313.858456 
z
" style="fill: #ffffff; opacity: 0.5; stroke: #cccccc; stroke-linejoin: miter"/>
    </g>
    <g id="line2d_35">
     <path d="M 502.8075 302.362831 
L 514.8075 302.362831 
L 526.8075 302.362831 
" style="fill: none; stroke: #c0c0c0; stroke-width: 1.5; stroke-linecap: square"/>
    </g>
    <g id="text_36">
     <!-- abs(Delta Theta) -->
     <g transform="translate(536.4075 306.562831) scale(0.12 -0.12)">
      <use xlink:href="#DejaVuSans-61"/>
      <use xlink:href="#DejaVuSans-62" x="61.279297"/>
      <use xlink:href="#DejaVuSans-73" x="124.755859"/>
      <use xlink:href="#DejaVuSans-28" x="176.855469"/>
      <use xlink:href="#DejaVuSans-44" x="215.869141"/>
      <use xlink:href="#DejaVuSans-65" x="292.871094"/>
      <use xlink:href="#DejaVuSans-6c" x="354.394531"/>
      <use xlink:href="#DejaVuSans-74" x="382.177734"/>
      <use xlink:href="#DejaVuSans-61" x="421.386719"/>
      <use xlink:href="#DejaVuSans-20" x="482.666016"/>
      <use xlink:href="#DejaVuSans-54" x="514.453125"/>
      <use xlink:href="#DejaVuSans-68" x="575.537109"/>
      <use xlink:href="#DejaVuSans-65" x="638.916016"/>
      <use xlink:href="#DejaVuSans-74" x="700.439453"/>
      <use xlink:href="#DejaVuSans-61" x="739.648438"/>
      <use xlink:href="#DejaVuSans-29" x="800.927734"/>
     </g>
    </g>
   </g>
  </g>
 </g>
 <defs>
  <clipPath id="p15d5b101ec">
   <rect x="90" y="51.84" width="558" height="97.835294"/>
  </clipPath>
  <clipPath id="pa9b2531aa7">
   <rect x="90" y="169.242353" width="558" height="97.835294"/>
  </clipPath>
  <clipPath id="p3028e569bb">
   <rect x="90" y="286.644706" width="558" height="97.835294"/>
  </clipPath>
 </defs>
</svg>
