<?xml version="1.0" encoding="utf-8" standalone="no"?>
<!DOCTYPE svg PUBLIC "-//W3C//DTD SVG 1.1//EN"
  "http://www.w3.org/Graphics/SVG/1.1/DTD/svg11.dtd">
<svg xmlns:xlink="http://www.w3.org/1999/xlink" width="720pt" height="432pt" viewBox="0 0 720 432" xmlns="http://www.w3.org/2000/svg" version="1.1">
 <metadata>
  <rdf:RDF xmlns:dc="http://purl.org/dc/elements/1.1/" xmlns:cc="http://creativecommons.org/ns#" xmlns:rdf="http://www.w3.org/1999/02/22-rdf-syntax-ns#">
   <cc:Work>
    <dc:type rdf:resource="http://purl.org/dc/dcmitype/StillImage"/>
    <dc:date>2024-05-05T17:20:12.360150</dc:date>
    <dc:format>image/svg+xml</dc:format>
    <dc:creator>
     <cc:Agent>
      <dc:title>Matplotlib v3.8.4, https://matplotlib.org/</dc:title>
     </cc:Agent>
    </dc:creator>
   </cc:Work>
  </rdf:RDF>
 </metadata>
 <defs>
  <style type="text/css">*{stroke-linejoin: round; stroke-linecap: butt}</style>
 </defs>
 <g id="figure_1">
  <g id="patch_1">
   <path d="M 0 432 
L 720 432 
L 720 0 
L 0 0 
z
" style="fill: #ffffff"/>
  </g>
  <g id="axes_1">
   <g id="patch_2">
    <path d="M 90 149.675294 
L 648 149.675294 
L 648 51.84 
L 90 51.84 
z
" style="fill: #ffffff"/>
   </g>
   <g id="matplotlib.axis_1">
    <g id="xtick_1">
     <g id="line2d_1">
      <defs>
       <path id="mae578a0fc6" d="M 0 0 
L 0 3.5 
" style="stroke: #000000; stroke-width: 0.8"/>
      </defs>
      <g>
       <use xlink:href="#mae578a0fc6" x="170.902553" y="149.675294" style="stroke: #000000; stroke-width: 0.8"/>
      </g>
     </g>
     <g id="text_1">
      <!-- 100 -->
      <g transform="translate(161.358803 164.273732) scale(0.1 -0.1)">
       <defs>
        <path id="DejaVuSans-31" d="M 794 531 
L 1825 531 
L 1825 4091 
L 703 3866 
L 703 4441 
L 1819 4666 
L 2450 4666 
L 2450 531 
L 3481 531 
L 3481 0 
L 794 0 
L 794 531 
z
" transform="scale(0.015625)"/>
        <path id="DejaVuSans-30" d="M 2034 4250 
Q 1547 4250 1301 3770 
Q 1056 3291 1056 2328 
Q 1056 1369 1301 889 
Q 1547 409 2034 409 
Q 2525 409 2770 889 
Q 3016 1369 3016 2328 
Q 3016 3291 2770 3770 
Q 2525 4250 2034 4250 
z
M 2034 4750 
Q 2819 4750 3233 4129 
Q 3647 3509 3647 2328 
Q 3647 1150 3233 529 
Q 2819 -91 2034 -91 
Q 1250 -91 836 529 
Q 422 1150 422 2328 
Q 422 3509 836 4129 
Q 1250 4750 2034 4750 
z
" transform="scale(0.015625)"/>
       </defs>
       <use xlink:href="#DejaVuSans-31"/>
       <use xlink:href="#DejaVuSans-30" x="63.623047"/>
       <use xlink:href="#DejaVuSans-30" x="127.246094"/>
      </g>
     </g>
    </g>
    <g id="xtick_2">
     <g id="line2d_2">
      <g>
       <use xlink:href="#mae578a0fc6" x="254.637415" y="149.675294" style="stroke: #000000; stroke-width: 0.8"/>
      </g>
     </g>
     <g id="text_2">
      <!-- 200 -->
      <g transform="translate(245.093665 164.273732) scale(0.1 -0.1)">
       <defs>
        <path id="DejaVuSans-32" d="M 1228 531 
L 3431 531 
L 3431 0 
L 469 0 
L 469 531 
Q 828 903 1448 1529 
Q 2069 2156 2228 2338 
Q 2531 2678 2651 2914 
Q 2772 3150 2772 3378 
Q 2772 3750 2511 3984 
Q 2250 4219 1831 4219 
Q 1534 4219 1204 4116 
Q 875 4013 500 3803 
L 500 4441 
Q 881 4594 1212 4672 
Q 1544 4750 1819 4750 
Q 2544 4750 2975 4387 
Q 3406 4025 3406 3419 
Q 3406 3131 3298 2873 
Q 3191 2616 2906 2266 
Q 2828 2175 2409 1742 
Q 1991 1309 1228 531 
z
" transform="scale(0.015625)"/>
       </defs>
       <use xlink:href="#DejaVuSans-32"/>
       <use xlink:href="#DejaVuSans-30" x="63.623047"/>
       <use xlink:href="#DejaVuSans-30" x="127.246094"/>
      </g>
     </g>
    </g>
    <g id="xtick_3">
     <g id="line2d_3">
      <g>
       <use xlink:href="#mae578a0fc6" x="338.372278" y="149.675294" style="stroke: #000000; stroke-width: 0.8"/>
      </g>
     </g>
     <g id="text_3">
      <!-- 300 -->
      <g transform="translate(328.828528 164.273732) scale(0.1 -0.1)">
       <defs>
        <path id="DejaVuSans-33" d="M 2597 2516 
Q 3050 2419 3304 2112 
Q 3559 1806 3559 1356 
Q 3559 666 3084 287 
Q 2609 -91 1734 -91 
Q 1441 -91 1130 -33 
Q 819 25 488 141 
L 488 750 
Q 750 597 1062 519 
Q 1375 441 1716 441 
Q 2309 441 2620 675 
Q 2931 909 2931 1356 
Q 2931 1769 2642 2001 
Q 2353 2234 1838 2234 
L 1294 2234 
L 1294 2753 
L 1863 2753 
Q 2328 2753 2575 2939 
Q 2822 3125 2822 3475 
Q 2822 3834 2567 4026 
Q 2313 4219 1838 4219 
Q 1578 4219 1281 4162 
Q 984 4106 628 3988 
L 628 4550 
Q 988 4650 1302 4700 
Q 1616 4750 1894 4750 
Q 2613 4750 3031 4423 
Q 3450 4097 3450 3541 
Q 3450 3153 3228 2886 
Q 3006 2619 2597 2516 
z
" transform="scale(0.015625)"/>
       </defs>
       <use xlink:href="#DejaVuSans-33"/>
       <use xlink:href="#DejaVuSans-30" x="63.623047"/>
       <use xlink:href="#DejaVuSans-30" x="127.246094"/>
      </g>
     </g>
    </g>
    <g id="xtick_4">
     <g id="line2d_4">
      <g>
       <use xlink:href="#mae578a0fc6" x="422.10714" y="149.675294" style="stroke: #000000; stroke-width: 0.8"/>
      </g>
     </g>
     <g id="text_4">
      <!-- 400 -->
      <g transform="translate(412.56339 164.273732) scale(0.1 -0.1)">
       <defs>
        <path id="DejaVuSans-34" d="M 2419 4116 
L 825 1625 
L 2419 1625 
L 2419 4116 
z
M 2253 4666 
L 3047 4666 
L 3047 1625 
L 3713 1625 
L 3713 1100 
L 3047 1100 
L 3047 0 
L 2419 0 
L 2419 1100 
L 313 1100 
L 313 1709 
L 2253 4666 
z
" transform="scale(0.015625)"/>
       </defs>
       <use xlink:href="#DejaVuSans-34"/>
       <use xlink:href="#DejaVuSans-30" x="63.623047"/>
       <use xlink:href="#DejaVuSans-30" x="127.246094"/>
      </g>
     </g>
    </g>
    <g id="xtick_5">
     <g id="line2d_5">
      <g>
       <use xlink:href="#mae578a0fc6" x="505.842003" y="149.675294" style="stroke: #000000; stroke-width: 0.8"/>
      </g>
     </g>
     <g id="text_5">
      <!-- 500 -->
      <g transform="translate(496.298253 164.273732) scale(0.1 -0.1)">
       <defs>
        <path id="DejaVuSans-35" d="M 691 4666 
L 3169 4666 
L 3169 4134 
L 1269 4134 
L 1269 2991 
Q 1406 3038 1543 3061 
Q 1681 3084 1819 3084 
Q 2600 3084 3056 2656 
Q 3513 2228 3513 1497 
Q 3513 744 3044 326 
Q 2575 -91 1722 -91 
Q 1428 -91 1123 -41 
Q 819 9 494 109 
L 494 744 
Q 775 591 1075 516 
Q 1375 441 1709 441 
Q 2250 441 2565 725 
Q 2881 1009 2881 1497 
Q 2881 1984 2565 2268 
Q 2250 2553 1709 2553 
Q 1456 2553 1204 2497 
Q 953 2441 691 2322 
L 691 4666 
z
" transform="scale(0.015625)"/>
       </defs>
       <use xlink:href="#DejaVuSans-35"/>
       <use xlink:href="#DejaVuSans-30" x="63.623047"/>
       <use xlink:href="#DejaVuSans-30" x="127.246094"/>
      </g>
     </g>
    </g>
    <g id="xtick_6">
     <g id="line2d_6">
      <g>
       <use xlink:href="#mae578a0fc6" x="589.576865" y="149.675294" style="stroke: #000000; stroke-width: 0.8"/>
      </g>
     </g>
     <g id="text_6">
      <!-- 600 -->
      <g transform="translate(580.033115 164.273732) scale(0.1 -0.1)">
       <defs>
        <path id="DejaVuSans-36" d="M 2113 2584 
Q 1688 2584 1439 2293 
Q 1191 2003 1191 1497 
Q 1191 994 1439 701 
Q 1688 409 2113 409 
Q 2538 409 2786 701 
Q 3034 994 3034 1497 
Q 3034 2003 2786 2293 
Q 2538 2584 2113 2584 
z
M 3366 4563 
L 3366 3988 
Q 3128 4100 2886 4159 
Q 2644 4219 2406 4219 
Q 1781 4219 1451 3797 
Q 1122 3375 1075 2522 
Q 1259 2794 1537 2939 
Q 1816 3084 2150 3084 
Q 2853 3084 3261 2657 
Q 3669 2231 3669 1497 
Q 3669 778 3244 343 
Q 2819 -91 2113 -91 
Q 1303 -91 875 529 
Q 447 1150 447 2328 
Q 447 3434 972 4092 
Q 1497 4750 2381 4750 
Q 2619 4750 2861 4703 
Q 3103 4656 3366 4563 
z
" transform="scale(0.015625)"/>
       </defs>
       <use xlink:href="#DejaVuSans-36"/>
       <use xlink:href="#DejaVuSans-30" x="63.623047"/>
       <use xlink:href="#DejaVuSans-30" x="127.246094"/>
      </g>
     </g>
    </g>
   </g>
   <g id="matplotlib.axis_2">
    <g id="ytick_1">
     <g id="line2d_7">
      <defs>
       <path id="mef87130b55" d="M 0 0 
L -3.5 0 
" style="stroke: #000000; stroke-width: 0.8"/>
      </defs>
      <g>
       <use xlink:href="#mef87130b55" x="90" y="135.698824" style="stroke: #000000; stroke-width: 0.8"/>
      </g>
     </g>
     <g id="text_7">
      <!-- 0 -->
      <g transform="translate(76.6375 139.498042) scale(0.1 -0.1)">
       <use xlink:href="#DejaVuSans-30"/>
      </g>
     </g>
    </g>
    <g id="ytick_2">
     <g id="line2d_8">
      <g>
       <use xlink:href="#mef87130b55" x="90" y="107.745882" style="stroke: #000000; stroke-width: 0.8"/>
      </g>
     </g>
     <g id="text_8">
      <!-- 10 -->
      <g transform="translate(70.275 111.545101) scale(0.1 -0.1)">
       <use xlink:href="#DejaVuSans-31"/>
       <use xlink:href="#DejaVuSans-30" x="63.623047"/>
      </g>
     </g>
    </g>
    <g id="ytick_3">
     <g id="line2d_9">
      <g>
       <use xlink:href="#mef87130b55" x="90" y="79.792941" style="stroke: #000000; stroke-width: 0.8"/>
      </g>
     </g>
     <g id="text_9">
      <!-- 20 -->
      <g transform="translate(70.275 83.59216) scale(0.1 -0.1)">
       <use xlink:href="#DejaVuSans-32"/>
       <use xlink:href="#DejaVuSans-30" x="63.623047"/>
      </g>
     </g>
    </g>
    <g id="ytick_4">
     <g id="line2d_10">
      <g>
       <use xlink:href="#mef87130b55" x="90" y="51.84" style="stroke: #000000; stroke-width: 0.8"/>
      </g>
     </g>
     <g id="text_10">
      <!-- 30 -->
      <g transform="translate(70.275 55.639219) scale(0.1 -0.1)">
       <use xlink:href="#DejaVuSans-33"/>
       <use xlink:href="#DejaVuSans-30" x="63.623047"/>
      </g>
     </g>
    </g>
    <g id="text_11">
     <!-- Delta X -->
     <g transform="translate(63.363438 126.453116) rotate(-90) scale(0.14 -0.14)">
      <defs>
       <path id="DejaVuSans-44" d="M 1259 4147 
L 1259 519 
L 2022 519 
Q 2988 519 3436 956 
Q 3884 1394 3884 2338 
Q 3884 3275 3436 3711 
Q 2988 4147 2022 4147 
L 1259 4147 
z
M 628 4666 
L 1925 4666 
Q 3281 4666 3915 4102 
Q 4550 3538 4550 2338 
Q 4550 1131 3912 565 
Q 3275 0 1925 0 
L 628 0 
L 628 4666 
z
" transform="scale(0.015625)"/>
       <path id="DejaVuSans-65" d="M 3597 1894 
L 3597 1613 
L 953 1613 
Q 991 1019 1311 708 
Q 1631 397 2203 397 
Q 2534 397 2845 478 
Q 3156 559 3463 722 
L 3463 178 
Q 3153 47 2828 -22 
Q 2503 -91 2169 -91 
Q 1331 -91 842 396 
Q 353 884 353 1716 
Q 353 2575 817 3079 
Q 1281 3584 2069 3584 
Q 2775 3584 3186 3129 
Q 3597 2675 3597 1894 
z
M 3022 2063 
Q 3016 2534 2758 2815 
Q 2500 3097 2075 3097 
Q 1594 3097 1305 2825 
Q 1016 2553 972 2059 
L 3022 2063 
z
" transform="scale(0.015625)"/>
       <path id="DejaVuSans-6c" d="M 603 4863 
L 1178 4863 
L 1178 0 
L 603 0 
L 603 4863 
z
" transform="scale(0.015625)"/>
       <path id="DejaVuSans-74" d="M 1172 4494 
L 1172 3500 
L 2356 3500 
L 2356 3053 
L 1172 3053 
L 1172 1153 
Q 1172 725 1289 603 
Q 1406 481 1766 481 
L 2356 481 
L 2356 0 
L 1766 0 
Q 1100 0 847 248 
Q 594 497 594 1153 
L 594 3053 
L 172 3053 
L 172 3500 
L 594 3500 
L 594 4494 
L 1172 4494 
z
" transform="scale(0.015625)"/>
       <path id="DejaVuSans-61" d="M 2194 1759 
Q 1497 1759 1228 1600 
Q 959 1441 959 1056 
Q 959 750 1161 570 
Q 1363 391 1709 391 
Q 2188 391 2477 730 
Q 2766 1069 2766 1631 
L 2766 1759 
L 2194 1759 
z
M 3341 1997 
L 3341 0 
L 2766 0 
L 2766 531 
Q 2569 213 2275 61 
Q 1981 -91 1556 -91 
Q 1019 -91 701 211 
Q 384 513 384 1019 
Q 384 1609 779 1909 
Q 1175 2209 1959 2209 
L 2766 2209 
L 2766 2266 
Q 2766 2663 2505 2880 
Q 2244 3097 1772 3097 
Q 1472 3097 1187 3025 
Q 903 2953 641 2809 
L 641 3341 
Q 956 3463 1253 3523 
Q 1550 3584 1831 3584 
Q 2591 3584 2966 3190 
Q 3341 2797 3341 1997 
z
" transform="scale(0.015625)"/>
       <path id="DejaVuSans-20" transform="scale(0.015625)"/>
       <path id="DejaVuSans-58" d="M 403 4666 
L 1081 4666 
L 2241 2931 
L 3406 4666 
L 4084 4666 
L 2584 2425 
L 4184 0 
L 3506 0 
L 2194 1984 
L 872 0 
L 191 0 
L 1856 2491 
L 403 4666 
z
" transform="scale(0.015625)"/>
      </defs>
      <use xlink:href="#DejaVuSans-44"/>
      <use xlink:href="#DejaVuSans-65" x="77.001953"/>
      <use xlink:href="#DejaVuSans-6c" x="138.525391"/>
      <use xlink:href="#DejaVuSans-74" x="166.308594"/>
      <use xlink:href="#DejaVuSans-61" x="205.517578"/>
      <use xlink:href="#DejaVuSans-20" x="266.796875"/>
      <use xlink:href="#DejaVuSans-58" x="298.583984"/>
     </g>
    </g>
   </g>
   <g id="line2d_11">
    <path d="M 90 135.698824 
L 127.087613 135.650108 
L 127.930514 135.569382 
L 129.616314 135.632402 
L 131.302115 135.541727 
L 133.830816 135.665709 
L 138.045317 135.679387 
L 140.574018 125.023027 
L 143.102719 113.179401 
L 144.78852 103.129638 
L 146.47432 91.970609 
L 151.531722 56.442043 
L 152.374622 51.329561 
L 154.060423 42.958115 
L 156.589124 33.645019 
L 158.274924 28.083746 
L 159.960725 23.077244 
L 161.646526 18.654129 
L 163.332326 19.589373 
L 164.175227 22.97482 
L 165.018127 21.464373 
L 167.546828 22.837633 
L 168.389728 26.195203 
L 169.232628 25.520603 
L 170.075529 25.018261 
L 170.918429 25.448105 
L 171.761329 28.687765 
L 172.60423 28.708766 
L 173.44713 28.905725 
L 174.29003 29.279052 
L 175.132931 29.828954 
L 175.975831 30.55543 
L 176.818731 31.458272 
L 178.504532 33.791199 
L 179.347432 35.219838 
L 181.033233 39.218956 
L 183.561934 47.13586 
L 186.933535 58.36164 
L 188.619335 63.971998 
L 192.833837 76.188453 
L 211.377644 130.418586 
L 213.063444 134.448317 
L 213.906344 135.515924 
L 214.749245 134.435614 
L 215.592145 133.880731 
L 216.435045 133.788199 
L 217.277946 134.155785 
L 218.120846 134.980044 
L 218.963746 135.141315 
L 219.806647 133.418834 
L 220.649547 131.257172 
L 221.492447 128.664496 
L 223.178248 122.224439 
L 224.864048 115.110696 
L 226.549849 106.335225 
L 228.23565 96.092694 
L 229.92145 84.605664 
L 232.450151 65.586297 
L 236.664653 31.405714 
L 240.036254 4.443677 
L 240.75519 -1 
M 333.307855 -1 
L 334.441088 7.5262 
L 335.283988 10.697101 
L 336.126888 12.276827 
L 336.969789 12.276827 
L 337.812689 9.129818 
L 339.068089 -1 
M 444.367558 -1 
L 444.861027 80.954562 
L 445.703927 120.31668 
L 446.546828 131.351297 
L 447.389728 134.440165 
L 448.232628 135.30672 
L 449.075529 135.535719 
L 452.44713 135.644706 
L 453.29003 135.554743 
L 454.975831 135.610612 
L 455.818731 135.531099 
L 457.504532 135.602252 
L 459.190332 128.012187 
L 460.876133 121.470415 
L 462.561934 116.213761 
L 463.404834 114.079366 
L 464.247734 112.279899 
L 465.090634 110.819103 
L 465.933535 109.700325 
L 466.776435 108.926513 
L 467.619335 108.500214 
L 468.462236 108.423567 
L 469.305136 108.698305 
L 470.148036 109.325752 
L 470.990937 110.306819 
L 471.833837 111.642005 
L 472.676737 113.331397 
L 473.519637 115.374668 
L 474.362538 117.771078 
L 476.048338 123.618297 
L 477.734139 130.858917 
L 478.577039 134.995552 
L 479.41994 131.925356 
L 481.10574 121.966296 
L 482.791541 110.69492 
L 483.634441 104.579231 
L 484.477341 124.447387 
L 485.320242 132.003424 
L 486.163142 134.418452 
L 487.006042 135.318766 
L 487.848943 135.573876 
L 491.220544 135.639403 
L 494.592145 135.609541 
L 495.435045 135.566211 
L 496.277946 135.665612 
L 497.120846 135.623314 
L 498.806647 135.681791 
L 519.879154 135.649782 
L 533.328317 -1 
M 554.266192 -1 
L 554.438066 46.855609 
L 555.280967 111.58351 
L 556.123867 129.209451 
L 556.966767 133.860977 
L 557.809668 135.132279 
L 558.652568 135.512586 
L 559.495468 135.657692 
L 566.238671 135.576822 
L 567.081571 135.512635 
L 571.296073 112.548324 
L 573.824773 100.614747 
L 574.667674 96.991468 
L 579.725076 86.193746 
L 581.410876 82.916261 
L 582.253776 84.130574 
L 583.096677 85.123989 
L 583.939577 86.64773 
L 584.782477 88.699279 
L 585.625378 91.273653 
L 586.468278 94.363425 
L 587.311178 97.958755 
L 588.154079 102.047432 
L 589.839879 112.967631 
L 591.52568 126.957444 
L 592.36858 135.231836 
L 593.21148 127.73107 
L 594.897281 109.509238 
L 604.169184 3.592589 
L 605.012085 95.971784 
L 605.854985 124.180746 
L 606.697885 132.527142 
L 607.540785 134.788517 
L 608.383686 135.475293 
L 609.226586 135.647422 
L 610.912387 135.664517 
L 611.755287 135.56989 
L 612.598187 135.677054 
L 616.812689 135.558041 
L 617.655589 135.673301 
L 621.870091 135.555351 
L 622.712991 135.268144 
L 623.555891 134.654505 
L 624.398792 133.84352 
L 625.241692 132.835463 
L 647.1571 101.040273 
L 647.1571 101.040273 
" clip-path="url(#pcc61fb3737)" style="fill: none; stroke: #bc8f8f; stroke-width: 1.5; stroke-linecap: square"/>
   </g>
   <g id="patch_3">
    <path d="M 90 149.675294 
L 90 51.84 
" style="fill: none; stroke: #000000; stroke-width: 0.8; stroke-linejoin: miter; stroke-linecap: square"/>
   </g>
   <g id="patch_4">
    <path d="M 648 149.675294 
L 648 51.84 
" style="fill: none; stroke: #000000; stroke-width: 0.8; stroke-linejoin: miter; stroke-linecap: square"/>
   </g>
   <g id="patch_5">
    <path d="M 90 149.675294 
L 648 149.675294 
" style="fill: none; stroke: #000000; stroke-width: 0.8; stroke-linejoin: miter; stroke-linecap: square"/>
   </g>
   <g id="patch_6">
    <path d="M 90 51.84 
L 648 51.84 
" style="fill: none; stroke: #000000; stroke-width: 0.8; stroke-linejoin: miter; stroke-linecap: square"/>
   </g>
   <g id="legend_1">
    <g id="patch_7">
     <path d="M 526.56375 79.05375 
L 639.6 79.05375 
Q 642 79.05375 642 76.65375 
L 642 60.24 
Q 642 57.84 639.6 57.84 
L 526.56375 57.84 
Q 524.16375 57.84 524.16375 60.24 
L 524.16375 76.65375 
Q 524.16375 79.05375 526.56375 79.05375 
z
" style="fill: #ffffff; opacity: 0.5; stroke: #cccccc; stroke-linejoin: miter"/>
    </g>
    <g id="line2d_12">
     <path d="M 528.96375 67.558125 
L 540.96375 67.558125 
L 552.96375 67.558125 
" style="fill: none; stroke: #bc8f8f; stroke-width: 1.5; stroke-linecap: square"/>
    </g>
    <g id="text_12">
     <!-- abs(Delta X) -->
     <g transform="translate(562.56375 71.758125) scale(0.12 -0.12)">
      <defs>
       <path id="DejaVuSans-62" d="M 3116 1747 
Q 3116 2381 2855 2742 
Q 2594 3103 2138 3103 
Q 1681 3103 1420 2742 
Q 1159 2381 1159 1747 
Q 1159 1113 1420 752 
Q 1681 391 2138 391 
Q 2594 391 2855 752 
Q 3116 1113 3116 1747 
z
M 1159 2969 
Q 1341 3281 1617 3432 
Q 1894 3584 2278 3584 
Q 2916 3584 3314 3078 
Q 3713 2572 3713 1747 
Q 3713 922 3314 415 
Q 2916 -91 2278 -91 
Q 1894 -91 1617 61 
Q 1341 213 1159 525 
L 1159 0 
L 581 0 
L 581 4863 
L 1159 4863 
L 1159 2969 
z
" transform="scale(0.015625)"/>
       <path id="DejaVuSans-73" d="M 2834 3397 
L 2834 2853 
Q 2591 2978 2328 3040 
Q 2066 3103 1784 3103 
Q 1356 3103 1142 2972 
Q 928 2841 928 2578 
Q 928 2378 1081 2264 
Q 1234 2150 1697 2047 
L 1894 2003 
Q 2506 1872 2764 1633 
Q 3022 1394 3022 966 
Q 3022 478 2636 193 
Q 2250 -91 1575 -91 
Q 1294 -91 989 -36 
Q 684 19 347 128 
L 347 722 
Q 666 556 975 473 
Q 1284 391 1588 391 
Q 1994 391 2212 530 
Q 2431 669 2431 922 
Q 2431 1156 2273 1281 
Q 2116 1406 1581 1522 
L 1381 1569 
Q 847 1681 609 1914 
Q 372 2147 372 2553 
Q 372 3047 722 3315 
Q 1072 3584 1716 3584 
Q 2034 3584 2315 3537 
Q 2597 3491 2834 3397 
z
" transform="scale(0.015625)"/>
       <path id="DejaVuSans-28" d="M 1984 4856 
Q 1566 4138 1362 3434 
Q 1159 2731 1159 2009 
Q 1159 1288 1364 580 
Q 1569 -128 1984 -844 
L 1484 -844 
Q 1016 -109 783 600 
Q 550 1309 550 2009 
Q 550 2706 781 3412 
Q 1013 4119 1484 4856 
L 1984 4856 
z
" transform="scale(0.015625)"/>
       <path id="DejaVuSans-29" d="M 513 4856 
L 1013 4856 
Q 1481 4119 1714 3412 
Q 1947 2706 1947 2009 
Q 1947 1309 1714 600 
Q 1481 -109 1013 -844 
L 513 -844 
Q 928 -128 1133 580 
Q 1338 1288 1338 2009 
Q 1338 2731 1133 3434 
Q 928 4138 513 4856 
z
" transform="scale(0.015625)"/>
      </defs>
      <use xlink:href="#DejaVuSans-61"/>
      <use xlink:href="#DejaVuSans-62" x="61.279297"/>
      <use xlink:href="#DejaVuSans-73" x="124.755859"/>
      <use xlink:href="#DejaVuSans-28" x="176.855469"/>
      <use xlink:href="#DejaVuSans-44" x="215.869141"/>
      <use xlink:href="#DejaVuSans-65" x="292.871094"/>
      <use xlink:href="#DejaVuSans-6c" x="354.394531"/>
      <use xlink:href="#DejaVuSans-74" x="382.177734"/>
      <use xlink:href="#DejaVuSans-61" x="421.386719"/>
      <use xlink:href="#DejaVuSans-20" x="482.666016"/>
      <use xlink:href="#DejaVuSans-58" x="514.453125"/>
      <use xlink:href="#DejaVuSans-29" x="582.958984"/>
     </g>
    </g>
   </g>
  </g>
  <g id="axes_2">
   <g id="patch_8">
    <path d="M 90 267.077647 
L 648 267.077647 
L 648 169.242353 
L 90 169.242353 
z
" style="fill: #ffffff"/>
   </g>
   <g id="matplotlib.axis_3">
    <g id="xtick_7">
     <g id="line2d_13">
      <g>
       <use xlink:href="#mae578a0fc6" x="170.902553" y="267.077647" style="stroke: #000000; stroke-width: 0.8"/>
      </g>
     </g>
     <g id="text_13">
      <!-- 100 -->
      <g transform="translate(161.358803 281.676085) scale(0.1 -0.1)">
       <use xlink:href="#DejaVuSans-31"/>
       <use xlink:href="#DejaVuSans-30" x="63.623047"/>
       <use xlink:href="#DejaVuSans-30" x="127.246094"/>
      </g>
     </g>
    </g>
    <g id="xtick_8">
     <g id="line2d_14">
      <g>
       <use xlink:href="#mae578a0fc6" x="254.637415" y="267.077647" style="stroke: #000000; stroke-width: 0.8"/>
      </g>
     </g>
     <g id="text_14">
      <!-- 200 -->
      <g transform="translate(245.093665 281.676085) scale(0.1 -0.1)">
       <use xlink:href="#DejaVuSans-32"/>
       <use xlink:href="#DejaVuSans-30" x="63.623047"/>
       <use xlink:href="#DejaVuSans-30" x="127.246094"/>
      </g>
     </g>
    </g>
    <g id="xtick_9">
     <g id="line2d_15">
      <g>
       <use xlink:href="#mae578a0fc6" x="338.372278" y="267.077647" style="stroke: #000000; stroke-width: 0.8"/>
      </g>
     </g>
     <g id="text_15">
      <!-- 300 -->
      <g transform="translate(328.828528 281.676085) scale(0.1 -0.1)">
       <use xlink:href="#DejaVuSans-33"/>
       <use xlink:href="#DejaVuSans-30" x="63.623047"/>
       <use xlink:href="#DejaVuSans-30" x="127.246094"/>
      </g>
     </g>
    </g>
    <g id="xtick_10">
     <g id="line2d_16">
      <g>
       <use xlink:href="#mae578a0fc6" x="422.10714" y="267.077647" style="stroke: #000000; stroke-width: 0.8"/>
      </g>
     </g>
     <g id="text_16">
      <!-- 400 -->
      <g transform="translate(412.56339 281.676085) scale(0.1 -0.1)">
       <use xlink:href="#DejaVuSans-34"/>
       <use xlink:href="#DejaVuSans-30" x="63.623047"/>
       <use xlink:href="#DejaVuSans-30" x="127.246094"/>
      </g>
     </g>
    </g>
    <g id="xtick_11">
     <g id="line2d_17">
      <g>
       <use xlink:href="#mae578a0fc6" x="505.842003" y="267.077647" style="stroke: #000000; stroke-width: 0.8"/>
      </g>
     </g>
     <g id="text_17">
      <!-- 500 -->
      <g transform="translate(496.298253 281.676085) scale(0.1 -0.1)">
       <use xlink:href="#DejaVuSans-35"/>
       <use xlink:href="#DejaVuSans-30" x="63.623047"/>
       <use xlink:href="#DejaVuSans-30" x="127.246094"/>
      </g>
     </g>
    </g>
    <g id="xtick_12">
     <g id="line2d_18">
      <g>
       <use xlink:href="#mae578a0fc6" x="589.576865" y="267.077647" style="stroke: #000000; stroke-width: 0.8"/>
      </g>
     </g>
     <g id="text_18">
      <!-- 600 -->
      <g transform="translate(580.033115 281.676085) scale(0.1 -0.1)">
       <use xlink:href="#DejaVuSans-36"/>
       <use xlink:href="#DejaVuSans-30" x="63.623047"/>
       <use xlink:href="#DejaVuSans-30" x="127.246094"/>
      </g>
     </g>
    </g>
   </g>
   <g id="matplotlib.axis_4">
    <g id="ytick_5">
     <g id="line2d_19">
      <g>
       <use xlink:href="#mef87130b55" x="90" y="253.101176" style="stroke: #000000; stroke-width: 0.8"/>
      </g>
     </g>
     <g id="text_19">
      <!-- 0 -->
      <g transform="translate(76.6375 256.900395) scale(0.1 -0.1)">
       <use xlink:href="#DejaVuSans-30"/>
      </g>
     </g>
    </g>
    <g id="ytick_6">
     <g id="line2d_20">
      <g>
       <use xlink:href="#mef87130b55" x="90" y="225.148235" style="stroke: #000000; stroke-width: 0.8"/>
      </g>
     </g>
     <g id="text_20">
      <!-- 10 -->
      <g transform="translate(70.275 228.947454) scale(0.1 -0.1)">
       <use xlink:href="#DejaVuSans-31"/>
       <use xlink:href="#DejaVuSans-30" x="63.623047"/>
      </g>
     </g>
    </g>
    <g id="ytick_7">
     <g id="line2d_21">
      <g>
       <use xlink:href="#mef87130b55" x="90" y="197.195294" style="stroke: #000000; stroke-width: 0.8"/>
      </g>
     </g>
     <g id="text_21">
      <!-- 20 -->
      <g transform="translate(70.275 200.994513) scale(0.1 -0.1)">
       <use xlink:href="#DejaVuSans-32"/>
       <use xlink:href="#DejaVuSans-30" x="63.623047"/>
      </g>
     </g>
    </g>
    <g id="ytick_8">
     <g id="line2d_22">
      <g>
       <use xlink:href="#mef87130b55" x="90" y="169.242353" style="stroke: #000000; stroke-width: 0.8"/>
      </g>
     </g>
     <g id="text_22">
      <!-- 30 -->
      <g transform="translate(70.275 173.041572) scale(0.1 -0.1)">
       <use xlink:href="#DejaVuSans-33"/>
       <use xlink:href="#DejaVuSans-30" x="63.623047"/>
      </g>
     </g>
    </g>
    <g id="text_23">
     <!-- Delta Y -->
     <g transform="translate(63.363438 243.335938) rotate(-90) scale(0.14 -0.14)">
      <defs>
       <path id="DejaVuSans-59" d="M -13 4666 
L 666 4666 
L 1959 2747 
L 3244 4666 
L 3922 4666 
L 2272 2222 
L 2272 0 
L 1638 0 
L 1638 2222 
L -13 4666 
z
" transform="scale(0.015625)"/>
      </defs>
      <use xlink:href="#DejaVuSans-44"/>
      <use xlink:href="#DejaVuSans-65" x="77.001953"/>
      <use xlink:href="#DejaVuSans-6c" x="138.525391"/>
      <use xlink:href="#DejaVuSans-74" x="166.308594"/>
      <use xlink:href="#DejaVuSans-61" x="205.517578"/>
      <use xlink:href="#DejaVuSans-20" x="266.796875"/>
      <use xlink:href="#DejaVuSans-59" x="298.583984"/>
     </g>
    </g>
   </g>
   <g id="line2d_23">
    <path d="M 90 253.101176 
L 100.957704 253.0841 
L 102.643505 252.964988 
L 103.486405 253.054154 
L 105.172205 252.850921 
L 106.858006 252.941963 
L 108.543807 252.697326 
L 114.444109 253.099227 
L 122.030211 253.006563 
L 125.401813 253.046898 
L 127.087613 253.032497 
L 127.930514 252.935905 
L 129.616314 252.998537 
L 131.302115 252.91718 
L 132.145015 253.096148 
L 135.516616 253.083778 
L 138.045317 253.084672 
L 141.416918 237.202919 
L 146.47432 214.557552 
L 148.160121 208.305897 
L 149.003021 205.541926 
L 150.688822 201.137991 
L 153.217523 196.009803 
L 154.903323 192.998462 
L 156.589124 189.852819 
L 158.274924 186.2548 
L 159.960725 182.241866 
L 161.646526 177.853483 
L 166.703927 161.59917 
L 179.347432 118.703371 
L 181.033233 111.841448 
L 182.719033 103.677593 
L 185.247734 89.2311 
L 186.933535 77.38635 
L 190.305136 51.927193 
L 196.552977 -1 
M 255.379078 -1 
L 261.108761 116.801306 
L 267.851964 244.92562 
L 268.694864 244.096749 
L 280.720028 -1 
M 444.191946 -1 
L 444.861027 110.77906 
L 445.703927 179.800674 
L 446.546828 215.271155 
L 447.389728 233.599516 
L 448.232628 243.081316 
L 449.075529 248.029872 
L 449.918429 250.662603 
L 450.761329 251.76184 
L 451.60423 252.39131 
L 452.44713 252.839755 
L 453.29003 253.000659 
L 454.975831 252.943424 
L 455.818731 252.805901 
L 457.504532 252.906615 
L 460.033233 238.073278 
L 462.561934 221.941024 
L 465.933535 198.932664 
L 471.833837 156.654902 
L 476.891239 121.046446 
L 480.26284 99.000736 
L 482.791541 83.891295 
L 483.634441 79.1868 
L 484.477341 163.056108 
L 485.320242 206.84573 
L 486.163142 229.359118 
L 487.006042 240.808062 
L 487.848943 246.744971 
L 488.691843 249.864715 
L 489.534743 251.530377 
L 490.377644 252.206328 
L 491.220544 252.55637 
L 492.906344 252.949607 
L 493.749245 253.090898 
L 495.435045 252.865146 
L 496.277946 253.100169 
L 497.120846 252.958909 
L 498.806647 253.08609 
L 510.607251 252.933962 
L 519.879154 252.890503 
L 521.564955 246.29984 
L 535.05136 190.465386 
L 538.422961 178.403589 
L 539.265861 177.789893 
L 540.951662 178.522341 
L 541.794562 175.874664 
L 542.637462 176.177964 
L 543.480363 178.042633 
L 544.323263 180.413546 
L 545.166163 183.288476 
L 546.009063 186.662734 
L 547.694864 194.878282 
L 549.380665 204.974389 
L 550.223565 210.690648 
L 551.909366 225.23116 
L 554.438066 251.871835 
L 555.280967 251.234395 
L 556.123867 251.736999 
L 556.966767 252.47113 
L 557.809668 252.879726 
L 558.652568 253.037662 
L 560.338369 252.983058 
L 561.181269 252.87717 
L 562.024169 253.090332 
L 563.70997 253.005124 
L 565.39577 253.037246 
L 567.081571 252.803738 
L 570.453172 232.080426 
L 573.824773 209.876509 
L 574.667674 204.116699 
L 577.196375 155.720781 
L 578.882175 126.840146 
L 580.567976 101.020166 
L 582.253776 76.632794 
L 585.625378 59.108927 
L 587.311178 51.105886 
L 589.839879 39.574408 
L 598.093989 -1 
M 604.357309 -1 
L 605.012085 106.173383 
L 605.854985 177.413185 
L 606.697885 213.794303 
L 607.540785 232.735446 
L 608.383686 242.497873 
L 609.226586 247.477057 
L 610.069486 250.194073 
L 610.912387 251.562372 
L 611.755287 252.202886 
L 612.598187 252.645009 
L 613.441088 252.841561 
L 618.498489 253.070115 
L 621.870091 253.090037 
L 623.555891 241.68325 
L 626.084592 223.003641 
L 647.1571 56.535382 
L 647.1571 56.535382 
" clip-path="url(#pbf9dcc51fd)" style="fill: none; stroke: #c0c0c0; stroke-width: 1.5; stroke-linecap: square"/>
   </g>
   <g id="patch_9">
    <path d="M 90 267.077647 
L 90 169.242353 
" style="fill: none; stroke: #000000; stroke-width: 0.8; stroke-linejoin: miter; stroke-linecap: square"/>
   </g>
   <g id="patch_10">
    <path d="M 648 267.077647 
L 648 169.242353 
" style="fill: none; stroke: #000000; stroke-width: 0.8; stroke-linejoin: miter; stroke-linecap: square"/>
   </g>
   <g id="patch_11">
    <path d="M 90 267.077647 
L 648 267.077647 
" style="fill: none; stroke: #000000; stroke-width: 0.8; stroke-linejoin: miter; stroke-linecap: square"/>
   </g>
   <g id="patch_12">
    <path d="M 90 169.242353 
L 648 169.242353 
" style="fill: none; stroke: #000000; stroke-width: 0.8; stroke-linejoin: miter; stroke-linecap: square"/>
   </g>
   <g id="legend_2">
    <g id="patch_13">
     <path d="M 527.454375 196.456103 
L 639.6 196.456103 
Q 642 196.456103 642 194.056103 
L 642 177.642353 
Q 642 175.242353 639.6 175.242353 
L 527.454375 175.242353 
Q 525.054375 175.242353 525.054375 177.642353 
L 525.054375 194.056103 
Q 525.054375 196.456103 527.454375 196.456103 
z
" style="fill: #ffffff; opacity: 0.5; stroke: #cccccc; stroke-linejoin: miter"/>
    </g>
    <g id="line2d_24">
     <path d="M 529.854375 184.960478 
L 541.854375 184.960478 
L 553.854375 184.960478 
" style="fill: none; stroke: #c0c0c0; stroke-width: 1.5; stroke-linecap: square"/>
    </g>
    <g id="text_24">
     <!-- abs(Delta Y) -->
     <g transform="translate(563.454375 189.160478) scale(0.12 -0.12)">
      <use xlink:href="#DejaVuSans-61"/>
      <use xlink:href="#DejaVuSans-62" x="61.279297"/>
      <use xlink:href="#DejaVuSans-73" x="124.755859"/>
      <use xlink:href="#DejaVuSans-28" x="176.855469"/>
      <use xlink:href="#DejaVuSans-44" x="215.869141"/>
      <use xlink:href="#DejaVuSans-65" x="292.871094"/>
      <use xlink:href="#DejaVuSans-6c" x="354.394531"/>
      <use xlink:href="#DejaVuSans-74" x="382.177734"/>
      <use xlink:href="#DejaVuSans-61" x="421.386719"/>
      <use xlink:href="#DejaVuSans-20" x="482.666016"/>
      <use xlink:href="#DejaVuSans-59" x="514.453125"/>
      <use xlink:href="#DejaVuSans-29" x="575.537109"/>
     </g>
    </g>
   </g>
  </g>
  <g id="axes_3">
   <g id="patch_14">
    <path d="M 90 384.48 
L 648 384.48 
L 648 286.644706 
L 90 286.644706 
z
" style="fill: #ffffff"/>
   </g>
   <g id="matplotlib.axis_5">
    <g id="xtick_13">
     <g id="line2d_25">
      <g>
       <use xlink:href="#mae578a0fc6" x="170.902553" y="384.48" style="stroke: #000000; stroke-width: 0.8"/>
      </g>
     </g>
     <g id="text_25">
      <!-- 100 -->
      <g transform="translate(161.358803 399.078438) scale(0.1 -0.1)">
       <use xlink:href="#DejaVuSans-31"/>
       <use xlink:href="#DejaVuSans-30" x="63.623047"/>
       <use xlink:href="#DejaVuSans-30" x="127.246094"/>
      </g>
     </g>
    </g>
    <g id="xtick_14">
     <g id="line2d_26">
      <g>
       <use xlink:href="#mae578a0fc6" x="254.637415" y="384.48" style="stroke: #000000; stroke-width: 0.8"/>
      </g>
     </g>
     <g id="text_26">
      <!-- 200 -->
      <g transform="translate(245.093665 399.078438) scale(0.1 -0.1)">
       <use xlink:href="#DejaVuSans-32"/>
       <use xlink:href="#DejaVuSans-30" x="63.623047"/>
       <use xlink:href="#DejaVuSans-30" x="127.246094"/>
      </g>
     </g>
    </g>
    <g id="xtick_15">
     <g id="line2d_27">
      <g>
       <use xlink:href="#mae578a0fc6" x="338.372278" y="384.48" style="stroke: #000000; stroke-width: 0.8"/>
      </g>
     </g>
     <g id="text_27">
      <!-- 300 -->
      <g transform="translate(328.828528 399.078438) scale(0.1 -0.1)">
       <use xlink:href="#DejaVuSans-33"/>
       <use xlink:href="#DejaVuSans-30" x="63.623047"/>
       <use xlink:href="#DejaVuSans-30" x="127.246094"/>
      </g>
     </g>
    </g>
    <g id="xtick_16">
     <g id="line2d_28">
      <g>
       <use xlink:href="#mae578a0fc6" x="422.10714" y="384.48" style="stroke: #000000; stroke-width: 0.8"/>
      </g>
     </g>
     <g id="text_28">
      <!-- 400 -->
      <g transform="translate(412.56339 399.078438) scale(0.1 -0.1)">
       <use xlink:href="#DejaVuSans-34"/>
       <use xlink:href="#DejaVuSans-30" x="63.623047"/>
       <use xlink:href="#DejaVuSans-30" x="127.246094"/>
      </g>
     </g>
    </g>
    <g id="xtick_17">
     <g id="line2d_29">
      <g>
       <use xlink:href="#mae578a0fc6" x="505.842003" y="384.48" style="stroke: #000000; stroke-width: 0.8"/>
      </g>
     </g>
     <g id="text_29">
      <!-- 500 -->
      <g transform="translate(496.298253 399.078438) scale(0.1 -0.1)">
       <use xlink:href="#DejaVuSans-35"/>
       <use xlink:href="#DejaVuSans-30" x="63.623047"/>
       <use xlink:href="#DejaVuSans-30" x="127.246094"/>
      </g>
     </g>
    </g>
    <g id="xtick_18">
     <g id="line2d_30">
      <g>
       <use xlink:href="#mae578a0fc6" x="589.576865" y="384.48" style="stroke: #000000; stroke-width: 0.8"/>
      </g>
     </g>
     <g id="text_30">
      <!-- 600 -->
      <g transform="translate(580.033115 399.078438) scale(0.1 -0.1)">
       <use xlink:href="#DejaVuSans-36"/>
       <use xlink:href="#DejaVuSans-30" x="63.623047"/>
       <use xlink:href="#DejaVuSans-30" x="127.246094"/>
      </g>
     </g>
    </g>
    <g id="text_31">
     <!-- Time step -->
     <g transform="translate(334.506406 421.795937) scale(0.14 -0.14)">
      <defs>
       <path id="DejaVuSans-54" d="M -19 4666 
L 3928 4666 
L 3928 4134 
L 2272 4134 
L 2272 0 
L 1638 0 
L 1638 4134 
L -19 4134 
L -19 4666 
z
" transform="scale(0.015625)"/>
       <path id="DejaVuSans-69" d="M 603 3500 
L 1178 3500 
L 1178 0 
L 603 0 
L 603 3500 
z
M 603 4863 
L 1178 4863 
L 1178 4134 
L 603 4134 
L 603 4863 
z
" transform="scale(0.015625)"/>
       <path id="DejaVuSans-6d" d="M 3328 2828 
Q 3544 3216 3844 3400 
Q 4144 3584 4550 3584 
Q 5097 3584 5394 3201 
Q 5691 2819 5691 2113 
L 5691 0 
L 5113 0 
L 5113 2094 
Q 5113 2597 4934 2840 
Q 4756 3084 4391 3084 
Q 3944 3084 3684 2787 
Q 3425 2491 3425 1978 
L 3425 0 
L 2847 0 
L 2847 2094 
Q 2847 2600 2669 2842 
Q 2491 3084 2119 3084 
Q 1678 3084 1418 2786 
Q 1159 2488 1159 1978 
L 1159 0 
L 581 0 
L 581 3500 
L 1159 3500 
L 1159 2956 
Q 1356 3278 1631 3431 
Q 1906 3584 2284 3584 
Q 2666 3584 2933 3390 
Q 3200 3197 3328 2828 
z
" transform="scale(0.015625)"/>
       <path id="DejaVuSans-70" d="M 1159 525 
L 1159 -1331 
L 581 -1331 
L 581 3500 
L 1159 3500 
L 1159 2969 
Q 1341 3281 1617 3432 
Q 1894 3584 2278 3584 
Q 2916 3584 3314 3078 
Q 3713 2572 3713 1747 
Q 3713 922 3314 415 
Q 2916 -91 2278 -91 
Q 1894 -91 1617 61 
Q 1341 213 1159 525 
z
M 3116 1747 
Q 3116 2381 2855 2742 
Q 2594 3103 2138 3103 
Q 1681 3103 1420 2742 
Q 1159 2381 1159 1747 
Q 1159 1113 1420 752 
Q 1681 391 2138 391 
Q 2594 391 2855 752 
Q 3116 1113 3116 1747 
z
" transform="scale(0.015625)"/>
      </defs>
      <use xlink:href="#DejaVuSans-54"/>
      <use xlink:href="#DejaVuSans-69" x="57.958984"/>
      <use xlink:href="#DejaVuSans-6d" x="85.742188"/>
      <use xlink:href="#DejaVuSans-65" x="183.154297"/>
      <use xlink:href="#DejaVuSans-20" x="244.677734"/>
      <use xlink:href="#DejaVuSans-73" x="276.464844"/>
      <use xlink:href="#DejaVuSans-74" x="328.564453"/>
      <use xlink:href="#DejaVuSans-65" x="367.773438"/>
      <use xlink:href="#DejaVuSans-70" x="429.296875"/>
     </g>
    </g>
   </g>
   <g id="matplotlib.axis_6">
    <g id="ytick_9">
     <g id="line2d_31">
      <g>
       <use xlink:href="#mef87130b55" x="90" y="364.912941" style="stroke: #000000; stroke-width: 0.8"/>
      </g>
     </g>
     <g id="text_32">
      <!-- 0 -->
      <g transform="translate(76.6375 368.71216) scale(0.1 -0.1)">
       <use xlink:href="#DejaVuSans-30"/>
      </g>
     </g>
    </g>
    <g id="ytick_10">
     <g id="line2d_32">
      <g>
       <use xlink:href="#mef87130b55" x="90" y="325.778824" style="stroke: #000000; stroke-width: 0.8"/>
      </g>
     </g>
     <g id="text_33">
      <!-- 10 -->
      <g transform="translate(70.275 329.578042) scale(0.1 -0.1)">
       <use xlink:href="#DejaVuSans-31"/>
       <use xlink:href="#DejaVuSans-30" x="63.623047"/>
      </g>
     </g>
    </g>
    <g id="ytick_11">
     <g id="line2d_33">
      <g>
       <use xlink:href="#mef87130b55" x="90" y="286.644706" style="stroke: #000000; stroke-width: 0.8"/>
      </g>
     </g>
     <g id="text_34">
      <!-- 20 -->
      <g transform="translate(70.275 290.443925) scale(0.1 -0.1)">
       <use xlink:href="#DejaVuSans-32"/>
       <use xlink:href="#DejaVuSans-30" x="63.623047"/>
      </g>
     </g>
    </g>
    <g id="text_35">
     <!-- Delta Theta -->
     <g transform="translate(63.363438 376.515634) rotate(-90) scale(0.14 -0.14)">
      <defs>
       <path id="DejaVuSans-68" d="M 3513 2113 
L 3513 0 
L 2938 0 
L 2938 2094 
Q 2938 2591 2744 2837 
Q 2550 3084 2163 3084 
Q 1697 3084 1428 2787 
Q 1159 2491 1159 1978 
L 1159 0 
L 581 0 
L 581 4863 
L 1159 4863 
L 1159 2956 
Q 1366 3272 1645 3428 
Q 1925 3584 2291 3584 
Q 2894 3584 3203 3211 
Q 3513 2838 3513 2113 
z
" transform="scale(0.015625)"/>
      </defs>
      <use xlink:href="#DejaVuSans-44"/>
      <use xlink:href="#DejaVuSans-65" x="77.001953"/>
      <use xlink:href="#DejaVuSans-6c" x="138.525391"/>
      <use xlink:href="#DejaVuSans-74" x="166.308594"/>
      <use xlink:href="#DejaVuSans-61" x="205.517578"/>
      <use xlink:href="#DejaVuSans-20" x="266.796875"/>
      <use xlink:href="#DejaVuSans-54" x="298.583984"/>
      <use xlink:href="#DejaVuSans-68" x="359.667969"/>
      <use xlink:href="#DejaVuSans-65" x="423.046875"/>
      <use xlink:href="#DejaVuSans-74" x="484.570312"/>
      <use xlink:href="#DejaVuSans-61" x="523.779297"/>
     </g>
    </g>
   </g>
   <g id="line2d_34">
    <path d="M 90 364.912941 
L 93.371601 364.912941 
L 94.214502 361.935202 
L 95.057402 358.352443 
L 95.900302 360.290431 
L 96.743202 363.973735 
L 97.586103 362.126031 
L 98.429003 361.368955 
L 99.271903 361.215132 
L 100.114804 364.161617 
L 100.957704 359.110117 
L 101.800604 363.114225 
L 102.643505 355.614259 
L 103.486405 363.824517 
L 104.329305 364.691794 
L 105.172205 361.980135 
L 106.015106 358.361572 
L 106.858006 357.310836 
L 107.700906 357.41286 
L 108.543807 360.411329 
L 109.386707 362.849844 
L 110.229607 355.560541 
L 111.072508 363.012712 
L 111.915408 355.593633 
L 113.601208 363.923197 
L 114.444109 362.136299 
L 115.287009 361.371041 
L 116.129909 361.215556 
L 119.501511 361.175976 
L 122.873112 361.175908 
L 123.716012 358.198169 
L 124.558912 357.344037 
L 125.401813 360.397345 
L 126.244713 362.852685 
L 127.087613 355.561119 
L 127.930514 363.835314 
L 128.773414 362.154155 
L 130.459215 354.655794 
L 131.302115 358.06378 
L 132.145015 360.349081 
L 132.987915 361.007913 
L 133.830816 364.119514 
L 134.673716 364.751732 
L 136.359517 364.906286 
L 137.202417 364.911589 
L 143.102719 344.069041 
L 149.003021 302.380692 
L 150.688822 296.425213 
L 152.374622 296.425213 
L 154.060423 302.380692 
L 162.489426 361.935477 
L 163.332326 361.934927 
L 179.347432 248.780835 
L 181.033233 242.825357 
L 182.719033 242.825357 
L 185.247734 251.758575 
L 186.090634 251.758575 
L 190.305136 266.647271 
L 211.377644 266.647271 
L 213.063444 272.60275 
L 214.749245 284.513707 
L 222.335347 364.912666 
L 223.178248 355.979998 
L 248.44058 -1 
M 443.793124 -1 
L 444.018127 189.967576 
L 444.861027 338.300603 
L 445.703927 353.550344 
L 446.546828 359.626539 
L 447.389728 360.861106 
L 448.232628 361.111946 
L 449.075529 358.185173 
L 449.918429 357.346677 
L 450.761329 360.397882 
L 451.60423 362.852576 
L 452.44713 355.561097 
L 453.29003 363.835318 
L 454.132931 362.154154 
L 454.975831 355.419191 
L 455.818731 363.864151 
L 456.661631 362.148296 
L 458.347432 349.462522 
L 483.634441 170.798167 
L 484.477341 322.494788 
L 485.320242 347.361165 
L 486.163142 364.324495 
L 487.006042 364.79338 
L 487.848943 361.910909 
L 488.691843 358.347507 
L 489.534743 357.313694 
L 490.377644 357.413441 
L 491.220544 360.411447 
L 492.063444 363.998324 
L 492.906344 362.121035 
L 494.592145 354.654427 
L 495.435045 358.064057 
L 496.277946 357.371286 
L 497.120846 360.489783 
L 497.963746 361.036501 
L 498.806647 364.125323 
L 499.649547 359.117492 
L 500.492447 360.134987 
L 501.335347 363.942152 
L 502.178248 359.154708 
L 503.021148 360.127426 
L 503.864048 363.940616 
L 504.706949 362.13276 
L 505.549849 358.392583 
L 506.392749 357.63265 
L 507.23565 357.478247 
L 510.607251 357.438942 
L 511.450151 357.438889 
L 512.293051 360.416617 
L 513.135952 361.021635 
L 514.821752 361.169539 
L 534.208459 361.175908 
L 535.05136 358.198169 
L 536.73716 346.287211 
L 538.422961 328.420776 
L 550.223565 161.667378 
L 551.909366 143.800942 
L 553.595166 131.889985 
L 554.438066 314.589389 
L 555.280967 348.732678 
L 556.123867 359.267244 
L 556.966767 357.810365 
L 557.809668 360.492094 
L 558.652568 364.01471 
L 559.495468 362.117705 
L 560.338369 358.389524 
L 561.181269 357.305157 
L 562.024169 357.411706 
L 562.867069 360.411094 
L 563.70997 363.998252 
L 564.55287 362.121049 
L 566.238671 354.654428 
L 567.081571 361.041797 
L 567.924471 364.019536 
L 568.767372 362.828607 
L 576.353474 336.028954 
L 578.039275 324.117997 
L 579.725076 306.251561 
L 588.154079 187.141991 
L 589.839879 169.275556 
L 591.52568 157.364599 
L 594.054381 148.431381 
L 604.169184 148.431381 
L 605.012085 323.905763 
L 605.854985 362.536544 
L 606.697885 358.474624 
L 607.540785 363.604798 
L 608.383686 359.223252 
L 609.226586 360.113499 
L 610.069486 363.937786 
L 610.912387 359.155596 
L 611.755287 360.127245 
L 612.598187 363.940579 
L 613.441088 359.155028 
L 614.283988 360.127361 
L 615.126888 363.940603 
L 615.969789 359.155023 
L 616.812689 360.127362 
L 617.655589 363.940603 
L 618.498489 359.155023 
L 619.34139 360.127362 
L 620.18429 363.940603 
L 621.02719 359.155023 
L 621.870091 360.127362 
L 622.712991 363.743042 
L 625.241692 354.809824 
L 647.1571 354.809824 
L 647.1571 354.809824 
" clip-path="url(#p83441cdec3)" style="fill: none; stroke: #c0c0c0; stroke-width: 1.5; stroke-linecap: square"/>
   </g>
   <g id="patch_15">
    <path d="M 90 384.48 
L 90 286.644706 
" style="fill: none; stroke: #000000; stroke-width: 0.8; stroke-linejoin: miter; stroke-linecap: square"/>
   </g>
   <g id="patch_16">
    <path d="M 648 384.48 
L 648 286.644706 
" style="fill: none; stroke: #000000; stroke-width: 0.8; stroke-linejoin: miter; stroke-linecap: square"/>
   </g>
   <g id="patch_17">
    <path d="M 90 384.48 
L 648 384.48 
" style="fill: none; stroke: #000000; stroke-width: 0.8; stroke-linejoin: miter; stroke-linecap: square"/>
   </g>
   <g id="patch_18">
    <path d="M 90 286.644706 
L 648 286.644706 
" style="fill: none; stroke: #000000; stroke-width: 0.8; stroke-linejoin: miter; stroke-linecap: square"/>
   </g>
   <g id="legend_3">
    <g id="patch_19">
     <path d="M 500.4075 313.858456 
L 639.6 313.858456 
Q 642 313.858456 642 311.458456 
L 642 295.044706 
Q 642 292.644706 639.6 292.644706 
L 500.4075 292.644706 
Q 498.0075 292.644706 498.0075 295.044706 
L 498.0075 311.458456 
Q 498.0075 313.858456 500.4075 313.858456 
z
" style="fill: #ffffff; opacity: 0.5; stroke: #cccccc; stroke-linejoin: miter"/>
    </g>
    <g id="line2d_35">
     <path d="M 502.8075 302.362831 
L 514.8075 302.362831 
L 526.8075 302.362831 
" style="fill: none; stroke: #c0c0c0; stroke-width: 1.5; stroke-linecap: square"/>
    </g>
    <g id="text_36">
     <!-- abs(Delta Theta) -->
     <g transform="translate(536.4075 306.562831) scale(0.12 -0.12)">
      <use xlink:href="#DejaVuSans-61"/>
      <use xlink:href="#DejaVuSans-62" x="61.279297"/>
      <use xlink:href="#DejaVuSans-73" x="124.755859"/>
      <use xlink:href="#DejaVuSans-28" x="176.855469"/>
      <use xlink:href="#DejaVuSans-44" x="215.869141"/>
      <use xlink:href="#DejaVuSans-65" x="292.871094"/>
      <use xlink:href="#DejaVuSans-6c" x="354.394531"/>
      <use xlink:href="#DejaVuSans-74" x="382.177734"/>
      <use xlink:href="#DejaVuSans-61" x="421.386719"/>
      <use xlink:href="#DejaVuSans-20" x="482.666016"/>
      <use xlink:href="#DejaVuSans-54" x="514.453125"/>
      <use xlink:href="#DejaVuSans-68" x="575.537109"/>
      <use xlink:href="#DejaVuSans-65" x="638.916016"/>
      <use xlink:href="#DejaVuSans-74" x="700.439453"/>
      <use xlink:href="#DejaVuSans-61" x="739.648438"/>
      <use xlink:href="#DejaVuSans-29" x="800.927734"/>
     </g>
    </g>
   </g>
  </g>
 </g>
 <defs>
  <clipPath id="pcc61fb3737">
   <rect x="90" y="51.84" width="558" height="97.835294"/>
  </clipPath>
  <clipPath id="pbf9dcc51fd">
   <rect x="90" y="169.242353" width="558" height="97.835294"/>
  </clipPath>
  <clipPath id="p83441cdec3">
   <rect x="90" y="286.644706" width="558" height="97.835294"/>
  </clipPath>
 </defs>
</svg>
