<?xml version="1.0" encoding="utf-8" standalone="no"?>
<!DOCTYPE svg PUBLIC "-//W3C//DTD SVG 1.1//EN"
  "http://www.w3.org/Graphics/SVG/1.1/DTD/svg11.dtd">
<svg xmlns:xlink="http://www.w3.org/1999/xlink" width="720pt" height="432pt" viewBox="0 0 720 432" xmlns="http://www.w3.org/2000/svg" version="1.1">
 <metadata>
  <rdf:RDF xmlns:dc="http://purl.org/dc/elements/1.1/" xmlns:cc="http://creativecommons.org/ns#" xmlns:rdf="http://www.w3.org/1999/02/22-rdf-syntax-ns#">
   <cc:Work>
    <dc:type rdf:resource="http://purl.org/dc/dcmitype/StillImage"/>
    <dc:date>2024-05-05T00:46:11.895825</dc:date>
    <dc:format>image/svg+xml</dc:format>
    <dc:creator>
     <cc:Agent>
      <dc:title>Matplotlib v3.8.4, https://matplotlib.org/</dc:title>
     </cc:Agent>
    </dc:creator>
   </cc:Work>
  </rdf:RDF>
 </metadata>
 <defs>
  <style type="text/css">*{stroke-linejoin: round; stroke-linecap: butt}</style>
 </defs>
 <g id="figure_1">
  <g id="patch_1">
   <path d="M 0 432 
L 720 432 
L 720 0 
L 0 0 
z
" style="fill: #ffffff"/>
  </g>
  <g id="axes_1">
   <g id="patch_2">
    <path d="M 90 149.675294 
L 648 149.675294 
L 648 51.84 
L 90 51.84 
z
" style="fill: #ffffff"/>
   </g>
   <g id="matplotlib.axis_1">
    <g id="xtick_1">
     <g id="line2d_1">
      <defs>
       <path id="mc75dcca96c" d="M 0 0 
L 0 3.5 
" style="stroke: #000000; stroke-width: 0.8"/>
      </defs>
      <g>
       <use xlink:href="#mc75dcca96c" x="172.297054" y="149.675294" style="stroke: #000000; stroke-width: 0.8"/>
      </g>
     </g>
     <g id="text_1">
      <!-- 4100 -->
      <g transform="translate(159.572054 164.273732) scale(0.1 -0.1)">
       <defs>
        <path id="DejaVuSans-34" d="M 2419 4116 
L 825 1625 
L 2419 1625 
L 2419 4116 
z
M 2253 4666 
L 3047 4666 
L 3047 1625 
L 3713 1625 
L 3713 1100 
L 3047 1100 
L 3047 0 
L 2419 0 
L 2419 1100 
L 313 1100 
L 313 1709 
L 2253 4666 
z
" transform="scale(0.015625)"/>
        <path id="DejaVuSans-31" d="M 794 531 
L 1825 531 
L 1825 4091 
L 703 3866 
L 703 4441 
L 1819 4666 
L 2450 4666 
L 2450 531 
L 3481 531 
L 3481 0 
L 794 0 
L 794 531 
z
" transform="scale(0.015625)"/>
        <path id="DejaVuSans-30" d="M 2034 4250 
Q 1547 4250 1301 3770 
Q 1056 3291 1056 2328 
Q 1056 1369 1301 889 
Q 1547 409 2034 409 
Q 2525 409 2770 889 
Q 3016 1369 3016 2328 
Q 3016 3291 2770 3770 
Q 2525 4250 2034 4250 
z
M 2034 4750 
Q 2819 4750 3233 4129 
Q 3647 3509 3647 2328 
Q 3647 1150 3233 529 
Q 2819 -91 2034 -91 
Q 1250 -91 836 529 
Q 422 1150 422 2328 
Q 422 3509 836 4129 
Q 1250 4750 2034 4750 
z
" transform="scale(0.015625)"/>
       </defs>
       <use xlink:href="#DejaVuSans-34"/>
       <use xlink:href="#DejaVuSans-31" x="63.623047"/>
       <use xlink:href="#DejaVuSans-30" x="127.246094"/>
       <use xlink:href="#DejaVuSans-30" x="190.869141"/>
      </g>
     </g>
    </g>
    <g id="xtick_2">
     <g id="line2d_2">
      <g>
       <use xlink:href="#mc75dcca96c" x="256.031916" y="149.675294" style="stroke: #000000; stroke-width: 0.8"/>
      </g>
     </g>
     <g id="text_2">
      <!-- 4200 -->
      <g transform="translate(243.306916 164.273732) scale(0.1 -0.1)">
       <defs>
        <path id="DejaVuSans-32" d="M 1228 531 
L 3431 531 
L 3431 0 
L 469 0 
L 469 531 
Q 828 903 1448 1529 
Q 2069 2156 2228 2338 
Q 2531 2678 2651 2914 
Q 2772 3150 2772 3378 
Q 2772 3750 2511 3984 
Q 2250 4219 1831 4219 
Q 1534 4219 1204 4116 
Q 875 4013 500 3803 
L 500 4441 
Q 881 4594 1212 4672 
Q 1544 4750 1819 4750 
Q 2544 4750 2975 4387 
Q 3406 4025 3406 3419 
Q 3406 3131 3298 2873 
Q 3191 2616 2906 2266 
Q 2828 2175 2409 1742 
Q 1991 1309 1228 531 
z
" transform="scale(0.015625)"/>
       </defs>
       <use xlink:href="#DejaVuSans-34"/>
       <use xlink:href="#DejaVuSans-32" x="63.623047"/>
       <use xlink:href="#DejaVuSans-30" x="127.246094"/>
       <use xlink:href="#DejaVuSans-30" x="190.869141"/>
      </g>
     </g>
    </g>
    <g id="xtick_3">
     <g id="line2d_3">
      <g>
       <use xlink:href="#mc75dcca96c" x="339.766779" y="149.675294" style="stroke: #000000; stroke-width: 0.8"/>
      </g>
     </g>
     <g id="text_3">
      <!-- 4300 -->
      <g transform="translate(327.041779 164.273732) scale(0.1 -0.1)">
       <defs>
        <path id="DejaVuSans-33" d="M 2597 2516 
Q 3050 2419 3304 2112 
Q 3559 1806 3559 1356 
Q 3559 666 3084 287 
Q 2609 -91 1734 -91 
Q 1441 -91 1130 -33 
Q 819 25 488 141 
L 488 750 
Q 750 597 1062 519 
Q 1375 441 1716 441 
Q 2309 441 2620 675 
Q 2931 909 2931 1356 
Q 2931 1769 2642 2001 
Q 2353 2234 1838 2234 
L 1294 2234 
L 1294 2753 
L 1863 2753 
Q 2328 2753 2575 2939 
Q 2822 3125 2822 3475 
Q 2822 3834 2567 4026 
Q 2313 4219 1838 4219 
Q 1578 4219 1281 4162 
Q 984 4106 628 3988 
L 628 4550 
Q 988 4650 1302 4700 
Q 1616 4750 1894 4750 
Q 2613 4750 3031 4423 
Q 3450 4097 3450 3541 
Q 3450 3153 3228 2886 
Q 3006 2619 2597 2516 
z
" transform="scale(0.015625)"/>
       </defs>
       <use xlink:href="#DejaVuSans-34"/>
       <use xlink:href="#DejaVuSans-33" x="63.623047"/>
       <use xlink:href="#DejaVuSans-30" x="127.246094"/>
       <use xlink:href="#DejaVuSans-30" x="190.869141"/>
      </g>
     </g>
    </g>
    <g id="xtick_4">
     <g id="line2d_4">
      <g>
       <use xlink:href="#mc75dcca96c" x="423.501641" y="149.675294" style="stroke: #000000; stroke-width: 0.8"/>
      </g>
     </g>
     <g id="text_4">
      <!-- 4400 -->
      <g transform="translate(410.776641 164.273732) scale(0.1 -0.1)">
       <use xlink:href="#DejaVuSans-34"/>
       <use xlink:href="#DejaVuSans-34" x="63.623047"/>
       <use xlink:href="#DejaVuSans-30" x="127.246094"/>
       <use xlink:href="#DejaVuSans-30" x="190.869141"/>
      </g>
     </g>
    </g>
    <g id="xtick_5">
     <g id="line2d_5">
      <g>
       <use xlink:href="#mc75dcca96c" x="507.236504" y="149.675294" style="stroke: #000000; stroke-width: 0.8"/>
      </g>
     </g>
     <g id="text_5">
      <!-- 4500 -->
      <g transform="translate(494.511504 164.273732) scale(0.1 -0.1)">
       <defs>
        <path id="DejaVuSans-35" d="M 691 4666 
L 3169 4666 
L 3169 4134 
L 1269 4134 
L 1269 2991 
Q 1406 3038 1543 3061 
Q 1681 3084 1819 3084 
Q 2600 3084 3056 2656 
Q 3513 2228 3513 1497 
Q 3513 744 3044 326 
Q 2575 -91 1722 -91 
Q 1428 -91 1123 -41 
Q 819 9 494 109 
L 494 744 
Q 775 591 1075 516 
Q 1375 441 1709 441 
Q 2250 441 2565 725 
Q 2881 1009 2881 1497 
Q 2881 1984 2565 2268 
Q 2250 2553 1709 2553 
Q 1456 2553 1204 2497 
Q 953 2441 691 2322 
L 691 4666 
z
" transform="scale(0.015625)"/>
       </defs>
       <use xlink:href="#DejaVuSans-34"/>
       <use xlink:href="#DejaVuSans-35" x="63.623047"/>
       <use xlink:href="#DejaVuSans-30" x="127.246094"/>
       <use xlink:href="#DejaVuSans-30" x="190.869141"/>
      </g>
     </g>
    </g>
    <g id="xtick_6">
     <g id="line2d_6">
      <g>
       <use xlink:href="#mc75dcca96c" x="590.971366" y="149.675294" style="stroke: #000000; stroke-width: 0.8"/>
      </g>
     </g>
     <g id="text_6">
      <!-- 4600 -->
      <g transform="translate(578.246366 164.273732) scale(0.1 -0.1)">
       <defs>
        <path id="DejaVuSans-36" d="M 2113 2584 
Q 1688 2584 1439 2293 
Q 1191 2003 1191 1497 
Q 1191 994 1439 701 
Q 1688 409 2113 409 
Q 2538 409 2786 701 
Q 3034 994 3034 1497 
Q 3034 2003 2786 2293 
Q 2538 2584 2113 2584 
z
M 3366 4563 
L 3366 3988 
Q 3128 4100 2886 4159 
Q 2644 4219 2406 4219 
Q 1781 4219 1451 3797 
Q 1122 3375 1075 2522 
Q 1259 2794 1537 2939 
Q 1816 3084 2150 3084 
Q 2853 3084 3261 2657 
Q 3669 2231 3669 1497 
Q 3669 778 3244 343 
Q 2819 -91 2113 -91 
Q 1303 -91 875 529 
Q 447 1150 447 2328 
Q 447 3434 972 4092 
Q 1497 4750 2381 4750 
Q 2619 4750 2861 4703 
Q 3103 4656 3366 4563 
z
" transform="scale(0.015625)"/>
       </defs>
       <use xlink:href="#DejaVuSans-34"/>
       <use xlink:href="#DejaVuSans-36" x="63.623047"/>
       <use xlink:href="#DejaVuSans-30" x="127.246094"/>
       <use xlink:href="#DejaVuSans-30" x="190.869141"/>
      </g>
     </g>
    </g>
   </g>
   <g id="matplotlib.axis_2">
    <g id="ytick_1">
     <g id="line2d_7">
      <defs>
       <path id="maa68fe1e47" d="M 0 0 
L -3.5 0 
" style="stroke: #000000; stroke-width: 0.8"/>
      </defs>
      <g>
       <use xlink:href="#maa68fe1e47" x="90" y="135.698824" style="stroke: #000000; stroke-width: 0.8"/>
      </g>
     </g>
     <g id="text_7">
      <!-- 0 -->
      <g transform="translate(76.6375 139.498042) scale(0.1 -0.1)">
       <use xlink:href="#DejaVuSans-30"/>
      </g>
     </g>
    </g>
    <g id="ytick_2">
     <g id="line2d_8">
      <g>
       <use xlink:href="#maa68fe1e47" x="90" y="107.745882" style="stroke: #000000; stroke-width: 0.8"/>
      </g>
     </g>
     <g id="text_8">
      <!-- 10 -->
      <g transform="translate(70.275 111.545101) scale(0.1 -0.1)">
       <use xlink:href="#DejaVuSans-31"/>
       <use xlink:href="#DejaVuSans-30" x="63.623047"/>
      </g>
     </g>
    </g>
    <g id="ytick_3">
     <g id="line2d_9">
      <g>
       <use xlink:href="#maa68fe1e47" x="90" y="79.792941" style="stroke: #000000; stroke-width: 0.8"/>
      </g>
     </g>
     <g id="text_9">
      <!-- 20 -->
      <g transform="translate(70.275 83.59216) scale(0.1 -0.1)">
       <use xlink:href="#DejaVuSans-32"/>
       <use xlink:href="#DejaVuSans-30" x="63.623047"/>
      </g>
     </g>
    </g>
    <g id="ytick_4">
     <g id="line2d_10">
      <g>
       <use xlink:href="#maa68fe1e47" x="90" y="51.84" style="stroke: #000000; stroke-width: 0.8"/>
      </g>
     </g>
     <g id="text_10">
      <!-- 30 -->
      <g transform="translate(70.275 55.639219) scale(0.1 -0.1)">
       <use xlink:href="#DejaVuSans-33"/>
       <use xlink:href="#DejaVuSans-30" x="63.623047"/>
      </g>
     </g>
    </g>
    <g id="text_11">
     <!-- Delta X -->
     <g transform="translate(63.363438 126.453116) rotate(-90) scale(0.14 -0.14)">
      <defs>
       <path id="DejaVuSans-44" d="M 1259 4147 
L 1259 519 
L 2022 519 
Q 2988 519 3436 956 
Q 3884 1394 3884 2338 
Q 3884 3275 3436 3711 
Q 2988 4147 2022 4147 
L 1259 4147 
z
M 628 4666 
L 1925 4666 
Q 3281 4666 3915 4102 
Q 4550 3538 4550 2338 
Q 4550 1131 3912 565 
Q 3275 0 1925 0 
L 628 0 
L 628 4666 
z
" transform="scale(0.015625)"/>
       <path id="DejaVuSans-65" d="M 3597 1894 
L 3597 1613 
L 953 1613 
Q 991 1019 1311 708 
Q 1631 397 2203 397 
Q 2534 397 2845 478 
Q 3156 559 3463 722 
L 3463 178 
Q 3153 47 2828 -22 
Q 2503 -91 2169 -91 
Q 1331 -91 842 396 
Q 353 884 353 1716 
Q 353 2575 817 3079 
Q 1281 3584 2069 3584 
Q 2775 3584 3186 3129 
Q 3597 2675 3597 1894 
z
M 3022 2063 
Q 3016 2534 2758 2815 
Q 2500 3097 2075 3097 
Q 1594 3097 1305 2825 
Q 1016 2553 972 2059 
L 3022 2063 
z
" transform="scale(0.015625)"/>
       <path id="DejaVuSans-6c" d="M 603 4863 
L 1178 4863 
L 1178 0 
L 603 0 
L 603 4863 
z
" transform="scale(0.015625)"/>
       <path id="DejaVuSans-74" d="M 1172 4494 
L 1172 3500 
L 2356 3500 
L 2356 3053 
L 1172 3053 
L 1172 1153 
Q 1172 725 1289 603 
Q 1406 481 1766 481 
L 2356 481 
L 2356 0 
L 1766 0 
Q 1100 0 847 248 
Q 594 497 594 1153 
L 594 3053 
L 172 3053 
L 172 3500 
L 594 3500 
L 594 4494 
L 1172 4494 
z
" transform="scale(0.015625)"/>
       <path id="DejaVuSans-61" d="M 2194 1759 
Q 1497 1759 1228 1600 
Q 959 1441 959 1056 
Q 959 750 1161 570 
Q 1363 391 1709 391 
Q 2188 391 2477 730 
Q 2766 1069 2766 1631 
L 2766 1759 
L 2194 1759 
z
M 3341 1997 
L 3341 0 
L 2766 0 
L 2766 531 
Q 2569 213 2275 61 
Q 1981 -91 1556 -91 
Q 1019 -91 701 211 
Q 384 513 384 1019 
Q 384 1609 779 1909 
Q 1175 2209 1959 2209 
L 2766 2209 
L 2766 2266 
Q 2766 2663 2505 2880 
Q 2244 3097 1772 3097 
Q 1472 3097 1187 3025 
Q 903 2953 641 2809 
L 641 3341 
Q 956 3463 1253 3523 
Q 1550 3584 1831 3584 
Q 2591 3584 2966 3190 
Q 3341 2797 3341 1997 
z
" transform="scale(0.015625)"/>
       <path id="DejaVuSans-20" transform="scale(0.015625)"/>
       <path id="DejaVuSans-58" d="M 403 4666 
L 1081 4666 
L 2241 2931 
L 3406 4666 
L 4084 4666 
L 2584 2425 
L 4184 0 
L 3506 0 
L 2194 1984 
L 872 0 
L 191 0 
L 1856 2491 
L 403 4666 
z
" transform="scale(0.015625)"/>
      </defs>
      <use xlink:href="#DejaVuSans-44"/>
      <use xlink:href="#DejaVuSans-65" x="77.001953"/>
      <use xlink:href="#DejaVuSans-6c" x="138.525391"/>
      <use xlink:href="#DejaVuSans-74" x="166.308594"/>
      <use xlink:href="#DejaVuSans-61" x="205.517578"/>
      <use xlink:href="#DejaVuSans-20" x="266.796875"/>
      <use xlink:href="#DejaVuSans-58" x="298.583984"/>
     </g>
    </g>
   </g>
   <g id="line2d_11">
    <path d="M 90 135.698824 
L 124.558912 135.61443 
L 125.401813 135.579299 
L 126.244713 135.666726 
L 132.145015 135.528053 
L 132.987915 135.682211 
L 142.259819 135.668682 
L 145.63142 135.686831 
L 147.317221 135.65601 
L 149.003021 135.645755 
L 149.845921 135.59912 
L 151.531722 135.675929 
L 161.646526 135.659459 
L 162.489426 135.128201 
L 163.332326 135.095268 
L 164.175227 134.427868 
L 165.018127 135.340103 
L 166.703927 135.203026 
L 167.546828 135.302872 
L 168.389728 134.673959 
L 169.232628 135.430964 
L 170.075529 135.558801 
L 170.918429 135.494159 
L 171.761329 134.851704 
L 172.60423 135.427199 
L 173.44713 135.635348 
L 182.719033 135.65881 
L 186.933535 135.619554 
L 189.462236 135.62748 
L 191.148036 135.582139 
L 213.063444 135.665994 
L 214.749245 135.62037 
L 215.592145 135.519202 
L 218.120846 135.654587 
L 218.963746 135.532785 
L 219.806647 135.605101 
L 220.649547 135.52474 
L 223.178248 135.658832 
L 224.021148 135.557774 
L 229.92145 135.652882 
L 235.821752 135.689765 
L 253.522659 135.615925 
L 254.365559 135.528805 
L 255.208459 135.678472 
L 258.58006 135.633769 
L 261.951662 135.568402 
L 262.794562 135.514176 
L 263.637462 135.683157 
L 278.809668 135.574575 
L 534.208459 135.661549 
L 535.05136 131.272808 
L 535.89426 130.702225 
L 536.73716 130.390752 
L 537.58006 130.751286 
L 538.422961 130.748926 
L 539.265861 134.563357 
L 540.108761 131.873841 
L 540.951662 134.810383 
L 541.794562 131.795331 
L 542.637462 131.073511 
L 543.480363 134.655297 
L 544.323263 135.467972 
L 545.166163 135.648563 
L 547.694864 135.693429 
L 551.066465 135.633485 
L 554.438066 135.686466 
L 556.966767 135.568894 
L 557.809668 135.684486 
L 568.767372 135.660894 
L 570.453172 135.637471 
L 572.138973 135.628443 
L 574.667674 135.687423 
L 575.510574 134.529679 
L 576.353474 134.256119 
L 577.196375 134.478407 
L 578.882175 134.603649 
L 583.096677 135.548331 
L 584.782477 135.685058 
L 586.468278 135.647481 
L 588.996979 135.662165 
L 589.839879 135.580378 
L 590.682779 135.667884 
L 592.36858 135.547056 
L 593.21148 135.684049 
L 603.326284 135.698693 
L 605.854985 135.640181 
L 606.697885 135.584458 
L 607.540785 135.693576 
L 611.755287 135.580348 
L 612.598187 135.691883 
L 616.812689 135.570812 
L 617.655589 135.69355 
L 621.870091 135.568454 
L 622.712991 135.693314 
L 640.413897 135.498076 
L 647.1571 135.496574 
L 647.1571 135.496574 
" clip-path="url(#p9598cb54b6)" style="fill: none; stroke: #bc8f8f; stroke-width: 1.5; stroke-linecap: square"/>
   </g>
   <g id="patch_3">
    <path d="M 90 149.675294 
L 90 51.84 
" style="fill: none; stroke: #000000; stroke-width: 0.8; stroke-linejoin: miter; stroke-linecap: square"/>
   </g>
   <g id="patch_4">
    <path d="M 648 149.675294 
L 648 51.84 
" style="fill: none; stroke: #000000; stroke-width: 0.8; stroke-linejoin: miter; stroke-linecap: square"/>
   </g>
   <g id="patch_5">
    <path d="M 90 149.675294 
L 648 149.675294 
" style="fill: none; stroke: #000000; stroke-width: 0.8; stroke-linejoin: miter; stroke-linecap: square"/>
   </g>
   <g id="patch_6">
    <path d="M 90 51.84 
L 648 51.84 
" style="fill: none; stroke: #000000; stroke-width: 0.8; stroke-linejoin: miter; stroke-linecap: square"/>
   </g>
   <g id="legend_1">
    <g id="patch_7">
     <path d="M 526.56375 79.05375 
L 639.6 79.05375 
Q 642 79.05375 642 76.65375 
L 642 60.24 
Q 642 57.84 639.6 57.84 
L 526.56375 57.84 
Q 524.16375 57.84 524.16375 60.24 
L 524.16375 76.65375 
Q 524.16375 79.05375 526.56375 79.05375 
z
" style="fill: #ffffff; opacity: 0.5; stroke: #cccccc; stroke-linejoin: miter"/>
    </g>
    <g id="line2d_12">
     <path d="M 528.96375 67.558125 
L 540.96375 67.558125 
L 552.96375 67.558125 
" style="fill: none; stroke: #bc8f8f; stroke-width: 1.5; stroke-linecap: square"/>
    </g>
    <g id="text_12">
     <!-- abs(Delta X) -->
     <g transform="translate(562.56375 71.758125) scale(0.12 -0.12)">
      <defs>
       <path id="DejaVuSans-62" d="M 3116 1747 
Q 3116 2381 2855 2742 
Q 2594 3103 2138 3103 
Q 1681 3103 1420 2742 
Q 1159 2381 1159 1747 
Q 1159 1113 1420 752 
Q 1681 391 2138 391 
Q 2594 391 2855 752 
Q 3116 1113 3116 1747 
z
M 1159 2969 
Q 1341 3281 1617 3432 
Q 1894 3584 2278 3584 
Q 2916 3584 3314 3078 
Q 3713 2572 3713 1747 
Q 3713 922 3314 415 
Q 2916 -91 2278 -91 
Q 1894 -91 1617 61 
Q 1341 213 1159 525 
L 1159 0 
L 581 0 
L 581 4863 
L 1159 4863 
L 1159 2969 
z
" transform="scale(0.015625)"/>
       <path id="DejaVuSans-73" d="M 2834 3397 
L 2834 2853 
Q 2591 2978 2328 3040 
Q 2066 3103 1784 3103 
Q 1356 3103 1142 2972 
Q 928 2841 928 2578 
Q 928 2378 1081 2264 
Q 1234 2150 1697 2047 
L 1894 2003 
Q 2506 1872 2764 1633 
Q 3022 1394 3022 966 
Q 3022 478 2636 193 
Q 2250 -91 1575 -91 
Q 1294 -91 989 -36 
Q 684 19 347 128 
L 347 722 
Q 666 556 975 473 
Q 1284 391 1588 391 
Q 1994 391 2212 530 
Q 2431 669 2431 922 
Q 2431 1156 2273 1281 
Q 2116 1406 1581 1522 
L 1381 1569 
Q 847 1681 609 1914 
Q 372 2147 372 2553 
Q 372 3047 722 3315 
Q 1072 3584 1716 3584 
Q 2034 3584 2315 3537 
Q 2597 3491 2834 3397 
z
" transform="scale(0.015625)"/>
       <path id="DejaVuSans-28" d="M 1984 4856 
Q 1566 4138 1362 3434 
Q 1159 2731 1159 2009 
Q 1159 1288 1364 580 
Q 1569 -128 1984 -844 
L 1484 -844 
Q 1016 -109 783 600 
Q 550 1309 550 2009 
Q 550 2706 781 3412 
Q 1013 4119 1484 4856 
L 1984 4856 
z
" transform="scale(0.015625)"/>
       <path id="DejaVuSans-29" d="M 513 4856 
L 1013 4856 
Q 1481 4119 1714 3412 
Q 1947 2706 1947 2009 
Q 1947 1309 1714 600 
Q 1481 -109 1013 -844 
L 513 -844 
Q 928 -128 1133 580 
Q 1338 1288 1338 2009 
Q 1338 2731 1133 3434 
Q 928 4138 513 4856 
z
" transform="scale(0.015625)"/>
      </defs>
      <use xlink:href="#DejaVuSans-61"/>
      <use xlink:href="#DejaVuSans-62" x="61.279297"/>
      <use xlink:href="#DejaVuSans-73" x="124.755859"/>
      <use xlink:href="#DejaVuSans-28" x="176.855469"/>
      <use xlink:href="#DejaVuSans-44" x="215.869141"/>
      <use xlink:href="#DejaVuSans-65" x="292.871094"/>
      <use xlink:href="#DejaVuSans-6c" x="354.394531"/>
      <use xlink:href="#DejaVuSans-74" x="382.177734"/>
      <use xlink:href="#DejaVuSans-61" x="421.386719"/>
      <use xlink:href="#DejaVuSans-20" x="482.666016"/>
      <use xlink:href="#DejaVuSans-58" x="514.453125"/>
      <use xlink:href="#DejaVuSans-29" x="582.958984"/>
     </g>
    </g>
   </g>
  </g>
  <g id="axes_2">
   <g id="patch_8">
    <path d="M 90 267.077647 
L 648 267.077647 
L 648 169.242353 
L 90 169.242353 
z
" style="fill: #ffffff"/>
   </g>
   <g id="matplotlib.axis_3">
    <g id="xtick_7">
     <g id="line2d_13">
      <g>
       <use xlink:href="#mc75dcca96c" x="172.297054" y="267.077647" style="stroke: #000000; stroke-width: 0.8"/>
      </g>
     </g>
     <g id="text_13">
      <!-- 4100 -->
      <g transform="translate(159.572054 281.676085) scale(0.1 -0.1)">
       <use xlink:href="#DejaVuSans-34"/>
       <use xlink:href="#DejaVuSans-31" x="63.623047"/>
       <use xlink:href="#DejaVuSans-30" x="127.246094"/>
       <use xlink:href="#DejaVuSans-30" x="190.869141"/>
      </g>
     </g>
    </g>
    <g id="xtick_8">
     <g id="line2d_14">
      <g>
       <use xlink:href="#mc75dcca96c" x="256.031916" y="267.077647" style="stroke: #000000; stroke-width: 0.8"/>
      </g>
     </g>
     <g id="text_14">
      <!-- 4200 -->
      <g transform="translate(243.306916 281.676085) scale(0.1 -0.1)">
       <use xlink:href="#DejaVuSans-34"/>
       <use xlink:href="#DejaVuSans-32" x="63.623047"/>
       <use xlink:href="#DejaVuSans-30" x="127.246094"/>
       <use xlink:href="#DejaVuSans-30" x="190.869141"/>
      </g>
     </g>
    </g>
    <g id="xtick_9">
     <g id="line2d_15">
      <g>
       <use xlink:href="#mc75dcca96c" x="339.766779" y="267.077647" style="stroke: #000000; stroke-width: 0.8"/>
      </g>
     </g>
     <g id="text_15">
      <!-- 4300 -->
      <g transform="translate(327.041779 281.676085) scale(0.1 -0.1)">
       <use xlink:href="#DejaVuSans-34"/>
       <use xlink:href="#DejaVuSans-33" x="63.623047"/>
       <use xlink:href="#DejaVuSans-30" x="127.246094"/>
       <use xlink:href="#DejaVuSans-30" x="190.869141"/>
      </g>
     </g>
    </g>
    <g id="xtick_10">
     <g id="line2d_16">
      <g>
       <use xlink:href="#mc75dcca96c" x="423.501641" y="267.077647" style="stroke: #000000; stroke-width: 0.8"/>
      </g>
     </g>
     <g id="text_16">
      <!-- 4400 -->
      <g transform="translate(410.776641 281.676085) scale(0.1 -0.1)">
       <use xlink:href="#DejaVuSans-34"/>
       <use xlink:href="#DejaVuSans-34" x="63.623047"/>
       <use xlink:href="#DejaVuSans-30" x="127.246094"/>
       <use xlink:href="#DejaVuSans-30" x="190.869141"/>
      </g>
     </g>
    </g>
    <g id="xtick_11">
     <g id="line2d_17">
      <g>
       <use xlink:href="#mc75dcca96c" x="507.236504" y="267.077647" style="stroke: #000000; stroke-width: 0.8"/>
      </g>
     </g>
     <g id="text_17">
      <!-- 4500 -->
      <g transform="translate(494.511504 281.676085) scale(0.1 -0.1)">
       <use xlink:href="#DejaVuSans-34"/>
       <use xlink:href="#DejaVuSans-35" x="63.623047"/>
       <use xlink:href="#DejaVuSans-30" x="127.246094"/>
       <use xlink:href="#DejaVuSans-30" x="190.869141"/>
      </g>
     </g>
    </g>
    <g id="xtick_12">
     <g id="line2d_18">
      <g>
       <use xlink:href="#mc75dcca96c" x="590.971366" y="267.077647" style="stroke: #000000; stroke-width: 0.8"/>
      </g>
     </g>
     <g id="text_18">
      <!-- 4600 -->
      <g transform="translate(578.246366 281.676085) scale(0.1 -0.1)">
       <use xlink:href="#DejaVuSans-34"/>
       <use xlink:href="#DejaVuSans-36" x="63.623047"/>
       <use xlink:href="#DejaVuSans-30" x="127.246094"/>
       <use xlink:href="#DejaVuSans-30" x="190.869141"/>
      </g>
     </g>
    </g>
   </g>
   <g id="matplotlib.axis_4">
    <g id="ytick_5">
     <g id="line2d_19">
      <g>
       <use xlink:href="#maa68fe1e47" x="90" y="253.101176" style="stroke: #000000; stroke-width: 0.8"/>
      </g>
     </g>
     <g id="text_19">
      <!-- 0 -->
      <g transform="translate(76.6375 256.900395) scale(0.1 -0.1)">
       <use xlink:href="#DejaVuSans-30"/>
      </g>
     </g>
    </g>
    <g id="ytick_6">
     <g id="line2d_20">
      <g>
       <use xlink:href="#maa68fe1e47" x="90" y="225.148235" style="stroke: #000000; stroke-width: 0.8"/>
      </g>
     </g>
     <g id="text_20">
      <!-- 10 -->
      <g transform="translate(70.275 228.947454) scale(0.1 -0.1)">
       <use xlink:href="#DejaVuSans-31"/>
       <use xlink:href="#DejaVuSans-30" x="63.623047"/>
      </g>
     </g>
    </g>
    <g id="ytick_7">
     <g id="line2d_21">
      <g>
       <use xlink:href="#maa68fe1e47" x="90" y="197.195294" style="stroke: #000000; stroke-width: 0.8"/>
      </g>
     </g>
     <g id="text_21">
      <!-- 20 -->
      <g transform="translate(70.275 200.994513) scale(0.1 -0.1)">
       <use xlink:href="#DejaVuSans-32"/>
       <use xlink:href="#DejaVuSans-30" x="63.623047"/>
      </g>
     </g>
    </g>
    <g id="ytick_8">
     <g id="line2d_22">
      <g>
       <use xlink:href="#maa68fe1e47" x="90" y="169.242353" style="stroke: #000000; stroke-width: 0.8"/>
      </g>
     </g>
     <g id="text_22">
      <!-- 30 -->
      <g transform="translate(70.275 173.041572) scale(0.1 -0.1)">
       <use xlink:href="#DejaVuSans-33"/>
       <use xlink:href="#DejaVuSans-30" x="63.623047"/>
      </g>
     </g>
    </g>
    <g id="text_23">
     <!-- Delta Y -->
     <g transform="translate(63.363438 243.335938) rotate(-90) scale(0.14 -0.14)">
      <defs>
       <path id="DejaVuSans-59" d="M -13 4666 
L 666 4666 
L 1959 2747 
L 3244 4666 
L 3922 4666 
L 2272 2222 
L 2272 0 
L 1638 0 
L 1638 2222 
L -13 4666 
z
" transform="scale(0.015625)"/>
      </defs>
      <use xlink:href="#DejaVuSans-44"/>
      <use xlink:href="#DejaVuSans-65" x="77.001953"/>
      <use xlink:href="#DejaVuSans-6c" x="138.525391"/>
      <use xlink:href="#DejaVuSans-74" x="166.308594"/>
      <use xlink:href="#DejaVuSans-61" x="205.517578"/>
      <use xlink:href="#DejaVuSans-20" x="266.796875"/>
      <use xlink:href="#DejaVuSans-59" x="298.583984"/>
     </g>
    </g>
   </g>
   <g id="line2d_23">
    <path d="M 90 253.101176 
L 106.858006 253.072989 
L 107.700906 252.959373 
L 110.229607 253.060703 
L 113.601208 253.095397 
L 124.558912 253.03259 
L 127.087613 253.061394 
L 131.302115 253.063177 
L 132.987915 253.091508 
L 154.060423 253.039257 
L 156.589124 253.073281 
L 158.274924 253.084136 
L 161.646526 253.073516 
L 162.489426 252.90629 
L 178.504532 253.09893 
L 207.163142 253.091017 
L 254.365559 253.035939 
L 256.05136 253.084852 
L 293.981873 253.045726 
L 353.827795 252.995667 
L 354.670695 252.946605 
L 355.513595 253.08855 
L 363.942598 252.95511 
L 364.785498 253.098768 
L 367.314199 253.068009 
L 374.900302 252.954457 
L 375.743202 252.890974 
L 376.586103 253.085373 
L 380.800604 252.966689 
L 381.643505 253.098283 
L 384.172205 253.098411 
L 388.386707 252.984242 
L 389.229607 253.098727 
L 393.444109 253.002067 
L 394.287009 253.09933 
L 398.501511 253.079093 
L 402.716012 253.097527 
L 411.987915 253.090029 
L 422.102719 253.096902 
L 445.703927 252.944995 
L 446.546828 253.08654 
L 449.918429 252.987757 
L 451.60423 253.091221 
L 453.29003 252.964298 
L 454.132931 253.064459 
L 458.347432 252.993406 
L 460.033233 253.053052 
L 461.719033 253.075259 
L 468.462236 253.066794 
L 472.676737 253.099757 
L 503.021148 253.016599 
L 504.706949 253.092718 
L 508.92145 253.05109 
L 534.208459 253.03903 
L 535.05136 251.649541 
L 535.89426 251.384083 
L 538.422961 251.621351 
L 539.265861 252.810919 
L 540.108761 253.087804 
L 540.951662 252.979503 
L 541.794562 252.628986 
L 543.480363 252.90241 
L 545.166163 253.069246 
L 546.009063 252.966376 
L 550.223565 253.076414 
L 551.066465 252.983965 
L 551.909366 253.054176 
L 552.752266 252.987257 
L 553.595166 253.098981 
L 562.024169 252.96237 
L 562.867069 253.093595 
L 573.824773 253.077607 
L 574.667674 253.096778 
L 575.510574 247.844768 
L 576.353474 246.539974 
L 577.196375 246.656801 
L 578.039275 246.619622 
L 578.882175 247.15705 
L 579.725076 247.161871 
L 580.567976 247.75337 
L 582.253776 247.795461 
L 583.096677 251.820492 
L 583.939577 252.794131 
L 584.782477 253.023885 
L 586.468278 253.092628 
L 591.52568 253.049426 
L 592.36858 252.993555 
L 594.054381 253.082129 
L 602.483384 253.100787 
L 647.1571 253.084729 
L 647.1571 253.084729 
" clip-path="url(#pcb45382764)" style="fill: none; stroke: #c0c0c0; stroke-width: 1.5; stroke-linecap: square"/>
   </g>
   <g id="patch_9">
    <path d="M 90 267.077647 
L 90 169.242353 
" style="fill: none; stroke: #000000; stroke-width: 0.8; stroke-linejoin: miter; stroke-linecap: square"/>
   </g>
   <g id="patch_10">
    <path d="M 648 267.077647 
L 648 169.242353 
" style="fill: none; stroke: #000000; stroke-width: 0.8; stroke-linejoin: miter; stroke-linecap: square"/>
   </g>
   <g id="patch_11">
    <path d="M 90 267.077647 
L 648 267.077647 
" style="fill: none; stroke: #000000; stroke-width: 0.8; stroke-linejoin: miter; stroke-linecap: square"/>
   </g>
   <g id="patch_12">
    <path d="M 90 169.242353 
L 648 169.242353 
" style="fill: none; stroke: #000000; stroke-width: 0.8; stroke-linejoin: miter; stroke-linecap: square"/>
   </g>
   <g id="legend_2">
    <g id="patch_13">
     <path d="M 527.454375 196.456103 
L 639.6 196.456103 
Q 642 196.456103 642 194.056103 
L 642 177.642353 
Q 642 175.242353 639.6 175.242353 
L 527.454375 175.242353 
Q 525.054375 175.242353 525.054375 177.642353 
L 525.054375 194.056103 
Q 525.054375 196.456103 527.454375 196.456103 
z
" style="fill: #ffffff; opacity: 0.5; stroke: #cccccc; stroke-linejoin: miter"/>
    </g>
    <g id="line2d_24">
     <path d="M 529.854375 184.960478 
L 541.854375 184.960478 
L 553.854375 184.960478 
" style="fill: none; stroke: #c0c0c0; stroke-width: 1.5; stroke-linecap: square"/>
    </g>
    <g id="text_24">
     <!-- abs(Delta Y) -->
     <g transform="translate(563.454375 189.160478) scale(0.12 -0.12)">
      <use xlink:href="#DejaVuSans-61"/>
      <use xlink:href="#DejaVuSans-62" x="61.279297"/>
      <use xlink:href="#DejaVuSans-73" x="124.755859"/>
      <use xlink:href="#DejaVuSans-28" x="176.855469"/>
      <use xlink:href="#DejaVuSans-44" x="215.869141"/>
      <use xlink:href="#DejaVuSans-65" x="292.871094"/>
      <use xlink:href="#DejaVuSans-6c" x="354.394531"/>
      <use xlink:href="#DejaVuSans-74" x="382.177734"/>
      <use xlink:href="#DejaVuSans-61" x="421.386719"/>
      <use xlink:href="#DejaVuSans-20" x="482.666016"/>
      <use xlink:href="#DejaVuSans-59" x="514.453125"/>
      <use xlink:href="#DejaVuSans-29" x="575.537109"/>
     </g>
    </g>
   </g>
  </g>
  <g id="axes_3">
   <g id="patch_14">
    <path d="M 90 384.48 
L 648 384.48 
L 648 286.644706 
L 90 286.644706 
z
" style="fill: #ffffff"/>
   </g>
   <g id="matplotlib.axis_5">
    <g id="xtick_13">
     <g id="line2d_25">
      <g>
       <use xlink:href="#mc75dcca96c" x="172.297054" y="384.48" style="stroke: #000000; stroke-width: 0.8"/>
      </g>
     </g>
     <g id="text_25">
      <!-- 4100 -->
      <g transform="translate(159.572054 399.078438) scale(0.1 -0.1)">
       <use xlink:href="#DejaVuSans-34"/>
       <use xlink:href="#DejaVuSans-31" x="63.623047"/>
       <use xlink:href="#DejaVuSans-30" x="127.246094"/>
       <use xlink:href="#DejaVuSans-30" x="190.869141"/>
      </g>
     </g>
    </g>
    <g id="xtick_14">
     <g id="line2d_26">
      <g>
       <use xlink:href="#mc75dcca96c" x="256.031916" y="384.48" style="stroke: #000000; stroke-width: 0.8"/>
      </g>
     </g>
     <g id="text_26">
      <!-- 4200 -->
      <g transform="translate(243.306916 399.078438) scale(0.1 -0.1)">
       <use xlink:href="#DejaVuSans-34"/>
       <use xlink:href="#DejaVuSans-32" x="63.623047"/>
       <use xlink:href="#DejaVuSans-30" x="127.246094"/>
       <use xlink:href="#DejaVuSans-30" x="190.869141"/>
      </g>
     </g>
    </g>
    <g id="xtick_15">
     <g id="line2d_27">
      <g>
       <use xlink:href="#mc75dcca96c" x="339.766779" y="384.48" style="stroke: #000000; stroke-width: 0.8"/>
      </g>
     </g>
     <g id="text_27">
      <!-- 4300 -->
      <g transform="translate(327.041779 399.078438) scale(0.1 -0.1)">
       <use xlink:href="#DejaVuSans-34"/>
       <use xlink:href="#DejaVuSans-33" x="63.623047"/>
       <use xlink:href="#DejaVuSans-30" x="127.246094"/>
       <use xlink:href="#DejaVuSans-30" x="190.869141"/>
      </g>
     </g>
    </g>
    <g id="xtick_16">
     <g id="line2d_28">
      <g>
       <use xlink:href="#mc75dcca96c" x="423.501641" y="384.48" style="stroke: #000000; stroke-width: 0.8"/>
      </g>
     </g>
     <g id="text_28">
      <!-- 4400 -->
      <g transform="translate(410.776641 399.078438) scale(0.1 -0.1)">
       <use xlink:href="#DejaVuSans-34"/>
       <use xlink:href="#DejaVuSans-34" x="63.623047"/>
       <use xlink:href="#DejaVuSans-30" x="127.246094"/>
       <use xlink:href="#DejaVuSans-30" x="190.869141"/>
      </g>
     </g>
    </g>
    <g id="xtick_17">
     <g id="line2d_29">
      <g>
       <use xlink:href="#mc75dcca96c" x="507.236504" y="384.48" style="stroke: #000000; stroke-width: 0.8"/>
      </g>
     </g>
     <g id="text_29">
      <!-- 4500 -->
      <g transform="translate(494.511504 399.078438) scale(0.1 -0.1)">
       <use xlink:href="#DejaVuSans-34"/>
       <use xlink:href="#DejaVuSans-35" x="63.623047"/>
       <use xlink:href="#DejaVuSans-30" x="127.246094"/>
       <use xlink:href="#DejaVuSans-30" x="190.869141"/>
      </g>
     </g>
    </g>
    <g id="xtick_18">
     <g id="line2d_30">
      <g>
       <use xlink:href="#mc75dcca96c" x="590.971366" y="384.48" style="stroke: #000000; stroke-width: 0.8"/>
      </g>
     </g>
     <g id="text_30">
      <!-- 4600 -->
      <g transform="translate(578.246366 399.078438) scale(0.1 -0.1)">
       <use xlink:href="#DejaVuSans-34"/>
       <use xlink:href="#DejaVuSans-36" x="63.623047"/>
       <use xlink:href="#DejaVuSans-30" x="127.246094"/>
       <use xlink:href="#DejaVuSans-30" x="190.869141"/>
      </g>
     </g>
    </g>
    <g id="text_31">
     <!-- Time step -->
     <g transform="translate(334.506406 421.795937) scale(0.14 -0.14)">
      <defs>
       <path id="DejaVuSans-54" d="M -19 4666 
L 3928 4666 
L 3928 4134 
L 2272 4134 
L 2272 0 
L 1638 0 
L 1638 4134 
L -19 4134 
L -19 4666 
z
" transform="scale(0.015625)"/>
       <path id="DejaVuSans-69" d="M 603 3500 
L 1178 3500 
L 1178 0 
L 603 0 
L 603 3500 
z
M 603 4863 
L 1178 4863 
L 1178 4134 
L 603 4134 
L 603 4863 
z
" transform="scale(0.015625)"/>
       <path id="DejaVuSans-6d" d="M 3328 2828 
Q 3544 3216 3844 3400 
Q 4144 3584 4550 3584 
Q 5097 3584 5394 3201 
Q 5691 2819 5691 2113 
L 5691 0 
L 5113 0 
L 5113 2094 
Q 5113 2597 4934 2840 
Q 4756 3084 4391 3084 
Q 3944 3084 3684 2787 
Q 3425 2491 3425 1978 
L 3425 0 
L 2847 0 
L 2847 2094 
Q 2847 2600 2669 2842 
Q 2491 3084 2119 3084 
Q 1678 3084 1418 2786 
Q 1159 2488 1159 1978 
L 1159 0 
L 581 0 
L 581 3500 
L 1159 3500 
L 1159 2956 
Q 1356 3278 1631 3431 
Q 1906 3584 2284 3584 
Q 2666 3584 2933 3390 
Q 3200 3197 3328 2828 
z
" transform="scale(0.015625)"/>
       <path id="DejaVuSans-70" d="M 1159 525 
L 1159 -1331 
L 581 -1331 
L 581 3500 
L 1159 3500 
L 1159 2969 
Q 1341 3281 1617 3432 
Q 1894 3584 2278 3584 
Q 2916 3584 3314 3078 
Q 3713 2572 3713 1747 
Q 3713 922 3314 415 
Q 2916 -91 2278 -91 
Q 1894 -91 1617 61 
Q 1341 213 1159 525 
z
M 3116 1747 
Q 3116 2381 2855 2742 
Q 2594 3103 2138 3103 
Q 1681 3103 1420 2742 
Q 1159 2381 1159 1747 
Q 1159 1113 1420 752 
Q 1681 391 2138 391 
Q 2594 391 2855 752 
Q 3116 1113 3116 1747 
z
" transform="scale(0.015625)"/>
      </defs>
      <use xlink:href="#DejaVuSans-54"/>
      <use xlink:href="#DejaVuSans-69" x="57.958984"/>
      <use xlink:href="#DejaVuSans-6d" x="85.742188"/>
      <use xlink:href="#DejaVuSans-65" x="183.154297"/>
      <use xlink:href="#DejaVuSans-20" x="244.677734"/>
      <use xlink:href="#DejaVuSans-73" x="276.464844"/>
      <use xlink:href="#DejaVuSans-74" x="328.564453"/>
      <use xlink:href="#DejaVuSans-65" x="367.773438"/>
      <use xlink:href="#DejaVuSans-70" x="429.296875"/>
     </g>
    </g>
   </g>
   <g id="matplotlib.axis_6">
    <g id="ytick_9">
     <g id="line2d_31">
      <g>
       <use xlink:href="#maa68fe1e47" x="90" y="364.912941" style="stroke: #000000; stroke-width: 0.8"/>
      </g>
     </g>
     <g id="text_32">
      <!-- 0 -->
      <g transform="translate(76.6375 368.71216) scale(0.1 -0.1)">
       <use xlink:href="#DejaVuSans-30"/>
      </g>
     </g>
    </g>
    <g id="ytick_10">
     <g id="line2d_32">
      <g>
       <use xlink:href="#maa68fe1e47" x="90" y="325.778824" style="stroke: #000000; stroke-width: 0.8"/>
      </g>
     </g>
     <g id="text_33">
      <!-- 10 -->
      <g transform="translate(70.275 329.578042) scale(0.1 -0.1)">
       <use xlink:href="#DejaVuSans-31"/>
       <use xlink:href="#DejaVuSans-30" x="63.623047"/>
      </g>
     </g>
    </g>
    <g id="ytick_11">
     <g id="line2d_33">
      <g>
       <use xlink:href="#maa68fe1e47" x="90" y="286.644706" style="stroke: #000000; stroke-width: 0.8"/>
      </g>
     </g>
     <g id="text_34">
      <!-- 20 -->
      <g transform="translate(70.275 290.443925) scale(0.1 -0.1)">
       <use xlink:href="#DejaVuSans-32"/>
       <use xlink:href="#DejaVuSans-30" x="63.623047"/>
      </g>
     </g>
    </g>
    <g id="text_35">
     <!-- Delta Theta -->
     <g transform="translate(63.363438 376.515634) rotate(-90) scale(0.14 -0.14)">
      <defs>
       <path id="DejaVuSans-68" d="M 3513 2113 
L 3513 0 
L 2938 0 
L 2938 2094 
Q 2938 2591 2744 2837 
Q 2550 3084 2163 3084 
Q 1697 3084 1428 2787 
Q 1159 2491 1159 1978 
L 1159 0 
L 581 0 
L 581 4863 
L 1159 4863 
L 1159 2956 
Q 1366 3272 1645 3428 
Q 1925 3584 2291 3584 
Q 2894 3584 3203 3211 
Q 3513 2838 3513 2113 
z
" transform="scale(0.015625)"/>
      </defs>
      <use xlink:href="#DejaVuSans-44"/>
      <use xlink:href="#DejaVuSans-65" x="77.001953"/>
      <use xlink:href="#DejaVuSans-6c" x="138.525391"/>
      <use xlink:href="#DejaVuSans-74" x="166.308594"/>
      <use xlink:href="#DejaVuSans-61" x="205.517578"/>
      <use xlink:href="#DejaVuSans-20" x="266.796875"/>
      <use xlink:href="#DejaVuSans-54" x="298.583984"/>
      <use xlink:href="#DejaVuSans-68" x="359.667969"/>
      <use xlink:href="#DejaVuSans-65" x="423.046875"/>
      <use xlink:href="#DejaVuSans-74" x="484.570312"/>
      <use xlink:href="#DejaVuSans-61" x="523.779297"/>
     </g>
    </g>
   </g>
   <g id="line2d_34">
    <path d="M 90 364.912941 
L 93.371601 364.912941 
L 95.057402 357.592843 
L 95.900302 358.025169 
L 96.743202 364.639978 
L 97.586103 361.334825 
L 98.429003 361.182206 
L 99.271903 361.176158 
L 100.114804 364.764852 
L 100.957704 357.740942 
L 101.800604 361.608234 
L 102.643505 354.015173 
L 103.486405 361.755886 
L 104.329305 364.787827 
L 106.858006 354.436227 
L 107.700906 357.31988 
L 108.543807 361.023094 
L 109.386707 361.478162 
L 110.229607 354.010018 
L 111.072508 364.480858 
L 111.915408 354.163262 
L 112.758308 361.750017 
L 113.601208 364.787594 
L 114.444109 361.328975 
L 115.287009 361.181974 
L 122.873112 361.175908 
L 124.558912 353.85581 
L 125.401813 361.762202 
L 126.244713 361.448871 
L 127.087613 354.28342 
L 127.930514 360.902759 
L 128.773414 361.482931 
L 129.616314 357.599141 
L 130.459215 354.435985 
L 131.302115 353.730936 
L 132.145015 358.178216 
L 132.987915 361.05711 
L 133.830816 364.760134 
L 134.673716 364.906885 
L 137.202417 364.912941 
L 139.731118 354.436235 
L 140.574018 357.31988 
L 142.259819 364.758786 
L 143.102719 361.330116 
L 143.945619 354.288126 
L 144.78852 360.902945 
L 145.63142 361.482923 
L 146.47432 354.282071 
L 147.317221 360.902705 
L 148.160121 361.482933 
L 149.003021 354.010207 
L 149.845921 358.167149 
L 150.688822 361.056671 
L 152.374622 361.175721 
L 154.060423 354.436468 
L 154.903323 360.908824 
L 155.746224 361.48269 
L 156.589124 354.010198 
L 157.432024 361.756083 
L 158.274924 361.449113 
L 159.117825 354.008867 
L 159.960725 361.756136 
L 160.803625 361.449111 
L 161.646526 354.008867 
L 162.489426 361.756136 
L 163.332326 361.449111 
L 164.175227 354.008867 
L 165.018127 361.756136 
L 165.861027 361.449111 
L 166.703927 354.283411 
L 167.546828 360.902758 
L 168.389728 361.482931 
L 169.232628 354.010207 
L 170.075529 361.756083 
L 170.918429 361.449113 
L 171.761329 354.008867 
L 172.60423 361.756136 
L 173.44713 361.449111 
L 174.29003 354.283411 
L 175.132931 360.902758 
L 175.975831 361.482931 
L 176.818731 354.28207 
L 177.661631 360.902705 
L 178.504532 361.482933 
L 179.347432 354.28207 
L 180.190332 357.313771 
L 181.033233 361.022852 
L 181.876133 361.169843 
L 182.719033 361.175668 
L 184.404834 353.85581 
L 185.247734 358.173268 
L 186.090634 357.467979 
L 187.776435 364.759019 
L 190.305136 354.436225 
L 191.148036 354.561332 
L 191.990937 353.735904 
L 192.833837 354.589085 
L 193.676737 353.737004 
L 194.519637 354.589042 
L 196.205438 354.556614 
L 197.048338 353.735717 
L 197.891239 354.589093 
L 198.734139 354.555273 
L 199.577039 353.735664 
L 200.41994 354.589095 
L 201.26284 353.737004 
L 202.10574 354.589042 
L 202.94864 354.555275 
L 203.791541 353.735664 
L 204.634441 354.589095 
L 205.477341 354.555273 
L 206.320242 353.735664 
L 207.163142 354.589095 
L 208.006042 354.555273 
L 208.848943 353.735664 
L 209.691843 354.589095 
L 211.377644 354.556614 
L 212.220544 358.145495 
L 213.063444 361.055813 
L 213.906344 361.476865 
L 214.749245 354.009967 
L 215.592145 364.480856 
L 216.435045 354.163262 
L 217.277946 364.486931 
L 218.120846 354.163022 
L 218.963746 364.486921 
L 219.806647 354.129256 
L 220.649547 364.485583 
L 221.492447 354.163075 
L 222.335347 364.486923 
L 223.178248 354.163022 
L 224.021148 360.897987 
L 224.864048 361.48312 
L 225.706949 354.010215 
L 226.549849 361.756083 
L 227.392749 361.449114 
L 228.23565 354.008867 
L 229.07855 361.756136 
L 229.92145 361.449111 
L 230.76435 354.008867 
L 231.607251 361.756136 
L 232.450151 361.449111 
L 233.293051 354.283411 
L 234.135952 360.902758 
L 234.978852 361.482931 
L 235.821752 354.28207 
L 236.664653 360.902705 
L 237.507553 361.482933 
L 238.350453 354.010207 
L 239.193353 361.756083 
L 240.036254 361.449113 
L 240.879154 354.008867 
L 241.722054 361.756136 
L 242.564955 361.449111 
L 243.407855 354.283411 
L 244.250755 360.902758 
L 245.093656 361.482931 
L 245.936556 354.010207 
L 246.779456 361.756083 
L 247.622356 361.449113 
L 248.465257 354.008867 
L 249.308157 361.756136 
L 250.151057 361.449111 
L 250.993958 357.872345 
L 251.836858 361.603026 
L 252.679758 361.455179 
L 253.522659 354.009107 
L 254.365559 358.167192 
L 255.208459 361.056673 
L 256.89426 361.175721 
L 260.265861 361.175908 
L 261.951662 353.85581 
L 262.794562 358.173268 
L 263.637462 361.056913 
L 264.480363 364.760127 
L 266.166163 357.593083 
L 267.009063 357.444987 
L 283.024169 357.438875 
L 302.410876 357.438875 
L 304.096677 364.758973 
L 304.939577 361.330109 
L 305.782477 354.288127 
L 306.625378 360.902945 
L 307.468278 361.482923 
L 308.311178 357.871005 
L 309.154079 361.603079 
L 309.996979 357.866243 
L 310.839879 361.603268 
L 311.682779 357.866235 
L 312.52568 361.603268 
L 313.36858 357.866235 
L 314.21148 361.603268 
L 315.054381 357.866235 
L 315.897281 361.603268 
L 316.740181 357.866235 
L 317.583082 361.603268 
L 318.425982 357.866235 
L 319.268882 361.603268 
L 320.111782 357.866235 
L 320.954683 361.603268 
L 321.797583 357.866235 
L 322.640483 361.603268 
L 323.483384 357.866235 
L 324.326284 361.603268 
L 325.169184 357.866235 
L 326.012085 361.603268 
L 326.854985 357.866235 
L 327.697885 361.603268 
L 328.540785 357.866235 
L 329.383686 364.63368 
L 331.069486 357.593282 
L 331.912387 357.444994 
L 335.283988 357.438875 
L 336.126888 361.027809 
L 336.969789 361.170039 
L 338.655589 361.175899 
L 339.498489 364.764842 
L 340.34139 364.907072 
L 341.18429 364.912709 
L 343.712991 354.436235 
L 344.555891 357.31988 
L 346.241692 364.758786 
L 348.770393 354.436225 
L 349.613293 357.31988 
L 351.299094 364.758786 
L 352.984894 357.593085 
L 353.827795 353.856052 
L 354.670695 358.173258 
L 355.513595 361.056913 
L 356.356495 364.760127 
L 358.885196 354.436225 
L 359.728097 357.31988 
L 361.413897 364.758786 
L 363.099698 357.593085 
L 363.942598 358.025159 
L 364.785498 364.639978 
L 365.628399 357.74589 
L 366.471299 358.019104 
L 367.314199 361.050804 
L 368.1571 364.759884 
L 369 361.330073 
L 369.8429 361.182018 
L 373.214502 361.175908 
L 374.900302 353.85581 
L 375.743202 358.173268 
L 376.586103 364.645848 
L 377.429003 357.745658 
L 378.271903 358.019113 
L 379.114804 364.639738 
L 379.957704 357.7459 
L 380.800604 358.019103 
L 381.643505 364.639738 
L 382.486405 357.7459 
L 383.329305 358.019103 
L 384.172205 364.639738 
L 385.015106 357.7459 
L 385.858006 358.019103 
L 386.700906 364.639738 
L 387.543807 357.7459 
L 388.386707 358.019103 
L 389.229607 364.639738 
L 390.072508 357.7459 
L 390.915408 358.019103 
L 391.758308 364.639738 
L 392.601208 357.7459 
L 393.444109 358.019103 
L 394.287009 364.639738 
L 395.129909 357.7459 
L 395.97281 358.019103 
L 396.81571 364.639738 
L 397.65861 357.7459 
L 398.501511 358.019103 
L 399.344411 364.639738 
L 400.187311 357.7459 
L 401.030211 358.019103 
L 401.873112 364.639738 
L 402.716012 357.7459 
L 403.558912 358.019103 
L 404.401813 361.050804 
L 405.244713 361.477064 
L 406.087613 357.598909 
L 406.930514 358.024928 
L 407.773414 364.639969 
L 408.616314 357.745891 
L 409.459215 358.019103 
L 410.302115 364.639738 
L 411.145015 357.7459 
L 411.987915 358.019103 
L 412.830816 361.050804 
L 413.673716 364.759884 
L 415.359517 357.593084 
L 416.202417 357.444987 
L 417.888218 357.438885 
L 419.574018 364.758973 
L 421.259819 357.593085 
L 422.102719 353.856052 
L 422.945619 358.173258 
L 423.78852 364.645847 
L 424.63142 357.745658 
L 425.47432 358.019113 
L 426.317221 364.639738 
L 427.160121 357.7459 
L 428.003021 358.019103 
L 428.845921 364.639738 
L 429.688822 357.7459 
L 430.531722 358.019103 
L 431.374622 364.639738 
L 432.217523 357.7459 
L 433.060423 358.019103 
L 433.903323 364.639738 
L 434.746224 357.7459 
L 435.589124 358.019103 
L 436.432024 364.639738 
L 437.274924 357.7459 
L 438.117825 358.019103 
L 438.960725 364.639738 
L 439.803625 357.7459 
L 440.646526 358.019103 
L 441.489426 361.050804 
L 442.332326 364.759884 
L 444.018127 357.593084 
L 444.861027 353.856052 
L 445.703927 358.173258 
L 446.546828 361.056913 
L 448.232628 361.175721 
L 449.918429 354.436468 
L 450.761329 360.908824 
L 451.60423 361.48269 
L 452.44713 354.010198 
L 453.29003 361.756083 
L 454.132931 361.449113 
L 454.975831 354.28341 
L 455.818731 360.902758 
L 456.661631 361.482931 
L 457.504532 354.010207 
L 458.347432 361.756083 
L 459.190332 361.449113 
L 460.033233 354.008867 
L 460.876133 361.756136 
L 461.719033 361.449111 
L 462.561934 354.008867 
L 463.404834 361.756136 
L 464.247734 361.449111 
L 465.090634 354.283411 
L 465.933535 360.902758 
L 466.776435 361.482931 
L 467.619335 354.010207 
L 468.462236 361.756083 
L 469.305136 361.449113 
L 470.148036 354.28341 
L 470.990937 360.902758 
L 471.833837 361.482931 
L 472.676737 354.28207 
L 473.519637 360.902705 
L 474.362538 361.482933 
L 475.205438 354.28207 
L 476.048338 360.902705 
L 476.891239 361.482933 
L 477.734139 354.010207 
L 478.577039 361.756083 
L 479.41994 361.449113 
L 480.26284 354.008867 
L 481.10574 361.756136 
L 481.94864 361.449111 
L 482.791541 354.283411 
L 483.634441 360.902758 
L 484.477341 361.482931 
L 485.320242 354.010207 
L 486.163142 361.756083 
L 487.006042 364.787835 
L 489.534743 354.436227 
L 490.377644 357.31988 
L 492.063444 364.758786 
L 493.749245 357.593085 
L 494.592145 353.856052 
L 495.435045 354.584324 
L 496.277946 354.555462 
L 497.120846 358.14554 
L 497.963746 361.055815 
L 498.806647 364.760083 
L 499.649547 357.741131 
L 500.492447 358.019292 
L 501.335347 364.639745 
L 502.178248 357.7459 
L 503.021148 358.019103 
L 503.864048 364.639738 
L 505.549849 357.593272 
L 506.392749 357.444994 
L 511.450151 357.438875 
L 512.293051 361.027809 
L 513.135952 361.170039 
L 529.993958 361.175908 
L 534.208459 361.175908 
L 535.05136 357.586974 
L 535.89426 358.025401 
L 536.73716 364.639988 
L 537.58006 354.156956 
L 538.422961 364.486681 
L 539.265861 357.751966 
L 540.108761 358.018863 
L 540.951662 364.639728 
L 541.794562 357.7459 
L 542.637462 358.019103 
L 543.480363 364.639738 
L 544.323263 357.7459 
L 545.166163 358.019103 
L 546.009063 364.639738 
L 546.851964 357.7459 
L 547.694864 358.019103 
L 548.537764 364.639738 
L 549.380665 357.7459 
L 550.223565 358.019103 
L 551.066465 361.59721 
L 551.909366 357.866475 
L 552.752266 358.014325 
L 553.595166 364.639549 
L 555.280967 357.593273 
L 556.123867 353.85606 
L 556.966767 358.173258 
L 557.809668 361.056913 
L 558.652568 364.760127 
L 560.338369 357.593083 
L 561.181269 353.856052 
L 562.024169 358.173258 
L 562.867069 361.056913 
L 563.70997 364.760127 
L 566.238671 354.436225 
L 567.081571 357.31988 
L 568.767372 364.758786 
L 571.296073 354.436225 
L 572.138973 357.31988 
L 573.824773 364.758786 
L 576.353474 354.436225 
L 577.196375 360.908814 
L 578.039275 361.482691 
L 578.882175 357.871014 
L 579.725076 361.603079 
L 580.567976 361.455177 
L 581.410876 354.009107 
L 582.253776 361.756127 
L 583.096677 361.449112 
L 583.939577 354.008867 
L 584.782477 361.756136 
L 585.625378 361.449111 
L 586.468278 354.008867 
L 587.311178 361.756136 
L 588.154079 361.449111 
L 588.996979 357.872345 
L 589.839879 361.603026 
L 590.682779 361.455179 
L 591.52568 354.009107 
L 592.36858 358.167192 
L 593.21148 361.056673 
L 594.054381 364.760117 
L 594.897281 364.906885 
L 604.169184 364.912941 
L 605.854985 357.592843 
L 606.697885 358.025169 
L 607.540785 364.639978 
L 608.383686 357.74589 
L 609.226586 358.019104 
L 610.069486 364.639738 
L 610.912387 357.7459 
L 611.755287 358.019103 
L 612.598187 364.639738 
L 613.441088 357.7459 
L 614.283988 358.019103 
L 615.126888 364.639738 
L 615.969789 357.7459 
L 616.812689 358.019103 
L 617.655589 364.639738 
L 618.498489 357.7459 
L 619.34139 358.019103 
L 620.18429 364.639738 
L 621.02719 357.7459 
L 621.870091 358.019103 
L 622.712991 364.639738 
L 625.241692 354.436218 
L 626.084592 353.730946 
L 630.299094 353.701842 
L 631.141994 354.590435 
L 631.984894 353.737057 
L 635.356495 353.701842 
L 640.413897 353.701842 
L 641.256798 354.590435 
L 642.099698 354.55522 
L 642.942598 353.735662 
L 646.314199 353.701842 
L 647.1571 354.590435 
L 647.1571 354.590435 
" clip-path="url(#p755e265cf0)" style="fill: none; stroke: #c0c0c0; stroke-width: 1.5; stroke-linecap: square"/>
   </g>
   <g id="patch_15">
    <path d="M 90 384.48 
L 90 286.644706 
" style="fill: none; stroke: #000000; stroke-width: 0.8; stroke-linejoin: miter; stroke-linecap: square"/>
   </g>
   <g id="patch_16">
    <path d="M 648 384.48 
L 648 286.644706 
" style="fill: none; stroke: #000000; stroke-width: 0.8; stroke-linejoin: miter; stroke-linecap: square"/>
   </g>
   <g id="patch_17">
    <path d="M 90 384.48 
L 648 384.48 
" style="fill: none; stroke: #000000; stroke-width: 0.8; stroke-linejoin: miter; stroke-linecap: square"/>
   </g>
   <g id="patch_18">
    <path d="M 90 286.644706 
L 648 286.644706 
" style="fill: none; stroke: #000000; stroke-width: 0.8; stroke-linejoin: miter; stroke-linecap: square"/>
   </g>
   <g id="legend_3">
    <g id="patch_19">
     <path d="M 500.4075 313.858456 
L 639.6 313.858456 
Q 642 313.858456 642 311.458456 
L 642 295.044706 
Q 642 292.644706 639.6 292.644706 
L 500.4075 292.644706 
Q 498.0075 292.644706 498.0075 295.044706 
L 498.0075 311.458456 
Q 498.0075 313.858456 500.4075 313.858456 
z
" style="fill: #ffffff; opacity: 0.5; stroke: #cccccc; stroke-linejoin: miter"/>
    </g>
    <g id="line2d_35">
     <path d="M 502.8075 302.362831 
L 514.8075 302.362831 
L 526.8075 302.362831 
" style="fill: none; stroke: #c0c0c0; stroke-width: 1.5; stroke-linecap: square"/>
    </g>
    <g id="text_36">
     <!-- abs(Delta Theta) -->
     <g transform="translate(536.4075 306.562831) scale(0.12 -0.12)">
      <use xlink:href="#DejaVuSans-61"/>
      <use xlink:href="#DejaVuSans-62" x="61.279297"/>
      <use xlink:href="#DejaVuSans-73" x="124.755859"/>
      <use xlink:href="#DejaVuSans-28" x="176.855469"/>
      <use xlink:href="#DejaVuSans-44" x="215.869141"/>
      <use xlink:href="#DejaVuSans-65" x="292.871094"/>
      <use xlink:href="#DejaVuSans-6c" x="354.394531"/>
      <use xlink:href="#DejaVuSans-74" x="382.177734"/>
      <use xlink:href="#DejaVuSans-61" x="421.386719"/>
      <use xlink:href="#DejaVuSans-20" x="482.666016"/>
      <use xlink:href="#DejaVuSans-54" x="514.453125"/>
      <use xlink:href="#DejaVuSans-68" x="575.537109"/>
      <use xlink:href="#DejaVuSans-65" x="638.916016"/>
      <use xlink:href="#DejaVuSans-74" x="700.439453"/>
      <use xlink:href="#DejaVuSans-61" x="739.648438"/>
      <use xlink:href="#DejaVuSans-29" x="800.927734"/>
     </g>
    </g>
   </g>
  </g>
 </g>
 <defs>
  <clipPath id="p9598cb54b6">
   <rect x="90" y="51.84" width="558" height="97.835294"/>
  </clipPath>
  <clipPath id="pcb45382764">
   <rect x="90" y="169.242353" width="558" height="97.835294"/>
  </clipPath>
  <clipPath id="p755e265cf0">
   <rect x="90" y="286.644706" width="558" height="97.835294"/>
  </clipPath>
 </defs>
</svg>
